M48
;Layer_Color=9474304
;FILE_FORMAT=2:5
INCH,LZ
;TYPE=PLATED
T1F00S00C0.01000
T2F00S00C0.01181
T3F00S00C0.02362
T5F00S00C0.03100
T7F00S00C0.03543
T8F00S00C0.03937
T10F00S00C0.04200
T11F00S00C0.12000
;TYPE=NON_PLATED
T12F00S00C0.05118
T13F00S00C0.07087
T14F00S00C0.14567
%
T01
X003375Y000835
X00514Y00087
X00559Y00136
X00609Y00087
X00729Y00084
X00903Y00089
X00988
X00775Y00245
X00685Y00335
X00593Y00517
X00807Y00521
X00882Y0047
X00978Y00579
X00966Y00695
X00882Y00681
X00744Y00716
Y00755
Y00595
X00679Y00884
X00657Y01166
X0062Y01251
X00658Y01328
X00828Y01289
X01041Y0124
X0103599Y01406
X01024Y01491
X00544Y01503
X00432Y01504
X00242Y01496
X00091Y00926
X0021896Y00666
X0024Y00685
X0026296Y00583
X0022796Y0055
X00339Y0058
X0033629Y0064167
X0036529Y0065667
X00406Y00402
X00296Y00336
X00375Y00245
X01154
X01067Y0033483
X01049Y0012
X01283Y0009
X0137
X01491Y00083
X01663Y00091
X01746
X01869Y00084
X02043Y00089
X02132
X02074Y00166
X01914Y00243
X01826Y00334
X01898Y00581
X01899Y00623
Y00665
X02039Y00655
X02042Y00585
X02046Y00736
X02072Y00962
X02215Y00858
X02481Y00948
X02502Y01083
X02523Y01111
X02588Y01102
X0261Y01081
X02602Y0131
X02581Y01334
X02532Y01333
X02488
X02445
X02402
X02361Y01332
X02382Y0131
X02424
X02465
X02511
X02555
Y01446
X02511
X02466Y01444
X02424
X02382
X02339
X02289Y01445
X02247Y01446
X02226Y01472
X02185
X02141Y01477
X02099Y01476
X0212Y01446
X02162
X02183Y0142
X02268Y01476
X0231Y01477
X02361Y01476
X02403
X02445
X02488
X02533Y01477
X02581
X02601Y01444
X0246Y01204
X02439Y01182
X02419Y0116
X02339Y0131
X01747Y01404
X01696Y01409
X01662
X01573Y01398
X01537Y0121
Y0114
X01219Y01121
X0118104
X01169Y01149
X01168Y01189
Y01223
Y01256
X01079Y01281
X01049
Y01316
X01071Y01452
X01284Y01474
X0131298Y0137436
X01405Y01523
X01679Y01517
X01809Y00923
X01714Y00641
X01502Y00601
X01565Y00522
X01349Y00579
X01191Y00521
X01127Y00595
X01446Y00334
X01534Y00243
X02381Y0061
X02544Y00802
X02654Y00862
X02765Y00876
X02725Y00948
Y00977
X0284Y01004
X02934Y00995
X03072Y00996
X03078Y01042
X03052Y01107
X03016Y01137
X02994Y01084
X0302Y01225
X03013Y01263
X02989Y01291
X02969Y01316
X02944Y01301
X02848Y01296
X02822Y01269
X02801Y0129
X02802Y01342
X02765Y01332
X02788Y01389
X02841Y01411
X02843Y01453
X02827Y01534
X02943Y01531
X02992Y01479
X03134Y01501
X03197Y01522
X0325Y0148
X0328Y01446
X03253Y01402
X0334Y01409
X03363Y0143
X03497Y01388
X03532Y01421
X03536Y01486
X03637Y01492
X03684Y01501
X03762Y01481
X03764Y01452
X0374Y01437
X03762Y01374
X0375Y01319
X03714
X03668Y01305
X03626Y01256
X03531
X03526Y0119
X03468Y01211
X03489Y0129
X03318Y01279
X03162Y01299
X03185Y01328
X0314Y01216
X03103Y01181
X03197Y01087
X03182Y00969
X03169Y00887
X03056Y00889
X03037Y00869
X03087Y00738
X03173Y00737
X03201Y00741
X03244Y00736
X03286Y00735
X03329
X03356
X03307Y00771
X03265Y0079
X03222Y00787
X03144Y00794
X03149Y00594
X0311
X0313Y00503
X03089
X02811Y00468
X02736Y0047
X02715Y005
X02672Y00615
X02702Y00666
X02745Y00718
X02803Y00682
X02838Y00706
X02897Y00705
X02914Y00661
X02873
X02847Y00247
X02689Y002
X02698Y00087
X0345Y00227
X03434Y00503
X03387Y00483
X03488Y0059
X0353Y0055
X0356Y00551
X03767Y00375
X03842Y00436
X03827Y00934
X03744Y00902
X03627Y00903
X03633Y00933
X03635Y01127
X03662Y0113
X03684Y0115
X03706Y01167
X03732Y01188
X0373Y01263
X0363Y01394
X03871Y01428
X03848Y01452
X03956Y01481
X03935Y01374
X04013Y01392
X04098Y01303
X04136Y01502
X03892Y00995
X03511Y01016
X03487Y01039
X03476Y01069
X03457Y0109
X03436Y01111
X03373Y00977
X03431Y00868
X02806Y0109
X02805Y01122
X0281Y01155
X02793Y01184
X02783Y01224
X02753Y01232
X02643Y01311
X02623Y01335
X02643Y01444
X02622Y01476
X02634Y01149
X04398Y01203
X04402Y01303
X04513Y01325
X04507Y01373
X04563Y01345
X04537Y01278
X04448Y01399
X04839Y01353
X0481Y01278
X04623Y01093
X04622Y00775
X04656Y0073
X04646Y00627
X04801Y00655
X04403Y0067
X04567Y00436
X04446Y00118
X04326Y00149
X05008Y01073
X04784Y01736
X04442Y02659
X03948Y02528
X03625Y02828
X03293Y02626
X0327596Y0255256
X03251Y02488
X03189Y0249
X03125Y02492
X0315596Y0255256
X03175Y02355
X03247Y02323
X0326Y02385
X03283Y0222
X03299Y0174
X03274Y01719
X0325Y01698
X03239Y01664
X03238Y01563
X03167Y0156
X03096Y01563
X03043Y01547
X03095Y0166
X03094Y01801
X03124Y01821
X03149Y01843
X03192Y0176
X03019Y0178
X02874Y01754
Y01821
X02845Y0183
X02815Y0182
X0278Y01856
Y01726
X02805Y01705
X02803Y01663
X02802Y01555
X02708Y01684
X03398Y01736
X03421Y01717
X03477Y01698
X03498Y01676
X03544Y01654
X03444Y01661
X03412Y01565
X03696Y01676
X03737Y01697
X03769Y01718
X03759Y01801
X0378Y01821
X03801Y01858
X0391Y01781
X03893Y01739
X03961Y01761
X03812Y01655
X02539Y01664
X023Y01575
X02236Y01619
X02216Y016
X02176
X01994Y0158
X02062Y01757
X01946Y0179
X01866Y01895
X01945Y02049
X02052Y02127
X0222Y02028
X02196Y01936
X02175Y01907
X02266Y01821
X02407Y02096
X024Y0222
X02399Y02322
X02296Y02352
X02138Y0236
X02106Y02468
X02087Y02701
X01963Y02703
X01938Y02764
X01945Y02589
X02322Y02627
X01511Y02711
X01081Y02722
X01164Y02608
X01213Y02491
X01236Y02433
X01187Y0241
X01182Y02371
X01142Y02412
X01126Y02445
X01117Y02349
X01236Y02335
X01211Y02303
Y02212
X0113Y02171
X01181Y02078
X0118Y01967
X01132Y0192
X01215Y01805
Y0177
Y01695
Y0165
X01257Y0172
X01318Y01679
X01464Y0162
X01491Y01592
X01594Y01605
X01646Y016
X01701Y01629
Y01731
X01737Y01698
X01077Y01692
Y01653
X01015Y01791
X0102Y01828
X01043Y01855
X00957Y01882
X00978Y01924
X00833Y01915
X00867Y01879
X00895Y0182
X00896Y01768
X00789Y01778
X00709Y01822
X00707Y01917
X00619Y01878
X00587Y01899
X00508Y01875
X00524Y01776
X00558Y01774
X00621Y01775
X00658Y01684
X0069372Y0160828
X00544Y01615
Y01581
X00432Y0156
Y01616
X00463Y01717
X00399Y01775
X00358Y01839
X00333
X00236Y01865
X0021
X00214Y01757
X0026Y01781
X00295Y01718
X0027853Y0163453
X00218Y01617
X00323Y01554
X00352Y02014
X00275Y02057
X00342Y02197
X00372Y0223
X00526Y02208
X00602Y02231
X00627Y02289
X00575
X00537Y02411
X00309Y02435
X00248Y02408
X00185Y02413
X00162Y02234
X00097Y02288
X00098Y02165
X00465Y02004
X00444Y01944
X00561Y02088
X00765Y02044
X00882Y02197
X01017Y02191
X01011Y0215
X01006Y02249
X01012Y02356
X01001Y02383
X00997Y02422
X00965Y02357
X00927Y02466
X00879Y02487
X00832Y02488
X00848Y02429
X00889Y02431
X00896Y02527
X00925Y02537
X00922Y02666
X00964Y02687
X01036Y02635
X00863Y02642
X00886Y02767
X00759Y0274
X00728Y02697
X00677Y02652
X00702Y02499
X0075Y02302
X00817Y02356
X00489Y02649
X00362Y02715
X00304Y02525
X00573Y02807
X00886Y01597
X00903Y01547
T02
X00828Y01328
X0086724Y0132839
X0090661
Y0128902
X0086724
Y013835
X0090661
X0082787
X00987Y01349
X0098791Y013087
X00984Y01278
X0094854Y0126933
Y013087
T03
X00504Y01914
X00308Y02151
X00406Y02258
Y02328
X00353Y02479
X00596Y02703
X01011Y027
T05
X0421496Y00075
Y00125
Y00175
Y00425
Y00475
Y00525
Y00575
Y00625
Y00675
Y00725
Y00775
Y00825
Y00875
Y00925
Y00975
X0491496
Y00925
Y00875
Y00825
Y00775
Y00725
Y00675
Y00625
Y00575
Y00525
Y00475
Y00425
Y00175
Y00125
Y00075
X03704Y01893
X03654
X03604
X03554
X03504
X03454
X001Y02366
Y02416
Y02466
Y02516
Y02566
Y02616
Y02666
Y02716
T07
X00895Y0102
X00995
X01095
X01195
X01295
X01395
X01495
X01595
X01795
X01895
X01995
X02095
X02195
X02295
X05112Y01005
Y00905
Y00805
Y00705
Y00605
Y00505
Y00405
Y00305
X05212
Y00405
Y00505
Y00605
Y00705
Y00805
Y00905
Y01005
Y01105
X05112
Y01205
X05212
Y0149
X05112
Y0159
X05212
Y0169
Y0179
X05112
Y0189
X05212
X05112Y0169
X05015Y0202
X04915
Y0212
X05015
Y0222
Y0232
Y0242
X04915
Y0252
X05015
Y0262
Y0272
Y0282
X04915
Y0292
X05015
X04915Y0272
Y0262
X04665
Y0252
Y0242
Y0232
Y0222
Y0212
Y0202
X04915Y0222
Y0232
X04665Y0272
X03765
Y0262
Y0252
Y0242
Y0232
Y0222
Y0212
Y0202
X03515
X03415
Y0212
X03515
Y0222
Y0232
Y0242
X03415
Y0252
X03515
X03415Y0232
Y0222
X02945
Y0212
Y0202
X02845
Y0212
Y0222
Y0232
Y0242
X02945
Y0252
X02845
Y0262
Y0272
Y0282
X02945
Y0292
X02845
X02945Y0272
Y0262
Y0232
X03086Y02852
X03186
X03286
X02595Y0272
Y0262
Y0252
Y0242
Y0232
Y0222
Y0212
Y0202
X01692
Y0212
Y0222
Y0232
Y0242
Y0252
Y0262
Y0272
X01695Y0292
X01795
X01895
X01995
X02095
X02195
X02295
X01595
X01435
X01335
X01235
X01135
X01345Y0252
Y0242
X01445
Y0252
Y0232
X01345
Y0222
Y0212
Y0202
X01445
Y0212
Y0222
X01035Y0292
X00935
X00835
X00735
X00635
X00535
T08
X01605Y01321
X04936Y01278
X00775Y0165
T10
X01965Y0129
Y0139
T11
X00125Y00125
X0518996
X0519Y02875
X00125
T12
X0268603Y0034332
T13
X0347343Y0034332
T14
X0232496Y00187
X0383396
M30
