G04 Layer_Color=2752767*
%FSLAX25Y25*%
%MOIN*%
G70*
G01*
G75*
%ADD10C,0.00700*%
%ADD39C,0.01000*%
%ADD40C,0.00600*%
%ADD46C,0.00591*%
%ADD48C,0.01200*%
%ADD129C,0.00500*%
%ADD215C,0.00200*%
%ADD216C,0.00267*%
%ADD217C,0.00133*%
%ADD218C,0.00701*%
D10*
X1152281Y-335451D02*
Y-335170D01*
X1152562Y-334607D01*
X1152843Y-334326D01*
X1153405Y-334045D01*
X1154530D01*
X1155092Y-334326D01*
X1155374Y-334607D01*
X1155655Y-335170D01*
Y-335732D01*
X1155374Y-336294D01*
X1154811Y-337138D01*
X1152000Y-339949D01*
X1155936D01*
X1157538Y-339387D02*
X1157257Y-339668D01*
X1157538Y-339949D01*
X1157820Y-339668D01*
X1157538Y-339387D01*
X1160800Y-334045D02*
X1159956Y-334326D01*
X1159394Y-335170D01*
X1159113Y-336575D01*
Y-337419D01*
X1159394Y-338825D01*
X1159956Y-339668D01*
X1160800Y-339949D01*
X1161362D01*
X1162206Y-339668D01*
X1162768Y-338825D01*
X1163049Y-337419D01*
Y-336575D01*
X1162768Y-335170D01*
X1162206Y-334326D01*
X1161362Y-334045D01*
X1160800D01*
X1152281Y-335451D02*
Y-335170D01*
X1152562Y-334607D01*
X1152843Y-334326D01*
X1153405Y-334045D01*
X1154530D01*
X1155092Y-334326D01*
X1155374Y-334607D01*
X1155655Y-335170D01*
Y-335732D01*
X1155374Y-336294D01*
X1154811Y-337138D01*
X1152000Y-339949D01*
X1155936D01*
X1157538Y-339387D02*
X1157257Y-339668D01*
X1157538Y-339949D01*
X1157820Y-339668D01*
X1157538Y-339387D01*
X1160800Y-334045D02*
X1159956Y-334326D01*
X1159394Y-335170D01*
X1159113Y-336575D01*
Y-337419D01*
X1159394Y-338825D01*
X1159956Y-339668D01*
X1160800Y-339949D01*
X1161362D01*
X1162206Y-339668D01*
X1162768Y-338825D01*
X1163049Y-337419D01*
Y-336575D01*
X1162768Y-335170D01*
X1162206Y-334326D01*
X1161362Y-334045D01*
X1160800D01*
D39*
X531500Y-29500D02*
Y-1600D01*
X0Y-29500D02*
Y-1600D01*
X284744Y-28500D02*
X531500D01*
X0D02*
X243556D01*
X525500Y-26500D02*
X531500Y-28500D01*
X525500Y-30500D02*
X531500Y-28500D01*
X0D02*
X6000Y-30500D01*
X0Y-28500D02*
X6000Y-26500D01*
X-18000Y300000D02*
X-1600D01*
X-18000Y0D02*
X-1600D01*
X-17000Y169494D02*
Y300000D01*
Y0D02*
Y127306D01*
X-19000Y294000D02*
X-17000Y300000D01*
X-15000Y294000D01*
X-17000Y0D02*
X-15000Y6000D01*
X-19000D02*
X-17000Y0D01*
X-27300Y-0D02*
X-1000D01*
X-27300Y12500D02*
X3500D01*
X-26300D02*
Y22500D01*
Y-10000D02*
Y-0D01*
Y12500D02*
X-24300Y18500D01*
X-28300D02*
X-26300Y12500D01*
X-28300Y-6000D02*
X-26300Y-0D01*
X-24300Y-6000D01*
X0Y-21300D02*
Y-1600D01*
X12500Y-21300D02*
Y3500D01*
X0Y-20300D02*
X6250D01*
X12500D01*
X0D02*
X6000Y-22300D01*
X0Y-20300D02*
X6000Y-18300D01*
X6500D02*
X12500Y-20300D01*
X6500Y-22300D02*
X12500Y-20300D01*
D40*
X249155Y-26101D02*
X245156D01*
Y-29100D01*
X247155Y-28100D01*
X248155D01*
X249155Y-29100D01*
Y-31099D01*
X248155Y-32099D01*
X246156D01*
X245156Y-31099D01*
X251154Y-27101D02*
X252154Y-26101D01*
X254153D01*
X255153Y-27101D01*
Y-28100D01*
X254153Y-29100D01*
X253153D01*
X254153D01*
X255153Y-30100D01*
Y-31099D01*
X254153Y-32099D01*
X252154D01*
X251154Y-31099D01*
X257152Y-32099D02*
X259152D01*
X258152D01*
Y-26101D01*
X257152Y-27101D01*
X266149Y-26101D02*
X262151D01*
Y-29100D01*
X264150Y-28100D01*
X265150D01*
X266149Y-29100D01*
Y-31099D01*
X265150Y-32099D01*
X263150D01*
X262151Y-31099D01*
X268149Y-32099D02*
Y-31099D01*
X269148D01*
Y-32099D01*
X268149D01*
X273147Y-27101D02*
X274147Y-26101D01*
X276146D01*
X277146Y-27101D01*
Y-31099D01*
X276146Y-32099D01*
X274147D01*
X273147Y-31099D01*
Y-27101D01*
X279145D02*
X280145Y-26101D01*
X282144D01*
X283144Y-27101D01*
Y-31099D01*
X282144Y-32099D01*
X280145D01*
X279145Y-31099D01*
Y-27101D01*
X-18399Y128906D02*
X-19399Y129906D01*
Y131905D01*
X-18399Y132905D01*
X-17400D01*
X-16400Y131905D01*
Y130906D01*
Y131905D01*
X-15400Y132905D01*
X-14401D01*
X-13401Y131905D01*
Y129906D01*
X-14401Y128906D01*
X-18399Y134904D02*
X-19399Y135904D01*
Y137903D01*
X-18399Y138903D01*
X-14401D01*
X-13401Y137903D01*
Y135904D01*
X-14401Y134904D01*
X-18399D01*
Y140902D02*
X-19399Y141902D01*
Y143901D01*
X-18399Y144901D01*
X-14401D01*
X-13401Y143901D01*
Y141902D01*
X-14401Y140902D01*
X-18399D01*
Y146900D02*
X-19399Y147900D01*
Y149899D01*
X-18399Y150899D01*
X-14401D01*
X-13401Y149899D01*
Y147900D01*
X-14401Y146900D01*
X-18399D01*
X-13401Y152899D02*
X-14401D01*
Y153898D01*
X-13401D01*
Y152899D01*
X-18399Y157897D02*
X-19399Y158897D01*
Y160896D01*
X-18399Y161896D01*
X-14401D01*
X-13401Y160896D01*
Y158897D01*
X-14401Y157897D01*
X-18399D01*
Y163895D02*
X-19399Y164895D01*
Y166894D01*
X-18399Y167894D01*
X-14401D01*
X-13401Y166894D01*
Y164895D01*
X-14401Y163895D01*
X-18399D01*
X-33498Y-11345D02*
Y-9346D01*
Y-10345D01*
X-39496D01*
X-38496Y-11345D01*
X-33498Y-2348D02*
Y-6346D01*
X-37497Y-2348D01*
X-38496D01*
X-39496Y-3348D01*
Y-5347D01*
X-38496Y-6346D01*
X-39496Y3650D02*
Y-348D01*
X-36497D01*
X-37497Y1651D01*
Y2651D01*
X-36497Y3650D01*
X-34498D01*
X-33498Y2651D01*
Y651D01*
X-34498Y-348D01*
X-33498Y5650D02*
X-34498D01*
Y6649D01*
X-33498D01*
Y5650D01*
X-38496Y10648D02*
X-39496Y11648D01*
Y13647D01*
X-38496Y14647D01*
X-34498D01*
X-33498Y13647D01*
Y11648D01*
X-34498Y10648D01*
X-38496D01*
Y16646D02*
X-39496Y17646D01*
Y19645D01*
X-38496Y20645D01*
X-34498D01*
X-33498Y19645D01*
Y17646D01*
X-34498Y16646D01*
X-38496D01*
X-34900Y-22000D02*
X-32901D01*
X-33900D01*
Y-16002D01*
X-34900Y-17002D01*
X-25903Y-22000D02*
X-29902D01*
X-25903Y-18001D01*
Y-17002D01*
X-26903Y-16002D01*
X-28902D01*
X-29902Y-17002D01*
X-19905Y-16002D02*
X-23904D01*
Y-19001D01*
X-21904Y-18001D01*
X-20904D01*
X-19905Y-19001D01*
Y-21000D01*
X-20904Y-22000D01*
X-22904D01*
X-23904Y-21000D01*
X-17906Y-22000D02*
Y-21000D01*
X-16906D01*
Y-22000D01*
X-17906D01*
X-12907Y-17002D02*
X-11907Y-16002D01*
X-9908D01*
X-8908Y-17002D01*
Y-21000D01*
X-9908Y-22000D01*
X-11907D01*
X-12907Y-21000D01*
Y-17002D01*
X-6909D02*
X-5909Y-16002D01*
X-3910D01*
X-2910Y-17002D01*
Y-21000D01*
X-3910Y-22000D01*
X-5909D01*
X-6909Y-21000D01*
Y-17002D01*
D46*
X1013504Y-334745D02*
Y-340649D01*
Y-334745D02*
X1016035D01*
X1016878Y-335026D01*
X1017159Y-335307D01*
X1017441Y-335869D01*
Y-336432D01*
X1017159Y-336994D01*
X1016878Y-337275D01*
X1016035Y-337556D01*
X1013504D02*
X1016035D01*
X1016878Y-337837D01*
X1017159Y-338119D01*
X1017441Y-338681D01*
Y-339524D01*
X1017159Y-340087D01*
X1016878Y-340368D01*
X1016035Y-340649D01*
X1013504D01*
X1020449Y-334745D02*
X1019887Y-335026D01*
X1019324Y-335588D01*
X1019043Y-336150D01*
X1018762Y-336994D01*
Y-338400D01*
X1019043Y-339243D01*
X1019324Y-339805D01*
X1019887Y-340368D01*
X1020449Y-340649D01*
X1021574D01*
X1022136Y-340368D01*
X1022698Y-339805D01*
X1022979Y-339243D01*
X1023260Y-338400D01*
Y-336994D01*
X1022979Y-336150D01*
X1022698Y-335588D01*
X1022136Y-335026D01*
X1021574Y-334745D01*
X1020449D01*
X1029137Y-340649D02*
X1026887Y-334745D01*
X1024638Y-340649D01*
X1025482Y-338681D02*
X1028293D01*
X1030514Y-334745D02*
Y-340649D01*
Y-334745D02*
X1033045D01*
X1033888Y-335026D01*
X1034169Y-335307D01*
X1034450Y-335869D01*
Y-336432D01*
X1034169Y-336994D01*
X1033888Y-337275D01*
X1033045Y-337556D01*
X1030514D01*
X1032482D02*
X1034450Y-340649D01*
X1035772Y-334745D02*
Y-340649D01*
Y-334745D02*
X1037740D01*
X1038583Y-335026D01*
X1039146Y-335588D01*
X1039427Y-336150D01*
X1039708Y-336994D01*
Y-338400D01*
X1039427Y-339243D01*
X1039146Y-339805D01*
X1038583Y-340368D01*
X1037740Y-340649D01*
X1035772D01*
X1047637Y-333620D02*
X1047074Y-334182D01*
X1046512Y-335026D01*
X1045950Y-336150D01*
X1045669Y-337556D01*
Y-338681D01*
X1045950Y-340087D01*
X1046512Y-341211D01*
X1047074Y-342055D01*
X1047637Y-342617D01*
X1047074Y-334182D02*
X1046512Y-335307D01*
X1046231Y-336150D01*
X1045950Y-337556D01*
Y-338681D01*
X1046231Y-340087D01*
X1046512Y-340930D01*
X1047074Y-342055D01*
X1048761Y-334745D02*
Y-340649D01*
Y-334745D02*
X1051010Y-340649D01*
X1053260Y-334745D02*
X1051010Y-340649D01*
X1053260Y-334745D02*
Y-340649D01*
X1055228Y-336150D02*
Y-335869D01*
X1055509Y-335307D01*
X1055790Y-335026D01*
X1056352Y-334745D01*
X1057477D01*
X1058039Y-335026D01*
X1058320Y-335307D01*
X1058602Y-335869D01*
Y-336432D01*
X1058320Y-336994D01*
X1057758Y-337837D01*
X1054947Y-340649D01*
X1058883D01*
X1060204Y-333620D02*
X1060767Y-334182D01*
X1061329Y-335026D01*
X1061891Y-336150D01*
X1062172Y-337556D01*
Y-338681D01*
X1061891Y-340087D01*
X1061329Y-341211D01*
X1060767Y-342055D01*
X1060204Y-342617D01*
X1060767Y-334182D02*
X1061329Y-335307D01*
X1061610Y-336150D01*
X1061891Y-337556D01*
Y-338681D01*
X1061610Y-340087D01*
X1061329Y-340930D01*
X1060767Y-342055D01*
D48*
X531500Y0D02*
Y300000D01*
X0D02*
X531500D01*
X0Y0D02*
Y300000D01*
Y0D02*
X531500D01*
D129*
X1085355Y-305638D02*
Y-310137D01*
Y-305638D02*
X1086854D01*
X1087497Y-305852D01*
X1087926Y-306281D01*
X1088140Y-306709D01*
X1088354Y-307352D01*
Y-308423D01*
X1088140Y-309066D01*
X1087926Y-309494D01*
X1087497Y-309923D01*
X1086854Y-310137D01*
X1085355D01*
X1090646Y-305638D02*
X1090218Y-305852D01*
X1089790Y-306281D01*
X1089575Y-306709D01*
X1089361Y-307352D01*
Y-308423D01*
X1089575Y-309066D01*
X1089790Y-309494D01*
X1090218Y-309923D01*
X1090646Y-310137D01*
X1091504D01*
X1091932Y-309923D01*
X1092360Y-309494D01*
X1092575Y-309066D01*
X1092789Y-308423D01*
Y-307352D01*
X1092575Y-306709D01*
X1092360Y-306281D01*
X1091932Y-305852D01*
X1091504Y-305638D01*
X1090646D01*
X1097052Y-306709D02*
X1096838Y-306281D01*
X1096410Y-305852D01*
X1095981Y-305638D01*
X1095124D01*
X1094696Y-305852D01*
X1094267Y-306281D01*
X1094053Y-306709D01*
X1093839Y-307352D01*
Y-308423D01*
X1094053Y-309066D01*
X1094267Y-309494D01*
X1094696Y-309923D01*
X1095124Y-310137D01*
X1095981D01*
X1096410Y-309923D01*
X1096838Y-309494D01*
X1097052Y-309066D01*
X1098316Y-305638D02*
Y-308852D01*
X1098531Y-309494D01*
X1098959Y-309923D01*
X1099602Y-310137D01*
X1100030D01*
X1100673Y-309923D01*
X1101101Y-309494D01*
X1101316Y-308852D01*
Y-305638D01*
X1102558D02*
Y-310137D01*
Y-305638D02*
X1104272Y-310137D01*
X1105986Y-305638D02*
X1104272Y-310137D01*
X1105986Y-305638D02*
Y-310137D01*
X1110057Y-305638D02*
X1107271D01*
Y-310137D01*
X1110057D01*
X1107271Y-307780D02*
X1108986D01*
X1110806Y-305638D02*
Y-310137D01*
Y-305638D02*
X1113806Y-310137D01*
Y-305638D02*
Y-310137D01*
X1116548Y-305638D02*
Y-310137D01*
X1115049Y-305638D02*
X1118048D01*
X1122118D02*
Y-310137D01*
Y-305638D02*
X1125118Y-310137D01*
Y-305638D02*
Y-310137D01*
X1126360Y-305638D02*
Y-308852D01*
X1126575Y-309494D01*
X1127003Y-309923D01*
X1127646Y-310137D01*
X1128074D01*
X1128717Y-309923D01*
X1129145Y-309494D01*
X1129360Y-308852D01*
Y-305638D01*
X1130602D02*
Y-310137D01*
Y-305638D02*
X1132316Y-310137D01*
X1134030Y-305638D02*
X1132316Y-310137D01*
X1134030Y-305638D02*
Y-310137D01*
X1135316Y-305638D02*
Y-310137D01*
Y-305638D02*
X1137244D01*
X1137886Y-305852D01*
X1138101Y-306066D01*
X1138315Y-306495D01*
Y-306924D01*
X1138101Y-307352D01*
X1137886Y-307566D01*
X1137244Y-307780D01*
X1135316D02*
X1137244D01*
X1137886Y-307995D01*
X1138101Y-308209D01*
X1138315Y-308637D01*
Y-309280D01*
X1138101Y-309709D01*
X1137886Y-309923D01*
X1137244Y-310137D01*
X1135316D01*
X1142107Y-305638D02*
X1139322D01*
Y-310137D01*
X1142107D01*
X1139322Y-307780D02*
X1141036D01*
X1142857Y-305638D02*
Y-310137D01*
Y-305638D02*
X1144785D01*
X1145428Y-305852D01*
X1145642Y-306066D01*
X1145856Y-306495D01*
Y-306924D01*
X1145642Y-307352D01*
X1145428Y-307566D01*
X1144785Y-307780D01*
X1142857D01*
X1144357D02*
X1145856Y-310137D01*
X1147077Y-307138D02*
X1146863Y-307352D01*
X1147077Y-307566D01*
X1147291Y-307352D01*
X1147077Y-307138D01*
Y-309709D02*
X1146863Y-309923D01*
X1147077Y-310137D01*
X1147291Y-309923D01*
X1147077Y-309709D01*
D215*
X518200Y286700D02*
Y288300D01*
X519800D01*
Y286700D01*
X518200D01*
X11700D02*
Y288300D01*
X13300D01*
Y286700D01*
X11700D01*
Y11700D02*
Y13300D01*
X13300D01*
Y11700D01*
X11700D01*
X518196D02*
Y13300D01*
X519796D01*
Y11700D01*
X518196D01*
X493600Y127000D02*
X492800Y128600D01*
X494400D01*
X493600Y127000D01*
X491496Y96700D02*
X491896Y97100D01*
X492296D01*
X491896Y97500D01*
X492296Y97900D01*
X491896D01*
X491496Y98300D01*
X491096Y97900D01*
X490696D01*
X491096Y97500D01*
X490696Y97100D01*
X491096D01*
X491496Y96700D01*
Y91700D02*
X491896Y92100D01*
X492296D01*
X491896Y92500D01*
X492296Y92900D01*
X491896D01*
X491496Y93300D01*
X491096Y92900D01*
X490696D01*
X491096Y92500D01*
X490696Y92100D01*
X491096D01*
X491496Y91700D01*
Y86700D02*
X491896Y87100D01*
X492296D01*
X491896Y87500D01*
X492296Y87900D01*
X491896D01*
X491496Y88300D01*
X491096Y87900D01*
X490696D01*
X491096Y87500D01*
X490696Y87100D01*
X491096D01*
X491496Y86700D01*
Y81700D02*
X491896Y82100D01*
X492296D01*
X491896Y82500D01*
X492296Y82900D01*
X491896D01*
X491496Y83300D01*
X491096Y82900D01*
X490696D01*
X491096Y82500D01*
X490696Y82100D01*
X491096D01*
X491496Y81700D01*
Y76700D02*
X491896Y77100D01*
X492296D01*
X491896Y77500D01*
X492296Y77900D01*
X491896D01*
X491496Y78300D01*
X491096Y77900D01*
X490696D01*
X491096Y77500D01*
X490696Y77100D01*
X491096D01*
X491496Y76700D01*
Y71700D02*
X491896Y72100D01*
X492296D01*
X491896Y72500D01*
X492296Y72900D01*
X491896D01*
X491496Y73300D01*
X491096Y72900D01*
X490696D01*
X491096Y72500D01*
X490696Y72100D01*
X491096D01*
X491496Y71700D01*
Y51700D02*
X491896Y52100D01*
X492296D01*
X491896Y52500D01*
X492296Y52900D01*
X491896D01*
X491496Y53300D01*
X491096Y52900D01*
X490696D01*
X491096Y52500D01*
X490696Y52100D01*
X491096D01*
X491496Y51700D01*
Y46700D02*
X491896Y47100D01*
X492296D01*
X491896Y47500D01*
X492296Y47900D01*
X491896D01*
X491496Y48300D01*
X491096Y47900D01*
X490696D01*
X491096Y47500D01*
X490696Y47100D01*
X491096D01*
X491496Y46700D01*
Y41700D02*
X491896Y42100D01*
X492296D01*
X491896Y42500D01*
X492296Y42900D01*
X491896D01*
X491496Y43300D01*
X491096Y42900D01*
X490696D01*
X491096Y42500D01*
X490696Y42100D01*
X491096D01*
X491496Y41700D01*
Y61700D02*
X491896Y62100D01*
X492296D01*
X491896Y62500D01*
X492296Y62900D01*
X491896D01*
X491496Y63300D01*
X491096Y62900D01*
X490696D01*
X491096Y62500D01*
X490696Y62100D01*
X491096D01*
X491496Y61700D01*
Y56700D02*
X491896Y57100D01*
X492296D01*
X491896Y57500D01*
X492296Y57900D01*
X491896D01*
X491496Y58300D01*
X491096Y57900D01*
X490696D01*
X491096Y57500D01*
X490696Y57100D01*
X491096D01*
X491496Y56700D01*
Y66700D02*
X491896Y67100D01*
X492296D01*
X491896Y67500D01*
X492296Y67900D01*
X491896D01*
X491496Y68300D01*
X491096Y67900D01*
X490696D01*
X491096Y67500D01*
X490696Y67100D01*
X491096D01*
X491496Y66700D01*
X421496Y96700D02*
X421896Y97100D01*
X422296D01*
X421896Y97500D01*
X422296Y97900D01*
X421896D01*
X421496Y98300D01*
X421096Y97900D01*
X420696D01*
X421096Y97500D01*
X420696Y97100D01*
X421096D01*
X421496Y96700D01*
Y91700D02*
X421896Y92100D01*
X422296D01*
X421896Y92500D01*
X422296Y92900D01*
X421896D01*
X421496Y93300D01*
X421096Y92900D01*
X420696D01*
X421096Y92500D01*
X420696Y92100D01*
X421096D01*
X421496Y91700D01*
Y86700D02*
X421896Y87100D01*
X422296D01*
X421896Y87500D01*
X422296Y87900D01*
X421896D01*
X421496Y88300D01*
X421096Y87900D01*
X420696D01*
X421096Y87500D01*
X420696Y87100D01*
X421096D01*
X421496Y86700D01*
Y81700D02*
X421896Y82100D01*
X422296D01*
X421896Y82500D01*
X422296Y82900D01*
X421896D01*
X421496Y83300D01*
X421096Y82900D01*
X420696D01*
X421096Y82500D01*
X420696Y82100D01*
X421096D01*
X421496Y81700D01*
Y76700D02*
X421896Y77100D01*
X422296D01*
X421896Y77500D01*
X422296Y77900D01*
X421896D01*
X421496Y78300D01*
X421096Y77900D01*
X420696D01*
X421096Y77500D01*
X420696Y77100D01*
X421096D01*
X421496Y76700D01*
Y71700D02*
X421896Y72100D01*
X422296D01*
X421896Y72500D01*
X422296Y72900D01*
X421896D01*
X421496Y73300D01*
X421096Y72900D01*
X420696D01*
X421096Y72500D01*
X420696Y72100D01*
X421096D01*
X421496Y71700D01*
Y51700D02*
X421896Y52100D01*
X422296D01*
X421896Y52500D01*
X422296Y52900D01*
X421896D01*
X421496Y53300D01*
X421096Y52900D01*
X420696D01*
X421096Y52500D01*
X420696Y52100D01*
X421096D01*
X421496Y51700D01*
Y46700D02*
X421896Y47100D01*
X422296D01*
X421896Y47500D01*
X422296Y47900D01*
X421896D01*
X421496Y48300D01*
X421096Y47900D01*
X420696D01*
X421096Y47500D01*
X420696Y47100D01*
X421096D01*
X421496Y46700D01*
Y41700D02*
X421896Y42100D01*
X422296D01*
X421896Y42500D01*
X422296Y42900D01*
X421896D01*
X421496Y43300D01*
X421096Y42900D01*
X420696D01*
X421096Y42500D01*
X420696Y42100D01*
X421096D01*
X421496Y41700D01*
Y61700D02*
X421896Y62100D01*
X422296D01*
X421896Y62500D01*
X422296Y62900D01*
X421896D01*
X421496Y63300D01*
X421096Y62900D01*
X420696D01*
X421096Y62500D01*
X420696Y62100D01*
X421096D01*
X421496Y61700D01*
Y56700D02*
X421896Y57100D01*
X422296D01*
X421896Y57500D01*
X422296Y57900D01*
X421896D01*
X421496Y58300D01*
X421096Y57900D01*
X420696D01*
X421096Y57500D01*
X420696Y57100D01*
X421096D01*
X421496Y56700D01*
Y66700D02*
X421896Y67100D01*
X422296D01*
X421896Y67500D01*
X422296Y67900D01*
X421896D01*
X421496Y68300D01*
X421096Y67900D01*
X420696D01*
X421096Y67500D01*
X420696Y67100D01*
X421096D01*
X421496Y66700D01*
X100300Y269200D02*
X100700Y270000D01*
X100300Y270800D01*
X101100Y270400D01*
X101900Y270800D01*
X101500Y270000D01*
X101900Y269200D01*
X101100Y269600D01*
X100300Y269200D01*
X49600Y190600D02*
X50000Y191400D01*
X49600Y192200D01*
X50400Y191800D01*
X51200Y192200D01*
X50800Y191400D01*
X51200Y190600D01*
X50400Y191000D01*
X49600Y190600D01*
X30000Y214300D02*
X30400Y215100D01*
X30000Y215900D01*
X30800Y215500D01*
X31600Y215900D01*
X31200Y215100D01*
X31600Y214300D01*
X30800Y214700D01*
X30000Y214300D01*
X34500Y247100D02*
X34900Y247900D01*
X34500Y248700D01*
X35300Y248300D01*
X36100Y248700D01*
X35700Y247900D01*
X36100Y247100D01*
X35300Y247500D01*
X34500Y247100D01*
X10000Y235800D02*
X10400Y236200D01*
X10800D01*
X10400Y236600D01*
X10800Y237000D01*
X10400D01*
X10000Y237400D01*
X9600Y237000D01*
X9200D01*
X9600Y236600D01*
X9200Y236200D01*
X9600D01*
X10000Y235800D01*
Y240800D02*
X10400Y241200D01*
X10800D01*
X10400Y241600D01*
X10800Y242000D01*
X10400D01*
X10000Y242400D01*
X9600Y242000D01*
X9200D01*
X9600Y241600D01*
X9200Y241200D01*
X9600D01*
X10000Y240800D01*
Y255800D02*
X10400Y256200D01*
X10800D01*
X10400Y256600D01*
X10800Y257000D01*
X10400D01*
X10000Y257400D01*
X9600Y257000D01*
X9200D01*
X9600Y256600D01*
X9200Y256200D01*
X9600D01*
X10000Y255800D01*
Y260800D02*
X10400Y261200D01*
X10800D01*
X10400Y261600D01*
X10800Y262000D01*
X10400D01*
X10000Y262400D01*
X9600Y262000D01*
X9200D01*
X9600Y261600D01*
X9200Y261200D01*
X9600D01*
X10000Y260800D01*
Y270800D02*
X10400Y271200D01*
X10800D01*
X10400Y271600D01*
X10800Y272000D01*
X10400D01*
X10000Y272400D01*
X9600Y272000D01*
X9200D01*
X9600Y271600D01*
X9200Y271200D01*
X9600D01*
X10000Y270800D01*
Y265800D02*
X10400Y266200D01*
X10800D01*
X10400Y266600D01*
X10800Y267000D01*
X10400D01*
X10000Y267400D01*
X9600Y267000D01*
X9200D01*
X9600Y266600D01*
X9200Y266200D01*
X9600D01*
X10000Y265800D01*
Y250800D02*
X10400Y251200D01*
X10800D01*
X10400Y251600D01*
X10800Y252000D01*
X10400D01*
X10000Y252400D01*
X9600Y252000D01*
X9200D01*
X9600Y251600D01*
X9200Y251200D01*
X9600D01*
X10000Y250800D01*
Y245800D02*
X10400Y246200D01*
X10800D01*
X10400Y246600D01*
X10800Y247000D01*
X10400D01*
X10000Y247400D01*
X9600Y247000D01*
X9200D01*
X9600Y246600D01*
X9200Y246200D01*
X9600D01*
X10000Y245800D01*
X421496Y16700D02*
X421896Y17100D01*
X422296D01*
X421896Y17500D01*
X422296Y17900D01*
X421896D01*
X421496Y18300D01*
X421096Y17900D01*
X420696D01*
X421096Y17500D01*
X420696Y17100D01*
X421096D01*
X421496Y16700D01*
Y11700D02*
X421896Y12100D01*
X422296D01*
X421896Y12500D01*
X422296Y12900D01*
X421896D01*
X421496Y13300D01*
X421096Y12900D01*
X420696D01*
X421096Y12500D01*
X420696Y12100D01*
X421096D01*
X421496Y11700D01*
Y6700D02*
X421896Y7100D01*
X422296D01*
X421896Y7500D01*
X422296Y7900D01*
X421896D01*
X421496Y8300D01*
X421096Y7900D01*
X420696D01*
X421096Y7500D01*
X420696Y7100D01*
X421096D01*
X421496Y6700D01*
X491496Y16700D02*
X491896Y17100D01*
X492296D01*
X491896Y17500D01*
X492296Y17900D01*
X491896D01*
X491496Y18300D01*
X491096Y17900D01*
X490696D01*
X491096Y17500D01*
X490696Y17100D01*
X491096D01*
X491496Y16700D01*
Y11700D02*
X491896Y12100D01*
X492296D01*
X491896Y12500D01*
X492296Y12900D01*
X491896D01*
X491496Y13300D01*
X491096Y12900D01*
X490696D01*
X491096Y12500D01*
X490696Y12100D01*
X491096D01*
X491496Y11700D01*
Y6700D02*
X491896Y7100D01*
X492296D01*
X491896Y7500D01*
X492296Y7900D01*
X491896D01*
X491496Y8300D01*
X491096Y7900D01*
X490696D01*
X491096Y7500D01*
X490696Y7100D01*
X491096D01*
X491496Y6700D01*
X268203Y33932D02*
Y33532D01*
X269003D01*
Y33932D01*
X269403D01*
Y34732D01*
X269003D01*
Y35132D01*
X268203D01*
Y34732D01*
X267803D01*
Y33932D01*
X268203D01*
X346543Y33532D02*
X346943D01*
X347343Y33932D01*
X347743Y33532D01*
X348143D01*
Y33932D01*
X347743Y34332D01*
X348143Y34732D01*
Y35132D01*
X347743D01*
X347343Y34732D01*
X346943Y35132D01*
X346543D01*
Y34732D01*
X346943Y34332D01*
X346543Y33932D01*
Y33532D01*
X382596Y18700D02*
X383396Y19500D01*
X384196Y18700D01*
X383396Y17900D01*
X382596Y18700D01*
X39800Y225000D02*
X40200Y225800D01*
X39800Y226600D01*
X40600Y226200D01*
X41400Y226600D01*
X41000Y225800D01*
X41400Y225000D01*
X40600Y225400D01*
X39800Y225000D01*
Y232000D02*
X40200Y232800D01*
X39800Y233600D01*
X40600Y233200D01*
X41400Y233600D01*
X41000Y232800D01*
X41400Y232000D01*
X40600Y232400D01*
X39800Y232000D01*
X231696Y18700D02*
X232496Y19500D01*
X233296Y18700D01*
X232496Y17900D01*
X231696Y18700D01*
X38700Y101200D02*
Y102800D01*
X40300D01*
Y101200D01*
X38700D01*
X39100Y101600D02*
Y102400D01*
X39900D01*
Y101600D01*
X39100D01*
X26889Y119704D02*
Y121304D01*
X28489D01*
Y119704D01*
X26889D01*
X27289Y120104D02*
Y120904D01*
X28089D01*
Y120104D01*
X27289D01*
X77500Y164200D02*
X76700Y165800D01*
X78300D01*
X77500Y164200D01*
X5696Y76793D02*
X4896Y78392D01*
X6496D01*
X5696Y76793D01*
Y77192D02*
X5296Y77992D01*
X6096D01*
X5696Y77192D01*
Y44607D02*
X4896Y46207D01*
X6496D01*
X5696Y44607D01*
Y45008D02*
X5296Y45807D01*
X6096D01*
X5696Y45008D01*
X17999Y51940D02*
X18399Y52340D01*
X18799D01*
X18399Y52740D01*
X18799Y53140D01*
X18399D01*
X17999Y53540D01*
X17599Y53140D01*
X17199D01*
X17599Y52740D01*
X17199Y52340D01*
X17599D01*
X17999Y51940D01*
Y52340D02*
X18199Y52540D01*
X18399D01*
X18199Y52740D01*
X18399Y52940D01*
X18199D01*
X17999Y53140D01*
X17799Y52940D01*
X17599D01*
X17799Y52740D01*
X17599Y52540D01*
X17799D01*
X17999Y52340D01*
Y69460D02*
X18399Y69860D01*
X18799D01*
X18399Y70260D01*
X18799Y70660D01*
X18399D01*
X17999Y71060D01*
X17599Y70660D01*
X17199D01*
X17599Y70260D01*
X17199Y69860D01*
X17599D01*
X17999Y69460D01*
Y69860D02*
X18199Y70060D01*
X18399D01*
X18199Y70260D01*
X18399Y70460D01*
X18199D01*
X17999Y70660D01*
X17799Y70460D01*
X17599D01*
X17799Y70260D01*
X17599Y70060D01*
X17799D01*
X17999Y69860D01*
X195700Y128200D02*
X196100Y129000D01*
X195700Y129800D01*
X196500Y129400D01*
X197300Y129800D01*
X196900Y129000D01*
X197300Y128200D01*
X196500Y128600D01*
X195700Y128200D01*
X196100Y128600D02*
X196300Y129000D01*
X196100Y129400D01*
X196500Y129200D01*
X196900Y129400D01*
X196700Y129000D01*
X196900Y128600D01*
X196500Y128800D01*
X196100Y128600D01*
X195700Y138200D02*
X196100Y139000D01*
X195700Y139800D01*
X196500Y139400D01*
X197300Y139800D01*
X196900Y139000D01*
X197300Y138200D01*
X196500Y138600D01*
X195700Y138200D01*
X196100Y138600D02*
X196300Y139000D01*
X196100Y139400D01*
X196500Y139200D01*
X196900Y139400D01*
X196700Y139000D01*
X196900Y138600D01*
X196500Y138800D01*
X196100Y138600D01*
X355400Y188500D02*
X355800Y188900D01*
X356200D01*
X355800Y189300D01*
X356200Y189700D01*
X355800D01*
X355400Y190100D01*
X355000Y189700D01*
X354600D01*
X355000Y189300D01*
X354600Y188900D01*
X355000D01*
X355400Y188500D01*
X360400D02*
X360800Y188900D01*
X361200D01*
X360800Y189300D01*
X361200Y189700D01*
X360800D01*
X360400Y190100D01*
X360000Y189700D01*
X359600D01*
X360000Y189300D01*
X359600Y188900D01*
X360000D01*
X360400Y188500D01*
X370400D02*
X370800Y188900D01*
X371200D01*
X370800Y189300D01*
X371200Y189700D01*
X370800D01*
X370400Y190100D01*
X370000Y189700D01*
X369600D01*
X370000Y189300D01*
X369600Y188900D01*
X370000D01*
X370400Y188500D01*
X365400D02*
X365800Y188900D01*
X366200D01*
X365800Y189300D01*
X366200Y189700D01*
X365800D01*
X365400Y190100D01*
X365000Y189700D01*
X364600D01*
X365000Y189300D01*
X364600Y188900D01*
X365000D01*
X365400Y188500D01*
X350400D02*
X350800Y188900D01*
X351200D01*
X350800Y189300D01*
X351200Y189700D01*
X350800D01*
X350400Y190100D01*
X350000Y189700D01*
X349600D01*
X350000Y189300D01*
X349600Y188900D01*
X350000D01*
X350400Y188500D01*
X345400D02*
X345800Y188900D01*
X346200D01*
X345800Y189300D01*
X346200Y189700D01*
X345800D01*
X345400Y190100D01*
X345000Y189700D01*
X344600D01*
X345000Y189300D01*
X344600Y188900D01*
X345000D01*
X345400Y188500D01*
X58800Y269500D02*
X59200Y270300D01*
X58800Y271100D01*
X59600Y270700D01*
X60400Y271100D01*
X60000Y270300D01*
X60400Y269500D01*
X59600Y269900D01*
X58800Y269500D01*
X160500Y131300D02*
X159700Y132900D01*
X161300D01*
X160500Y131300D01*
X17580Y189419D02*
X17979Y189819D01*
X18380D01*
X17979Y190219D01*
X18380Y190619D01*
X17979D01*
X17580Y191019D01*
X17179Y190619D01*
X16780D01*
X17179Y190219D01*
X16780Y189819D01*
X17179D01*
X17580Y189419D01*
Y189819D02*
X17779Y190019D01*
X17979D01*
X17779Y190219D01*
X17979Y190419D01*
X17779D01*
X17580Y190619D01*
X17379Y190419D01*
X17179D01*
X17379Y190219D01*
X17179Y190019D01*
X17379D01*
X17580Y189819D01*
Y171899D02*
X17979Y172299D01*
X18380D01*
X17979Y172699D01*
X18380Y173099D01*
X17979D01*
X17580Y173499D01*
X17179Y173099D01*
X16780D01*
X17179Y172699D01*
X16780Y172299D01*
X17179D01*
X17580Y171899D01*
Y172299D02*
X17779Y172499D01*
X17979D01*
X17779Y172699D01*
X17979Y172899D01*
X17779D01*
X17580Y173099D01*
X17379Y172899D01*
X17179D01*
X17379Y172699D01*
X17179Y172499D01*
X17379D01*
X17580Y172299D01*
X5276Y164567D02*
X4476Y166166D01*
X6076D01*
X5276Y164567D01*
Y164966D02*
X4876Y165767D01*
X5676D01*
X5276Y164966D01*
Y196752D02*
X4476Y198352D01*
X6076D01*
X5276Y196752D01*
Y197152D02*
X4876Y197952D01*
X5676D01*
X5276Y197152D01*
X282300Y153000D02*
Y152600D01*
X283100D01*
Y153000D01*
X283500D01*
Y153800D01*
X283100D01*
Y154200D01*
X282300D01*
Y153800D01*
X281900D01*
Y153000D01*
X282300D01*
X282500Y153200D02*
Y153000D01*
X282900D01*
Y153200D01*
X283100D01*
Y153600D01*
X282900D01*
Y153800D01*
X282500D01*
Y153600D01*
X282300D01*
Y153200D01*
X282500D01*
X293900Y152700D02*
Y152300D01*
X294700D01*
Y152700D01*
X295100D01*
Y153500D01*
X294700D01*
Y153900D01*
X293900D01*
Y153500D01*
X293500D01*
Y152700D01*
X293900D01*
X294100Y152900D02*
Y152700D01*
X294500D01*
Y152900D01*
X294700D01*
Y153300D01*
X294500D01*
Y153500D01*
X294100D01*
Y153300D01*
X293900D01*
Y152900D01*
X294100D01*
X279800Y155100D02*
Y154700D01*
X280600D01*
Y155100D01*
X281000D01*
Y155900D01*
X280600D01*
Y156300D01*
X279800D01*
Y155900D01*
X279400D01*
Y155100D01*
X279800D01*
X280000Y155300D02*
Y155100D01*
X280400D01*
Y155300D01*
X280600D01*
Y155700D01*
X280400D01*
Y155900D01*
X280000D01*
Y155700D01*
X279800D01*
Y155300D01*
X280000D01*
X394400Y252400D02*
Y252000D01*
X395200D01*
Y252400D01*
X395600D01*
Y253200D01*
X395200D01*
Y253600D01*
X394400D01*
Y253200D01*
X394000D01*
Y252400D01*
X394400D01*
X394600Y252600D02*
Y252400D01*
X395000D01*
Y252600D01*
X395200D01*
Y253000D01*
X395000D01*
Y253200D01*
X394600D01*
Y253000D01*
X394400D01*
Y252600D01*
X394600D01*
X258400Y109800D02*
Y109400D01*
X259200D01*
Y109800D01*
X259600D01*
Y110600D01*
X259200D01*
Y111000D01*
X258400D01*
Y110600D01*
X258000D01*
Y109800D01*
X258400D01*
X258600Y110000D02*
Y109800D01*
X259000D01*
Y110000D01*
X259200D01*
Y110400D01*
X259000D01*
Y110600D01*
X258600D01*
Y110400D01*
X258400D01*
Y110000D01*
X258600D01*
X260600Y107700D02*
Y107300D01*
X261400D01*
Y107700D01*
X261800D01*
Y108500D01*
X261400D01*
Y108900D01*
X260600D01*
Y108500D01*
X260200D01*
Y107700D01*
X260600D01*
X260800Y107900D02*
Y107700D01*
X261200D01*
Y107900D01*
X261400D01*
Y108300D01*
X261200D01*
Y108500D01*
X260800D01*
Y108300D01*
X260600D01*
Y107900D01*
X260800D01*
X97400Y57500D02*
Y57100D01*
X98200D01*
Y57500D01*
X98600D01*
Y58300D01*
X98200D01*
Y58700D01*
X97400D01*
Y58300D01*
X97000D01*
Y57500D01*
X97400D01*
X97600Y57700D02*
Y57500D01*
X98000D01*
Y57700D01*
X98200D01*
Y58100D01*
X98000D01*
Y58300D01*
X97600D01*
Y58100D01*
X97400D01*
Y57700D01*
X97600D01*
X45900Y171300D02*
Y170900D01*
X46700D01*
Y171300D01*
X47100D01*
Y172100D01*
X46700D01*
Y172500D01*
X45900D01*
Y172100D01*
X45500D01*
Y171300D01*
X45900D01*
X46100Y171500D02*
Y171300D01*
X46500D01*
Y171500D01*
X46700D01*
Y171900D01*
X46500D01*
Y172100D01*
X46100D01*
Y171900D01*
X45900D01*
Y171500D01*
X46100D01*
X39500Y177100D02*
Y176700D01*
X40300D01*
Y177100D01*
X40700D01*
Y177900D01*
X40300D01*
Y178300D01*
X39500D01*
Y177900D01*
X39100D01*
Y177100D01*
X39500D01*
X39700Y177300D02*
Y177100D01*
X40100D01*
Y177300D01*
X40300D01*
Y177700D01*
X40100D01*
Y177900D01*
X39700D01*
Y177700D01*
X39500D01*
Y177300D01*
X39700D01*
X61600Y124700D02*
Y124300D01*
X62400D01*
Y124700D01*
X62800D01*
Y125500D01*
X62400D01*
Y125900D01*
X61600D01*
Y125500D01*
X61200D01*
Y124700D01*
X61600D01*
X61800Y124900D02*
Y124700D01*
X62200D01*
Y124900D01*
X62400D01*
Y125300D01*
X62200D01*
Y125500D01*
X61800D01*
Y125300D01*
X61600D01*
Y124900D01*
X61800D01*
X65400Y132400D02*
Y132000D01*
X66200D01*
Y132400D01*
X66600D01*
Y133200D01*
X66200D01*
Y133600D01*
X65400D01*
Y133200D01*
X65000D01*
Y132400D01*
X65400D01*
X65600Y132600D02*
Y132400D01*
X66000D01*
Y132600D01*
X66200D01*
Y133000D01*
X66000D01*
Y133200D01*
X65600D01*
Y133000D01*
X65400D01*
Y132600D01*
X65600D01*
X65300Y116200D02*
Y115800D01*
X66100D01*
Y116200D01*
X66500D01*
Y117000D01*
X66100D01*
Y117400D01*
X65300D01*
Y117000D01*
X64900D01*
Y116200D01*
X65300D01*
X65500Y116400D02*
Y116200D01*
X65900D01*
Y116400D01*
X66100D01*
Y116800D01*
X65900D01*
Y117000D01*
X65500D01*
Y116800D01*
X65300D01*
Y116400D01*
X65500D01*
X67500Y88000D02*
Y87600D01*
X68300D01*
Y88000D01*
X68700D01*
Y88800D01*
X68300D01*
Y89200D01*
X67500D01*
Y88800D01*
X67100D01*
Y88000D01*
X67500D01*
X67700Y88200D02*
Y88000D01*
X68100D01*
Y88200D01*
X68300D01*
Y88600D01*
X68100D01*
Y88800D01*
X67700D01*
Y88600D01*
X67500D01*
Y88200D01*
X67700D01*
X464200Y62300D02*
Y61900D01*
X465000D01*
Y62300D01*
X465400D01*
Y63100D01*
X465000D01*
Y63500D01*
X464200D01*
Y63100D01*
X463800D01*
Y62300D01*
X464200D01*
X464400Y62500D02*
Y62300D01*
X464800D01*
Y62500D01*
X465000D01*
Y62900D01*
X464800D01*
Y63100D01*
X464400D01*
Y62900D01*
X464200D01*
Y62500D01*
X464400D01*
X432200Y14500D02*
Y14100D01*
X433000D01*
Y14500D01*
X433400D01*
Y15300D01*
X433000D01*
Y15700D01*
X432200D01*
Y15300D01*
X431800D01*
Y14500D01*
X432200D01*
X432400Y14700D02*
Y14500D01*
X432800D01*
Y14700D01*
X433000D01*
Y15100D01*
X432800D01*
Y15300D01*
X432400D01*
Y15100D01*
X432200D01*
Y14700D01*
X432400D01*
X18100Y240900D02*
Y240500D01*
X18900D01*
Y240900D01*
X19300D01*
Y241700D01*
X18900D01*
Y242100D01*
X18100D01*
Y241700D01*
X17700D01*
Y240900D01*
X18100D01*
X18300Y241100D02*
Y240900D01*
X18700D01*
Y241100D01*
X18900D01*
Y241500D01*
X18700D01*
Y241700D01*
X18300D01*
Y241500D01*
X18100D01*
Y241100D01*
X18300D01*
X54000Y157700D02*
Y157300D01*
X54800D01*
Y157700D01*
X55200D01*
Y158500D01*
X54800D01*
Y158900D01*
X54000D01*
Y158500D01*
X53600D01*
Y157700D01*
X54000D01*
X54200Y157900D02*
Y157700D01*
X54600D01*
Y157900D01*
X54800D01*
Y158300D01*
X54600D01*
Y158500D01*
X54200D01*
Y158300D01*
X54000D01*
Y157900D01*
X54200D01*
X107300Y164900D02*
Y164500D01*
X108100D01*
Y164900D01*
X108500D01*
Y165700D01*
X108100D01*
Y166100D01*
X107300D01*
Y165700D01*
X106900D01*
Y164900D01*
X107300D01*
X107500Y165100D02*
Y164900D01*
X107900D01*
Y165100D01*
X108100D01*
Y165500D01*
X107900D01*
Y165700D01*
X107500D01*
Y165500D01*
X107300D01*
Y165100D01*
X107500D01*
X271100Y49600D02*
Y49200D01*
X271900D01*
Y49600D01*
X272300D01*
Y50400D01*
X271900D01*
Y50800D01*
X271100D01*
Y50400D01*
X270700D01*
Y49600D01*
X271100D01*
X271300Y49800D02*
Y49600D01*
X271700D01*
Y49800D01*
X271900D01*
Y50200D01*
X271700D01*
Y50400D01*
X271300D01*
Y50200D01*
X271100D01*
Y49800D01*
X271300D01*
X273200Y46600D02*
Y46200D01*
X274000D01*
Y46600D01*
X274400D01*
Y47400D01*
X274000D01*
Y47800D01*
X273200D01*
Y47400D01*
X272800D01*
Y46600D01*
X273200D01*
X273400Y46800D02*
Y46600D01*
X273800D01*
Y46800D01*
X274000D01*
Y47200D01*
X273800D01*
Y47400D01*
X273400D01*
Y47200D01*
X273200D01*
Y46800D01*
X273400D01*
X82000Y132000D02*
X82400D01*
X82800Y132400D01*
X83200Y132000D01*
X83600D01*
Y132400D01*
X83200Y132800D01*
X83600Y133200D01*
Y133600D01*
X83200D01*
X82800Y133200D01*
X82400Y133600D01*
X82000D01*
Y133200D01*
X82400Y132800D01*
X82000Y132400D01*
Y132000D01*
X82400Y132400D02*
X82600D01*
X82800Y132600D01*
X83000Y132400D01*
X83200D01*
Y132600D01*
X83000Y132800D01*
X83200Y133000D01*
Y133200D01*
X83000D01*
X82800Y133000D01*
X82600Y133200D01*
X82400D01*
Y133000D01*
X82600Y132800D01*
X82400Y132600D01*
Y132400D01*
X118700Y51700D02*
Y51300D01*
X119500D01*
Y51700D01*
X119900D01*
Y52500D01*
X119500D01*
Y52900D01*
X118700D01*
Y52500D01*
X118300D01*
Y51700D01*
X118700D01*
X118900Y51900D02*
Y51700D01*
X119300D01*
Y51900D01*
X119500D01*
Y52300D01*
X119300D01*
Y52500D01*
X118900D01*
Y52300D01*
X118700D01*
Y51900D01*
X118900D01*
X112300Y59100D02*
Y58700D01*
X113100D01*
Y59100D01*
X113500D01*
Y59900D01*
X113100D01*
Y60300D01*
X112300D01*
Y59900D01*
X111900D01*
Y59100D01*
X112300D01*
X112500Y59300D02*
Y59100D01*
X112900D01*
Y59300D01*
X113100D01*
Y59700D01*
X112900D01*
Y59900D01*
X112500D01*
Y59700D01*
X112300D01*
Y59300D01*
X112500D01*
X149800Y59700D02*
Y59300D01*
X150600D01*
Y59700D01*
X151000D01*
Y60500D01*
X150600D01*
Y60900D01*
X149800D01*
Y60500D01*
X149400D01*
Y59700D01*
X149800D01*
X150000Y59900D02*
Y59700D01*
X150400D01*
Y59900D01*
X150600D01*
Y60300D01*
X150400D01*
Y60500D01*
X150000D01*
Y60300D01*
X149800D01*
Y59900D01*
X150000D01*
X74000Y59100D02*
Y58700D01*
X74800D01*
Y59100D01*
X75200D01*
Y59900D01*
X74800D01*
Y60300D01*
X74000D01*
Y59900D01*
X73600D01*
Y59100D01*
X74000D01*
X74200Y59300D02*
Y59100D01*
X74600D01*
Y59300D01*
X74800D01*
Y59700D01*
X74600D01*
Y59900D01*
X74200D01*
Y59700D01*
X74000D01*
Y59300D01*
X74200D01*
X156100Y51800D02*
Y51400D01*
X156900D01*
Y51800D01*
X157300D01*
Y52600D01*
X156900D01*
Y53000D01*
X156100D01*
Y52600D01*
X155700D01*
Y51800D01*
X156100D01*
X156300Y52000D02*
Y51800D01*
X156700D01*
Y52000D01*
X156900D01*
Y52400D01*
X156700D01*
Y52600D01*
X156300D01*
Y52400D01*
X156100D01*
Y52000D01*
X156300D01*
X80300Y51700D02*
Y51300D01*
X81100D01*
Y51700D01*
X81500D01*
Y52500D01*
X81100D01*
Y52900D01*
X80300D01*
Y52500D01*
X79900D01*
Y51700D01*
X80300D01*
X80500Y51900D02*
Y51700D01*
X80900D01*
Y51900D01*
X81100D01*
Y52300D01*
X80900D01*
Y52500D01*
X80500D01*
Y52300D01*
X80300D01*
Y51900D01*
X80500D01*
X171000Y63700D02*
Y63300D01*
X171800D01*
Y63700D01*
X172200D01*
Y64500D01*
X171800D01*
Y64900D01*
X171000D01*
Y64500D01*
X170600D01*
Y63700D01*
X171000D01*
X171200Y63900D02*
Y63700D01*
X171600D01*
Y63900D01*
X171800D01*
Y64300D01*
X171600D01*
Y64500D01*
X171200D01*
Y64300D01*
X171000D01*
Y63900D01*
X171200D01*
X191000Y23900D02*
Y23500D01*
X191800D01*
Y23900D01*
X192200D01*
Y24700D01*
X191800D01*
Y25100D01*
X191000D01*
Y24700D01*
X190600D01*
Y23900D01*
X191000D01*
X191200Y24100D02*
Y23900D01*
X191600D01*
Y24100D01*
X191800D01*
Y24500D01*
X191600D01*
Y24700D01*
X191200D01*
Y24500D01*
X191000D01*
Y24100D01*
X191200D01*
X153000Y23900D02*
Y23500D01*
X153800D01*
Y23900D01*
X154200D01*
Y24700D01*
X153800D01*
Y25100D01*
X153000D01*
Y24700D01*
X152600D01*
Y23900D01*
X153000D01*
X153200Y24100D02*
Y23900D01*
X153600D01*
Y24100D01*
X153800D01*
Y24500D01*
X153600D01*
Y24700D01*
X153200D01*
Y24500D01*
X153000D01*
Y24100D01*
X153200D01*
X148700Y7900D02*
Y7500D01*
X149500D01*
Y7900D01*
X149900D01*
Y8700D01*
X149500D01*
Y9100D01*
X148700D01*
Y8700D01*
X148300D01*
Y7900D01*
X148700D01*
X148900Y8100D02*
Y7900D01*
X149300D01*
Y8100D01*
X149500D01*
Y8500D01*
X149300D01*
Y8700D01*
X148900D01*
Y8500D01*
X148700D01*
Y8100D01*
X148900D01*
X186500Y8000D02*
Y7600D01*
X187300D01*
Y8000D01*
X187700D01*
Y8800D01*
X187300D01*
Y9200D01*
X186500D01*
Y8800D01*
X186100D01*
Y8000D01*
X186500D01*
X186700Y8200D02*
Y8000D01*
X187100D01*
Y8200D01*
X187300D01*
Y8600D01*
X187100D01*
Y8800D01*
X186700D01*
Y8600D01*
X186500D01*
Y8200D01*
X186700D01*
X182200Y33000D02*
Y32600D01*
X183000D01*
Y33000D01*
X183400D01*
Y33800D01*
X183000D01*
Y34200D01*
X182200D01*
Y33800D01*
X181800D01*
Y33000D01*
X182200D01*
X182400Y33200D02*
Y33000D01*
X182800D01*
Y33200D01*
X183000D01*
Y33600D01*
X182800D01*
Y33800D01*
X182400D01*
Y33600D01*
X182200D01*
Y33200D01*
X182400D01*
X144200Y33000D02*
Y32600D01*
X145000D01*
Y33000D01*
X145400D01*
Y33800D01*
X145000D01*
Y34200D01*
X144200D01*
Y33800D01*
X143800D01*
Y33000D01*
X144200D01*
X144400Y33200D02*
Y33000D01*
X144800D01*
Y33200D01*
X145000D01*
Y33600D01*
X144800D01*
Y33800D01*
X144400D01*
Y33600D01*
X144200D01*
Y33200D01*
X144400D01*
X106300Y33084D02*
Y32684D01*
X107100D01*
Y33084D01*
X107500D01*
Y33884D01*
X107100D01*
Y34284D01*
X106300D01*
Y33884D01*
X105900D01*
Y33084D01*
X106300D01*
X106500Y33283D02*
Y33084D01*
X106900D01*
Y33283D01*
X107100D01*
Y33683D01*
X106900D01*
Y33884D01*
X106500D01*
Y33683D01*
X106300D01*
Y33283D01*
X106500D01*
X68100Y33100D02*
Y32700D01*
X68900D01*
Y33100D01*
X69300D01*
Y33900D01*
X68900D01*
Y34300D01*
X68100D01*
Y33900D01*
X67700D01*
Y33100D01*
X68100D01*
X68300Y33300D02*
Y33100D01*
X68700D01*
Y33300D01*
X68900D01*
Y33700D01*
X68700D01*
Y33900D01*
X68300D01*
Y33700D01*
X68100D01*
Y33300D01*
X68300D01*
X37100Y24100D02*
Y23700D01*
X37900D01*
Y24100D01*
X38300D01*
Y24900D01*
X37900D01*
Y25300D01*
X37100D01*
Y24900D01*
X36700D01*
Y24100D01*
X37100D01*
X37300Y24300D02*
Y24100D01*
X37700D01*
Y24300D01*
X37900D01*
Y24700D01*
X37700D01*
Y24900D01*
X37300D01*
Y24700D01*
X37100D01*
Y24300D01*
X37300D01*
X29200Y33200D02*
Y32800D01*
X30000D01*
Y33200D01*
X30400D01*
Y34000D01*
X30000D01*
Y34400D01*
X29200D01*
Y34000D01*
X28800D01*
Y33200D01*
X29200D01*
X29400Y33400D02*
Y33200D01*
X29800D01*
Y33400D01*
X30000D01*
Y33800D01*
X29800D01*
Y34000D01*
X29400D01*
Y33800D01*
X29200D01*
Y33400D01*
X29400D01*
X33350Y7950D02*
Y7550D01*
X34150D01*
Y7950D01*
X34550D01*
Y8750D01*
X34150D01*
Y9150D01*
X33350D01*
Y8750D01*
X32950D01*
Y7950D01*
X33350D01*
X33550Y8150D02*
Y7950D01*
X33950D01*
Y8150D01*
X34150D01*
Y8550D01*
X33950D01*
Y8750D01*
X33550D01*
Y8550D01*
X33350D01*
Y8150D01*
X33550D01*
X55500Y13200D02*
Y12800D01*
X56300D01*
Y13200D01*
X56700D01*
Y14000D01*
X56300D01*
Y14400D01*
X55500D01*
Y14000D01*
X55100D01*
Y13200D01*
X55500D01*
X55700Y13400D02*
Y13200D01*
X56100D01*
Y13400D01*
X56300D01*
Y13800D01*
X56100D01*
Y14000D01*
X55700D01*
Y13800D01*
X55500D01*
Y13400D01*
X55700D01*
X60500Y8300D02*
Y7900D01*
X61300D01*
Y8300D01*
X61700D01*
Y9100D01*
X61300D01*
Y9500D01*
X60500D01*
Y9100D01*
X60100D01*
Y8300D01*
X60500D01*
X60700Y8500D02*
Y8300D01*
X61100D01*
Y8500D01*
X61300D01*
Y8900D01*
X61100D01*
Y9100D01*
X60700D01*
Y8900D01*
X60500D01*
Y8500D01*
X60700D01*
X51000Y8300D02*
Y7900D01*
X51800D01*
Y8300D01*
X52200D01*
Y9100D01*
X51800D01*
Y9500D01*
X51000D01*
Y9100D01*
X50600D01*
Y8300D01*
X51000D01*
X51200Y8500D02*
Y8300D01*
X51600D01*
Y8500D01*
X51800D01*
Y8900D01*
X51600D01*
Y9100D01*
X51200D01*
Y8900D01*
X51000D01*
Y8500D01*
X51200D01*
X89900D02*
Y8100D01*
X90700D01*
Y8500D01*
X91100D01*
Y9300D01*
X90700D01*
Y9700D01*
X89900D01*
Y9300D01*
X89500D01*
Y8500D01*
X89900D01*
X90100Y8700D02*
Y8500D01*
X90500D01*
Y8700D01*
X90700D01*
Y9100D01*
X90500D01*
Y9300D01*
X90100D01*
Y9100D01*
X89900D01*
Y8700D01*
X90100D01*
X127900Y8600D02*
Y8200D01*
X128700D01*
Y8600D01*
X129100D01*
Y9400D01*
X128700D01*
Y9800D01*
X127900D01*
Y9400D01*
X127500D01*
Y8600D01*
X127900D01*
X128100Y8800D02*
Y8600D01*
X128500D01*
Y8800D01*
X128700D01*
Y9200D01*
X128500D01*
Y9400D01*
X128100D01*
Y9200D01*
X127900D01*
Y8800D01*
X128100D01*
X165900Y8700D02*
Y8300D01*
X166700D01*
Y8700D01*
X167100D01*
Y9500D01*
X166700D01*
Y9900D01*
X165900D01*
Y9500D01*
X165500D01*
Y8700D01*
X165900D01*
X166100Y8900D02*
Y8700D01*
X166500D01*
Y8900D01*
X166700D01*
Y9300D01*
X166500D01*
Y9500D01*
X166100D01*
Y9300D01*
X165900D01*
Y8900D01*
X166100D01*
X203900Y8500D02*
Y8100D01*
X204700D01*
Y8500D01*
X205100D01*
Y9300D01*
X204700D01*
Y9700D01*
X203900D01*
Y9300D01*
X203500D01*
Y8500D01*
X203900D01*
X204100Y8700D02*
Y8500D01*
X204500D01*
Y8700D01*
X204700D01*
Y9100D01*
X204500D01*
Y9300D01*
X204100D01*
Y9100D01*
X203900D01*
Y8700D01*
X204100D01*
X235700Y147200D02*
Y146800D01*
X236500D01*
Y147200D01*
X236900D01*
Y148000D01*
X236500D01*
Y148400D01*
X235700D01*
Y148000D01*
X235300D01*
Y147200D01*
X235700D01*
X235900Y147400D02*
Y147200D01*
X236300D01*
Y147400D01*
X236500D01*
Y147800D01*
X236300D01*
Y148000D01*
X235900D01*
Y147800D01*
X235700D01*
Y147400D01*
X235900D01*
X239900Y147200D02*
Y146800D01*
X240700D01*
Y147200D01*
X241100D01*
Y148000D01*
X240700D01*
Y148400D01*
X239900D01*
Y148000D01*
X239500D01*
Y147200D01*
X239900D01*
X240100Y147400D02*
Y147200D01*
X240500D01*
Y147400D01*
X240700D01*
Y147800D01*
X240500D01*
Y148000D01*
X240100D01*
Y147800D01*
X239900D01*
Y147400D01*
X240100D01*
X244100Y147200D02*
Y146800D01*
X244900D01*
Y147200D01*
X245300D01*
Y148000D01*
X244900D01*
Y148400D01*
X244100D01*
Y148000D01*
X243700D01*
Y147200D01*
X244100D01*
X244300Y147400D02*
Y147200D01*
X244700D01*
Y147400D01*
X244900D01*
Y147800D01*
X244700D01*
Y148000D01*
X244300D01*
Y147800D01*
X244100D01*
Y147400D01*
X244300D01*
X237800Y144000D02*
Y143600D01*
X238600D01*
Y144000D01*
X239000D01*
Y144800D01*
X238600D01*
Y145200D01*
X237800D01*
Y144800D01*
X237400D01*
Y144000D01*
X237800D01*
X238000Y144200D02*
Y144000D01*
X238400D01*
Y144200D01*
X238600D01*
Y144600D01*
X238400D01*
Y144800D01*
X238000D01*
Y144600D01*
X237800D01*
Y144200D01*
X238000D01*
X242000Y144000D02*
Y143600D01*
X242800D01*
Y144000D01*
X243200D01*
Y144800D01*
X242800D01*
Y145200D01*
X242000D01*
Y144800D01*
X241600D01*
Y144000D01*
X242000D01*
X242200Y144200D02*
Y144000D01*
X242600D01*
Y144200D01*
X242800D01*
Y144600D01*
X242600D01*
Y144800D01*
X242200D01*
Y144600D01*
X242000D01*
Y144200D01*
X242200D01*
X228500Y144100D02*
Y143700D01*
X229300D01*
Y144100D01*
X229700D01*
Y144900D01*
X229300D01*
Y145300D01*
X228500D01*
Y144900D01*
X228100D01*
Y144100D01*
X228500D01*
X228700Y144300D02*
Y144100D01*
X229100D01*
Y144300D01*
X229300D01*
Y144700D01*
X229100D01*
Y144900D01*
X228700D01*
Y144700D01*
X228500D01*
Y144300D01*
X228700D01*
X224300Y144200D02*
Y143800D01*
X225100D01*
Y144200D01*
X225500D01*
Y145000D01*
X225100D01*
Y145400D01*
X224300D01*
Y145000D01*
X223900D01*
Y144200D01*
X224300D01*
X224500Y144400D02*
Y144200D01*
X224900D01*
Y144400D01*
X225100D01*
Y144800D01*
X224900D01*
Y145000D01*
X224500D01*
Y144800D01*
X224300D01*
Y144400D01*
X224500D01*
X226400Y147200D02*
Y146800D01*
X227200D01*
Y147200D01*
X227600D01*
Y148000D01*
X227200D01*
Y148400D01*
X226400D01*
Y148000D01*
X226000D01*
Y147200D01*
X226400D01*
X226600Y147400D02*
Y147200D01*
X227000D01*
Y147400D01*
X227200D01*
Y147800D01*
X227000D01*
Y148000D01*
X226600D01*
Y147800D01*
X226400D01*
Y147400D01*
X226600D01*
X222200Y146800D02*
Y146400D01*
X223000D01*
Y146800D01*
X223400D01*
Y147600D01*
X223000D01*
Y148000D01*
X222200D01*
Y147600D01*
X221800D01*
Y146800D01*
X222200D01*
X222400Y147000D02*
Y146800D01*
X222800D01*
Y147000D01*
X223000D01*
Y147400D01*
X222800D01*
Y147600D01*
X222400D01*
Y147400D01*
X222200D01*
Y147000D01*
X222400D01*
X218100Y146800D02*
Y146400D01*
X218900D01*
Y146800D01*
X219300D01*
Y147600D01*
X218900D01*
Y148000D01*
X218100D01*
Y147600D01*
X217700D01*
Y146800D01*
X218100D01*
X218300Y147000D02*
Y146800D01*
X218700D01*
Y147000D01*
X218900D01*
Y147400D01*
X218700D01*
Y147600D01*
X218300D01*
Y147400D01*
X218100D01*
Y147000D01*
X218300D01*
X213700Y147300D02*
Y146900D01*
X214500D01*
Y147300D01*
X214900D01*
Y148100D01*
X214500D01*
Y148500D01*
X213700D01*
Y148100D01*
X213300D01*
Y147300D01*
X213700D01*
X213900Y147500D02*
Y147300D01*
X214300D01*
Y147500D01*
X214500D01*
Y147900D01*
X214300D01*
Y148100D01*
X213900D01*
Y147900D01*
X213700D01*
Y147500D01*
X213900D01*
X211600Y144200D02*
Y143800D01*
X212400D01*
Y144200D01*
X212800D01*
Y145000D01*
X212400D01*
Y145400D01*
X211600D01*
Y145000D01*
X211200D01*
Y144200D01*
X211600D01*
X211800Y144400D02*
Y144200D01*
X212200D01*
Y144400D01*
X212400D01*
Y144800D01*
X212200D01*
Y145000D01*
X211800D01*
Y144800D01*
X211600D01*
Y144400D01*
X211800D01*
X215800Y144200D02*
Y143800D01*
X216600D01*
Y144200D01*
X217000D01*
Y145000D01*
X216600D01*
Y145400D01*
X215800D01*
Y145000D01*
X215400D01*
Y144200D01*
X215800D01*
X216000Y144400D02*
Y144200D01*
X216400D01*
Y144400D01*
X216600D01*
Y144800D01*
X216400D01*
Y145000D01*
X216000D01*
Y144800D01*
X215800D01*
Y144400D01*
X216000D01*
X233500Y144000D02*
Y143600D01*
X234300D01*
Y144000D01*
X234700D01*
Y144800D01*
X234300D01*
Y145200D01*
X233500D01*
Y144800D01*
X233100D01*
Y144000D01*
X233500D01*
X233700Y144200D02*
Y144000D01*
X234100D01*
Y144200D01*
X234300D01*
Y144600D01*
X234100D01*
Y144800D01*
X233700D01*
Y144600D01*
X233500D01*
Y144200D01*
X233700D01*
X246200Y144000D02*
Y143600D01*
X247000D01*
Y144000D01*
X247400D01*
Y144800D01*
X247000D01*
Y145200D01*
X246200D01*
Y144800D01*
X245800D01*
Y144000D01*
X246200D01*
X246400Y144200D02*
Y144000D01*
X246800D01*
Y144200D01*
X247000D01*
Y144600D01*
X246800D01*
Y144800D01*
X246400D01*
Y144600D01*
X246200D01*
Y144200D01*
X246400D01*
X244100Y132900D02*
Y132500D01*
X244900D01*
Y132900D01*
X245300D01*
Y133700D01*
X244900D01*
Y134100D01*
X244100D01*
Y133700D01*
X243700D01*
Y132900D01*
X244100D01*
X244300Y133100D02*
Y132900D01*
X244700D01*
Y133100D01*
X244900D01*
Y133500D01*
X244700D01*
Y133700D01*
X244300D01*
Y133500D01*
X244100D01*
Y133100D01*
X244300D01*
X248400Y132900D02*
Y132500D01*
X249200D01*
Y132900D01*
X249600D01*
Y133700D01*
X249200D01*
Y134100D01*
X248400D01*
Y133700D01*
X248000D01*
Y132900D01*
X248400D01*
X248600Y133100D02*
Y132900D01*
X249000D01*
Y133100D01*
X249200D01*
Y133500D01*
X249000D01*
Y133700D01*
X248600D01*
Y133500D01*
X248400D01*
Y133100D01*
X248600D01*
X250700Y130600D02*
Y130200D01*
X251500D01*
Y130600D01*
X251900D01*
Y131400D01*
X251500D01*
Y131800D01*
X250700D01*
Y131400D01*
X250300D01*
Y130600D01*
X250700D01*
X250900Y130800D02*
Y130600D01*
X251300D01*
Y130800D01*
X251500D01*
Y131200D01*
X251300D01*
Y131400D01*
X250900D01*
Y131200D01*
X250700D01*
Y130800D01*
X250900D01*
X229600Y157100D02*
Y156700D01*
X230400D01*
Y157100D01*
X230800D01*
Y157900D01*
X230400D01*
Y158300D01*
X229600D01*
Y157900D01*
X229200D01*
Y157100D01*
X229600D01*
X229800Y157300D02*
Y157100D01*
X230200D01*
Y157300D01*
X230400D01*
Y157700D01*
X230200D01*
Y157900D01*
X229800D01*
Y157700D01*
X229600D01*
Y157300D01*
X229800D01*
X230600Y147300D02*
Y146900D01*
X231400D01*
Y147300D01*
X231800D01*
Y148100D01*
X231400D01*
Y148500D01*
X230600D01*
Y148100D01*
X230200D01*
Y147300D01*
X230600D01*
X230800Y147500D02*
Y147300D01*
X231200D01*
Y147500D01*
X231400D01*
Y147900D01*
X231200D01*
Y148100D01*
X230800D01*
Y147900D01*
X230600D01*
Y147500D01*
X230800D01*
X221200Y159600D02*
Y159200D01*
X222000D01*
Y159600D01*
X222400D01*
Y160400D01*
X222000D01*
Y160800D01*
X221200D01*
Y160400D01*
X220800D01*
Y159600D01*
X221200D01*
X221400Y159800D02*
Y159600D01*
X221800D01*
Y159800D01*
X222000D01*
Y160200D01*
X221800D01*
Y160400D01*
X221400D01*
Y160200D01*
X221200D01*
Y159800D01*
X221400D01*
X217900Y141600D02*
Y141200D01*
X218700D01*
Y141600D01*
X219100D01*
Y142400D01*
X218700D01*
Y142800D01*
X217900D01*
Y142400D01*
X217500D01*
Y141600D01*
X217900D01*
X218100Y141800D02*
Y141600D01*
X218500D01*
Y141800D01*
X218700D01*
Y142200D01*
X218500D01*
Y142400D01*
X218100D01*
Y142200D01*
X217900D01*
Y141800D01*
X218100D01*
X217200Y159600D02*
Y159200D01*
X218000D01*
Y159600D01*
X218400D01*
Y160400D01*
X218000D01*
Y160800D01*
X217200D01*
Y160400D01*
X216800D01*
Y159600D01*
X217200D01*
X217400Y159800D02*
Y159600D01*
X217800D01*
Y159800D01*
X218000D01*
Y160200D01*
X217800D01*
Y160400D01*
X217400D01*
Y160200D01*
X217200D01*
Y159800D01*
X217400D01*
X223200Y161500D02*
Y161100D01*
X224000D01*
Y161500D01*
X224400D01*
Y162300D01*
X224000D01*
Y162700D01*
X223200D01*
Y162300D01*
X222800D01*
Y161500D01*
X223200D01*
X223400Y161700D02*
Y161500D01*
X223800D01*
Y161700D01*
X224000D01*
Y162100D01*
X223800D01*
Y162300D01*
X223400D01*
Y162100D01*
X223200D01*
Y161700D01*
X223400D01*
X209500Y147200D02*
Y146800D01*
X210300D01*
Y147200D01*
X210700D01*
Y148000D01*
X210300D01*
Y148400D01*
X209500D01*
Y148000D01*
X209100D01*
Y147200D01*
X209500D01*
X209700Y147400D02*
Y147200D01*
X210100D01*
Y147400D01*
X210300D01*
Y147800D01*
X210100D01*
Y148000D01*
X209700D01*
Y147800D01*
X209500D01*
Y147400D01*
X209700D01*
X23200Y186100D02*
Y185700D01*
X24000D01*
Y186100D01*
X24400D01*
Y186900D01*
X24000D01*
Y187300D01*
X23200D01*
Y186900D01*
X22800D01*
Y186100D01*
X23200D01*
X23400Y186300D02*
Y186100D01*
X23800D01*
Y186300D01*
X24000D01*
Y186700D01*
X23800D01*
Y186900D01*
X23400D01*
Y186700D01*
X23200D01*
Y186300D01*
X23400D01*
X465200Y72600D02*
Y72200D01*
X466000D01*
Y72600D01*
X466400D01*
Y73400D01*
X466000D01*
Y73800D01*
X465200D01*
Y73400D01*
X464800D01*
Y72600D01*
X465200D01*
X465400Y72800D02*
Y72600D01*
X465800D01*
Y72800D01*
X466000D01*
Y73200D01*
X465800D01*
Y73400D01*
X465400D01*
Y73200D01*
X465200D01*
Y72800D01*
X465400D01*
X461800Y77100D02*
Y76700D01*
X462600D01*
Y77100D01*
X463000D01*
Y77900D01*
X462600D01*
Y78300D01*
X461800D01*
Y77900D01*
X461400D01*
Y77100D01*
X461800D01*
X462000Y77300D02*
Y77100D01*
X462400D01*
Y77300D01*
X462600D01*
Y77700D01*
X462400D01*
Y77900D01*
X462000D01*
Y77700D01*
X461800D01*
Y77300D01*
X462000D01*
X479700Y65100D02*
Y64700D01*
X480500D01*
Y65100D01*
X480900D01*
Y65900D01*
X480500D01*
Y66300D01*
X479700D01*
Y65900D01*
X479300D01*
Y65100D01*
X479700D01*
X479900Y65300D02*
Y65100D01*
X480300D01*
Y65300D01*
X480500D01*
Y65700D01*
X480300D01*
Y65900D01*
X479900D01*
Y65700D01*
X479700D01*
Y65300D01*
X479900D01*
X483500Y134900D02*
Y134500D01*
X484300D01*
Y134900D01*
X484700D01*
Y135700D01*
X484300D01*
Y136100D01*
X483500D01*
Y135700D01*
X483100D01*
Y134900D01*
X483500D01*
X483700Y135100D02*
Y134900D01*
X484100D01*
Y135100D01*
X484300D01*
Y135500D01*
X484100D01*
Y135700D01*
X483700D01*
Y135500D01*
X483500D01*
Y135100D01*
X483700D01*
X287000Y181700D02*
Y181300D01*
X287800D01*
Y181700D01*
X288200D01*
Y182500D01*
X287800D01*
Y182900D01*
X287000D01*
Y182500D01*
X286600D01*
Y181700D01*
X287000D01*
X287200Y181900D02*
Y181700D01*
X287600D01*
Y181900D01*
X287800D01*
Y182300D01*
X287600D01*
Y182500D01*
X287200D01*
Y182300D01*
X287000D01*
Y181900D01*
X287200D01*
X25600Y177700D02*
Y177300D01*
X26400D01*
Y177700D01*
X26800D01*
Y178500D01*
X26400D01*
Y178900D01*
X25600D01*
Y178500D01*
X25200D01*
Y177700D01*
X25600D01*
X25800Y177900D02*
Y177700D01*
X26200D01*
Y177900D01*
X26400D01*
Y178300D01*
X26200D01*
Y178500D01*
X25800D01*
Y178300D01*
X25600D01*
Y177900D01*
X25800D01*
X61700Y177100D02*
Y176700D01*
X62500D01*
Y177100D01*
X62900D01*
Y177900D01*
X62500D01*
Y178300D01*
X61700D01*
Y177900D01*
X61300D01*
Y177100D01*
X61700D01*
X61900Y177300D02*
Y177100D01*
X62300D01*
Y177300D01*
X62500D01*
Y177700D01*
X62300D01*
Y177900D01*
X61900D01*
Y177700D01*
X61700D01*
Y177300D01*
X61900D01*
X86300Y187500D02*
Y187100D01*
X87100D01*
Y187500D01*
X87500D01*
Y188300D01*
X87100D01*
Y188700D01*
X86300D01*
Y188300D01*
X85900D01*
Y187500D01*
X86300D01*
X86500Y187700D02*
Y187500D01*
X86900D01*
Y187700D01*
X87100D01*
Y188100D01*
X86900D01*
Y188300D01*
X86500D01*
Y188100D01*
X86300D01*
Y187700D01*
X86500D01*
X101100Y178700D02*
Y178300D01*
X101900D01*
Y178700D01*
X102300D01*
Y179500D01*
X101900D01*
Y179900D01*
X101100D01*
Y179500D01*
X100700D01*
Y178700D01*
X101100D01*
X101300Y178900D02*
Y178700D01*
X101700D01*
Y178900D01*
X101900D01*
Y179300D01*
X101700D01*
Y179500D01*
X101300D01*
Y179300D01*
X101100D01*
Y178900D01*
X101300D01*
X101600Y182400D02*
Y182000D01*
X102400D01*
Y182400D01*
X102800D01*
Y183200D01*
X102400D01*
Y183600D01*
X101600D01*
Y183200D01*
X101200D01*
Y182400D01*
X101600D01*
X101800Y182600D02*
Y182400D01*
X102200D01*
Y182600D01*
X102400D01*
Y183000D01*
X102200D01*
Y183200D01*
X101800D01*
Y183000D01*
X101600D01*
Y182600D01*
X101800D01*
X103900Y185100D02*
Y184700D01*
X104700D01*
Y185100D01*
X105100D01*
Y185900D01*
X104700D01*
Y186300D01*
X103900D01*
Y185900D01*
X103500D01*
Y185100D01*
X103900D01*
X104100Y185300D02*
Y185100D01*
X104500D01*
Y185300D01*
X104700D01*
Y185700D01*
X104500D01*
Y185900D01*
X104100D01*
Y185700D01*
X103900D01*
Y185300D01*
X104100D01*
X89200Y176400D02*
Y176000D01*
X90000D01*
Y176400D01*
X90400D01*
Y177200D01*
X90000D01*
Y177600D01*
X89200D01*
Y177200D01*
X88800D01*
Y176400D01*
X89200D01*
X89400Y176600D02*
Y176400D01*
X89800D01*
Y176600D01*
X90000D01*
Y177000D01*
X89800D01*
Y177200D01*
X89400D01*
Y177000D01*
X89200D01*
Y176600D01*
X89400D01*
X89100Y181600D02*
Y181200D01*
X89900D01*
Y181600D01*
X90300D01*
Y182400D01*
X89900D01*
Y182800D01*
X89100D01*
Y182400D01*
X88700D01*
Y181600D01*
X89100D01*
X89300Y181800D02*
Y181600D01*
X89700D01*
Y181800D01*
X89900D01*
Y182200D01*
X89700D01*
Y182400D01*
X89300D01*
Y182200D01*
X89100D01*
Y181800D01*
X89300D01*
X117600Y196300D02*
Y195900D01*
X118400D01*
Y196300D01*
X118800D01*
Y197100D01*
X118400D01*
Y197500D01*
X117600D01*
Y197100D01*
X117200D01*
Y196300D01*
X117600D01*
X117800Y196500D02*
Y196300D01*
X118200D01*
Y196500D01*
X118400D01*
Y196900D01*
X118200D01*
Y197100D01*
X117800D01*
Y196900D01*
X117600D01*
Y196500D01*
X117800D01*
X117700Y207400D02*
Y207000D01*
X118500D01*
Y207400D01*
X118900D01*
Y208200D01*
X118500D01*
Y208600D01*
X117700D01*
Y208200D01*
X117300D01*
Y207400D01*
X117700D01*
X117900Y207600D02*
Y207400D01*
X118300D01*
Y207600D01*
X118500D01*
Y208000D01*
X118300D01*
Y208200D01*
X117900D01*
Y208000D01*
X117700D01*
Y207600D01*
X117900D01*
X97600Y127000D02*
X98000D01*
X98400Y127400D01*
X98800Y127000D01*
X99200D01*
Y127400D01*
X98800Y127800D01*
X99200Y128200D01*
Y128600D01*
X98800D01*
X98400Y128200D01*
X98000Y128600D01*
X97600D01*
Y128200D01*
X98000Y127800D01*
X97600Y127400D01*
Y127000D01*
X98000Y127400D02*
X98200D01*
X98400Y127600D01*
X98600Y127400D01*
X98800D01*
Y127600D01*
X98600Y127800D01*
X98800Y128000D01*
Y128200D01*
X98600D01*
X98400Y128000D01*
X98200Y128200D01*
X98000D01*
Y128000D01*
X98200Y127800D01*
X98000Y127600D01*
Y127400D01*
X289300Y70100D02*
Y69700D01*
X290100D01*
Y70100D01*
X290500D01*
Y70900D01*
X290100D01*
Y71300D01*
X289300D01*
Y70900D01*
X288900D01*
Y70100D01*
X289300D01*
X289500Y70300D02*
Y70100D01*
X289900D01*
Y70300D01*
X290100D01*
Y70700D01*
X289900D01*
Y70900D01*
X289500D01*
Y70700D01*
X289300D01*
Y70300D01*
X289500D01*
X291000Y65700D02*
Y65300D01*
X291800D01*
Y65700D01*
X292200D01*
Y66500D01*
X291800D01*
Y66900D01*
X291000D01*
Y66500D01*
X290600D01*
Y65700D01*
X291000D01*
X291200Y65900D02*
Y65700D01*
X291600D01*
Y65900D01*
X291800D01*
Y66300D01*
X291600D01*
Y66500D01*
X291200D01*
Y66300D01*
X291000D01*
Y65900D01*
X291200D01*
X309900Y117700D02*
Y117300D01*
X310700D01*
Y117700D01*
X311100D01*
Y118500D01*
X310700D01*
Y118900D01*
X309900D01*
Y118500D01*
X309500D01*
Y117700D01*
X309900D01*
X310100Y117900D02*
Y117700D01*
X310500D01*
Y117900D01*
X310700D01*
Y118300D01*
X310500D01*
Y118500D01*
X310100D01*
Y118300D01*
X309900D01*
Y117900D01*
X310100D01*
X298800Y147500D02*
Y147100D01*
X299600D01*
Y147500D01*
X300000D01*
Y148300D01*
X299600D01*
Y148700D01*
X298800D01*
Y148300D01*
X298400D01*
Y147500D01*
X298800D01*
X299000Y147700D02*
Y147500D01*
X299400D01*
Y147700D01*
X299600D01*
Y148100D01*
X299400D01*
Y148300D01*
X299000D01*
Y148100D01*
X298800D01*
Y147700D01*
X299000D01*
X324600Y147600D02*
Y147200D01*
X325400D01*
Y147600D01*
X325800D01*
Y148400D01*
X325400D01*
Y148800D01*
X324600D01*
Y148400D01*
X324200D01*
Y147600D01*
X324600D01*
X324800Y147800D02*
Y147600D01*
X325200D01*
Y147800D01*
X325400D01*
Y148200D01*
X325200D01*
Y148400D01*
X324800D01*
Y148200D01*
X324600D01*
Y147800D01*
X324800D01*
X313000Y149700D02*
Y149300D01*
X313800D01*
Y149700D01*
X314200D01*
Y150500D01*
X313800D01*
Y150900D01*
X313000D01*
Y150500D01*
X312600D01*
Y149700D01*
X313000D01*
X313200Y149900D02*
Y149700D01*
X313600D01*
Y149900D01*
X313800D01*
Y150300D01*
X313600D01*
Y150500D01*
X313200D01*
Y150300D01*
X313000D01*
Y149900D01*
X313200D01*
X319300Y151800D02*
Y151400D01*
X320100D01*
Y151800D01*
X320500D01*
Y152600D01*
X320100D01*
Y153000D01*
X319300D01*
Y152600D01*
X318900D01*
Y151800D01*
X319300D01*
X319500Y152000D02*
Y151800D01*
X319900D01*
Y152000D01*
X320100D01*
Y152400D01*
X319900D01*
Y152600D01*
X319500D01*
Y152400D01*
X319300D01*
Y152000D01*
X319500D01*
X316300Y155600D02*
Y155200D01*
X317100D01*
Y155600D01*
X317500D01*
Y156400D01*
X317100D01*
Y156800D01*
X316300D01*
Y156400D01*
X315900D01*
Y155600D01*
X316300D01*
X316500Y155800D02*
Y155600D01*
X316900D01*
Y155800D01*
X317100D01*
Y156200D01*
X316900D01*
Y156400D01*
X316500D01*
Y156200D01*
X316300D01*
Y155800D01*
X316500D01*
X74000Y71200D02*
Y70800D01*
X74800D01*
Y71200D01*
X75200D01*
Y72000D01*
X74800D01*
Y72400D01*
X74000D01*
Y72000D01*
X73600D01*
Y71200D01*
X74000D01*
X74200Y71400D02*
Y71200D01*
X74600D01*
Y71400D01*
X74800D01*
Y71800D01*
X74600D01*
Y72000D01*
X74200D01*
Y71800D01*
X74000D01*
Y71400D01*
X74200D01*
X74000Y75100D02*
Y74700D01*
X74800D01*
Y75100D01*
X75200D01*
Y75900D01*
X74800D01*
Y76300D01*
X74000D01*
Y75900D01*
X73600D01*
Y75100D01*
X74000D01*
X74200Y75300D02*
Y75100D01*
X74600D01*
Y75300D01*
X74800D01*
Y75700D01*
X74600D01*
Y75900D01*
X74200D01*
Y75700D01*
X74000D01*
Y75300D01*
X74200D01*
X103700Y123600D02*
Y123200D01*
X104500D01*
Y123600D01*
X104900D01*
Y124400D01*
X104500D01*
Y124800D01*
X103700D01*
Y124400D01*
X103300D01*
Y123600D01*
X103700D01*
X103900Y123800D02*
Y123600D01*
X104300D01*
Y123800D01*
X104500D01*
Y124200D01*
X104300D01*
Y124400D01*
X103900D01*
Y124200D01*
X103700D01*
Y123800D01*
X103900D01*
X153300Y113600D02*
Y113200D01*
X154100D01*
Y113600D01*
X154500D01*
Y114400D01*
X154100D01*
Y114800D01*
X153300D01*
Y114400D01*
X152900D01*
Y113600D01*
X153300D01*
X153500Y113800D02*
Y113600D01*
X153900D01*
Y113800D01*
X154100D01*
Y114200D01*
X153900D01*
Y114400D01*
X153500D01*
Y114200D01*
X153300D01*
Y113800D01*
X153500D01*
X107500Y127700D02*
Y127300D01*
X108300D01*
Y127700D01*
X108700D01*
Y128500D01*
X108300D01*
Y128900D01*
X107500D01*
Y128500D01*
X107100D01*
Y127700D01*
X107500D01*
X107700Y127900D02*
Y127700D01*
X108100D01*
Y127900D01*
X108300D01*
Y128300D01*
X108100D01*
Y128500D01*
X107700D01*
Y128300D01*
X107500D01*
Y127900D01*
X107700D01*
X194100Y204500D02*
Y204100D01*
X194900D01*
Y204500D01*
X195300D01*
Y205300D01*
X194900D01*
Y205700D01*
X194100D01*
Y205300D01*
X193700D01*
Y204500D01*
X194100D01*
X194300Y204700D02*
Y204500D01*
X194700D01*
Y204700D01*
X194900D01*
Y205100D01*
X194700D01*
Y205300D01*
X194300D01*
Y205100D01*
X194100D01*
Y204700D01*
X194300D01*
X328900Y262200D02*
Y261800D01*
X329700D01*
Y262200D01*
X330100D01*
Y263000D01*
X329700D01*
Y263400D01*
X328900D01*
Y263000D01*
X328500D01*
Y262200D01*
X328900D01*
X329100Y262400D02*
Y262200D01*
X329500D01*
Y262400D01*
X329700D01*
Y262800D01*
X329500D01*
Y263000D01*
X329100D01*
Y262800D01*
X328900D01*
Y262400D01*
X329100D01*
X117704Y111700D02*
Y111300D01*
X118504D01*
Y111700D01*
X118904D01*
Y112500D01*
X118504D01*
Y112900D01*
X117704D01*
Y112500D01*
X117304D01*
Y111700D01*
X117704D01*
X117904Y111900D02*
Y111700D01*
X118304D01*
Y111900D01*
X118504D01*
Y112300D01*
X118304D01*
Y112500D01*
X117904D01*
Y112300D01*
X117704D01*
Y111900D01*
X117904D01*
X116500Y114500D02*
Y114100D01*
X117300D01*
Y114500D01*
X117700D01*
Y115300D01*
X117300D01*
Y115700D01*
X116500D01*
Y115300D01*
X116100D01*
Y114500D01*
X116500D01*
X116700Y114700D02*
Y114500D01*
X117100D01*
Y114700D01*
X117300D01*
Y115100D01*
X117100D01*
Y115300D01*
X116700D01*
Y115100D01*
X116500D01*
Y114700D01*
X116700D01*
X116400Y118500D02*
Y118100D01*
X117200D01*
Y118500D01*
X117600D01*
Y119300D01*
X117200D01*
Y119700D01*
X116400D01*
Y119300D01*
X116000D01*
Y118500D01*
X116400D01*
X116600Y118700D02*
Y118500D01*
X117000D01*
Y118700D01*
X117200D01*
Y119100D01*
X117000D01*
Y119300D01*
X116600D01*
Y119100D01*
X116400D01*
Y118700D01*
X116600D01*
X116400Y121900D02*
Y121500D01*
X117200D01*
Y121900D01*
X117600D01*
Y122700D01*
X117200D01*
Y123100D01*
X116400D01*
Y122700D01*
X116000D01*
Y121900D01*
X116400D01*
X116600Y122100D02*
Y121900D01*
X117000D01*
Y122100D01*
X117200D01*
Y122500D01*
X117000D01*
Y122700D01*
X116600D01*
Y122500D01*
X116400D01*
Y122100D01*
X116600D01*
X439900Y66600D02*
Y66200D01*
X440700D01*
Y66600D01*
X441100D01*
Y67400D01*
X440700D01*
Y67800D01*
X439900D01*
Y67400D01*
X439500D01*
Y66600D01*
X439900D01*
X440100Y66800D02*
Y66600D01*
X440500D01*
Y66800D01*
X440700D01*
Y67200D01*
X440500D01*
Y67400D01*
X440100D01*
Y67200D01*
X439900D01*
Y66800D01*
X440100D01*
X8700Y92200D02*
Y91800D01*
X9500D01*
Y92200D01*
X9900D01*
Y93000D01*
X9500D01*
Y93400D01*
X8700D01*
Y93000D01*
X8300D01*
Y92200D01*
X8700D01*
X8900Y92400D02*
Y92200D01*
X9300D01*
Y92400D01*
X9500D01*
Y92800D01*
X9300D01*
Y93000D01*
X8900D01*
Y92800D01*
X8700D01*
Y92400D01*
X8900D01*
X193400Y276000D02*
Y275600D01*
X194200D01*
Y276000D01*
X194600D01*
Y276800D01*
X194200D01*
Y277200D01*
X193400D01*
Y276800D01*
X193000D01*
Y276000D01*
X193400D01*
X193600Y276200D02*
Y276000D01*
X194000D01*
Y276200D01*
X194200D01*
Y276600D01*
X194000D01*
Y276800D01*
X193600D01*
Y276600D01*
X193400D01*
Y276200D01*
X193600D01*
X208300Y269700D02*
Y269300D01*
X209100D01*
Y269700D01*
X209500D01*
Y270500D01*
X209100D01*
Y270900D01*
X208300D01*
Y270500D01*
X207900D01*
Y269700D01*
X208300D01*
X208500Y269900D02*
Y269700D01*
X208900D01*
Y269900D01*
X209100D01*
Y270300D01*
X208900D01*
Y270500D01*
X208500D01*
Y270300D01*
X208300D01*
Y269900D01*
X208500D01*
X221100Y85400D02*
Y85000D01*
X221900D01*
Y85400D01*
X222300D01*
Y86200D01*
X221900D01*
Y86600D01*
X221100D01*
Y86200D01*
X220700D01*
Y85400D01*
X221100D01*
X221300Y85600D02*
Y85400D01*
X221700D01*
Y85600D01*
X221900D01*
Y86000D01*
X221700D01*
Y86200D01*
X221300D01*
Y86000D01*
X221100D01*
Y85600D01*
X221300D01*
X237700Y60600D02*
Y60200D01*
X238500D01*
Y60600D01*
X238900D01*
Y61400D01*
X238500D01*
Y61800D01*
X237700D01*
Y61400D01*
X237300D01*
Y60600D01*
X237700D01*
X237900Y60800D02*
Y60600D01*
X238300D01*
Y60800D01*
X238500D01*
Y61200D01*
X238300D01*
Y61400D01*
X237900D01*
Y61200D01*
X237700D01*
Y60800D01*
X237900D01*
X269400Y8300D02*
Y7900D01*
X270200D01*
Y8300D01*
X270600D01*
Y9100D01*
X270200D01*
Y9500D01*
X269400D01*
Y9100D01*
X269000D01*
Y8300D01*
X269400D01*
X269600Y8500D02*
Y8300D01*
X270000D01*
Y8500D01*
X270200D01*
Y8900D01*
X270000D01*
Y9100D01*
X269600D01*
Y8900D01*
X269400D01*
Y8500D01*
X269600D01*
X207000Y16200D02*
Y15800D01*
X207800D01*
Y16200D01*
X208200D01*
Y17000D01*
X207800D01*
Y17400D01*
X207000D01*
Y17000D01*
X206600D01*
Y16200D01*
X207000D01*
X207200Y16400D02*
Y16200D01*
X207600D01*
Y16400D01*
X207800D01*
Y16800D01*
X207600D01*
Y17000D01*
X207200D01*
Y16800D01*
X207000D01*
Y16400D01*
X207200D01*
X104500Y11600D02*
Y11200D01*
X105300D01*
Y11600D01*
X105700D01*
Y12400D01*
X105300D01*
Y12800D01*
X104500D01*
Y12400D01*
X104100D01*
Y11600D01*
X104500D01*
X104700Y11800D02*
Y11600D01*
X105100D01*
Y11800D01*
X105300D01*
Y12200D01*
X105100D01*
Y12400D01*
X104700D01*
Y12200D01*
X104500D01*
Y11800D01*
X104700D01*
X96200Y69100D02*
Y68700D01*
X97000D01*
Y69100D01*
X97400D01*
Y69900D01*
X97000D01*
Y70300D01*
X96200D01*
Y69900D01*
X95800D01*
Y69100D01*
X96200D01*
X96400Y69300D02*
Y69100D01*
X96800D01*
Y69300D01*
X97000D01*
Y69700D01*
X96800D01*
Y69900D01*
X96400D01*
Y69700D01*
X96200D01*
Y69300D01*
X96400D01*
X35800Y271100D02*
Y270700D01*
X36600D01*
Y271100D01*
X37000D01*
Y271900D01*
X36600D01*
Y272300D01*
X35800D01*
Y271900D01*
X35400D01*
Y271100D01*
X35800D01*
X36000Y271300D02*
Y271100D01*
X36400D01*
Y271300D01*
X36600D01*
Y271700D01*
X36400D01*
Y271900D01*
X36000D01*
Y271700D01*
X35800D01*
Y271300D01*
X36000D01*
X150700Y270700D02*
Y270300D01*
X151500D01*
Y270700D01*
X151900D01*
Y271500D01*
X151500D01*
Y271900D01*
X150700D01*
Y271500D01*
X150300D01*
Y270700D01*
X150700D01*
X150900Y270900D02*
Y270700D01*
X151300D01*
Y270900D01*
X151500D01*
Y271300D01*
X151300D01*
Y271500D01*
X150900D01*
Y271300D01*
X150700D01*
Y270900D01*
X150900D01*
X204800Y212300D02*
Y211900D01*
X205600D01*
Y212300D01*
X206000D01*
Y213100D01*
X205600D01*
Y213500D01*
X204800D01*
Y213100D01*
X204400D01*
Y212300D01*
X204800D01*
X205000Y212500D02*
Y212300D01*
X205400D01*
Y212500D01*
X205600D01*
Y212900D01*
X205400D01*
Y213100D01*
X205000D01*
Y212900D01*
X204800D01*
Y212500D01*
X205000D01*
X231800Y262300D02*
Y261900D01*
X232600D01*
Y262300D01*
X233000D01*
Y263100D01*
X232600D01*
Y263500D01*
X231800D01*
Y263100D01*
X231400D01*
Y262300D01*
X231800D01*
X232000Y262500D02*
Y262300D01*
X232400D01*
Y262500D01*
X232600D01*
Y262900D01*
X232400D01*
Y263100D01*
X232000D01*
Y262900D01*
X231800D01*
Y262500D01*
X232000D01*
X327900Y221600D02*
Y221200D01*
X328700D01*
Y221600D01*
X329100D01*
Y222400D01*
X328700D01*
Y222800D01*
X327900D01*
Y222400D01*
X327500D01*
Y221600D01*
X327900D01*
X328100Y221800D02*
Y221600D01*
X328500D01*
Y221800D01*
X328700D01*
Y222200D01*
X328500D01*
Y222400D01*
X328100D01*
Y222200D01*
X327900D01*
Y221800D01*
X328100D01*
X362100Y282400D02*
Y282000D01*
X362900D01*
Y282400D01*
X363300D01*
Y283200D01*
X362900D01*
Y283600D01*
X362100D01*
Y283200D01*
X361700D01*
Y282400D01*
X362100D01*
X362300Y282600D02*
Y282400D01*
X362700D01*
Y282600D01*
X362900D01*
Y283000D01*
X362700D01*
Y283200D01*
X362300D01*
Y283000D01*
X362100D01*
Y282600D01*
X362300D01*
X443800Y265500D02*
Y265100D01*
X444600D01*
Y265500D01*
X445000D01*
Y266300D01*
X444600D01*
Y266700D01*
X443800D01*
Y266300D01*
X443400D01*
Y265500D01*
X443800D01*
X444000Y265700D02*
Y265500D01*
X444400D01*
Y265700D01*
X444600D01*
Y266100D01*
X444400D01*
Y266300D01*
X444000D01*
Y266100D01*
X443800D01*
Y265700D01*
X444000D01*
X478000Y173200D02*
Y172800D01*
X478800D01*
Y173200D01*
X479200D01*
Y174000D01*
X478800D01*
Y174400D01*
X478000D01*
Y174000D01*
X477600D01*
Y173200D01*
X478000D01*
X478200Y173400D02*
Y173200D01*
X478600D01*
Y173400D01*
X478800D01*
Y173800D01*
X478600D01*
Y174000D01*
X478200D01*
Y173800D01*
X478000D01*
Y173400D01*
X478200D01*
X461900Y108900D02*
Y108500D01*
X462700D01*
Y108900D01*
X463100D01*
Y109700D01*
X462700D01*
Y110100D01*
X461900D01*
Y109700D01*
X461500D01*
Y108900D01*
X461900D01*
X462100Y109100D02*
Y108900D01*
X462500D01*
Y109100D01*
X462700D01*
Y109500D01*
X462500D01*
Y109700D01*
X462100D01*
Y109500D01*
X461900D01*
Y109100D01*
X462100D01*
X456300Y43200D02*
Y42800D01*
X457100D01*
Y43200D01*
X457500D01*
Y44000D01*
X457100D01*
Y44400D01*
X456300D01*
Y44000D01*
X455900D01*
Y43200D01*
X456300D01*
X456500Y43400D02*
Y43200D01*
X456900D01*
Y43400D01*
X457100D01*
Y43800D01*
X456900D01*
Y44000D01*
X456500D01*
Y43800D01*
X456300D01*
Y43400D01*
X456500D01*
X180500Y91900D02*
Y91500D01*
X181300D01*
Y91900D01*
X181700D01*
Y92700D01*
X181300D01*
Y93100D01*
X180500D01*
Y92700D01*
X180100D01*
Y91900D01*
X180500D01*
X180700Y92100D02*
Y91900D01*
X181100D01*
Y92100D01*
X181300D01*
Y92500D01*
X181100D01*
Y92700D01*
X180700D01*
Y92500D01*
X180500D01*
Y92100D01*
X180700D01*
X336900Y97300D02*
Y96900D01*
X337700D01*
Y97300D01*
X338100D01*
Y98100D01*
X337700D01*
Y98500D01*
X336900D01*
Y98100D01*
X336500D01*
Y97300D01*
X336900D01*
X337100Y97500D02*
Y97300D01*
X337500D01*
Y97500D01*
X337700D01*
Y97900D01*
X337500D01*
Y98100D01*
X337100D01*
Y97900D01*
X336900D01*
Y97500D01*
X337100D01*
X226200Y181700D02*
Y181300D01*
X227000D01*
Y181700D01*
X227400D01*
Y182500D01*
X227000D01*
Y182900D01*
X226200D01*
Y182500D01*
X225800D01*
Y181700D01*
X226200D01*
X226400Y181900D02*
Y181700D01*
X226800D01*
Y181900D01*
X227000D01*
Y182300D01*
X226800D01*
Y182500D01*
X226400D01*
Y182300D01*
X226200D01*
Y181900D01*
X226400D01*
X27100Y205300D02*
Y204900D01*
X27900D01*
Y205300D01*
X28300D01*
Y206100D01*
X27900D01*
Y206500D01*
X27100D01*
Y206100D01*
X26700D01*
Y205300D01*
X27100D01*
X27300Y205500D02*
Y205300D01*
X27700D01*
Y205500D01*
X27900D01*
Y205900D01*
X27700D01*
Y206100D01*
X27300D01*
Y205900D01*
X27100D01*
Y205500D01*
X27300D01*
X455900Y134100D02*
Y133700D01*
X456700D01*
Y134100D01*
X457100D01*
Y134900D01*
X456700D01*
Y135300D01*
X455900D01*
Y134900D01*
X455500D01*
Y134100D01*
X455900D01*
X456100Y134300D02*
Y134100D01*
X456500D01*
Y134300D01*
X456700D01*
Y134700D01*
X456500D01*
Y134900D01*
X456100D01*
Y134700D01*
X455900D01*
Y134300D01*
X456100D01*
X450300Y136900D02*
Y136500D01*
X451100D01*
Y136900D01*
X451500D01*
Y137700D01*
X451100D01*
Y138100D01*
X450300D01*
Y137700D01*
X449900D01*
Y136900D01*
X450300D01*
X450500Y137100D02*
Y136900D01*
X450900D01*
Y137100D01*
X451100D01*
Y137500D01*
X450900D01*
Y137700D01*
X450500D01*
Y137500D01*
X450300D01*
Y137100D01*
X450500D01*
X444400Y139500D02*
Y139100D01*
X445200D01*
Y139500D01*
X445600D01*
Y140300D01*
X445200D01*
Y140700D01*
X444400D01*
Y140300D01*
X444000D01*
Y139500D01*
X444400D01*
X444600Y139700D02*
Y139500D01*
X445000D01*
Y139700D01*
X445200D01*
Y140100D01*
X445000D01*
Y140300D01*
X444600D01*
Y140100D01*
X444400D01*
Y139700D01*
X444600D01*
X450900Y132100D02*
Y131700D01*
X451700D01*
Y132100D01*
X452100D01*
Y132900D01*
X451700D01*
Y133300D01*
X450900D01*
Y132900D01*
X450500D01*
Y132100D01*
X450900D01*
X451100Y132300D02*
Y132100D01*
X451500D01*
Y132300D01*
X451700D01*
Y132700D01*
X451500D01*
Y132900D01*
X451100D01*
Y132700D01*
X450900D01*
Y132300D01*
X451100D01*
X453300Y127400D02*
Y127000D01*
X454100D01*
Y127400D01*
X454500D01*
Y128200D01*
X454100D01*
Y128600D01*
X453300D01*
Y128200D01*
X452900D01*
Y127400D01*
X453300D01*
X453500Y127600D02*
Y127400D01*
X453900D01*
Y127600D01*
X454100D01*
Y128000D01*
X453900D01*
Y128200D01*
X453500D01*
Y128000D01*
X453300D01*
Y127600D01*
X453500D01*
X376300Y37100D02*
Y36700D01*
X377100D01*
Y37100D01*
X377500D01*
Y37900D01*
X377100D01*
Y38300D01*
X376300D01*
Y37900D01*
X375900D01*
Y37100D01*
X376300D01*
X376500Y37300D02*
Y37100D01*
X376900D01*
Y37300D01*
X377100D01*
Y37700D01*
X376900D01*
Y37900D01*
X376500D01*
Y37700D01*
X376300D01*
Y37300D01*
X376500D01*
X355600Y54700D02*
Y54300D01*
X356400D01*
Y54700D01*
X356800D01*
Y55500D01*
X356400D01*
Y55900D01*
X355600D01*
Y55500D01*
X355200D01*
Y54700D01*
X355600D01*
X355800Y54900D02*
Y54700D01*
X356200D01*
Y54900D01*
X356400D01*
Y55300D01*
X356200D01*
Y55500D01*
X355800D01*
Y55300D01*
X355600D01*
Y54900D01*
X355800D01*
X352600Y54600D02*
Y54200D01*
X353400D01*
Y54600D01*
X353800D01*
Y55400D01*
X353400D01*
Y55800D01*
X352600D01*
Y55400D01*
X352200D01*
Y54600D01*
X352600D01*
X352800Y54800D02*
Y54600D01*
X353200D01*
Y54800D01*
X353400D01*
Y55200D01*
X353200D01*
Y55400D01*
X352800D01*
Y55200D01*
X352600D01*
Y54800D01*
X352800D01*
X270400Y168000D02*
Y167600D01*
X271200D01*
Y168000D01*
X271600D01*
Y168800D01*
X271200D01*
Y169200D01*
X270400D01*
Y168800D01*
X270000D01*
Y168000D01*
X270400D01*
X270600Y168200D02*
Y168000D01*
X271000D01*
Y168200D01*
X271200D01*
Y168600D01*
X271000D01*
Y168800D01*
X270600D01*
Y168600D01*
X270400D01*
Y168200D01*
X270600D01*
X277600Y172200D02*
Y171800D01*
X278400D01*
Y172200D01*
X278800D01*
Y173000D01*
X278400D01*
Y173400D01*
X277600D01*
Y173000D01*
X277200D01*
Y172200D01*
X277600D01*
X277800Y172400D02*
Y172200D01*
X278200D01*
Y172400D01*
X278400D01*
Y172800D01*
X278200D01*
Y173000D01*
X277800D01*
Y172800D01*
X277600D01*
Y172400D01*
X277800D01*
X280100Y170100D02*
Y169700D01*
X280900D01*
Y170100D01*
X281300D01*
Y170900D01*
X280900D01*
Y171300D01*
X280100D01*
Y170900D01*
X279700D01*
Y170100D01*
X280100D01*
X280300Y170300D02*
Y170100D01*
X280700D01*
Y170300D01*
X280900D01*
Y170700D01*
X280700D01*
Y170900D01*
X280300D01*
Y170700D01*
X280100D01*
Y170300D01*
X280300D01*
X308300Y73400D02*
Y73000D01*
X309100D01*
Y73400D01*
X309500D01*
Y74200D01*
X309100D01*
Y74600D01*
X308300D01*
Y74200D01*
X307900D01*
Y73400D01*
X308300D01*
X308500Y73600D02*
Y73400D01*
X308900D01*
Y73600D01*
X309100D01*
Y74000D01*
X308900D01*
Y74200D01*
X308500D01*
Y74000D01*
X308300D01*
Y73600D01*
X308500D01*
X283400Y70200D02*
Y69800D01*
X284200D01*
Y70200D01*
X284600D01*
Y71000D01*
X284200D01*
Y71400D01*
X283400D01*
Y71000D01*
X283000D01*
Y70200D01*
X283400D01*
X283600Y70400D02*
Y70200D01*
X284000D01*
Y70400D01*
X284200D01*
Y70800D01*
X284000D01*
Y71000D01*
X283600D01*
Y70800D01*
X283400D01*
Y70400D01*
X283600D01*
X383800Y43200D02*
Y42800D01*
X384600D01*
Y43200D01*
X385000D01*
Y44000D01*
X384600D01*
Y44400D01*
X383800D01*
Y44000D01*
X383400D01*
Y43200D01*
X383800D01*
X384000Y43400D02*
Y43200D01*
X384400D01*
Y43400D01*
X384600D01*
Y43800D01*
X384400D01*
Y44000D01*
X384000D01*
Y43800D01*
X383800D01*
Y43400D01*
X384000D01*
X299000Y108000D02*
Y107600D01*
X299800D01*
Y108000D01*
X300200D01*
Y108800D01*
X299800D01*
Y109200D01*
X299000D01*
Y108800D01*
X298600D01*
Y108000D01*
X299000D01*
X299200Y108200D02*
Y108000D01*
X299600D01*
Y108200D01*
X299800D01*
Y108600D01*
X299600D01*
Y108800D01*
X299200D01*
Y108600D01*
X299000D01*
Y108200D01*
X299200D01*
X301200Y113300D02*
Y112900D01*
X302000D01*
Y113300D01*
X302400D01*
Y114100D01*
X302000D01*
Y114500D01*
X301200D01*
Y114100D01*
X300800D01*
Y113300D01*
X301200D01*
X301400Y113500D02*
Y113300D01*
X301800D01*
Y113500D01*
X302000D01*
Y113900D01*
X301800D01*
Y114100D01*
X301400D01*
Y113900D01*
X301200D01*
Y113500D01*
X301400D01*
X307400Y103800D02*
Y103400D01*
X308200D01*
Y103800D01*
X308600D01*
Y104600D01*
X308200D01*
Y105000D01*
X307400D01*
Y104600D01*
X307000D01*
Y103800D01*
X307400D01*
X307600Y104000D02*
Y103800D01*
X308000D01*
Y104000D01*
X308200D01*
Y104400D01*
X308000D01*
Y104600D01*
X307600D01*
Y104400D01*
X307400D01*
Y104000D01*
X307600D01*
X296500Y131200D02*
Y130800D01*
X297300D01*
Y131200D01*
X297700D01*
Y132000D01*
X297300D01*
Y132400D01*
X296500D01*
Y132000D01*
X296100D01*
Y131200D01*
X296500D01*
X296700Y131400D02*
Y131200D01*
X297100D01*
Y131400D01*
X297300D01*
Y131800D01*
X297100D01*
Y132000D01*
X296700D01*
Y131800D01*
X296500D01*
Y131400D01*
X296700D01*
X304800Y110300D02*
Y109900D01*
X305600D01*
Y110300D01*
X306000D01*
Y111100D01*
X305600D01*
Y111500D01*
X304800D01*
Y111100D01*
X304400D01*
Y110300D01*
X304800D01*
X305000Y110500D02*
Y110300D01*
X305400D01*
Y110500D01*
X305600D01*
Y110900D01*
X305400D01*
Y111100D01*
X305000D01*
Y110900D01*
X304800D01*
Y110500D01*
X305000D01*
X343200Y110700D02*
Y110300D01*
X344000D01*
Y110700D01*
X344400D01*
Y111500D01*
X344000D01*
Y111900D01*
X343200D01*
Y111500D01*
X342800D01*
Y110700D01*
X343200D01*
X343400Y110900D02*
Y110700D01*
X343800D01*
Y110900D01*
X344000D01*
Y111300D01*
X343800D01*
Y111500D01*
X343400D01*
Y111300D01*
X343200D01*
Y110900D01*
X343400D01*
X345300Y108600D02*
Y108200D01*
X346100D01*
Y108600D01*
X346500D01*
Y109400D01*
X346100D01*
Y109800D01*
X345300D01*
Y109400D01*
X344900D01*
Y108600D01*
X345300D01*
X345500Y108800D02*
Y108600D01*
X345900D01*
Y108800D01*
X346100D01*
Y109200D01*
X345900D01*
Y109400D01*
X345500D01*
Y109200D01*
X345300D01*
Y108800D01*
X345500D01*
X347200Y106500D02*
Y106100D01*
X348000D01*
Y106500D01*
X348400D01*
Y107300D01*
X348000D01*
Y107700D01*
X347200D01*
Y107300D01*
X346800D01*
Y106500D01*
X347200D01*
X347400Y106700D02*
Y106500D01*
X347800D01*
Y106700D01*
X348000D01*
Y107100D01*
X347800D01*
Y107300D01*
X347400D01*
Y107100D01*
X347200D01*
Y106700D01*
X347400D01*
X348300Y103500D02*
Y103100D01*
X349100D01*
Y103500D01*
X349500D01*
Y104300D01*
X349100D01*
Y104700D01*
X348300D01*
Y104300D01*
X347900D01*
Y103500D01*
X348300D01*
X348500Y103700D02*
Y103500D01*
X348900D01*
Y103700D01*
X349100D01*
Y104100D01*
X348900D01*
Y104300D01*
X348500D01*
Y104100D01*
X348300D01*
Y103700D01*
X348500D01*
X350700Y101200D02*
Y100800D01*
X351500D01*
Y101200D01*
X351900D01*
Y102000D01*
X351500D01*
Y102400D01*
X350700D01*
Y102000D01*
X350300D01*
Y101200D01*
X350700D01*
X350900Y101400D02*
Y101200D01*
X351300D01*
Y101400D01*
X351500D01*
Y101800D01*
X351300D01*
Y102000D01*
X350900D01*
Y101800D01*
X350700D01*
Y101400D01*
X350900D01*
X134500Y57500D02*
Y57100D01*
X135300D01*
Y57500D01*
X135700D01*
Y58300D01*
X135300D01*
Y58700D01*
X134500D01*
Y58300D01*
X134100D01*
Y57500D01*
X134500D01*
X134700Y57700D02*
Y57500D01*
X135100D01*
Y57700D01*
X135300D01*
Y58100D01*
X135100D01*
Y58300D01*
X134700D01*
Y58100D01*
X134500D01*
Y57700D01*
X134700D01*
X413200Y149800D02*
Y149400D01*
X414000D01*
Y149800D01*
X414400D01*
Y150600D01*
X414000D01*
Y151000D01*
X413200D01*
Y150600D01*
X412800D01*
Y149800D01*
X413200D01*
X413400Y150000D02*
Y149800D01*
X413800D01*
Y150000D01*
X414000D01*
Y150400D01*
X413800D01*
Y150600D01*
X413400D01*
Y150400D01*
X413200D01*
Y150000D01*
X413400D01*
X400900Y138800D02*
Y138400D01*
X401700D01*
Y138800D01*
X402100D01*
Y139600D01*
X401700D01*
Y140000D01*
X400900D01*
Y139600D01*
X400500D01*
Y138800D01*
X400900D01*
X401100Y139000D02*
Y138800D01*
X401500D01*
Y139000D01*
X401700D01*
Y139400D01*
X401500D01*
Y139600D01*
X401100D01*
Y139400D01*
X400900D01*
Y139000D01*
X401100D01*
X314500Y183900D02*
Y183500D01*
X315300D01*
Y183900D01*
X315700D01*
Y184700D01*
X315300D01*
Y185100D01*
X314500D01*
Y184700D01*
X314100D01*
Y183900D01*
X314500D01*
X314700Y184100D02*
Y183900D01*
X315100D01*
Y184100D01*
X315300D01*
Y184500D01*
X315100D01*
Y184700D01*
X314700D01*
Y184500D01*
X314500D01*
Y184100D01*
X314700D01*
X312000Y181700D02*
Y181300D01*
X312800D01*
Y181700D01*
X313200D01*
Y182500D01*
X312800D01*
Y182900D01*
X312000D01*
Y182500D01*
X311600D01*
Y181700D01*
X312000D01*
X312200Y181900D02*
Y181700D01*
X312600D01*
Y181900D01*
X312800D01*
Y182300D01*
X312600D01*
Y182500D01*
X312200D01*
Y182300D01*
X312000D01*
Y181900D01*
X312200D01*
X384400Y144800D02*
Y144400D01*
X385200D01*
Y144800D01*
X385600D01*
Y145600D01*
X385200D01*
Y146000D01*
X384400D01*
Y145600D01*
X384000D01*
Y144800D01*
X384400D01*
X384600Y145000D02*
Y144800D01*
X385000D01*
Y145000D01*
X385200D01*
Y145400D01*
X385000D01*
Y145600D01*
X384600D01*
Y145400D01*
X384400D01*
Y145000D01*
X384600D01*
X277900Y122000D02*
Y121600D01*
X278700D01*
Y122000D01*
X279100D01*
Y122800D01*
X278700D01*
Y123200D01*
X277900D01*
Y122800D01*
X277500D01*
Y122000D01*
X277900D01*
X278100Y122200D02*
Y122000D01*
X278500D01*
Y122200D01*
X278700D01*
Y122600D01*
X278500D01*
Y122800D01*
X278100D01*
Y122600D01*
X277900D01*
Y122200D01*
X278100D01*
X274900Y122800D02*
Y122400D01*
X275700D01*
Y122800D01*
X276100D01*
Y123600D01*
X275700D01*
Y124000D01*
X274900D01*
Y123600D01*
X274500D01*
Y122800D01*
X274900D01*
X275100Y123000D02*
Y122800D01*
X275500D01*
Y123000D01*
X275700D01*
Y123400D01*
X275500D01*
Y123600D01*
X275100D01*
Y123400D01*
X274900D01*
Y123000D01*
X275100D01*
X278900Y118000D02*
Y117600D01*
X279700D01*
Y118000D01*
X280100D01*
Y118800D01*
X279700D01*
Y119200D01*
X278900D01*
Y118800D01*
X278500D01*
Y118000D01*
X278900D01*
X279100Y118200D02*
Y118000D01*
X279500D01*
Y118200D01*
X279700D01*
Y118600D01*
X279500D01*
Y118800D01*
X279100D01*
Y118600D01*
X278900D01*
Y118200D01*
X279100D01*
X280600Y115100D02*
Y114700D01*
X281400D01*
Y115100D01*
X281800D01*
Y115900D01*
X281400D01*
Y116300D01*
X280600D01*
Y115900D01*
X280200D01*
Y115100D01*
X280600D01*
X280800Y115300D02*
Y115100D01*
X281200D01*
Y115300D01*
X281400D01*
Y115700D01*
X281200D01*
Y115900D01*
X280800D01*
Y115700D01*
X280600D01*
Y115300D01*
X280800D01*
X265000Y85800D02*
Y85400D01*
X265800D01*
Y85800D01*
X266200D01*
Y86600D01*
X265800D01*
Y87000D01*
X265000D01*
Y86600D01*
X264600D01*
Y85800D01*
X265000D01*
X265200Y86000D02*
Y85800D01*
X265600D01*
Y86000D01*
X265800D01*
Y86400D01*
X265600D01*
Y86600D01*
X265200D01*
Y86400D01*
X265000D01*
Y86000D01*
X265200D01*
X280100Y111800D02*
Y111400D01*
X280900D01*
Y111800D01*
X281300D01*
Y112600D01*
X280900D01*
Y113000D01*
X280100D01*
Y112600D01*
X279700D01*
Y111800D01*
X280100D01*
X280300Y112000D02*
Y111800D01*
X280700D01*
Y112000D01*
X280900D01*
Y112400D01*
X280700D01*
Y112600D01*
X280300D01*
Y112400D01*
X280100D01*
Y112000D01*
X280300D01*
X280200Y108600D02*
Y108200D01*
X281000D01*
Y108600D01*
X281400D01*
Y109400D01*
X281000D01*
Y109800D01*
X280200D01*
Y109400D01*
X279800D01*
Y108600D01*
X280200D01*
X280400Y108800D02*
Y108600D01*
X280800D01*
Y108800D01*
X281000D01*
Y109200D01*
X280800D01*
Y109400D01*
X280400D01*
Y109200D01*
X280200D01*
Y108800D01*
X280400D01*
X283900Y144900D02*
Y144500D01*
X284700D01*
Y144900D01*
X285100D01*
Y145700D01*
X284700D01*
Y146100D01*
X283900D01*
Y145700D01*
X283500D01*
Y144900D01*
X283900D01*
X284100Y145100D02*
Y144900D01*
X284500D01*
Y145100D01*
X284700D01*
Y145500D01*
X284500D01*
Y145700D01*
X284100D01*
Y145500D01*
X283900D01*
Y145100D01*
X284100D01*
X444200Y11400D02*
Y11000D01*
X445000D01*
Y11400D01*
X445400D01*
Y12200D01*
X445000D01*
Y12600D01*
X444200D01*
Y12200D01*
X443800D01*
Y11400D01*
X444200D01*
X444400Y11600D02*
Y11400D01*
X444800D01*
Y11600D01*
X445000D01*
Y12000D01*
X444800D01*
Y12200D01*
X444400D01*
Y12000D01*
X444200D01*
Y11600D01*
X444400D01*
X61500Y187400D02*
Y187000D01*
X62300D01*
Y187400D01*
X62700D01*
Y188200D01*
X62300D01*
Y188600D01*
X61500D01*
Y188200D01*
X61100D01*
Y187400D01*
X61500D01*
X61700Y187600D02*
Y187400D01*
X62100D01*
Y187600D01*
X62300D01*
Y188000D01*
X62100D01*
Y188200D01*
X61700D01*
Y188000D01*
X61500D01*
Y187600D01*
X61700D01*
X97991Y130070D02*
X98391D01*
X98791Y130470D01*
X99191Y130070D01*
X99591D01*
Y130470D01*
X99191Y130870D01*
X99591Y131270D01*
Y131670D01*
X99191D01*
X98791Y131270D01*
X98391Y131670D01*
X97991D01*
Y131270D01*
X98391Y130870D01*
X97991Y130470D01*
Y130070D01*
X98391Y130470D02*
X98591D01*
X98791Y130670D01*
X98991Y130470D01*
X99191D01*
Y130670D01*
X98991Y130870D01*
X99191Y131070D01*
Y131270D01*
X98991D01*
X98791Y131070D01*
X98591Y131270D01*
X98391D01*
Y131070D01*
X98591Y130870D01*
X98391Y130670D01*
Y130470D01*
X89861Y137550D02*
X90261D01*
X90661Y137950D01*
X91061Y137550D01*
X91461D01*
Y137950D01*
X91061Y138350D01*
X91461Y138750D01*
Y139150D01*
X91061D01*
X90661Y138750D01*
X90261Y139150D01*
X89861D01*
Y138750D01*
X90261Y138350D01*
X89861Y137950D01*
Y137550D01*
X90261Y137950D02*
X90461D01*
X90661Y138150D01*
X90861Y137950D01*
X91061D01*
Y138150D01*
X90861Y138350D01*
X91061Y138550D01*
Y138750D01*
X90861D01*
X90661Y138550D01*
X90461Y138750D01*
X90261D01*
Y138550D01*
X90461Y138350D01*
X90261Y138150D01*
Y137950D01*
X85924Y128102D02*
X86324D01*
X86724Y128502D01*
X87124Y128102D01*
X87524D01*
Y128502D01*
X87124Y128902D01*
X87524Y129302D01*
Y129702D01*
X87124D01*
X86724Y129302D01*
X86324Y129702D01*
X85924D01*
Y129302D01*
X86324Y128902D01*
X85924Y128502D01*
Y128102D01*
X86324Y128502D02*
X86524D01*
X86724Y128702D01*
X86924Y128502D01*
X87124D01*
Y128702D01*
X86924Y128902D01*
X87124Y129102D01*
Y129302D01*
X86924D01*
X86724Y129102D01*
X86524Y129302D01*
X86324D01*
Y129102D01*
X86524Y128902D01*
X86324Y128702D01*
Y128502D01*
X94054Y126133D02*
X94454D01*
X94854Y126533D01*
X95253Y126133D01*
X95653D01*
Y126533D01*
X95253Y126933D01*
X95653Y127333D01*
Y127733D01*
X95253D01*
X94854Y127333D01*
X94454Y127733D01*
X94054D01*
Y127333D01*
X94454Y126933D01*
X94054Y126533D01*
Y126133D01*
X94454Y126533D02*
X94653D01*
X94854Y126733D01*
X95053Y126533D01*
X95253D01*
Y126733D01*
X95053Y126933D01*
X95253Y127133D01*
Y127333D01*
X95053D01*
X94854Y127133D01*
X94653Y127333D01*
X94454D01*
Y127133D01*
X94653Y126933D01*
X94454Y126733D01*
Y126533D01*
X94054Y130070D02*
X94454D01*
X94854Y130470D01*
X95253Y130070D01*
X95653D01*
Y130470D01*
X95253Y130870D01*
X95653Y131270D01*
Y131670D01*
X95253D01*
X94854Y131270D01*
X94454Y131670D01*
X94054D01*
Y131270D01*
X94454Y130870D01*
X94054Y130470D01*
Y130070D01*
X94454Y130470D02*
X94653D01*
X94854Y130670D01*
X95053Y130470D01*
X95253D01*
Y130670D01*
X95053Y130870D01*
X95253Y131070D01*
Y131270D01*
X95053D01*
X94854Y131070D01*
X94653Y131270D01*
X94454D01*
Y131070D01*
X94653Y130870D01*
X94454Y130670D01*
Y130470D01*
X89861Y128102D02*
X90261D01*
X90661Y128502D01*
X91061Y128102D01*
X91461D01*
Y128502D01*
X91061Y128902D01*
X91461Y129302D01*
Y129702D01*
X91061D01*
X90661Y129302D01*
X90261Y129702D01*
X89861D01*
Y129302D01*
X90261Y128902D01*
X89861Y128502D01*
Y128102D01*
X90261Y128502D02*
X90461D01*
X90661Y128702D01*
X90861Y128502D01*
X91061D01*
Y128702D01*
X90861Y128902D01*
X91061Y129102D01*
Y129302D01*
X90861D01*
X90661Y129102D01*
X90461Y129302D01*
X90261D01*
Y129102D01*
X90461Y128902D01*
X90261Y128702D01*
Y128502D01*
X89861Y132039D02*
X90261D01*
X90661Y132439D01*
X91061Y132039D01*
X91461D01*
Y132439D01*
X91061Y132839D01*
X91461Y133239D01*
Y133639D01*
X91061D01*
X90661Y133239D01*
X90261Y133639D01*
X89861D01*
Y133239D01*
X90261Y132839D01*
X89861Y132439D01*
Y132039D01*
X90261Y132439D02*
X90461D01*
X90661Y132639D01*
X90861Y132439D01*
X91061D01*
Y132639D01*
X90861Y132839D01*
X91061Y133039D01*
Y133239D01*
X90861D01*
X90661Y133039D01*
X90461Y133239D01*
X90261D01*
Y133039D01*
X90461Y132839D01*
X90261Y132639D01*
Y132439D01*
X85924Y132039D02*
X86324D01*
X86724Y132439D01*
X87124Y132039D01*
X87524D01*
Y132439D01*
X87124Y132839D01*
X87524Y133239D01*
Y133639D01*
X87124D01*
X86724Y133239D01*
X86324Y133639D01*
X85924D01*
Y133239D01*
X86324Y132839D01*
X85924Y132439D01*
Y132039D01*
X86324Y132439D02*
X86524D01*
X86724Y132639D01*
X86924Y132439D01*
X87124D01*
Y132639D01*
X86924Y132839D01*
X87124Y133039D01*
Y133239D01*
X86924D01*
X86724Y133039D01*
X86524Y133239D01*
X86324D01*
Y133039D01*
X86524Y132839D01*
X86324Y132639D01*
Y132439D01*
X85924Y137550D02*
X86324D01*
X86724Y137950D01*
X87124Y137550D01*
X87524D01*
Y137950D01*
X87124Y138350D01*
X87524Y138750D01*
Y139150D01*
X87124D01*
X86724Y138750D01*
X86324Y139150D01*
X85924D01*
Y138750D01*
X86324Y138350D01*
X85924Y137950D01*
Y137550D01*
X86324Y137950D02*
X86524D01*
X86724Y138150D01*
X86924Y137950D01*
X87124D01*
Y138150D01*
X86924Y138350D01*
X87124Y138550D01*
Y138750D01*
X86924D01*
X86724Y138550D01*
X86524Y138750D01*
X86324D01*
Y138550D01*
X86524Y138350D01*
X86324Y138150D01*
Y137950D01*
X81987Y137550D02*
X82387D01*
X82787Y137950D01*
X83187Y137550D01*
X83587D01*
Y137950D01*
X83187Y138350D01*
X83587Y138750D01*
Y139150D01*
X83187D01*
X82787Y138750D01*
X82387Y139150D01*
X81987D01*
Y138750D01*
X82387Y138350D01*
X81987Y137950D01*
Y137550D01*
X82387Y137950D02*
X82587D01*
X82787Y138150D01*
X82987Y137950D01*
X83187D01*
Y138150D01*
X82987Y138350D01*
X83187Y138550D01*
Y138750D01*
X82987D01*
X82787Y138550D01*
X82587Y138750D01*
X82387D01*
Y138550D01*
X82587Y138350D01*
X82387Y138150D01*
Y137950D01*
X97900Y134100D02*
X98300D01*
X98700Y134500D01*
X99100Y134100D01*
X99500D01*
Y134500D01*
X99100Y134900D01*
X99500Y135300D01*
Y135700D01*
X99100D01*
X98700Y135300D01*
X98300Y135700D01*
X97900D01*
Y135300D01*
X98300Y134900D01*
X97900Y134500D01*
Y134100D01*
X98300Y134500D02*
X98500D01*
X98700Y134700D01*
X98900Y134500D01*
X99100D01*
Y134700D01*
X98900Y134900D01*
X99100Y135100D01*
Y135300D01*
X98900D01*
X98700Y135100D01*
X98500Y135300D01*
X98300D01*
Y135100D01*
X98500Y134900D01*
X98300Y134700D01*
Y134500D01*
X103200Y263100D02*
Y262700D01*
X104000D01*
Y263100D01*
X104400D01*
Y263900D01*
X104000D01*
Y264300D01*
X103200D01*
Y263900D01*
X102800D01*
Y263100D01*
X103200D01*
X103400Y263300D02*
Y263100D01*
X103800D01*
Y263300D01*
X104000D01*
Y263700D01*
X103800D01*
Y263900D01*
X103400D01*
Y263700D01*
X103200D01*
Y263300D01*
X103400D01*
X74600Y229800D02*
Y229400D01*
X75400D01*
Y229800D01*
X75800D01*
Y230600D01*
X75400D01*
Y231000D01*
X74600D01*
Y230600D01*
X74200D01*
Y229800D01*
X74600D01*
X74800Y230000D02*
Y229800D01*
X75200D01*
Y230000D01*
X75400D01*
Y230400D01*
X75200D01*
Y230600D01*
X74800D01*
Y230400D01*
X74600D01*
Y230000D01*
X74800D01*
X81300Y235200D02*
Y234800D01*
X82100D01*
Y235200D01*
X82500D01*
Y236000D01*
X82100D01*
Y236400D01*
X81300D01*
Y236000D01*
X80900D01*
Y235200D01*
X81300D01*
X81500Y235400D02*
Y235200D01*
X81900D01*
Y235400D01*
X82100D01*
Y235800D01*
X81900D01*
Y236000D01*
X81500D01*
Y235800D01*
X81300D01*
Y235400D01*
X81500D01*
X344600Y22300D02*
Y21900D01*
X345400D01*
Y22300D01*
X345800D01*
Y23100D01*
X345400D01*
Y23500D01*
X344600D01*
Y23100D01*
X344200D01*
Y22300D01*
X344600D01*
X344800Y22500D02*
Y22300D01*
X345200D01*
Y22500D01*
X345400D01*
Y22900D01*
X345200D01*
Y23100D01*
X344800D01*
Y22900D01*
X344600D01*
Y22500D01*
X344800D01*
X213400Y235600D02*
Y235200D01*
X214200D01*
Y235600D01*
X214600D01*
Y236400D01*
X214200D01*
Y236800D01*
X213400D01*
Y236400D01*
X213000D01*
Y235600D01*
X213400D01*
X213600Y235800D02*
Y235600D01*
X214000D01*
Y235800D01*
X214200D01*
Y236200D01*
X214000D01*
Y236400D01*
X213600D01*
Y236200D01*
X213400D01*
Y235800D01*
X213600D01*
X219200Y193200D02*
Y192800D01*
X220000D01*
Y193200D01*
X220400D01*
Y194000D01*
X220000D01*
Y194400D01*
X219200D01*
Y194000D01*
X218800D01*
Y193200D01*
X219200D01*
X219400Y193400D02*
Y193200D01*
X219800D01*
Y193400D01*
X220000D01*
Y193800D01*
X219800D01*
Y194000D01*
X219400D01*
Y193800D01*
X219200D01*
Y193400D01*
X219400D01*
X210200Y246400D02*
Y246000D01*
X211000D01*
Y246400D01*
X211400D01*
Y247200D01*
X211000D01*
Y247600D01*
X210200D01*
Y247200D01*
X209800D01*
Y246400D01*
X210200D01*
X210400Y246600D02*
Y246400D01*
X210800D01*
Y246600D01*
X211000D01*
Y247000D01*
X210800D01*
Y247200D01*
X210400D01*
Y247000D01*
X210200D01*
Y246600D01*
X210400D01*
X333600Y140500D02*
Y140100D01*
X334400D01*
Y140500D01*
X334800D01*
Y141300D01*
X334400D01*
Y141700D01*
X333600D01*
Y141300D01*
X333200D01*
Y140500D01*
X333600D01*
X333800Y140700D02*
Y140500D01*
X334200D01*
Y140700D01*
X334400D01*
Y141100D01*
X334200D01*
Y141300D01*
X333800D01*
Y141100D01*
X333600D01*
Y140700D01*
X333800D01*
X327600Y144200D02*
Y143800D01*
X328400D01*
Y144200D01*
X328800D01*
Y145000D01*
X328400D01*
Y145400D01*
X327600D01*
Y145000D01*
X327200D01*
Y144200D01*
X327600D01*
X327800Y144400D02*
Y144200D01*
X328200D01*
Y144400D01*
X328400D01*
Y144800D01*
X328200D01*
Y145000D01*
X327800D01*
Y144800D01*
X327600D01*
Y144400D01*
X327800D01*
X303900Y154300D02*
Y153900D01*
X304700D01*
Y154300D01*
X305100D01*
Y155100D01*
X304700D01*
Y155500D01*
X303900D01*
Y155100D01*
X303500D01*
Y154300D01*
X303900D01*
X304100Y154500D02*
Y154300D01*
X304500D01*
Y154500D01*
X304700D01*
Y154900D01*
X304500D01*
Y155100D01*
X304100D01*
Y154900D01*
X303900D01*
Y154500D01*
X304100D01*
X480600Y127400D02*
Y127000D01*
X481400D01*
Y127400D01*
X481800D01*
Y128200D01*
X481400D01*
Y128600D01*
X480600D01*
Y128200D01*
X480200D01*
Y127400D01*
X480600D01*
X480800Y127600D02*
Y127400D01*
X481200D01*
Y127600D01*
X481400D01*
Y128000D01*
X481200D01*
Y128200D01*
X480800D01*
Y128000D01*
X480600D01*
Y127600D01*
X480800D01*
X55400Y177000D02*
Y176600D01*
X56200D01*
Y177000D01*
X56600D01*
Y177800D01*
X56200D01*
Y178200D01*
X55400D01*
Y177800D01*
X55000D01*
Y177000D01*
X55400D01*
X55600Y177200D02*
Y177000D01*
X56000D01*
Y177200D01*
X56200D01*
Y177600D01*
X56000D01*
Y177800D01*
X55600D01*
Y177600D01*
X55400D01*
Y177200D01*
X55600D01*
X52000D02*
Y176800D01*
X52800D01*
Y177200D01*
X53200D01*
Y178000D01*
X52800D01*
Y178400D01*
X52000D01*
Y178000D01*
X51600D01*
Y177200D01*
X52000D01*
X52200Y177400D02*
Y177200D01*
X52600D01*
Y177400D01*
X52800D01*
Y177800D01*
X52600D01*
Y178000D01*
X52200D01*
Y177800D01*
X52000D01*
Y177400D01*
X52200D01*
X159000Y160100D02*
Y159700D01*
X159800D01*
Y160100D01*
X160200D01*
Y160900D01*
X159800D01*
Y161300D01*
X159000D01*
Y160900D01*
X158600D01*
Y160100D01*
X159000D01*
X159200Y160300D02*
Y160100D01*
X159600D01*
Y160300D01*
X159800D01*
Y160700D01*
X159600D01*
Y160900D01*
X159200D01*
Y160700D01*
X159000D01*
Y160300D01*
X159200D01*
X34800Y201000D02*
Y200600D01*
X35600D01*
Y201000D01*
X36000D01*
Y201800D01*
X35600D01*
Y202200D01*
X34800D01*
Y201800D01*
X34400D01*
Y201000D01*
X34800D01*
X35000Y201200D02*
Y201000D01*
X35400D01*
Y201200D01*
X35600D01*
Y201600D01*
X35400D01*
Y201800D01*
X35000D01*
Y201600D01*
X34800D01*
Y201200D01*
X35000D01*
X123200Y233100D02*
Y232700D01*
X124000D01*
Y233100D01*
X124400D01*
Y233900D01*
X124000D01*
Y234300D01*
X123200D01*
Y233900D01*
X122800D01*
Y233100D01*
X123200D01*
X123400Y233300D02*
Y233100D01*
X123800D01*
Y233300D01*
X124000D01*
Y233700D01*
X123800D01*
Y233900D01*
X123400D01*
Y233700D01*
X123200D01*
Y233300D01*
X123400D01*
X117800Y236700D02*
Y236300D01*
X118600D01*
Y236700D01*
X119000D01*
Y237500D01*
X118600D01*
Y237900D01*
X117800D01*
Y237500D01*
X117400D01*
Y236700D01*
X117800D01*
X118000Y236900D02*
Y236700D01*
X118400D01*
Y236900D01*
X118600D01*
Y237300D01*
X118400D01*
Y237500D01*
X118000D01*
Y237300D01*
X117800D01*
Y236900D01*
X118000D01*
X116000Y260400D02*
Y260000D01*
X116800D01*
Y260400D01*
X117200D01*
Y261200D01*
X116800D01*
Y261600D01*
X116000D01*
Y261200D01*
X115600D01*
Y260400D01*
X116000D01*
X116200Y260600D02*
Y260400D01*
X116600D01*
Y260600D01*
X116800D01*
Y261000D01*
X116600D01*
Y261200D01*
X116200D01*
Y261000D01*
X116000D01*
Y260600D01*
X116200D01*
X123200Y242900D02*
Y242500D01*
X124000D01*
Y242900D01*
X124400D01*
Y243700D01*
X124000D01*
Y244100D01*
X123200D01*
Y243700D01*
X122800D01*
Y242900D01*
X123200D01*
X123400Y243100D02*
Y242900D01*
X123800D01*
Y243100D01*
X124000D01*
Y243500D01*
X123800D01*
Y243700D01*
X123400D01*
Y243500D01*
X123200D01*
Y243100D01*
X123400D01*
X120700Y229900D02*
Y229500D01*
X121500D01*
Y229900D01*
X121900D01*
Y230700D01*
X121500D01*
Y231100D01*
X120700D01*
Y230700D01*
X120300D01*
Y229900D01*
X120700D01*
X120900Y230100D02*
Y229900D01*
X121300D01*
Y230100D01*
X121500D01*
Y230500D01*
X121300D01*
Y230700D01*
X120900D01*
Y230500D01*
X120700D01*
Y230100D01*
X120900D01*
X204200Y73200D02*
Y72800D01*
X205000D01*
Y73200D01*
X205400D01*
Y74000D01*
X205000D01*
Y74400D01*
X204200D01*
Y74000D01*
X203800D01*
Y73200D01*
X204200D01*
X204400Y73400D02*
Y73200D01*
X204800D01*
Y73400D01*
X205000D01*
Y73800D01*
X204800D01*
Y74000D01*
X204400D01*
Y73800D01*
X204200D01*
Y73400D01*
X204400D01*
X189500Y66100D02*
Y65700D01*
X190300D01*
Y66100D01*
X190700D01*
Y66900D01*
X190300D01*
Y67300D01*
X189500D01*
Y66900D01*
X189100D01*
Y66100D01*
X189500D01*
X189700Y66300D02*
Y66100D01*
X190100D01*
Y66300D01*
X190300D01*
Y66700D01*
X190100D01*
Y66900D01*
X189700D01*
Y66700D01*
X189500D01*
Y66300D01*
X189700D01*
X189500Y61900D02*
Y61500D01*
X190300D01*
Y61900D01*
X190700D01*
Y62700D01*
X190300D01*
Y63100D01*
X189500D01*
Y62700D01*
X189100D01*
Y61900D01*
X189500D01*
X189700Y62100D02*
Y61900D01*
X190100D01*
Y62100D01*
X190300D01*
Y62500D01*
X190100D01*
Y62700D01*
X189700D01*
Y62500D01*
X189500D01*
Y62100D01*
X189700D01*
X189400Y57700D02*
Y57300D01*
X190200D01*
Y57700D01*
X190600D01*
Y58500D01*
X190200D01*
Y58900D01*
X189400D01*
Y58500D01*
X189000D01*
Y57700D01*
X189400D01*
X189600Y57900D02*
Y57700D01*
X190000D01*
Y57900D01*
X190200D01*
Y58300D01*
X190000D01*
Y58500D01*
X189600D01*
Y58300D01*
X189400D01*
Y57900D01*
X189600D01*
X65400Y168000D02*
Y167600D01*
X66200D01*
Y168000D01*
X66600D01*
Y168800D01*
X66200D01*
Y169200D01*
X65400D01*
Y168800D01*
X65000D01*
Y168000D01*
X65400D01*
X65600Y168200D02*
Y168000D01*
X66000D01*
Y168200D01*
X66200D01*
Y168600D01*
X66000D01*
Y168800D01*
X65600D01*
Y168600D01*
X65400D01*
Y168200D01*
X65600D01*
X54000Y149900D02*
Y149500D01*
X54800D01*
Y149900D01*
X55200D01*
Y150700D01*
X54800D01*
Y151100D01*
X54000D01*
Y150700D01*
X53600D01*
Y149900D01*
X54000D01*
X54200Y150100D02*
Y149900D01*
X54600D01*
Y150100D01*
X54800D01*
Y150500D01*
X54600D01*
Y150700D01*
X54200D01*
Y150500D01*
X54000D01*
Y150100D01*
X54200D01*
X54000Y161100D02*
Y160700D01*
X54800D01*
Y161100D01*
X55200D01*
Y161900D01*
X54800D01*
Y162300D01*
X54000D01*
Y161900D01*
X53600D01*
Y161100D01*
X54000D01*
X54200Y161300D02*
Y161100D01*
X54600D01*
Y161300D01*
X54800D01*
Y161700D01*
X54600D01*
Y161900D01*
X54200D01*
Y161700D01*
X54000D01*
Y161300D01*
X54200D01*
X30500Y243100D02*
Y242700D01*
X31300D01*
Y243100D01*
X31700D01*
Y243900D01*
X31300D01*
Y244300D01*
X30500D01*
Y243900D01*
X30100D01*
Y243100D01*
X30500D01*
X30700Y243300D02*
Y243100D01*
X31100D01*
Y243300D01*
X31300D01*
Y243700D01*
X31100D01*
Y243900D01*
X30700D01*
Y243700D01*
X30500D01*
Y243300D01*
X30700D01*
X309000Y179700D02*
Y179300D01*
X309800D01*
Y179700D01*
X310200D01*
Y180500D01*
X309800D01*
Y180900D01*
X309000D01*
Y180500D01*
X308600D01*
Y179700D01*
X309000D01*
X309200Y179900D02*
Y179700D01*
X309600D01*
Y179900D01*
X309800D01*
Y180300D01*
X309600D01*
Y180500D01*
X309200D01*
Y180300D01*
X309000D01*
Y179900D01*
X309200D01*
X339400Y173200D02*
Y172800D01*
X340200D01*
Y173200D01*
X340600D01*
Y174000D01*
X340200D01*
Y174400D01*
X339400D01*
Y174000D01*
X339000D01*
Y173200D01*
X339400D01*
X339600Y173400D02*
Y173200D01*
X340000D01*
Y173400D01*
X340200D01*
Y173800D01*
X340000D01*
Y174000D01*
X339600D01*
Y173800D01*
X339400D01*
Y173400D01*
X339600D01*
X341700Y171300D02*
Y170900D01*
X342500D01*
Y171300D01*
X342900D01*
Y172100D01*
X342500D01*
Y172500D01*
X341700D01*
Y172100D01*
X341300D01*
Y171300D01*
X341700D01*
X341900Y171500D02*
Y171300D01*
X342300D01*
Y171500D01*
X342500D01*
Y171900D01*
X342300D01*
Y172100D01*
X341900D01*
Y171900D01*
X341700D01*
Y171500D01*
X341900D01*
X347300Y169400D02*
Y169000D01*
X348100D01*
Y169400D01*
X348500D01*
Y170200D01*
X348100D01*
Y170600D01*
X347300D01*
Y170200D01*
X346900D01*
Y169400D01*
X347300D01*
X347500Y169600D02*
Y169400D01*
X347900D01*
Y169600D01*
X348100D01*
Y170000D01*
X347900D01*
Y170200D01*
X347500D01*
Y170000D01*
X347300D01*
Y169600D01*
X347500D01*
X344000Y165700D02*
Y165300D01*
X344800D01*
Y165700D01*
X345200D01*
Y166500D01*
X344800D01*
Y166900D01*
X344000D01*
Y166500D01*
X343600D01*
Y165700D01*
X344000D01*
X344200Y165900D02*
Y165700D01*
X344600D01*
Y165900D01*
X344800D01*
Y166300D01*
X344600D01*
Y166500D01*
X344200D01*
Y166300D01*
X344000D01*
Y165900D01*
X344200D01*
X349400Y167200D02*
Y166800D01*
X350200D01*
Y167200D01*
X350600D01*
Y168000D01*
X350200D01*
Y168400D01*
X349400D01*
Y168000D01*
X349000D01*
Y167200D01*
X349400D01*
X349600Y167400D02*
Y167200D01*
X350000D01*
Y167400D01*
X350200D01*
Y167800D01*
X350000D01*
Y168000D01*
X349600D01*
Y167800D01*
X349400D01*
Y167400D01*
X349600D01*
X309200Y155900D02*
Y155500D01*
X310000D01*
Y155900D01*
X310400D01*
Y156700D01*
X310000D01*
Y157100D01*
X309200D01*
Y156700D01*
X308800D01*
Y155900D01*
X309200D01*
X309400Y156100D02*
Y155900D01*
X309800D01*
Y156100D01*
X310000D01*
Y156500D01*
X309800D01*
Y156700D01*
X309400D01*
Y156500D01*
X309200D01*
Y156100D01*
X309400D01*
X323400Y155900D02*
Y155500D01*
X324200D01*
Y155900D01*
X324600D01*
Y156700D01*
X324200D01*
Y157100D01*
X323400D01*
Y156700D01*
X323000D01*
Y155900D01*
X323400D01*
X323600Y156100D02*
Y155900D01*
X324000D01*
Y156100D01*
X324200D01*
Y156500D01*
X324000D01*
Y156700D01*
X323600D01*
Y156500D01*
X323400D01*
Y156100D01*
X323600D01*
X323500Y166000D02*
Y165600D01*
X324300D01*
Y166000D01*
X324700D01*
Y166800D01*
X324300D01*
Y167200D01*
X323500D01*
Y166800D01*
X323100D01*
Y166000D01*
X323500D01*
X323700Y166200D02*
Y166000D01*
X324100D01*
Y166200D01*
X324300D01*
Y166600D01*
X324100D01*
Y166800D01*
X323700D01*
Y166600D01*
X323500D01*
Y166200D01*
X323700D01*
X439800Y129900D02*
Y129500D01*
X440600D01*
Y129900D01*
X441000D01*
Y130700D01*
X440600D01*
Y131100D01*
X439800D01*
Y130700D01*
X439400D01*
Y129900D01*
X439800D01*
X440000Y130100D02*
Y129900D01*
X440400D01*
Y130100D01*
X440600D01*
Y130500D01*
X440400D01*
Y130700D01*
X440000D01*
Y130500D01*
X439800D01*
Y130100D01*
X440000D01*
X439400Y119900D02*
Y119500D01*
X440200D01*
Y119900D01*
X440600D01*
Y120700D01*
X440200D01*
Y121100D01*
X439400D01*
Y120700D01*
X439000D01*
Y119900D01*
X439400D01*
X439600Y120100D02*
Y119900D01*
X440000D01*
Y120100D01*
X440200D01*
Y120500D01*
X440000D01*
Y120700D01*
X439600D01*
Y120500D01*
X439400D01*
Y120100D01*
X439600D01*
X203800Y58100D02*
Y57700D01*
X204600D01*
Y58100D01*
X205000D01*
Y58900D01*
X204600D01*
Y59300D01*
X203800D01*
Y58900D01*
X203400D01*
Y58100D01*
X203800D01*
X204000Y58300D02*
Y58100D01*
X204400D01*
Y58300D01*
X204600D01*
Y58700D01*
X204400D01*
Y58900D01*
X204000D01*
Y58700D01*
X203800D01*
Y58300D01*
X204000D01*
X286900Y65700D02*
Y65300D01*
X287700D01*
Y65700D01*
X288100D01*
Y66500D01*
X287700D01*
Y66900D01*
X286900D01*
Y66500D01*
X286500D01*
Y65700D01*
X286900D01*
X287100Y65900D02*
Y65700D01*
X287500D01*
Y65900D01*
X287700D01*
Y66300D01*
X287500D01*
Y66500D01*
X287100D01*
Y66300D01*
X286900D01*
Y65900D01*
X287100D01*
X338300Y47900D02*
Y47500D01*
X339100D01*
Y47900D01*
X339500D01*
Y48700D01*
X339100D01*
Y49100D01*
X338300D01*
Y48700D01*
X337900D01*
Y47900D01*
X338300D01*
X338500Y48100D02*
Y47900D01*
X338900D01*
Y48100D01*
X339100D01*
Y48500D01*
X338900D01*
Y48700D01*
X338500D01*
Y48500D01*
X338300D01*
Y48100D01*
X338500D01*
X363300Y148800D02*
Y148400D01*
X364100D01*
Y148800D01*
X364500D01*
Y149600D01*
X364100D01*
Y150000D01*
X363300D01*
Y149600D01*
X362900D01*
Y148800D01*
X363300D01*
X363500Y149000D02*
Y148800D01*
X363900D01*
Y149000D01*
X364100D01*
Y149400D01*
X363900D01*
Y149600D01*
X363500D01*
Y149400D01*
X363300D01*
Y149000D01*
X363500D01*
X343000Y49900D02*
Y49500D01*
X343800D01*
Y49900D01*
X344200D01*
Y50700D01*
X343800D01*
Y51100D01*
X343000D01*
Y50700D01*
X342600D01*
Y49900D01*
X343000D01*
X343200Y50100D02*
Y49900D01*
X343600D01*
Y50100D01*
X343800D01*
Y50500D01*
X343600D01*
Y50700D01*
X343200D01*
Y50500D01*
X343000D01*
Y50100D01*
X343200D01*
X268500Y19600D02*
Y19200D01*
X269300D01*
Y19600D01*
X269700D01*
Y20400D01*
X269300D01*
Y20800D01*
X268500D01*
Y20400D01*
X268100D01*
Y19600D01*
X268500D01*
X268700Y19800D02*
Y19600D01*
X269100D01*
Y19800D01*
X269300D01*
Y20200D01*
X269100D01*
Y20400D01*
X268700D01*
Y20200D01*
X268500D01*
Y19800D01*
X268700D01*
X272100Y97300D02*
Y96900D01*
X272900D01*
Y97300D01*
X273300D01*
Y98100D01*
X272900D01*
Y98500D01*
X272100D01*
Y98100D01*
X271700D01*
Y97300D01*
X272100D01*
X272300Y97500D02*
Y97300D01*
X272700D01*
Y97500D01*
X272900D01*
Y97900D01*
X272700D01*
Y98100D01*
X272300D01*
Y97900D01*
X272100D01*
Y97500D01*
X272300D01*
X272100Y94400D02*
Y94000D01*
X272900D01*
Y94400D01*
X273300D01*
Y95200D01*
X272900D01*
Y95600D01*
X272100D01*
Y95200D01*
X271700D01*
Y94400D01*
X272100D01*
X272300Y94600D02*
Y94400D01*
X272700D01*
Y94600D01*
X272900D01*
Y95000D01*
X272700D01*
Y95200D01*
X272300D01*
Y95000D01*
X272100D01*
Y94600D01*
X272300D01*
X294000Y129700D02*
Y129300D01*
X294800D01*
Y129700D01*
X295200D01*
Y130500D01*
X294800D01*
Y130900D01*
X294000D01*
Y130500D01*
X293600D01*
Y129700D01*
X294000D01*
X294200Y129900D02*
Y129700D01*
X294600D01*
Y129900D01*
X294800D01*
Y130300D01*
X294600D01*
Y130500D01*
X294200D01*
Y130300D01*
X294000D01*
Y129900D01*
X294200D01*
X293000Y99100D02*
Y98700D01*
X293800D01*
Y99100D01*
X294200D01*
Y99900D01*
X293800D01*
Y100300D01*
X293000D01*
Y99900D01*
X292600D01*
Y99100D01*
X293000D01*
X293200Y99300D02*
Y99100D01*
X293600D01*
Y99300D01*
X293800D01*
Y99700D01*
X293600D01*
Y99900D01*
X293200D01*
Y99700D01*
X293000D01*
Y99300D01*
X293200D01*
X269800Y66200D02*
Y65800D01*
X270600D01*
Y66200D01*
X271000D01*
Y67000D01*
X270600D01*
Y67400D01*
X269800D01*
Y67000D01*
X269400D01*
Y66200D01*
X269800D01*
X270000Y66400D02*
Y66200D01*
X270400D01*
Y66400D01*
X270600D01*
Y66800D01*
X270400D01*
Y67000D01*
X270000D01*
Y66800D01*
X269800D01*
Y66400D01*
X270000D01*
X276100Y87200D02*
Y86800D01*
X276900D01*
Y87200D01*
X277300D01*
Y88000D01*
X276900D01*
Y88400D01*
X276100D01*
Y88000D01*
X275700D01*
Y87200D01*
X276100D01*
X276300Y87400D02*
Y87200D01*
X276700D01*
Y87400D01*
X276900D01*
Y87800D01*
X276700D01*
Y88000D01*
X276300D01*
Y87800D01*
X276100D01*
Y87400D01*
X276300D01*
X279900Y67800D02*
Y67400D01*
X280700D01*
Y67800D01*
X281100D01*
Y68600D01*
X280700D01*
Y69000D01*
X279900D01*
Y68600D01*
X279500D01*
Y67800D01*
X279900D01*
X280100Y68000D02*
Y67800D01*
X280500D01*
Y68000D01*
X280700D01*
Y68400D01*
X280500D01*
Y68600D01*
X280100D01*
Y68400D01*
X279900D01*
Y68000D01*
X280100D01*
X312600Y49900D02*
Y49500D01*
X313400D01*
Y49900D01*
X313800D01*
Y50700D01*
X313400D01*
Y51100D01*
X312600D01*
Y50700D01*
X312200D01*
Y49900D01*
X312600D01*
X312800Y50100D02*
Y49900D01*
X313200D01*
Y50100D01*
X313400D01*
Y50500D01*
X313200D01*
Y50700D01*
X312800D01*
Y50500D01*
X312600D01*
Y50100D01*
X312800D01*
X308500Y49900D02*
Y49500D01*
X309300D01*
Y49900D01*
X309700D01*
Y50700D01*
X309300D01*
Y51100D01*
X308500D01*
Y50700D01*
X308100D01*
Y49900D01*
X308500D01*
X308700Y50100D02*
Y49900D01*
X309100D01*
Y50100D01*
X309300D01*
Y50500D01*
X309100D01*
Y50700D01*
X308700D01*
Y50500D01*
X308500D01*
Y50100D01*
X308700D01*
X203500Y65100D02*
Y64700D01*
X204300D01*
Y65100D01*
X204700D01*
Y65900D01*
X204300D01*
Y66300D01*
X203500D01*
Y65900D01*
X203100D01*
Y65100D01*
X203500D01*
X203700Y65300D02*
Y65100D01*
X204100D01*
Y65300D01*
X204300D01*
Y65700D01*
X204100D01*
Y65900D01*
X203700D01*
Y65700D01*
X203500D01*
Y65300D01*
X203700D01*
X212800Y8500D02*
Y8100D01*
X213600D01*
Y8500D01*
X214000D01*
Y9300D01*
X213600D01*
Y9700D01*
X212800D01*
Y9300D01*
X212400D01*
Y8500D01*
X212800D01*
X213000Y8700D02*
Y8500D01*
X213400D01*
Y8700D01*
X213600D01*
Y9100D01*
X213400D01*
Y9300D01*
X213000D01*
Y9100D01*
X212800D01*
Y8700D01*
X213000D01*
X115000Y24100D02*
Y23700D01*
X115800D01*
Y24100D01*
X116200D01*
Y24900D01*
X115800D01*
Y25300D01*
X115000D01*
Y24900D01*
X114600D01*
Y24100D01*
X115000D01*
X115200Y24300D02*
Y24100D01*
X115600D01*
Y24300D01*
X115800D01*
Y24700D01*
X115600D01*
Y24900D01*
X115200D01*
Y24700D01*
X115000D01*
Y24300D01*
X115200D01*
X77100Y24100D02*
Y23700D01*
X77900D01*
Y24100D01*
X78300D01*
Y24900D01*
X77900D01*
Y25300D01*
X77100D01*
Y24900D01*
X76700D01*
Y24100D01*
X77100D01*
X77300Y24300D02*
Y24100D01*
X77700D01*
Y24300D01*
X77900D01*
Y24700D01*
X77700D01*
Y24900D01*
X77300D01*
Y24700D01*
X77100D01*
Y24300D01*
X77300D01*
X136600Y8600D02*
Y8200D01*
X137400D01*
Y8600D01*
X137800D01*
Y9400D01*
X137400D01*
Y9800D01*
X136600D01*
Y9400D01*
X136200D01*
Y8600D01*
X136600D01*
X136800Y8800D02*
Y8600D01*
X137200D01*
Y8800D01*
X137400D01*
Y9200D01*
X137200D01*
Y9400D01*
X136800D01*
Y9200D01*
X136600D01*
Y8800D01*
X136800D01*
X98400Y8500D02*
Y8100D01*
X99200D01*
Y8500D01*
X99600D01*
Y9300D01*
X99200D01*
Y9700D01*
X98400D01*
Y9300D01*
X98000D01*
Y8500D01*
X98400D01*
X98600Y8700D02*
Y8500D01*
X99000D01*
Y8700D01*
X99200D01*
Y9100D01*
X99000D01*
Y9300D01*
X98600D01*
Y9100D01*
X98400D01*
Y8700D01*
X98600D01*
X174200D02*
Y8300D01*
X175000D01*
Y8700D01*
X175400D01*
Y9500D01*
X175000D01*
Y9900D01*
X174200D01*
Y9500D01*
X173800D01*
Y8700D01*
X174200D01*
X174400Y8900D02*
Y8700D01*
X174800D01*
Y8900D01*
X175000D01*
Y9300D01*
X174800D01*
Y9500D01*
X174400D01*
Y9300D01*
X174200D01*
Y8900D01*
X174400D01*
X58300Y189500D02*
Y189100D01*
X59100D01*
Y189500D01*
X59500D01*
Y190300D01*
X59100D01*
Y190700D01*
X58300D01*
Y190300D01*
X57900D01*
Y189500D01*
X58300D01*
X58500Y189700D02*
Y189500D01*
X58900D01*
Y189700D01*
X59100D01*
Y190100D01*
X58900D01*
Y190300D01*
X58500D01*
Y190100D01*
X58300D01*
Y189700D01*
X58500D01*
X31900Y155000D02*
Y154600D01*
X32700D01*
Y155000D01*
X33100D01*
Y155800D01*
X32700D01*
Y156200D01*
X31900D01*
Y155800D01*
X31500D01*
Y155000D01*
X31900D01*
X32100Y155200D02*
Y155000D01*
X32500D01*
Y155200D01*
X32700D01*
Y155600D01*
X32500D01*
Y155800D01*
X32100D01*
Y155600D01*
X31900D01*
Y155200D01*
X32100D01*
X121100Y164600D02*
Y164200D01*
X121900D01*
Y164600D01*
X122300D01*
Y165400D01*
X121900D01*
Y165800D01*
X121100D01*
Y165400D01*
X120700D01*
Y164600D01*
X121100D01*
X121300Y164800D02*
Y164600D01*
X121700D01*
Y164800D01*
X121900D01*
Y165200D01*
X121700D01*
Y165400D01*
X121300D01*
Y165200D01*
X121100D01*
Y164800D01*
X121300D01*
X121100Y169100D02*
Y168700D01*
X121900D01*
Y169100D01*
X122300D01*
Y169900D01*
X121900D01*
Y170300D01*
X121100D01*
Y169900D01*
X120700D01*
Y169100D01*
X121100D01*
X121300Y169300D02*
Y169100D01*
X121700D01*
Y169300D01*
X121900D01*
Y169700D01*
X121700D01*
Y169900D01*
X121300D01*
Y169700D01*
X121100D01*
Y169300D01*
X121300D01*
X128000Y147000D02*
Y146600D01*
X128800D01*
Y147000D01*
X129200D01*
Y147800D01*
X128800D01*
Y148200D01*
X128000D01*
Y147800D01*
X127600D01*
Y147000D01*
X128000D01*
X128200Y147200D02*
Y147000D01*
X128600D01*
Y147200D01*
X128800D01*
Y147600D01*
X128600D01*
Y147800D01*
X128200D01*
Y147600D01*
X128000D01*
Y147200D01*
X128200D01*
X169700Y172700D02*
Y172300D01*
X170500D01*
Y172700D01*
X170900D01*
Y173500D01*
X170500D01*
Y173900D01*
X169700D01*
Y173500D01*
X169300D01*
Y172700D01*
X169700D01*
X169900Y172900D02*
Y172700D01*
X170300D01*
Y172900D01*
X170500D01*
Y173300D01*
X170300D01*
Y173500D01*
X169900D01*
Y173300D01*
X169700D01*
Y172900D01*
X169900D01*
X169700Y162500D02*
Y162100D01*
X170500D01*
Y162500D01*
X170900D01*
Y163300D01*
X170500D01*
Y163700D01*
X169700D01*
Y163300D01*
X169300D01*
Y162500D01*
X169700D01*
X169900Y162700D02*
Y162500D01*
X170300D01*
Y162700D01*
X170500D01*
Y163100D01*
X170300D01*
Y163300D01*
X169900D01*
Y163100D01*
X169700D01*
Y162700D01*
X169900D01*
X167500Y151300D02*
Y150900D01*
X168300D01*
Y151300D01*
X168700D01*
Y152100D01*
X168300D01*
Y152500D01*
X167500D01*
Y152100D01*
X167100D01*
Y151300D01*
X167500D01*
X167700Y151500D02*
Y151300D01*
X168100D01*
Y151500D01*
X168300D01*
Y151900D01*
X168100D01*
Y152100D01*
X167700D01*
Y151900D01*
X167500D01*
Y151500D01*
X167700D01*
X169200Y140500D02*
Y140100D01*
X170000D01*
Y140500D01*
X170400D01*
Y141300D01*
X170000D01*
Y141700D01*
X169200D01*
Y141300D01*
X168800D01*
Y140500D01*
X169200D01*
X169400Y140700D02*
Y140500D01*
X169800D01*
Y140700D01*
X170000D01*
Y141100D01*
X169800D01*
Y141300D01*
X169400D01*
Y141100D01*
X169200D01*
Y140700D01*
X169400D01*
X107300Y168800D02*
Y168400D01*
X108100D01*
Y168800D01*
X108500D01*
Y169600D01*
X108100D01*
Y170000D01*
X107300D01*
Y169600D01*
X106900D01*
Y168800D01*
X107300D01*
X107500Y169000D02*
Y168800D01*
X107900D01*
Y169000D01*
X108100D01*
Y169400D01*
X107900D01*
Y169600D01*
X107500D01*
Y169400D01*
X107300D01*
Y169000D01*
X107500D01*
X20600Y186100D02*
Y185700D01*
X21400D01*
Y186100D01*
X21800D01*
Y186900D01*
X21400D01*
Y187300D01*
X20600D01*
Y186900D01*
X20200D01*
Y186100D01*
X20600D01*
X20800Y186300D02*
Y186100D01*
X21200D01*
Y186300D01*
X21400D01*
Y186700D01*
X21200D01*
Y186900D01*
X20800D01*
Y186700D01*
X20600D01*
Y186300D01*
X20800D01*
X29100Y171400D02*
Y171000D01*
X29900D01*
Y171400D01*
X30300D01*
Y172200D01*
X29900D01*
Y172600D01*
X29100D01*
Y172200D01*
X28700D01*
Y171400D01*
X29100D01*
X29300Y171600D02*
Y171400D01*
X29700D01*
Y171600D01*
X29900D01*
Y172000D01*
X29700D01*
Y172200D01*
X29300D01*
Y172000D01*
X29100D01*
Y171600D01*
X29300D01*
X35400Y183500D02*
Y183100D01*
X36200D01*
Y183500D01*
X36600D01*
Y184300D01*
X36200D01*
Y184700D01*
X35400D01*
Y184300D01*
X35000D01*
Y183500D01*
X35400D01*
X35600Y183700D02*
Y183500D01*
X36000D01*
Y183700D01*
X36200D01*
Y184100D01*
X36000D01*
Y184300D01*
X35600D01*
Y184100D01*
X35400D01*
Y183700D01*
X35600D01*
X32900Y183500D02*
Y183100D01*
X33700D01*
Y183500D01*
X34100D01*
Y184300D01*
X33700D01*
Y184700D01*
X32900D01*
Y184300D01*
X32500D01*
Y183500D01*
X32900D01*
X33100Y183700D02*
Y183500D01*
X33500D01*
Y183700D01*
X33700D01*
Y184100D01*
X33500D01*
Y184300D01*
X33100D01*
Y184100D01*
X32900D01*
Y183700D01*
X33100D01*
X27453Y163053D02*
Y162653D01*
X28253D01*
Y163053D01*
X28653D01*
Y163853D01*
X28253D01*
Y164253D01*
X27453D01*
Y163853D01*
X27053D01*
Y163053D01*
X27453D01*
X27653Y163253D02*
Y163053D01*
X28053D01*
Y163253D01*
X28253D01*
Y163653D01*
X28053D01*
Y163853D01*
X27653D01*
Y163653D01*
X27453D01*
Y163253D01*
X27653D01*
X42800Y150000D02*
Y149600D01*
X43600D01*
Y150000D01*
X44000D01*
Y150800D01*
X43600D01*
Y151200D01*
X42800D01*
Y150800D01*
X42400D01*
Y150000D01*
X42800D01*
X43000Y150200D02*
Y150000D01*
X43400D01*
Y150200D01*
X43600D01*
Y150600D01*
X43400D01*
Y150800D01*
X43000D01*
Y150600D01*
X42800D01*
Y150200D01*
X43000D01*
X42800Y155600D02*
Y155200D01*
X43600D01*
Y155600D01*
X44000D01*
Y156400D01*
X43600D01*
Y156800D01*
X42800D01*
Y156400D01*
X42400D01*
Y155600D01*
X42800D01*
X43000Y155800D02*
Y155600D01*
X43400D01*
Y155800D01*
X43600D01*
Y156200D01*
X43400D01*
Y156400D01*
X43000D01*
Y156200D01*
X42800D01*
Y155800D01*
X43000D01*
X42800Y161200D02*
Y160800D01*
X43600D01*
Y161200D01*
X44000D01*
Y162000D01*
X43600D01*
Y162400D01*
X42800D01*
Y162000D01*
X42400D01*
Y161200D01*
X42800D01*
X43000Y161400D02*
Y161200D01*
X43400D01*
Y161400D01*
X43600D01*
Y161800D01*
X43400D01*
Y162000D01*
X43000D01*
Y161800D01*
X42800D01*
Y161400D01*
X43000D01*
X68972Y160428D02*
Y160028D01*
X69772D01*
Y160428D01*
X70172D01*
Y161228D01*
X69772D01*
Y161628D01*
X68972D01*
Y161228D01*
X68572D01*
Y160428D01*
X68972D01*
X69172Y160628D02*
Y160428D01*
X69572D01*
Y160628D01*
X69772D01*
Y161028D01*
X69572D01*
Y161228D01*
X69172D01*
Y161028D01*
X68972D01*
Y160628D01*
X69172D01*
X23800Y149200D02*
Y148800D01*
X24600D01*
Y149200D01*
X25000D01*
Y150000D01*
X24600D01*
Y150400D01*
X23800D01*
Y150000D01*
X23400D01*
Y149200D01*
X23800D01*
X24000Y149400D02*
Y149200D01*
X24400D01*
Y149400D01*
X24600D01*
Y149800D01*
X24400D01*
Y150000D01*
X24000D01*
Y149800D01*
X23800D01*
Y149400D01*
X24000D01*
X78500Y177400D02*
Y177000D01*
X79300D01*
Y177400D01*
X79700D01*
Y178200D01*
X79300D01*
Y178600D01*
X78500D01*
Y178200D01*
X78100D01*
Y177400D01*
X78500D01*
X78700Y177600D02*
Y177400D01*
X79100D01*
Y177600D01*
X79300D01*
Y178000D01*
X79100D01*
Y178200D01*
X78700D01*
Y178000D01*
X78500D01*
Y177600D01*
X78700D01*
X33800Y219300D02*
Y218900D01*
X34600D01*
Y219300D01*
X35000D01*
Y220100D01*
X34600D01*
Y220500D01*
X33800D01*
Y220100D01*
X33400D01*
Y219300D01*
X33800D01*
X34000Y219500D02*
Y219300D01*
X34400D01*
Y219500D01*
X34600D01*
Y219900D01*
X34400D01*
Y220100D01*
X34000D01*
Y219900D01*
X33800D01*
Y219500D01*
X34000D01*
X76100Y204000D02*
Y203600D01*
X76900D01*
Y204000D01*
X77300D01*
Y204800D01*
X76900D01*
Y205200D01*
X76100D01*
Y204800D01*
X75700D01*
Y204000D01*
X76100D01*
X76300Y204200D02*
Y204000D01*
X76700D01*
Y204200D01*
X76900D01*
Y204600D01*
X76700D01*
Y204800D01*
X76300D01*
Y204600D01*
X76100D01*
Y204200D01*
X76300D01*
X120900Y248700D02*
Y248300D01*
X121700D01*
Y248700D01*
X122100D01*
Y249500D01*
X121700D01*
Y249900D01*
X120900D01*
Y249500D01*
X120500D01*
Y248700D01*
X120900D01*
X121100Y248900D02*
Y248700D01*
X121500D01*
Y248900D01*
X121700D01*
Y249300D01*
X121500D01*
Y249500D01*
X121100D01*
Y249300D01*
X120900D01*
Y248900D01*
X121100D01*
X72400Y269300D02*
Y268900D01*
X73200D01*
Y269300D01*
X73600D01*
Y270100D01*
X73200D01*
Y270500D01*
X72400D01*
Y270100D01*
X72000D01*
Y269300D01*
X72400D01*
X72600Y269500D02*
Y269300D01*
X73000D01*
Y269500D01*
X73200D01*
Y269900D01*
X73000D01*
Y270100D01*
X72600D01*
Y269900D01*
X72400D01*
Y269500D01*
X72600D01*
X15800Y223000D02*
Y222600D01*
X16600D01*
Y223000D01*
X17000D01*
Y223800D01*
X16600D01*
Y224200D01*
X15800D01*
Y223800D01*
X15400D01*
Y223000D01*
X15800D01*
X16000Y223200D02*
Y223000D01*
X16400D01*
Y223200D01*
X16600D01*
Y223600D01*
X16400D01*
Y223800D01*
X16000D01*
Y223600D01*
X15800D01*
Y223200D01*
X16000D01*
X9400Y216100D02*
Y215700D01*
X10200D01*
Y216100D01*
X10600D01*
Y216900D01*
X10200D01*
Y217300D01*
X9400D01*
Y216900D01*
X9000D01*
Y216100D01*
X9400D01*
X9600Y216300D02*
Y216100D01*
X10000D01*
Y216300D01*
X10200D01*
Y216700D01*
X10000D01*
Y216900D01*
X9600D01*
Y216700D01*
X9400D01*
Y216300D01*
X9600D01*
X9300Y228400D02*
Y228000D01*
X10100D01*
Y228400D01*
X10500D01*
Y229200D01*
X10100D01*
Y229600D01*
X9300D01*
Y229200D01*
X8900D01*
Y228400D01*
X9300D01*
X9500Y228600D02*
Y228400D01*
X9900D01*
Y228600D01*
X10100D01*
Y229000D01*
X9900D01*
Y229200D01*
X9500D01*
Y229000D01*
X9300D01*
Y228600D01*
X9500D01*
X82900Y191100D02*
Y190700D01*
X83700D01*
Y191100D01*
X84100D01*
Y191900D01*
X83700D01*
Y192300D01*
X82900D01*
Y191900D01*
X82500D01*
Y191100D01*
X82900D01*
X83100Y191300D02*
Y191100D01*
X83500D01*
Y191300D01*
X83700D01*
Y191700D01*
X83500D01*
Y191900D01*
X83100D01*
Y191700D01*
X82900D01*
Y191300D01*
X83100D01*
X112600Y216700D02*
Y216300D01*
X113400D01*
Y216700D01*
X113800D01*
Y217500D01*
X113400D01*
Y217900D01*
X112600D01*
Y217500D01*
X112200D01*
Y216700D01*
X112600D01*
X112800Y216900D02*
Y216700D01*
X113200D01*
Y216900D01*
X113400D01*
Y217300D01*
X113200D01*
Y217500D01*
X112800D01*
Y217300D01*
X112600D01*
Y216900D01*
X112800D01*
X327196Y254856D02*
Y254456D01*
X327996D01*
Y254856D01*
X328396D01*
Y255656D01*
X327996D01*
Y256056D01*
X327196D01*
Y255656D01*
X326796D01*
Y254856D01*
X327196D01*
X327396Y255056D02*
Y254856D01*
X327796D01*
Y255056D01*
X327996D01*
Y255456D01*
X327796D01*
Y255656D01*
X327396D01*
Y255456D01*
X327196D01*
Y255056D01*
X327396D01*
X315196Y254856D02*
Y254456D01*
X315996D01*
Y254856D01*
X316396D01*
Y255656D01*
X315996D01*
Y256056D01*
X315196D01*
Y255656D01*
X314796D01*
Y254856D01*
X315196D01*
X315396Y255056D02*
Y254856D01*
X315796D01*
Y255056D01*
X315996D01*
Y255456D01*
X315796D01*
Y255656D01*
X315396D01*
Y255456D01*
X315196D01*
Y255056D01*
X315396D01*
X21496Y66200D02*
Y65800D01*
X22296D01*
Y66200D01*
X22696D01*
Y67000D01*
X22296D01*
Y67400D01*
X21496D01*
Y67000D01*
X21096D01*
Y66200D01*
X21496D01*
X21696Y66400D02*
Y66200D01*
X22096D01*
Y66400D01*
X22296D01*
Y66800D01*
X22096D01*
Y67000D01*
X21696D01*
Y66800D01*
X21496D01*
Y66400D01*
X21696D01*
X82400Y128500D02*
Y128100D01*
X83200D01*
Y128500D01*
X83600D01*
Y129300D01*
X83200D01*
Y129700D01*
X82400D01*
Y129300D01*
X82000D01*
Y128500D01*
X82400D01*
X82600Y128700D02*
Y128500D01*
X83000D01*
Y128700D01*
X83200D01*
Y129100D01*
X83000D01*
Y129300D01*
X82600D01*
Y129100D01*
X82400D01*
Y128700D01*
X82600D01*
X104500Y127700D02*
Y127300D01*
X105300D01*
Y127700D01*
X105700D01*
Y128500D01*
X105300D01*
Y128900D01*
X104500D01*
Y128500D01*
X104100D01*
Y127700D01*
X104500D01*
X104700Y127900D02*
Y127700D01*
X105100D01*
Y127900D01*
X105300D01*
Y128300D01*
X105100D01*
Y128500D01*
X104700D01*
Y128300D01*
X104500D01*
Y127900D01*
X104700D01*
X103199Y140200D02*
Y139800D01*
X103999D01*
Y140200D01*
X104399D01*
Y141000D01*
X103999D01*
Y141400D01*
X103199D01*
Y141000D01*
X102799D01*
Y140200D01*
X103199D01*
X103399Y140400D02*
Y140200D01*
X103799D01*
Y140400D01*
X103999D01*
Y140800D01*
X103799D01*
Y141000D01*
X103399D01*
Y140800D01*
X103199D01*
Y140400D01*
X103399D01*
X130898Y137036D02*
Y136636D01*
X131698D01*
Y137036D01*
X132098D01*
Y137836D01*
X131698D01*
Y138236D01*
X130898D01*
Y137836D01*
X130498D01*
Y137036D01*
X130898D01*
X131098Y137236D02*
Y137036D01*
X131498D01*
Y137236D01*
X131698D01*
Y137636D01*
X131498D01*
Y137836D01*
X131098D01*
Y137636D01*
X130898D01*
Y137236D01*
X131098D01*
X121500Y111700D02*
Y111300D01*
X122300D01*
Y111700D01*
X122700D01*
Y112500D01*
X122300D01*
Y112900D01*
X121500D01*
Y112500D01*
X121100D01*
Y111700D01*
X121500D01*
X121700Y111900D02*
Y111700D01*
X122100D01*
Y111900D01*
X122300D01*
Y112300D01*
X122100D01*
Y112500D01*
X121700D01*
Y112300D01*
X121500D01*
Y111900D01*
X121700D01*
X102000Y148700D02*
Y148300D01*
X102800D01*
Y148700D01*
X103200D01*
Y149500D01*
X102800D01*
Y149900D01*
X102000D01*
Y149500D01*
X101600D01*
Y148700D01*
X102000D01*
X102200Y148900D02*
Y148700D01*
X102600D01*
Y148900D01*
X102800D01*
Y149300D01*
X102600D01*
Y149500D01*
X102200D01*
Y149300D01*
X102000D01*
Y148900D01*
X102200D01*
X21400Y161300D02*
Y160900D01*
X22200D01*
Y161300D01*
X22600D01*
Y162100D01*
X22200D01*
Y162500D01*
X21400D01*
Y162100D01*
X21000D01*
Y161300D01*
X21400D01*
X21600Y161500D02*
Y161300D01*
X22000D01*
Y161500D01*
X22200D01*
Y161900D01*
X22000D01*
Y162100D01*
X21600D01*
Y161900D01*
X21400D01*
Y161500D01*
X21600D01*
X21000Y175300D02*
Y174900D01*
X21800D01*
Y175300D01*
X22200D01*
Y176100D01*
X21800D01*
Y176500D01*
X21000D01*
Y176100D01*
X20600D01*
Y175300D01*
X21000D01*
X21200Y175500D02*
Y175300D01*
X21600D01*
Y175500D01*
X21800D01*
Y175900D01*
X21600D01*
Y176100D01*
X21200D01*
Y175900D01*
X21000D01*
Y175500D01*
X21200D01*
X113800Y240800D02*
Y240400D01*
X114600D01*
Y240800D01*
X115000D01*
Y241600D01*
X114600D01*
Y242000D01*
X113800D01*
Y241600D01*
X113400D01*
Y240800D01*
X113800D01*
X114000Y241000D02*
Y240800D01*
X114400D01*
Y241000D01*
X114600D01*
Y241400D01*
X114400D01*
Y241600D01*
X114000D01*
Y241400D01*
X113800D01*
Y241000D01*
X114000D01*
X112200Y244100D02*
Y243700D01*
X113000D01*
Y244100D01*
X113400D01*
Y244900D01*
X113000D01*
Y245300D01*
X112200D01*
Y244900D01*
X111800D01*
Y244100D01*
X112200D01*
X112400Y244300D02*
Y244100D01*
X112800D01*
Y244300D01*
X113000D01*
Y244700D01*
X112800D01*
Y244900D01*
X112400D01*
Y244700D01*
X112200D01*
Y244300D01*
X112400D01*
X33500Y57600D02*
Y57200D01*
X34300D01*
Y57600D01*
X34700D01*
Y58400D01*
X34300D01*
Y58800D01*
X33500D01*
Y58400D01*
X33100D01*
Y57600D01*
X33500D01*
X33700Y57800D02*
Y57600D01*
X34100D01*
Y57800D01*
X34300D01*
Y58200D01*
X34100D01*
Y58400D01*
X33700D01*
Y58200D01*
X33500D01*
Y57800D01*
X33700D01*
X52200Y220400D02*
Y220000D01*
X53000D01*
Y220400D01*
X53400D01*
Y221200D01*
X53000D01*
Y221600D01*
X52200D01*
Y221200D01*
X51800D01*
Y220400D01*
X52200D01*
X52400Y220600D02*
Y220400D01*
X52800D01*
Y220600D01*
X53000D01*
Y221000D01*
X52800D01*
Y221200D01*
X52400D01*
Y221000D01*
X52200D01*
Y220600D01*
X52400D01*
X67300Y264800D02*
Y264400D01*
X68100D01*
Y264800D01*
X68500D01*
Y265600D01*
X68100D01*
Y266000D01*
X67300D01*
Y265600D01*
X66900D01*
Y264800D01*
X67300D01*
X67500Y265000D02*
Y264800D01*
X67900D01*
Y265000D01*
X68100D01*
Y265400D01*
X67900D01*
Y265600D01*
X67500D01*
Y265400D01*
X67300D01*
Y265000D01*
X67500D01*
X69800Y249500D02*
Y249100D01*
X70600D01*
Y249500D01*
X71000D01*
Y250300D01*
X70600D01*
Y250700D01*
X69800D01*
Y250300D01*
X69400D01*
Y249500D01*
X69800D01*
X70000Y249700D02*
Y249500D01*
X70400D01*
Y249700D01*
X70600D01*
Y250100D01*
X70400D01*
Y250300D01*
X70000D01*
Y250100D01*
X69800D01*
Y249700D01*
X70000D01*
X100700Y214600D02*
Y214200D01*
X101500D01*
Y214600D01*
X101900D01*
Y215400D01*
X101500D01*
Y215800D01*
X100700D01*
Y215400D01*
X100300D01*
Y214600D01*
X100700D01*
X100900Y214800D02*
Y214600D01*
X101300D01*
Y214800D01*
X101500D01*
Y215200D01*
X101300D01*
Y215400D01*
X100900D01*
Y215200D01*
X100700D01*
Y214800D01*
X100900D01*
X87800Y219300D02*
Y218900D01*
X88600D01*
Y219300D01*
X89000D01*
Y220100D01*
X88600D01*
Y220500D01*
X87800D01*
Y220100D01*
X87400D01*
Y219300D01*
X87800D01*
X88000Y219500D02*
Y219300D01*
X88400D01*
Y219500D01*
X88600D01*
Y219900D01*
X88400D01*
Y220100D01*
X88000D01*
Y219900D01*
X87800D01*
Y219500D01*
X88000D01*
X112800Y191600D02*
Y191200D01*
X113600D01*
Y191600D01*
X114000D01*
Y192400D01*
X113600D01*
Y192800D01*
X112800D01*
Y192400D01*
X112400D01*
Y191600D01*
X112800D01*
X113000Y191800D02*
Y191600D01*
X113400D01*
Y191800D01*
X113600D01*
Y192200D01*
X113400D01*
Y192400D01*
X113000D01*
Y192200D01*
X112800D01*
Y191800D01*
X113000D01*
X120700Y220800D02*
Y220400D01*
X121500D01*
Y220800D01*
X121900D01*
Y221600D01*
X121500D01*
Y222000D01*
X120700D01*
Y221600D01*
X120300D01*
Y220800D01*
X120700D01*
X120900Y221000D02*
Y220800D01*
X121300D01*
Y221000D01*
X121500D01*
Y221400D01*
X121300D01*
Y221600D01*
X120900D01*
Y221400D01*
X120700D01*
Y221000D01*
X120900D01*
X24400Y240400D02*
Y240000D01*
X25200D01*
Y240400D01*
X25600D01*
Y241200D01*
X25200D01*
Y241600D01*
X24400D01*
Y241200D01*
X24000D01*
Y240400D01*
X24400D01*
X24600Y240600D02*
Y240400D01*
X25000D01*
Y240600D01*
X25200D01*
Y241000D01*
X25000D01*
Y241200D01*
X24600D01*
Y241000D01*
X24400D01*
Y240600D01*
X24600D01*
X36129Y65267D02*
Y64867D01*
X36929D01*
Y65267D01*
X37329D01*
Y66067D01*
X36929D01*
Y66467D01*
X36129D01*
Y66067D01*
X35729D01*
Y65267D01*
X36129D01*
X36329Y65467D02*
Y65267D01*
X36729D01*
Y65467D01*
X36929D01*
Y65867D01*
X36729D01*
Y66067D01*
X36329D01*
Y65867D01*
X36129D01*
Y65467D01*
X36329D01*
X348400Y58600D02*
Y58200D01*
X349200D01*
Y58600D01*
X349600D01*
Y59400D01*
X349200D01*
Y59800D01*
X348400D01*
Y59400D01*
X348000D01*
Y58600D01*
X348400D01*
X348600Y58800D02*
Y58600D01*
X349000D01*
Y58800D01*
X349200D01*
Y59200D01*
X349000D01*
Y59400D01*
X348600D01*
Y59200D01*
X348400D01*
Y58800D01*
X348600D01*
X70300Y191300D02*
Y190900D01*
X71100D01*
Y191300D01*
X71500D01*
Y192100D01*
X71100D01*
Y192500D01*
X70300D01*
Y192100D01*
X69900D01*
Y191300D01*
X70300D01*
X70500Y191500D02*
Y191300D01*
X70900D01*
Y191500D01*
X71100D01*
Y191900D01*
X70900D01*
Y192100D01*
X70500D01*
Y191900D01*
X70300D01*
Y191500D01*
X70500D01*
X118300Y240600D02*
Y240200D01*
X119100D01*
Y240600D01*
X119500D01*
Y241400D01*
X119100D01*
Y241800D01*
X118300D01*
Y241400D01*
X117900D01*
Y240600D01*
X118300D01*
X118500Y240800D02*
Y240600D01*
X118900D01*
Y240800D01*
X119100D01*
Y241200D01*
X118900D01*
Y241400D01*
X118500D01*
Y241200D01*
X118300D01*
Y240800D01*
X118500D01*
X284300Y24300D02*
Y23900D01*
X285100D01*
Y24300D01*
X285500D01*
Y25100D01*
X285100D01*
Y25500D01*
X284300D01*
Y25100D01*
X283900D01*
Y24300D01*
X284300D01*
X284500Y24500D02*
Y24300D01*
X284900D01*
Y24500D01*
X285100D01*
Y24900D01*
X284900D01*
Y25100D01*
X284500D01*
Y24900D01*
X284300D01*
Y24500D01*
X284500D01*
X266800Y61100D02*
Y60700D01*
X267600D01*
Y61100D01*
X268000D01*
Y61900D01*
X267600D01*
Y62300D01*
X266800D01*
Y61900D01*
X266400D01*
Y61100D01*
X266800D01*
X267000Y61300D02*
Y61100D01*
X267400D01*
Y61300D01*
X267600D01*
Y61700D01*
X267400D01*
Y61900D01*
X267000D01*
Y61700D01*
X266800D01*
Y61300D01*
X267000D01*
X317100Y235100D02*
Y234700D01*
X317900D01*
Y235100D01*
X318300D01*
Y235900D01*
X317900D01*
Y236300D01*
X317100D01*
Y235900D01*
X316700D01*
Y235100D01*
X317100D01*
X317300Y235300D02*
Y235100D01*
X317700D01*
Y235300D01*
X317900D01*
Y235700D01*
X317700D01*
Y235900D01*
X317300D01*
Y235700D01*
X317100D01*
Y235300D01*
X317300D01*
X121100Y176600D02*
Y176200D01*
X121900D01*
Y176600D01*
X122300D01*
Y177400D01*
X121900D01*
Y177800D01*
X121100D01*
Y177400D01*
X120700D01*
Y176600D01*
X121100D01*
X121300Y176800D02*
Y176600D01*
X121700D01*
Y176800D01*
X121900D01*
Y177200D01*
X121700D01*
Y177400D01*
X121300D01*
Y177200D01*
X121100D01*
Y176800D01*
X121300D01*
X121100Y180100D02*
Y179700D01*
X121900D01*
Y180100D01*
X122300D01*
Y180900D01*
X121900D01*
Y181300D01*
X121100D01*
Y180900D01*
X120700D01*
Y180100D01*
X121100D01*
X121300Y180300D02*
Y180100D01*
X121700D01*
Y180300D01*
X121900D01*
Y180700D01*
X121700D01*
Y180900D01*
X121300D01*
Y180700D01*
X121100D01*
Y180300D01*
X121300D01*
X352700Y125200D02*
Y124800D01*
X353500D01*
Y125200D01*
X353900D01*
Y126000D01*
X353500D01*
Y126400D01*
X352700D01*
Y126000D01*
X352300D01*
Y125200D01*
X352700D01*
X352900Y125400D02*
Y125200D01*
X353300D01*
Y125400D01*
X353500D01*
Y125800D01*
X353300D01*
Y126000D01*
X352900D01*
Y125800D01*
X352700D01*
Y125400D01*
X352900D01*
X370200Y116300D02*
Y115900D01*
X371000D01*
Y116300D01*
X371400D01*
Y117100D01*
X371000D01*
Y117500D01*
X370200D01*
Y117100D01*
X369800D01*
Y116300D01*
X370200D01*
X370400Y116500D02*
Y116300D01*
X370800D01*
Y116500D01*
X371000D01*
Y116900D01*
X370800D01*
Y117100D01*
X370400D01*
Y116900D01*
X370200D01*
Y116500D01*
X370400D01*
X368000Y114600D02*
Y114200D01*
X368800D01*
Y114600D01*
X369200D01*
Y115400D01*
X368800D01*
Y115800D01*
X368000D01*
Y115400D01*
X367600D01*
Y114600D01*
X368000D01*
X368200Y114800D02*
Y114600D01*
X368600D01*
Y114800D01*
X368800D01*
Y115200D01*
X368600D01*
Y115400D01*
X368200D01*
Y115200D01*
X368000D01*
Y114800D01*
X368200D01*
X365800Y112600D02*
Y112200D01*
X366600D01*
Y112600D01*
X367000D01*
Y113400D01*
X366600D01*
Y113800D01*
X365800D01*
Y113400D01*
X365400D01*
Y112600D01*
X365800D01*
X366000Y112800D02*
Y112600D01*
X366400D01*
Y112800D01*
X366600D01*
Y113200D01*
X366400D01*
Y113400D01*
X366000D01*
Y113200D01*
X365800D01*
Y112800D01*
X366000D01*
X363100Y112300D02*
Y111900D01*
X363900D01*
Y112300D01*
X364300D01*
Y113100D01*
X363900D01*
Y113500D01*
X363100D01*
Y113100D01*
X362700D01*
Y112300D01*
X363100D01*
X363300Y112500D02*
Y112300D01*
X363700D01*
Y112500D01*
X363900D01*
Y112900D01*
X363700D01*
Y113100D01*
X363300D01*
Y112900D01*
X363100D01*
Y112500D01*
X363300D01*
X362200Y125200D02*
Y124800D01*
X363000D01*
Y125200D01*
X363400D01*
Y126000D01*
X363000D01*
Y126400D01*
X362200D01*
Y126000D01*
X361800D01*
Y125200D01*
X362200D01*
X362400Y125400D02*
Y125200D01*
X362800D01*
Y125400D01*
X363000D01*
Y125800D01*
X362800D01*
Y126000D01*
X362400D01*
Y125800D01*
X362200D01*
Y125400D01*
X362400D01*
X366400Y130100D02*
Y129700D01*
X367200D01*
Y130100D01*
X367600D01*
Y130900D01*
X367200D01*
Y131300D01*
X366400D01*
Y130900D01*
X366000D01*
Y130100D01*
X366400D01*
X366600Y130300D02*
Y130100D01*
X367000D01*
Y130300D01*
X367200D01*
Y130700D01*
X367000D01*
Y130900D01*
X366600D01*
Y130700D01*
X366400D01*
Y130300D01*
X366600D01*
X409400Y129900D02*
Y129500D01*
X410200D01*
Y129900D01*
X410600D01*
Y130700D01*
X410200D01*
Y131100D01*
X409400D01*
Y130700D01*
X409000D01*
Y129900D01*
X409400D01*
X409600Y130100D02*
Y129900D01*
X410000D01*
Y130100D01*
X410200D01*
Y130500D01*
X410000D01*
Y130700D01*
X409600D01*
Y130500D01*
X409400D01*
Y130100D01*
X409600D01*
X371000Y131500D02*
Y131100D01*
X371800D01*
Y131500D01*
X372200D01*
Y132300D01*
X371800D01*
Y132700D01*
X371000D01*
Y132300D01*
X370600D01*
Y131500D01*
X371000D01*
X371200Y131700D02*
Y131500D01*
X371600D01*
Y131700D01*
X371800D01*
Y132100D01*
X371600D01*
Y132300D01*
X371200D01*
Y132100D01*
X371000D01*
Y131700D01*
X371200D01*
X372800Y118400D02*
Y118000D01*
X373600D01*
Y118400D01*
X374000D01*
Y119200D01*
X373600D01*
Y119600D01*
X372800D01*
Y119200D01*
X372400D01*
Y118400D01*
X372800D01*
X373000Y118600D02*
Y118400D01*
X373400D01*
Y118600D01*
X373600D01*
Y119000D01*
X373400D01*
Y119200D01*
X373000D01*
Y119000D01*
X372800D01*
Y118600D01*
X373000D01*
X314000Y79000D02*
Y78600D01*
X314800D01*
Y79000D01*
X315200D01*
Y79800D01*
X314800D01*
Y80200D01*
X314000D01*
Y79800D01*
X313600D01*
Y79000D01*
X314000D01*
X314200Y79200D02*
Y79000D01*
X314600D01*
Y79200D01*
X314800D01*
Y79600D01*
X314600D01*
Y79800D01*
X314200D01*
Y79600D01*
X314000D01*
Y79200D01*
X314200D01*
X303300Y86500D02*
Y86100D01*
X304100D01*
Y86500D01*
X304500D01*
Y87300D01*
X304100D01*
Y87700D01*
X303300D01*
Y87300D01*
X302900D01*
Y86500D01*
X303300D01*
X303500Y86700D02*
Y86500D01*
X303900D01*
Y86700D01*
X304100D01*
Y87100D01*
X303900D01*
Y87300D01*
X303500D01*
Y87100D01*
X303300D01*
Y86700D01*
X303500D01*
X330300Y76700D02*
Y76300D01*
X331100D01*
Y76700D01*
X331500D01*
Y77500D01*
X331100D01*
Y77900D01*
X330300D01*
Y77500D01*
X329900D01*
Y76700D01*
X330300D01*
X330500Y76900D02*
Y76700D01*
X330900D01*
Y76900D01*
X331100D01*
Y77300D01*
X330900D01*
Y77500D01*
X330500D01*
Y77300D01*
X330300D01*
Y76900D01*
X330500D01*
X321800Y78300D02*
Y77900D01*
X322600D01*
Y78300D01*
X323000D01*
Y79100D01*
X322600D01*
Y79500D01*
X321800D01*
Y79100D01*
X321400D01*
Y78300D01*
X321800D01*
X322000Y78500D02*
Y78300D01*
X322400D01*
Y78500D01*
X322600D01*
Y78900D01*
X322400D01*
Y79100D01*
X322000D01*
Y78900D01*
X321800D01*
Y78500D01*
X322000D01*
X206800Y95800D02*
Y95400D01*
X207600D01*
Y95800D01*
X208000D01*
Y96600D01*
X207600D01*
Y97000D01*
X206800D01*
Y96600D01*
X206400D01*
Y95800D01*
X206800D01*
X207000Y96000D02*
Y95800D01*
X207400D01*
Y96000D01*
X207600D01*
Y96400D01*
X207400D01*
Y96600D01*
X207000D01*
Y96400D01*
X206800D01*
Y96000D01*
X207000D01*
X305200Y88500D02*
Y88100D01*
X306000D01*
Y88500D01*
X306400D01*
Y89300D01*
X306000D01*
Y89700D01*
X305200D01*
Y89300D01*
X304800D01*
Y88500D01*
X305200D01*
X305400Y88700D02*
Y88500D01*
X305800D01*
Y88700D01*
X306000D01*
Y89100D01*
X305800D01*
Y89300D01*
X305400D01*
Y89100D01*
X305200D01*
Y88700D01*
X305400D01*
X342700Y86400D02*
Y86000D01*
X343500D01*
Y86400D01*
X343900D01*
Y87200D01*
X343500D01*
Y87600D01*
X342700D01*
Y87200D01*
X342300D01*
Y86400D01*
X342700D01*
X342900Y86600D02*
Y86400D01*
X343300D01*
Y86600D01*
X343500D01*
Y87000D01*
X343300D01*
Y87200D01*
X342900D01*
Y87000D01*
X342700D01*
Y86600D01*
X342900D01*
X314500Y59000D02*
Y58600D01*
X315300D01*
Y59000D01*
X315700D01*
Y59800D01*
X315300D01*
Y60200D01*
X314500D01*
Y59800D01*
X314100D01*
Y59000D01*
X314500D01*
X314700Y59200D02*
Y59000D01*
X315100D01*
Y59200D01*
X315300D01*
Y59600D01*
X315100D01*
Y59800D01*
X314700D01*
Y59600D01*
X314500D01*
Y59200D01*
X314700D01*
X310600Y59000D02*
Y58600D01*
X311400D01*
Y59000D01*
X311800D01*
Y59800D01*
X311400D01*
Y60200D01*
X310600D01*
Y59800D01*
X310200D01*
Y59000D01*
X310600D01*
X310800Y59200D02*
Y59000D01*
X311200D01*
Y59200D01*
X311400D01*
Y59600D01*
X311200D01*
Y59800D01*
X310800D01*
Y59600D01*
X310600D01*
Y59200D01*
X310800D01*
X316500Y88300D02*
Y87900D01*
X317300D01*
Y88300D01*
X317700D01*
Y89100D01*
X317300D01*
Y89500D01*
X316500D01*
Y89100D01*
X316100D01*
Y88300D01*
X316500D01*
X316700Y88500D02*
Y88300D01*
X317100D01*
Y88500D01*
X317300D01*
Y88900D01*
X317100D01*
Y89100D01*
X316700D01*
Y88900D01*
X316500D01*
Y88500D01*
X316700D01*
X326100Y78600D02*
Y78200D01*
X326900D01*
Y78600D01*
X327300D01*
Y79400D01*
X326900D01*
Y79800D01*
X326100D01*
Y79400D01*
X325700D01*
Y78600D01*
X326100D01*
X326300Y78800D02*
Y78600D01*
X326700D01*
Y78800D01*
X326900D01*
Y79200D01*
X326700D01*
Y79400D01*
X326300D01*
Y79200D01*
X326100D01*
Y78800D01*
X326300D01*
X328200Y73100D02*
Y72700D01*
X329000D01*
Y73100D01*
X329400D01*
Y73900D01*
X329000D01*
Y74300D01*
X328200D01*
Y73900D01*
X327800D01*
Y73100D01*
X328200D01*
X328400Y73300D02*
Y73100D01*
X328800D01*
Y73300D01*
X329000D01*
Y73700D01*
X328800D01*
Y73900D01*
X328400D01*
Y73700D01*
X328200D01*
Y73300D01*
X328400D01*
X332500Y73100D02*
Y72700D01*
X333300D01*
Y73100D01*
X333700D01*
Y73900D01*
X333300D01*
Y74300D01*
X332500D01*
Y73900D01*
X332100D01*
Y73100D01*
X332500D01*
X332700Y73300D02*
Y73100D01*
X333100D01*
Y73300D01*
X333300D01*
Y73700D01*
X333100D01*
Y73900D01*
X332700D01*
Y73700D01*
X332500D01*
Y73300D01*
X332700D01*
X335200Y73100D02*
Y72700D01*
X336000D01*
Y73100D01*
X336400D01*
Y73900D01*
X336000D01*
Y74300D01*
X335200D01*
Y73900D01*
X334800D01*
Y73100D01*
X335200D01*
X335400Y73300D02*
Y73100D01*
X335800D01*
Y73300D01*
X336000D01*
Y73700D01*
X335800D01*
Y73900D01*
X335400D01*
Y73700D01*
X335200D01*
Y73300D01*
X335400D01*
X352200Y118600D02*
Y118200D01*
X353000D01*
Y118600D01*
X353400D01*
Y119400D01*
X353000D01*
Y119800D01*
X352200D01*
Y119400D01*
X351800D01*
Y118600D01*
X352200D01*
X352400Y118800D02*
Y118600D01*
X352800D01*
Y118800D01*
X353000D01*
Y119200D01*
X352800D01*
Y119400D01*
X352400D01*
Y119200D01*
X352200D01*
Y118800D01*
X352400D01*
X301600Y122100D02*
Y121700D01*
X302400D01*
Y122100D01*
X302800D01*
Y122900D01*
X302400D01*
Y123300D01*
X301600D01*
Y122900D01*
X301200D01*
Y122100D01*
X301600D01*
X301800Y122300D02*
Y122100D01*
X302200D01*
Y122300D01*
X302400D01*
Y122700D01*
X302200D01*
Y122900D01*
X301800D01*
Y122700D01*
X301600D01*
Y122300D01*
X301800D01*
X298500Y128700D02*
Y128300D01*
X299300D01*
Y128700D01*
X299700D01*
Y129500D01*
X299300D01*
Y129900D01*
X298500D01*
Y129500D01*
X298100D01*
Y128700D01*
X298500D01*
X298700Y128900D02*
Y128700D01*
X299100D01*
Y128900D01*
X299300D01*
Y129300D01*
X299100D01*
Y129500D01*
X298700D01*
Y129300D01*
X298500D01*
Y128900D01*
X298700D01*
X319300Y108300D02*
Y107900D01*
X320100D01*
Y108300D01*
X320500D01*
Y109100D01*
X320100D01*
Y109500D01*
X319300D01*
Y109100D01*
X318900D01*
Y108300D01*
X319300D01*
X319500Y108500D02*
Y108300D01*
X319900D01*
Y108500D01*
X320100D01*
Y108900D01*
X319900D01*
Y109100D01*
X319500D01*
Y108900D01*
X319300D01*
Y108500D01*
X319500D01*
X317800Y96500D02*
Y96100D01*
X318600D01*
Y96500D01*
X319000D01*
Y97300D01*
X318600D01*
Y97700D01*
X317800D01*
Y97300D01*
X317400D01*
Y96500D01*
X317800D01*
X318000Y96700D02*
Y96500D01*
X318400D01*
Y96700D01*
X318600D01*
Y97100D01*
X318400D01*
Y97300D01*
X318000D01*
Y97100D01*
X317800D01*
Y96700D01*
X318000D01*
X306800Y99200D02*
Y98800D01*
X307600D01*
Y99200D01*
X308000D01*
Y100000D01*
X307600D01*
Y100400D01*
X306800D01*
Y100000D01*
X306400D01*
Y99200D01*
X306800D01*
X307000Y99400D02*
Y99200D01*
X307400D01*
Y99400D01*
X307600D01*
Y99800D01*
X307400D01*
Y100000D01*
X307000D01*
Y99800D01*
X306800D01*
Y99400D01*
X307000D01*
X362600Y139000D02*
Y138600D01*
X363400D01*
Y139000D01*
X363800D01*
Y139800D01*
X363400D01*
Y140200D01*
X362600D01*
Y139800D01*
X362200D01*
Y139000D01*
X362600D01*
X362800Y139200D02*
Y139000D01*
X363200D01*
Y139200D01*
X363400D01*
Y139600D01*
X363200D01*
Y139800D01*
X362800D01*
Y139600D01*
X362600D01*
Y139200D01*
X362800D01*
X375800Y147700D02*
Y147300D01*
X376600D01*
Y147700D01*
X377000D01*
Y148500D01*
X376600D01*
Y148900D01*
X375800D01*
Y148500D01*
X375400D01*
Y147700D01*
X375800D01*
X376000Y147900D02*
Y147700D01*
X376400D01*
Y147900D01*
X376600D01*
Y148300D01*
X376400D01*
Y148500D01*
X376000D01*
Y148300D01*
X375800D01*
Y147900D01*
X376000D01*
Y144800D02*
Y144400D01*
X376800D01*
Y144800D01*
X377200D01*
Y145600D01*
X376800D01*
Y146000D01*
X376000D01*
Y145600D01*
X375600D01*
Y144800D01*
X376000D01*
X376200Y145000D02*
Y144800D01*
X376600D01*
Y145000D01*
X376800D01*
Y145400D01*
X376600D01*
Y145600D01*
X376200D01*
Y145400D01*
X376000D01*
Y145000D01*
X376200D01*
X368000Y149700D02*
Y149300D01*
X368800D01*
Y149700D01*
X369200D01*
Y150500D01*
X368800D01*
Y150900D01*
X368000D01*
Y150500D01*
X367600D01*
Y149700D01*
X368000D01*
X368200Y149900D02*
Y149700D01*
X368600D01*
Y149900D01*
X368800D01*
Y150300D01*
X368600D01*
Y150500D01*
X368200D01*
Y150300D01*
X368000D01*
Y149900D01*
X368200D01*
X354000Y165000D02*
Y164600D01*
X354800D01*
Y165000D01*
X355200D01*
Y165800D01*
X354800D01*
Y166200D01*
X354000D01*
Y165800D01*
X353600D01*
Y165000D01*
X354000D01*
X354200Y165200D02*
Y165000D01*
X354600D01*
Y165200D01*
X354800D01*
Y165600D01*
X354600D01*
Y165800D01*
X354200D01*
Y165600D01*
X354000D01*
Y165200D01*
X354200D01*
X340800Y156100D02*
Y155700D01*
X341600D01*
Y156100D01*
X342000D01*
Y156900D01*
X341600D01*
Y157300D01*
X340800D01*
Y156900D01*
X340400D01*
Y156100D01*
X340800D01*
X341000Y156300D02*
Y156100D01*
X341400D01*
Y156300D01*
X341600D01*
Y156700D01*
X341400D01*
Y156900D01*
X341000D01*
Y156700D01*
X340800D01*
Y156300D01*
X341000D01*
X353200Y148200D02*
Y147800D01*
X354000D01*
Y148200D01*
X354400D01*
Y149000D01*
X354000D01*
Y149400D01*
X353200D01*
Y149000D01*
X352800D01*
Y148200D01*
X353200D01*
X353400Y148400D02*
Y148200D01*
X353800D01*
Y148400D01*
X354000D01*
Y148800D01*
X353800D01*
Y149000D01*
X353400D01*
Y148800D01*
X353200D01*
Y148400D01*
X353400D01*
X194100Y258500D02*
Y258100D01*
X194900D01*
Y258500D01*
X195300D01*
Y259300D01*
X194900D01*
Y259700D01*
X194100D01*
Y259300D01*
X193700D01*
Y258500D01*
X194100D01*
X194300Y258700D02*
Y258500D01*
X194700D01*
Y258700D01*
X194900D01*
Y259100D01*
X194700D01*
Y259300D01*
X194300D01*
Y259100D01*
X194100D01*
Y258700D01*
X194300D01*
X301500Y177600D02*
Y177200D01*
X302300D01*
Y177600D01*
X302700D01*
Y178400D01*
X302300D01*
Y178800D01*
X301500D01*
Y178400D01*
X301100D01*
Y177600D01*
X301500D01*
X301700Y177800D02*
Y177600D01*
X302100D01*
Y177800D01*
X302300D01*
Y178200D01*
X302100D01*
Y178400D01*
X301700D01*
Y178200D01*
X301500D01*
Y177800D01*
X301700D01*
X318800Y175600D02*
Y175200D01*
X319600D01*
Y175600D01*
X320000D01*
Y176400D01*
X319600D01*
Y176800D01*
X318800D01*
Y176400D01*
X318400D01*
Y175600D01*
X318800D01*
X319000Y175800D02*
Y175600D01*
X319400D01*
Y175800D01*
X319600D01*
Y176200D01*
X319400D01*
Y176400D01*
X319000D01*
Y176200D01*
X318800D01*
Y175800D01*
X319000D01*
X329500Y173600D02*
Y173200D01*
X330300D01*
Y173600D01*
X330700D01*
Y174400D01*
X330300D01*
Y174800D01*
X329500D01*
Y174400D01*
X329100D01*
Y173600D01*
X329500D01*
X329700Y173800D02*
Y173600D01*
X330100D01*
Y173800D01*
X330300D01*
Y174200D01*
X330100D01*
Y174400D01*
X329700D01*
Y174200D01*
X329500D01*
Y173800D01*
X329700D01*
X327000Y171500D02*
Y171100D01*
X327800D01*
Y171500D01*
X328200D01*
Y172300D01*
X327800D01*
Y172700D01*
X327000D01*
Y172300D01*
X326600D01*
Y171500D01*
X327000D01*
X327200Y171700D02*
Y171500D01*
X327600D01*
Y171700D01*
X327800D01*
Y172100D01*
X327600D01*
Y172300D01*
X327200D01*
Y172100D01*
X327000D01*
Y171700D01*
X327200D01*
X309100Y165600D02*
Y165200D01*
X309900D01*
Y165600D01*
X310300D01*
Y166400D01*
X309900D01*
Y166800D01*
X309100D01*
Y166400D01*
X308700D01*
Y165600D01*
X309100D01*
X309300Y165800D02*
Y165600D01*
X309700D01*
Y165800D01*
X309900D01*
Y166200D01*
X309700D01*
Y166400D01*
X309300D01*
Y166200D01*
X309100D01*
Y165800D01*
X309300D01*
X324600Y169400D02*
Y169000D01*
X325400D01*
Y169400D01*
X325800D01*
Y170200D01*
X325400D01*
Y170600D01*
X324600D01*
Y170200D01*
X324200D01*
Y169400D01*
X324600D01*
X324800Y169600D02*
Y169400D01*
X325200D01*
Y169600D01*
X325400D01*
Y170000D01*
X325200D01*
Y170200D01*
X324800D01*
Y170000D01*
X324600D01*
Y169600D01*
X324800D01*
X221600Y202400D02*
Y202000D01*
X222400D01*
Y202400D01*
X222800D01*
Y203200D01*
X222400D01*
Y203600D01*
X221600D01*
Y203200D01*
X221200D01*
Y202400D01*
X221600D01*
X221800Y202600D02*
Y202400D01*
X222200D01*
Y202600D01*
X222400D01*
Y203000D01*
X222200D01*
Y203200D01*
X221800D01*
Y203000D01*
X221600D01*
Y202600D01*
X221800D01*
X349300Y138400D02*
Y138000D01*
X350100D01*
Y138400D01*
X350500D01*
Y139200D01*
X350100D01*
Y139600D01*
X349300D01*
Y139200D01*
X348900D01*
Y138400D01*
X349300D01*
X349500Y138600D02*
Y138400D01*
X349900D01*
Y138600D01*
X350100D01*
Y139000D01*
X349900D01*
Y139200D01*
X349500D01*
Y139000D01*
X349300D01*
Y138600D01*
X349500D01*
X348500Y128600D02*
Y128200D01*
X349300D01*
Y128600D01*
X349700D01*
Y129400D01*
X349300D01*
Y129800D01*
X348500D01*
Y129400D01*
X348100D01*
Y128600D01*
X348500D01*
X348700Y128800D02*
Y128600D01*
X349100D01*
Y128800D01*
X349300D01*
Y129200D01*
X349100D01*
Y129400D01*
X348700D01*
Y129200D01*
X348500D01*
Y128800D01*
X348700D01*
X318500Y248600D02*
Y248200D01*
X319300D01*
Y248600D01*
X319700D01*
Y249400D01*
X319300D01*
Y249800D01*
X318500D01*
Y249400D01*
X318100D01*
Y248600D01*
X318500D01*
X318700Y248800D02*
Y248600D01*
X319100D01*
Y248800D01*
X319300D01*
Y249200D01*
X319100D01*
Y249400D01*
X318700D01*
Y249200D01*
X318500D01*
Y248800D01*
X318700D01*
X324700Y248400D02*
Y248000D01*
X325500D01*
Y248400D01*
X325900D01*
Y249200D01*
X325500D01*
Y249600D01*
X324700D01*
Y249200D01*
X324300D01*
Y248400D01*
X324700D01*
X324900Y248600D02*
Y248400D01*
X325300D01*
Y248600D01*
X325500D01*
Y249000D01*
X325300D01*
Y249200D01*
X324900D01*
Y249000D01*
X324700D01*
Y248600D01*
X324900D01*
X75500Y273600D02*
Y273200D01*
X76300D01*
Y273600D01*
X76700D01*
Y274400D01*
X76300D01*
Y274800D01*
X75500D01*
Y274400D01*
X75100D01*
Y273600D01*
X75500D01*
X75700Y273800D02*
Y273600D01*
X76100D01*
Y273800D01*
X76300D01*
Y274200D01*
X76100D01*
Y274400D01*
X75700D01*
Y274200D01*
X75500D01*
Y273800D01*
X75700D01*
X116400Y125200D02*
Y124800D01*
X117200D01*
Y125200D01*
X117600D01*
Y126000D01*
X117200D01*
Y126400D01*
X116400D01*
Y126000D01*
X116000D01*
Y125200D01*
X116400D01*
X116600Y125400D02*
Y125200D01*
X117000D01*
Y125400D01*
X117200D01*
Y125800D01*
X117000D01*
Y126000D01*
X116600D01*
Y125800D01*
X116400D01*
Y125400D01*
X116600D01*
X88200Y276300D02*
Y275900D01*
X89000D01*
Y276300D01*
X89400D01*
Y277100D01*
X89000D01*
Y277500D01*
X88200D01*
Y277100D01*
X87800D01*
Y276300D01*
X88200D01*
X88400Y276500D02*
Y276300D01*
X88800D01*
Y276500D01*
X89000D01*
Y276900D01*
X88800D01*
Y277100D01*
X88400D01*
Y276900D01*
X88200D01*
Y276500D01*
X88400D01*
X89200Y252300D02*
Y251900D01*
X90000D01*
Y252300D01*
X90400D01*
Y253100D01*
X90000D01*
Y253500D01*
X89200D01*
Y253100D01*
X88800D01*
Y252300D01*
X89200D01*
X89400Y252500D02*
Y252300D01*
X89800D01*
Y252500D01*
X90000D01*
Y252900D01*
X89800D01*
Y253100D01*
X89400D01*
Y252900D01*
X89200D01*
Y252500D01*
X89400D01*
X92100Y253300D02*
Y252900D01*
X92900D01*
Y253300D01*
X93300D01*
Y254100D01*
X92900D01*
Y254500D01*
X92100D01*
Y254100D01*
X91700D01*
Y253300D01*
X92100D01*
X92300Y253500D02*
Y253300D01*
X92700D01*
Y253500D01*
X92900D01*
Y253900D01*
X92700D01*
Y254100D01*
X92300D01*
Y253900D01*
X92100D01*
Y253500D01*
X92300D01*
X85900Y263800D02*
Y263400D01*
X86700D01*
Y263800D01*
X87100D01*
Y264600D01*
X86700D01*
Y265000D01*
X85900D01*
Y264600D01*
X85500D01*
Y263800D01*
X85900D01*
X86100Y264000D02*
Y263800D01*
X86500D01*
Y264000D01*
X86700D01*
Y264400D01*
X86500D01*
Y264600D01*
X86100D01*
Y264400D01*
X85900D01*
Y264000D01*
X86100D01*
X91800Y266200D02*
Y265800D01*
X92600D01*
Y266200D01*
X93000D01*
Y267000D01*
X92600D01*
Y267400D01*
X91800D01*
Y267000D01*
X91400D01*
Y266200D01*
X91800D01*
X92000Y266400D02*
Y266200D01*
X92400D01*
Y266400D01*
X92600D01*
Y266800D01*
X92400D01*
Y267000D01*
X92000D01*
Y266800D01*
X91800D01*
Y266400D01*
X92000D01*
X44000Y194000D02*
Y193600D01*
X44800D01*
Y194000D01*
X45200D01*
Y194800D01*
X44800D01*
Y195200D01*
X44000D01*
Y194800D01*
X43600D01*
Y194000D01*
X44000D01*
X44200Y194200D02*
Y194000D01*
X44600D01*
Y194200D01*
X44800D01*
Y194600D01*
X44600D01*
Y194800D01*
X44200D01*
Y194600D01*
X44000D01*
Y194200D01*
X44200D01*
X46100Y200000D02*
Y199600D01*
X46900D01*
Y200000D01*
X47300D01*
Y200800D01*
X46900D01*
Y201200D01*
X46100D01*
Y200800D01*
X45700D01*
Y200000D01*
X46100D01*
X46300Y200200D02*
Y200000D01*
X46700D01*
Y200200D01*
X46900D01*
Y200600D01*
X46700D01*
Y200800D01*
X46300D01*
Y200600D01*
X46100D01*
Y200200D01*
X46300D01*
X55700Y208400D02*
Y208000D01*
X56500D01*
Y208400D01*
X56900D01*
Y209200D01*
X56500D01*
Y209600D01*
X55700D01*
Y209200D01*
X55300D01*
Y208400D01*
X55700D01*
X55900Y208600D02*
Y208400D01*
X56300D01*
Y208600D01*
X56500D01*
Y209000D01*
X56300D01*
Y209200D01*
X55900D01*
Y209000D01*
X55700D01*
Y208600D01*
X55900D01*
X70500Y181800D02*
Y181400D01*
X71300D01*
Y181800D01*
X71700D01*
Y182600D01*
X71300D01*
Y183000D01*
X70500D01*
Y182600D01*
X70100D01*
Y181800D01*
X70500D01*
X70700Y182000D02*
Y181800D01*
X71100D01*
Y182000D01*
X71300D01*
Y182400D01*
X71100D01*
Y182600D01*
X70700D01*
Y182400D01*
X70500D01*
Y182000D01*
X70700D01*
X50400Y187100D02*
Y186700D01*
X51200D01*
Y187100D01*
X51600D01*
Y187900D01*
X51200D01*
Y188300D01*
X50400D01*
Y187900D01*
X50000D01*
Y187100D01*
X50400D01*
X50600Y187300D02*
Y187100D01*
X51000D01*
Y187300D01*
X51200D01*
Y187700D01*
X51000D01*
Y187900D01*
X50600D01*
Y187700D01*
X50400D01*
Y187300D01*
X50600D01*
X165800Y140500D02*
Y140100D01*
X166600D01*
Y140500D01*
X167000D01*
Y141300D01*
X166600D01*
Y141700D01*
X165800D01*
Y141300D01*
X165400D01*
Y140500D01*
X165800D01*
X166000Y140700D02*
Y140500D01*
X166400D01*
Y140700D01*
X166600D01*
Y141100D01*
X166400D01*
Y141300D01*
X166000D01*
Y141100D01*
X165800D01*
Y140700D01*
X166000D01*
X280700Y46400D02*
Y46000D01*
X281500D01*
Y46400D01*
X281900D01*
Y47200D01*
X281500D01*
Y47600D01*
X280700D01*
Y47200D01*
X280300D01*
Y46400D01*
X280700D01*
X280900Y46600D02*
Y46400D01*
X281300D01*
Y46600D01*
X281500D01*
Y47000D01*
X281300D01*
Y47200D01*
X280900D01*
Y47000D01*
X280700D01*
Y46600D01*
X280900D01*
X89900Y154300D02*
Y153900D01*
X90700D01*
Y154300D01*
X91100D01*
Y155100D01*
X90700D01*
Y155500D01*
X89900D01*
Y155100D01*
X89500D01*
Y154300D01*
X89900D01*
X90100Y154500D02*
Y154300D01*
X90500D01*
Y154500D01*
X90700D01*
Y154900D01*
X90500D01*
Y155100D01*
X90100D01*
Y154900D01*
X89900D01*
Y154500D01*
X90100D01*
X88200Y159300D02*
Y158900D01*
X89000D01*
Y159300D01*
X89400D01*
Y160100D01*
X89000D01*
Y160500D01*
X88200D01*
Y160100D01*
X87800D01*
Y159300D01*
X88200D01*
X88400Y159500D02*
Y159300D01*
X88800D01*
Y159500D01*
X89000D01*
Y159900D01*
X88800D01*
Y160100D01*
X88400D01*
Y159900D01*
X88200D01*
Y159500D01*
X88400D01*
X395200Y147700D02*
Y147300D01*
X396000D01*
Y147700D01*
X396400D01*
Y148500D01*
X396000D01*
Y148900D01*
X395200D01*
Y148500D01*
X394800D01*
Y147700D01*
X395200D01*
X395400Y147900D02*
Y147700D01*
X395800D01*
Y147900D01*
X396000D01*
Y148300D01*
X395800D01*
Y148500D01*
X395400D01*
Y148300D01*
X395200D01*
Y147900D01*
X395400D01*
X393100Y137000D02*
Y136600D01*
X393900D01*
Y137000D01*
X394300D01*
Y137800D01*
X393900D01*
Y138200D01*
X393100D01*
Y137800D01*
X392700D01*
Y137000D01*
X393100D01*
X393300Y137200D02*
Y137000D01*
X393700D01*
Y137200D01*
X393900D01*
Y137600D01*
X393700D01*
Y137800D01*
X393300D01*
Y137600D01*
X393100D01*
Y137200D01*
X393300D01*
X382300Y93000D02*
Y92600D01*
X383100D01*
Y93000D01*
X383500D01*
Y93800D01*
X383100D01*
Y94200D01*
X382300D01*
Y93800D01*
X381900D01*
Y93000D01*
X382300D01*
X382500Y93200D02*
Y93000D01*
X382900D01*
Y93200D01*
X383100D01*
Y93600D01*
X382900D01*
Y93800D01*
X382500D01*
Y93600D01*
X382300D01*
Y93200D01*
X382500D01*
X372600Y125900D02*
Y125500D01*
X373400D01*
Y125900D01*
X373800D01*
Y126700D01*
X373400D01*
Y127100D01*
X372600D01*
Y126700D01*
X372200D01*
Y125900D01*
X372600D01*
X372800Y126100D02*
Y125900D01*
X373200D01*
Y126100D01*
X373400D01*
Y126500D01*
X373200D01*
Y126700D01*
X372800D01*
Y126500D01*
X372600D01*
Y126100D01*
X372800D01*
X374600Y131500D02*
Y131100D01*
X375400D01*
Y131500D01*
X375800D01*
Y132300D01*
X375400D01*
Y132700D01*
X374600D01*
Y132300D01*
X374200D01*
Y131500D01*
X374600D01*
X374800Y131700D02*
Y131500D01*
X375200D01*
Y131700D01*
X375400D01*
Y132100D01*
X375200D01*
Y132300D01*
X374800D01*
Y132100D01*
X374600D01*
Y131700D01*
X374800D01*
X375800Y137000D02*
Y136600D01*
X376600D01*
Y137000D01*
X377000D01*
Y137800D01*
X376600D01*
Y138200D01*
X375800D01*
Y137800D01*
X375400D01*
Y137000D01*
X375800D01*
X376000Y137200D02*
Y137000D01*
X376400D01*
Y137200D01*
X376600D01*
Y137600D01*
X376400D01*
Y137800D01*
X376000D01*
Y137600D01*
X375800D01*
Y137200D01*
X376000D01*
X373600Y143300D02*
Y142900D01*
X374400D01*
Y143300D01*
X374800D01*
Y144100D01*
X374400D01*
Y144500D01*
X373600D01*
Y144100D01*
X373200D01*
Y143300D01*
X373600D01*
X373800Y143500D02*
Y143300D01*
X374200D01*
Y143500D01*
X374400D01*
Y143900D01*
X374200D01*
Y144100D01*
X373800D01*
Y143900D01*
X373600D01*
Y143500D01*
X373800D01*
X386700Y142400D02*
Y142000D01*
X387500D01*
Y142400D01*
X387900D01*
Y143200D01*
X387500D01*
Y143600D01*
X386700D01*
Y143200D01*
X386300D01*
Y142400D01*
X386700D01*
X386900Y142600D02*
Y142400D01*
X387300D01*
Y142600D01*
X387500D01*
Y143000D01*
X387300D01*
Y143200D01*
X386900D01*
Y143000D01*
X386700D01*
Y142600D01*
X386900D01*
X59800Y222700D02*
Y222300D01*
X60600D01*
Y222700D01*
X61000D01*
Y223500D01*
X60600D01*
Y223900D01*
X59800D01*
Y223500D01*
X59400D01*
Y222700D01*
X59800D01*
X60000Y222900D02*
Y222700D01*
X60400D01*
Y222900D01*
X60600D01*
Y223300D01*
X60400D01*
Y223500D01*
X60000D01*
Y223300D01*
X59800D01*
Y222900D01*
X60000D01*
X57100Y228500D02*
Y228100D01*
X57900D01*
Y228500D01*
X58300D01*
Y229300D01*
X57900D01*
Y229700D01*
X57100D01*
Y229300D01*
X56700D01*
Y228500D01*
X57100D01*
X57300Y228700D02*
Y228500D01*
X57700D01*
Y228700D01*
X57900D01*
Y229100D01*
X57700D01*
Y229300D01*
X57300D01*
Y229100D01*
X57100D01*
Y228700D01*
X57300D01*
X62300Y228500D02*
Y228100D01*
X63100D01*
Y228500D01*
X63500D01*
Y229300D01*
X63100D01*
Y229700D01*
X62300D01*
Y229300D01*
X61900D01*
Y228500D01*
X62300D01*
X62500Y228700D02*
Y228500D01*
X62900D01*
Y228700D01*
X63100D01*
Y229100D01*
X62900D01*
Y229300D01*
X62500D01*
Y229100D01*
X62300D01*
Y228700D01*
X62500D01*
X23600Y68100D02*
Y67700D01*
X24400D01*
Y68100D01*
X24800D01*
Y68900D01*
X24400D01*
Y69300D01*
X23600D01*
Y68900D01*
X23200D01*
Y68100D01*
X23600D01*
X23800Y68300D02*
Y68100D01*
X24200D01*
Y68300D01*
X24400D01*
Y68700D01*
X24200D01*
Y68900D01*
X23800D01*
Y68700D01*
X23600D01*
Y68300D01*
X23800D01*
X33229Y63767D02*
Y63367D01*
X34029D01*
Y63767D01*
X34429D01*
Y64567D01*
X34029D01*
Y64967D01*
X33229D01*
Y64567D01*
X32829D01*
Y63767D01*
X33229D01*
X33429Y63967D02*
Y63767D01*
X33829D01*
Y63967D01*
X34029D01*
Y64367D01*
X33829D01*
Y64567D01*
X33429D01*
Y64367D01*
X33229D01*
Y63967D01*
X33429D01*
X324000Y73200D02*
Y72800D01*
X324800D01*
Y73200D01*
X325200D01*
Y74000D01*
X324800D01*
Y74400D01*
X324000D01*
Y74000D01*
X323600D01*
Y73200D01*
X324000D01*
X324200Y73400D02*
Y73200D01*
X324600D01*
Y73400D01*
X324800D01*
Y73800D01*
X324600D01*
Y74000D01*
X324200D01*
Y73800D01*
X324000D01*
Y73400D01*
X324200D01*
X316900Y73300D02*
Y72900D01*
X317700D01*
Y73300D01*
X318100D01*
Y74100D01*
X317700D01*
Y74500D01*
X316900D01*
Y74100D01*
X316500D01*
Y73300D01*
X316900D01*
X317100Y73500D02*
Y73300D01*
X317500D01*
Y73500D01*
X317700D01*
Y73900D01*
X317500D01*
Y74100D01*
X317100D01*
Y73900D01*
X316900D01*
Y73500D01*
X317100D01*
X319700Y73700D02*
Y73300D01*
X320500D01*
Y73700D01*
X320900D01*
Y74500D01*
X320500D01*
Y74900D01*
X319700D01*
Y74500D01*
X319300D01*
Y73700D01*
X319700D01*
X319900Y73900D02*
Y73700D01*
X320300D01*
Y73900D01*
X320500D01*
Y74300D01*
X320300D01*
Y74500D01*
X319900D01*
Y74300D01*
X319700D01*
Y73900D01*
X319900D01*
X25896Y57900D02*
Y57500D01*
X26696D01*
Y57900D01*
X27096D01*
Y58700D01*
X26696D01*
Y59100D01*
X25896D01*
Y58700D01*
X25496D01*
Y57900D01*
X25896D01*
X26096Y58100D02*
Y57900D01*
X26496D01*
Y58100D01*
X26696D01*
Y58500D01*
X26496D01*
Y58700D01*
X26096D01*
Y58500D01*
X25896D01*
Y58100D01*
X26096D01*
X22396Y54600D02*
Y54200D01*
X23196D01*
Y54600D01*
X23596D01*
Y55400D01*
X23196D01*
Y55800D01*
X22396D01*
Y55400D01*
X21996D01*
Y54600D01*
X22396D01*
X22596Y54800D02*
Y54600D01*
X22996D01*
Y54800D01*
X23196D01*
Y55200D01*
X22996D01*
Y55400D01*
X22596D01*
Y55200D01*
X22396D01*
Y54800D01*
X22596D01*
X104500Y131200D02*
Y130800D01*
X105300D01*
Y131200D01*
X105700D01*
Y132000D01*
X105300D01*
Y132400D01*
X104500D01*
Y132000D01*
X104100D01*
Y131200D01*
X104500D01*
X104700Y131400D02*
Y131200D01*
X105100D01*
Y131400D01*
X105300D01*
Y131800D01*
X105100D01*
Y132000D01*
X104700D01*
Y131800D01*
X104500D01*
Y131400D01*
X104700D01*
X263000Y114500D02*
Y114100D01*
X263800D01*
Y114500D01*
X264200D01*
Y115300D01*
X263800D01*
Y115700D01*
X263000D01*
Y115300D01*
X262600D01*
Y114500D01*
X263000D01*
X263200Y114700D02*
Y114500D01*
X263600D01*
Y114700D01*
X263800D01*
Y115100D01*
X263600D01*
Y115300D01*
X263200D01*
Y115100D01*
X263000D01*
Y114700D01*
X263200D01*
X241500Y115600D02*
Y115200D01*
X242300D01*
Y115600D01*
X242700D01*
Y116400D01*
X242300D01*
Y116800D01*
X241500D01*
Y116400D01*
X241100D01*
Y115600D01*
X241500D01*
X241700Y115800D02*
Y115600D01*
X242100D01*
Y115800D01*
X242300D01*
Y116200D01*
X242100D01*
Y116400D01*
X241700D01*
Y116200D01*
X241500D01*
Y115800D01*
X241700D01*
X243500Y117800D02*
Y117400D01*
X244300D01*
Y117800D01*
X244700D01*
Y118600D01*
X244300D01*
Y119000D01*
X243500D01*
Y118600D01*
X243100D01*
Y117800D01*
X243500D01*
X243700Y118000D02*
Y117800D01*
X244100D01*
Y118000D01*
X244300D01*
Y118400D01*
X244100D01*
Y118600D01*
X243700D01*
Y118400D01*
X243500D01*
Y118000D01*
X243700D01*
X247700Y94400D02*
Y94000D01*
X248500D01*
Y94400D01*
X248900D01*
Y95200D01*
X248500D01*
Y95600D01*
X247700D01*
Y95200D01*
X247300D01*
Y94400D01*
X247700D01*
X247900Y94600D02*
Y94400D01*
X248300D01*
Y94600D01*
X248500D01*
Y95000D01*
X248300D01*
Y95200D01*
X247900D01*
Y95000D01*
X247700D01*
Y94600D01*
X247900D01*
X254000Y79800D02*
Y79400D01*
X254800D01*
Y79800D01*
X255200D01*
Y80600D01*
X254800D01*
Y81000D01*
X254000D01*
Y80600D01*
X253600D01*
Y79800D01*
X254000D01*
X254200Y80000D02*
Y79800D01*
X254600D01*
Y80000D01*
X254800D01*
Y80400D01*
X254600D01*
Y80600D01*
X254200D01*
Y80400D01*
X254000D01*
Y80000D01*
X254200D01*
X249800Y107900D02*
Y107500D01*
X250600D01*
Y107900D01*
X251000D01*
Y108700D01*
X250600D01*
Y109100D01*
X249800D01*
Y108700D01*
X249400D01*
Y107900D01*
X249800D01*
X250000Y108100D02*
Y107900D01*
X250400D01*
Y108100D01*
X250600D01*
Y108500D01*
X250400D01*
Y108700D01*
X250000D01*
Y108500D01*
X249800D01*
Y108100D01*
X250000D01*
X245600Y120000D02*
Y119600D01*
X246400D01*
Y120000D01*
X246800D01*
Y120800D01*
X246400D01*
Y121200D01*
X245600D01*
Y120800D01*
X245200D01*
Y120000D01*
X245600D01*
X245800Y120200D02*
Y120000D01*
X246200D01*
Y120200D01*
X246400D01*
Y120600D01*
X246200D01*
Y120800D01*
X245800D01*
Y120600D01*
X245600D01*
Y120200D01*
X245800D01*
X250700Y144200D02*
Y143800D01*
X251500D01*
Y144200D01*
X251900D01*
Y145000D01*
X251500D01*
Y145400D01*
X250700D01*
Y145000D01*
X250300D01*
Y144200D01*
X250700D01*
X250900Y144400D02*
Y144200D01*
X251300D01*
Y144400D01*
X251500D01*
Y144800D01*
X251300D01*
Y145000D01*
X250900D01*
Y144800D01*
X250700D01*
Y144400D01*
X250900D01*
X287000Y175000D02*
Y174600D01*
X287800D01*
Y175000D01*
X288200D01*
Y175800D01*
X287800D01*
Y176200D01*
X287000D01*
Y175800D01*
X286600D01*
Y175000D01*
X287000D01*
X287200Y175200D02*
Y175000D01*
X287600D01*
Y175200D01*
X287800D01*
Y175600D01*
X287600D01*
Y175800D01*
X287200D01*
Y175600D01*
X287000D01*
Y175200D01*
X287200D01*
X253500Y166000D02*
Y165600D01*
X254300D01*
Y166000D01*
X254700D01*
Y166800D01*
X254300D01*
Y167200D01*
X253500D01*
Y166800D01*
X253100D01*
Y166000D01*
X253500D01*
X253700Y166200D02*
Y166000D01*
X254100D01*
Y166200D01*
X254300D01*
Y166600D01*
X254100D01*
Y166800D01*
X253700D01*
Y166600D01*
X253500D01*
Y166200D01*
X253700D01*
X279900Y165900D02*
Y165500D01*
X280700D01*
Y165900D01*
X281100D01*
Y166700D01*
X280700D01*
Y167100D01*
X279900D01*
Y166700D01*
X279500D01*
Y165900D01*
X279900D01*
X280100Y166100D02*
Y165900D01*
X280500D01*
Y166100D01*
X280700D01*
Y166500D01*
X280500D01*
Y166700D01*
X280100D01*
Y166500D01*
X279900D01*
Y166100D01*
X280100D01*
X217100Y190300D02*
Y189900D01*
X217900D01*
Y190300D01*
X218300D01*
Y191100D01*
X217900D01*
Y191500D01*
X217100D01*
Y191100D01*
X216700D01*
Y190300D01*
X217100D01*
X217300Y190500D02*
Y190300D01*
X217700D01*
Y190500D01*
X217900D01*
Y190900D01*
X217700D01*
Y191100D01*
X217300D01*
Y190900D01*
X217100D01*
Y190500D01*
X217300D01*
X199000Y157600D02*
Y157200D01*
X199800D01*
Y157600D01*
X200200D01*
Y158400D01*
X199800D01*
Y158800D01*
X199000D01*
Y158400D01*
X198600D01*
Y157600D01*
X199000D01*
X199200Y157800D02*
Y157600D01*
X199600D01*
Y157800D01*
X199800D01*
Y158200D01*
X199600D01*
Y158400D01*
X199200D01*
Y158200D01*
X199000D01*
Y157800D01*
X199200D01*
X324900Y139800D02*
Y139400D01*
X325700D01*
Y139800D01*
X326100D01*
Y140600D01*
X325700D01*
Y141000D01*
X324900D01*
Y140600D01*
X324500D01*
Y139800D01*
X324900D01*
X325100Y140000D02*
Y139800D01*
X325500D01*
Y140000D01*
X325700D01*
Y140400D01*
X325500D01*
Y140600D01*
X325100D01*
Y140400D01*
X324900D01*
Y140000D01*
X325100D01*
X318100Y132400D02*
Y132000D01*
X318900D01*
Y132400D01*
X319300D01*
Y133200D01*
X318900D01*
Y133600D01*
X318100D01*
Y133200D01*
X317700D01*
Y132400D01*
X318100D01*
X318300Y132600D02*
Y132400D01*
X318700D01*
Y132600D01*
X318900D01*
Y133000D01*
X318700D01*
Y133200D01*
X318300D01*
Y133000D01*
X318100D01*
Y132600D01*
X318300D01*
X315800Y129500D02*
Y129100D01*
X316600D01*
Y129500D01*
X317000D01*
Y130300D01*
X316600D01*
Y130700D01*
X315800D01*
Y130300D01*
X315400D01*
Y129500D01*
X315800D01*
X316000Y129700D02*
Y129500D01*
X316400D01*
Y129700D01*
X316600D01*
Y130100D01*
X316400D01*
Y130300D01*
X316000D01*
Y130100D01*
X315800D01*
Y129700D01*
X316000D01*
X300900Y125900D02*
Y125500D01*
X301700D01*
Y125900D01*
X302100D01*
Y126700D01*
X301700D01*
Y127100D01*
X300900D01*
Y126700D01*
X300500D01*
Y125900D01*
X300900D01*
X301100Y126100D02*
Y125900D01*
X301500D01*
Y126100D01*
X301700D01*
Y126500D01*
X301500D01*
Y126700D01*
X301100D01*
Y126500D01*
X300900D01*
Y126100D01*
X301100D01*
X313600Y121200D02*
Y120800D01*
X314400D01*
Y121200D01*
X314800D01*
Y122000D01*
X314400D01*
Y122400D01*
X313600D01*
Y122000D01*
X313200D01*
Y121200D01*
X313600D01*
X313800Y121400D02*
Y121200D01*
X314200D01*
Y121400D01*
X314400D01*
Y121800D01*
X314200D01*
Y122000D01*
X313800D01*
Y121800D01*
X313600D01*
Y121400D01*
X313800D01*
X346400Y120700D02*
Y120300D01*
X347200D01*
Y120700D01*
X347600D01*
Y121500D01*
X347200D01*
Y121900D01*
X346400D01*
Y121500D01*
X346000D01*
Y120700D01*
X346400D01*
X346600Y120900D02*
Y120700D01*
X347000D01*
Y120900D01*
X347200D01*
Y121300D01*
X347000D01*
Y121500D01*
X346600D01*
Y121300D01*
X346400D01*
Y120900D01*
X346600D01*
X281800Y126500D02*
Y126100D01*
X282600D01*
Y126500D01*
X283000D01*
Y127300D01*
X282600D01*
Y127700D01*
X281800D01*
Y127300D01*
X281400D01*
Y126500D01*
X281800D01*
X282000Y126700D02*
Y126500D01*
X282400D01*
Y126700D01*
X282600D01*
Y127100D01*
X282400D01*
Y127300D01*
X282000D01*
Y127100D01*
X281800D01*
Y126700D01*
X282000D01*
X279700Y128600D02*
Y128200D01*
X280500D01*
Y128600D01*
X280900D01*
Y129400D01*
X280500D01*
Y129800D01*
X279700D01*
Y129400D01*
X279300D01*
Y128600D01*
X279700D01*
X279900Y128800D02*
Y128600D01*
X280300D01*
Y128800D01*
X280500D01*
Y129200D01*
X280300D01*
Y129400D01*
X279900D01*
Y129200D01*
X279700D01*
Y128800D01*
X279900D01*
X279800Y133800D02*
Y133400D01*
X280600D01*
Y133800D01*
X281000D01*
Y134600D01*
X280600D01*
Y135000D01*
X279800D01*
Y134600D01*
X279400D01*
Y133800D01*
X279800D01*
X280000Y134000D02*
Y133800D01*
X280400D01*
Y134000D01*
X280600D01*
Y134400D01*
X280400D01*
Y134600D01*
X280000D01*
Y134400D01*
X279800D01*
Y134000D01*
X280000D01*
X276100Y132800D02*
Y132400D01*
X276900D01*
Y132800D01*
X277300D01*
Y133600D01*
X276900D01*
Y134000D01*
X276100D01*
Y133600D01*
X275700D01*
Y132800D01*
X276100D01*
X276300Y133000D02*
Y132800D01*
X276700D01*
Y133000D01*
X276900D01*
Y133400D01*
X276700D01*
Y133600D01*
X276300D01*
Y133400D01*
X276100D01*
Y133000D01*
X276300D01*
X283700Y140700D02*
Y140300D01*
X284500D01*
Y140700D01*
X284900D01*
Y141500D01*
X284500D01*
Y141900D01*
X283700D01*
Y141500D01*
X283300D01*
Y140700D01*
X283700D01*
X283900Y140900D02*
Y140700D01*
X284300D01*
Y140900D01*
X284500D01*
Y141300D01*
X284300D01*
Y141500D01*
X283900D01*
Y141300D01*
X283700D01*
Y140900D01*
X283900D01*
X278400Y138500D02*
Y138100D01*
X279200D01*
Y138500D01*
X279600D01*
Y139300D01*
X279200D01*
Y139700D01*
X278400D01*
Y139300D01*
X278000D01*
Y138500D01*
X278400D01*
X278600Y138700D02*
Y138500D01*
X279000D01*
Y138700D01*
X279200D01*
Y139100D01*
X279000D01*
Y139300D01*
X278600D01*
Y139100D01*
X278400D01*
Y138700D01*
X278600D01*
X251900Y110700D02*
Y110300D01*
X252700D01*
Y110700D01*
X253100D01*
Y111500D01*
X252700D01*
Y111900D01*
X251900D01*
Y111500D01*
X251500D01*
Y110700D01*
X251900D01*
X252100Y110900D02*
Y110700D01*
X252500D01*
Y110900D01*
X252700D01*
Y111300D01*
X252500D01*
Y111500D01*
X252100D01*
Y111300D01*
X251900D01*
Y110900D01*
X252100D01*
X233500Y130600D02*
Y130200D01*
X234300D01*
Y130600D01*
X234700D01*
Y131400D01*
X234300D01*
Y131800D01*
X233500D01*
Y131400D01*
X233100D01*
Y130600D01*
X233500D01*
X233700Y130800D02*
Y130600D01*
X234100D01*
Y130800D01*
X234300D01*
Y131200D01*
X234100D01*
Y131400D01*
X233700D01*
Y131200D01*
X233500D01*
Y130800D01*
X233700D01*
X235700Y132800D02*
Y132400D01*
X236500D01*
Y132800D01*
X236900D01*
Y133600D01*
X236500D01*
Y134000D01*
X235700D01*
Y133600D01*
X235300D01*
Y132800D01*
X235700D01*
X235900Y133000D02*
Y132800D01*
X236300D01*
Y133000D01*
X236500D01*
Y133400D01*
X236300D01*
Y133600D01*
X235900D01*
Y133400D01*
X235700D01*
Y133000D01*
X235900D01*
X237800Y130600D02*
Y130200D01*
X238600D01*
Y130600D01*
X239000D01*
Y131400D01*
X238600D01*
Y131800D01*
X237800D01*
Y131400D01*
X237400D01*
Y130600D01*
X237800D01*
X238000Y130800D02*
Y130600D01*
X238400D01*
Y130800D01*
X238600D01*
Y131200D01*
X238400D01*
Y131400D01*
X238000D01*
Y131200D01*
X237800D01*
Y130800D01*
X238000D01*
X252900Y147300D02*
Y146900D01*
X253700D01*
Y147300D01*
X254100D01*
Y148100D01*
X253700D01*
Y148500D01*
X252900D01*
Y148100D01*
X252500D01*
Y147300D01*
X252900D01*
X253100Y147500D02*
Y147300D01*
X253500D01*
Y147500D01*
X253700D01*
Y147900D01*
X253500D01*
Y148100D01*
X253100D01*
Y147900D01*
X252900D01*
Y147500D01*
X253100D01*
X248400Y147200D02*
Y146800D01*
X249200D01*
Y147200D01*
X249600D01*
Y148000D01*
X249200D01*
Y148400D01*
X248400D01*
Y148000D01*
X248000D01*
Y147200D01*
X248400D01*
X248600Y147400D02*
Y147200D01*
X249000D01*
Y147400D01*
X249200D01*
Y147800D01*
X249000D01*
Y148000D01*
X248600D01*
Y147800D01*
X248400D01*
Y147400D01*
X248600D01*
X239800Y132900D02*
Y132500D01*
X240600D01*
Y132900D01*
X241000D01*
Y133700D01*
X240600D01*
Y134100D01*
X239800D01*
Y133700D01*
X239400D01*
Y132900D01*
X239800D01*
X240000Y133100D02*
Y132900D01*
X240400D01*
Y133100D01*
X240600D01*
Y133500D01*
X240400D01*
Y133700D01*
X240000D01*
Y133500D01*
X239800D01*
Y133100D01*
X240000D01*
X242000Y130600D02*
Y130200D01*
X242800D01*
Y130600D01*
X243200D01*
Y131400D01*
X242800D01*
Y131800D01*
X242000D01*
Y131400D01*
X241600D01*
Y130600D01*
X242000D01*
X242200Y130800D02*
Y130600D01*
X242600D01*
Y130800D01*
X242800D01*
Y131200D01*
X242600D01*
Y131400D01*
X242200D01*
Y131200D01*
X242000D01*
Y130800D01*
X242200D01*
X246100Y130600D02*
Y130200D01*
X246900D01*
Y130600D01*
X247300D01*
Y131400D01*
X246900D01*
Y131800D01*
X246100D01*
Y131400D01*
X245700D01*
Y130600D01*
X246100D01*
X246300Y130800D02*
Y130600D01*
X246700D01*
Y130800D01*
X246900D01*
Y131200D01*
X246700D01*
Y131400D01*
X246300D01*
Y131200D01*
X246100D01*
Y130800D01*
X246300D01*
X252800Y132900D02*
Y132500D01*
X253600D01*
Y132900D01*
X254000D01*
Y133700D01*
X253600D01*
Y134100D01*
X252800D01*
Y133700D01*
X252400D01*
Y132900D01*
X252800D01*
X253000Y133100D02*
Y132900D01*
X253400D01*
Y133100D01*
X253600D01*
Y133500D01*
X253400D01*
Y133700D01*
X253000D01*
Y133500D01*
X252800D01*
Y133100D01*
X253000D01*
X255100Y130600D02*
Y130200D01*
X255900D01*
Y130600D01*
X256300D01*
Y131400D01*
X255900D01*
Y131800D01*
X255100D01*
Y131400D01*
X254700D01*
Y130600D01*
X255100D01*
X255300Y130800D02*
Y130600D01*
X255700D01*
Y130800D01*
X255900D01*
Y131200D01*
X255700D01*
Y131400D01*
X255300D01*
Y131200D01*
X255100D01*
Y130800D01*
X255300D01*
X257700Y133000D02*
Y132600D01*
X258500D01*
Y133000D01*
X258900D01*
Y133800D01*
X258500D01*
Y134200D01*
X257700D01*
Y133800D01*
X257300D01*
Y133000D01*
X257700D01*
X257900Y133200D02*
Y133000D01*
X258300D01*
Y133200D01*
X258500D01*
Y133600D01*
X258300D01*
Y133800D01*
X257900D01*
Y133600D01*
X257700D01*
Y133200D01*
X257900D01*
X259800Y130600D02*
Y130200D01*
X260600D01*
Y130600D01*
X261000D01*
Y131400D01*
X260600D01*
Y131800D01*
X259800D01*
Y131400D01*
X259400D01*
Y130600D01*
X259800D01*
X260000Y130800D02*
Y130600D01*
X260400D01*
Y130800D01*
X260600D01*
Y131200D01*
X260400D01*
Y131400D01*
X260000D01*
Y131200D01*
X259800D01*
Y130800D01*
X260000D01*
X261900Y133100D02*
Y132700D01*
X262700D01*
Y133100D01*
X263100D01*
Y133900D01*
X262700D01*
Y134300D01*
X261900D01*
Y133900D01*
X261500D01*
Y133100D01*
X261900D01*
X262100Y133300D02*
Y133100D01*
X262500D01*
Y133300D01*
X262700D01*
Y133700D01*
X262500D01*
Y133900D01*
X262100D01*
Y133700D01*
X261900D01*
Y133300D01*
X262100D01*
X263900Y130700D02*
Y130300D01*
X264700D01*
Y130700D01*
X265100D01*
Y131500D01*
X264700D01*
Y131900D01*
X263900D01*
Y131500D01*
X263500D01*
Y130700D01*
X263900D01*
X264100Y130900D02*
Y130700D01*
X264500D01*
Y130900D01*
X264700D01*
Y131300D01*
X264500D01*
Y131500D01*
X264100D01*
Y131300D01*
X263900D01*
Y130900D01*
X264100D01*
X87800Y67700D02*
Y67300D01*
X88600D01*
Y67700D01*
X89000D01*
Y68500D01*
X88600D01*
Y68900D01*
X87800D01*
Y68500D01*
X87400D01*
Y67700D01*
X87800D01*
X88000Y67900D02*
Y67700D01*
X88400D01*
Y67900D01*
X88600D01*
Y68300D01*
X88400D01*
Y68500D01*
X88000D01*
Y68300D01*
X87800D01*
Y67900D01*
X88000D01*
X87800Y46600D02*
Y46200D01*
X88600D01*
Y46600D01*
X89000D01*
Y47400D01*
X88600D01*
Y47800D01*
X87800D01*
Y47400D01*
X87400D01*
Y46600D01*
X87800D01*
X88000Y46800D02*
Y46600D01*
X88400D01*
Y46800D01*
X88600D01*
Y47200D01*
X88400D01*
Y47400D01*
X88000D01*
Y47200D01*
X87800D01*
Y46800D01*
X88000D01*
X263900Y144000D02*
Y143600D01*
X264700D01*
Y144000D01*
X265100D01*
Y144800D01*
X264700D01*
Y145200D01*
X263900D01*
Y144800D01*
X263500D01*
Y144000D01*
X263900D01*
X264100Y144200D02*
Y144000D01*
X264500D01*
Y144200D01*
X264700D01*
Y144600D01*
X264500D01*
Y144800D01*
X264100D01*
Y144600D01*
X263900D01*
Y144200D01*
X264100D01*
X261800Y147200D02*
Y146800D01*
X262600D01*
Y147200D01*
X263000D01*
Y148000D01*
X262600D01*
Y148400D01*
X261800D01*
Y148000D01*
X261400D01*
Y147200D01*
X261800D01*
X262000Y147400D02*
Y147200D01*
X262400D01*
Y147400D01*
X262600D01*
Y147800D01*
X262400D01*
Y148000D01*
X262000D01*
Y147800D01*
X261800D01*
Y147400D01*
X262000D01*
X257700Y147300D02*
Y146900D01*
X258500D01*
Y147300D01*
X258900D01*
Y148100D01*
X258500D01*
Y148500D01*
X257700D01*
Y148100D01*
X257300D01*
Y147300D01*
X257700D01*
X257900Y147500D02*
Y147300D01*
X258300D01*
Y147500D01*
X258500D01*
Y147900D01*
X258300D01*
Y148100D01*
X257900D01*
Y147900D01*
X257700D01*
Y147500D01*
X257900D01*
X255100Y144200D02*
Y143800D01*
X255900D01*
Y144200D01*
X256300D01*
Y145000D01*
X255900D01*
Y145400D01*
X255100D01*
Y145000D01*
X254700D01*
Y144200D01*
X255100D01*
X255300Y144400D02*
Y144200D01*
X255700D01*
Y144400D01*
X255900D01*
Y144800D01*
X255700D01*
Y145000D01*
X255300D01*
Y144800D01*
X255100D01*
Y144400D01*
X255300D01*
X259700Y144000D02*
Y143600D01*
X260500D01*
Y144000D01*
X260900D01*
Y144800D01*
X260500D01*
Y145200D01*
X259700D01*
Y144800D01*
X259300D01*
Y144000D01*
X259700D01*
X259900Y144200D02*
Y144000D01*
X260300D01*
Y144200D01*
X260500D01*
Y144600D01*
X260300D01*
Y144800D01*
X259900D01*
Y144600D01*
X259700D01*
Y144200D01*
X259900D01*
X352800Y141700D02*
Y141300D01*
X353600D01*
Y141700D01*
X354000D01*
Y142500D01*
X353600D01*
Y142900D01*
X352800D01*
Y142500D01*
X352400D01*
Y141700D01*
X352800D01*
X353000Y141900D02*
Y141700D01*
X353400D01*
Y141900D01*
X353600D01*
Y142300D01*
X353400D01*
Y142500D01*
X353000D01*
Y142300D01*
X352800D01*
Y141900D01*
X353000D01*
X331400Y127500D02*
Y127100D01*
X332200D01*
Y127500D01*
X332600D01*
Y128300D01*
X332200D01*
Y128700D01*
X331400D01*
Y128300D01*
X331000D01*
Y127500D01*
X331400D01*
X331600Y127700D02*
Y127500D01*
X332000D01*
Y127700D01*
X332200D01*
Y128100D01*
X332000D01*
Y128300D01*
X331600D01*
Y128100D01*
X331400D01*
Y127700D01*
X331600D01*
X30000Y252100D02*
Y251700D01*
X30800D01*
Y252100D01*
X31200D01*
Y252900D01*
X30800D01*
Y253300D01*
X30000D01*
Y252900D01*
X29600D01*
Y252100D01*
X30000D01*
X30200Y252300D02*
Y252100D01*
X30600D01*
Y252300D01*
X30800D01*
Y252700D01*
X30600D01*
Y252900D01*
X30200D01*
Y252700D01*
X30000D01*
Y252300D01*
X30200D01*
X186200Y189100D02*
Y188700D01*
X187000D01*
Y189100D01*
X187400D01*
Y189900D01*
X187000D01*
Y190300D01*
X186200D01*
Y189900D01*
X185800D01*
Y189100D01*
X186200D01*
X186400Y189300D02*
Y189100D01*
X186800D01*
Y189300D01*
X187000D01*
Y189700D01*
X186800D01*
Y189900D01*
X186400D01*
Y189700D01*
X186200D01*
Y189300D01*
X186400D01*
X194200Y178600D02*
Y178200D01*
X195000D01*
Y178600D01*
X195400D01*
Y179400D01*
X195000D01*
Y179800D01*
X194200D01*
Y179400D01*
X193800D01*
Y178600D01*
X194200D01*
X194400Y178800D02*
Y178600D01*
X194800D01*
Y178800D01*
X195000D01*
Y179200D01*
X194800D01*
Y179400D01*
X194400D01*
Y179200D01*
X194200D01*
Y178800D01*
X194400D01*
X205800Y175300D02*
Y174900D01*
X206600D01*
Y175300D01*
X207000D01*
Y176100D01*
X206600D01*
Y176500D01*
X205800D01*
Y176100D01*
X205400D01*
Y175300D01*
X205800D01*
X206000Y175500D02*
Y175300D01*
X206400D01*
Y175500D01*
X206600D01*
Y175900D01*
X206400D01*
Y176100D01*
X206000D01*
Y175900D01*
X205800D01*
Y175500D01*
X206000D01*
X239500Y231800D02*
Y231400D01*
X240300D01*
Y231800D01*
X240700D01*
Y232600D01*
X240300D01*
Y233000D01*
X239500D01*
Y232600D01*
X239100D01*
Y231800D01*
X239500D01*
X239700Y232000D02*
Y231800D01*
X240100D01*
Y232000D01*
X240300D01*
Y232400D01*
X240100D01*
Y232600D01*
X239700D01*
Y232400D01*
X239500D01*
Y232000D01*
X239700D01*
X239600Y221600D02*
Y221200D01*
X240400D01*
Y221600D01*
X240800D01*
Y222400D01*
X240400D01*
Y222800D01*
X239600D01*
Y222400D01*
X239200D01*
Y221600D01*
X239600D01*
X239800Y221800D02*
Y221600D01*
X240200D01*
Y221800D01*
X240400D01*
Y222200D01*
X240200D01*
Y222400D01*
X239800D01*
Y222200D01*
X239600D01*
Y221800D01*
X239800D01*
X240300Y209200D02*
Y208800D01*
X241100D01*
Y209200D01*
X241500D01*
Y210000D01*
X241100D01*
Y210400D01*
X240300D01*
Y210000D01*
X239900D01*
Y209200D01*
X240300D01*
X240500Y209400D02*
Y209200D01*
X240900D01*
Y209400D01*
X241100D01*
Y209800D01*
X240900D01*
Y210000D01*
X240500D01*
Y209800D01*
X240300D01*
Y209400D01*
X240500D01*
X229200Y234800D02*
Y234400D01*
X230000D01*
Y234800D01*
X230400D01*
Y235600D01*
X230000D01*
Y236000D01*
X229200D01*
Y235600D01*
X228800D01*
Y234800D01*
X229200D01*
X229400Y235000D02*
Y234800D01*
X229800D01*
Y235000D01*
X230000D01*
Y235400D01*
X229800D01*
Y235600D01*
X229400D01*
Y235400D01*
X229200D01*
Y235000D01*
X229400D01*
X106700Y144800D02*
Y144400D01*
X107500D01*
Y144800D01*
X107900D01*
Y145600D01*
X107500D01*
Y146000D01*
X106700D01*
Y145600D01*
X106300D01*
Y144800D01*
X106700D01*
X106900Y145000D02*
Y144800D01*
X107300D01*
Y145000D01*
X107500D01*
Y145400D01*
X107300D01*
Y145600D01*
X106900D01*
Y145400D01*
X106700D01*
Y145000D01*
X106900D01*
X101300Y218700D02*
Y218300D01*
X102100D01*
Y218700D01*
X102500D01*
Y219500D01*
X102100D01*
Y219900D01*
X101300D01*
Y219500D01*
X100900D01*
Y218700D01*
X101300D01*
X101500Y218900D02*
Y218700D01*
X101900D01*
Y218900D01*
X102100D01*
Y219300D01*
X101900D01*
Y219500D01*
X101500D01*
Y219300D01*
X101300D01*
Y218900D01*
X101500D01*
X88500Y242700D02*
Y242300D01*
X89300D01*
Y242700D01*
X89700D01*
Y243500D01*
X89300D01*
Y243900D01*
X88500D01*
Y243500D01*
X88100D01*
Y242700D01*
X88500D01*
X88700Y242900D02*
Y242700D01*
X89100D01*
Y242900D01*
X89300D01*
Y243300D01*
X89100D01*
Y243500D01*
X88700D01*
Y243300D01*
X88500D01*
Y242900D01*
X88700D01*
X82800Y248400D02*
Y248000D01*
X83600D01*
Y248400D01*
X84000D01*
Y249200D01*
X83600D01*
Y249600D01*
X82800D01*
Y249200D01*
X82400D01*
Y248400D01*
X82800D01*
X83000Y248600D02*
Y248400D01*
X83400D01*
Y248600D01*
X83600D01*
Y249000D01*
X83400D01*
Y249200D01*
X83000D01*
Y249000D01*
X82800D01*
Y248600D01*
X83000D01*
X87500Y248300D02*
Y247900D01*
X88300D01*
Y248300D01*
X88700D01*
Y249100D01*
X88300D01*
Y249500D01*
X87500D01*
Y249100D01*
X87100D01*
Y248300D01*
X87500D01*
X87700Y248500D02*
Y248300D01*
X88100D01*
Y248500D01*
X88300D01*
Y248900D01*
X88100D01*
Y249100D01*
X87700D01*
Y248900D01*
X87500D01*
Y248500D01*
X87700D01*
X92300Y246200D02*
Y245800D01*
X93100D01*
Y246200D01*
X93500D01*
Y247000D01*
X93100D01*
Y247400D01*
X92300D01*
Y247000D01*
X91900D01*
Y246200D01*
X92300D01*
X92500Y246400D02*
Y246200D01*
X92900D01*
Y246400D01*
X93100D01*
Y246800D01*
X92900D01*
Y247000D01*
X92500D01*
Y246800D01*
X92300D01*
Y246400D01*
X92500D01*
X99300Y241800D02*
Y241400D01*
X100100D01*
Y241800D01*
X100500D01*
Y242600D01*
X100100D01*
Y243000D01*
X99300D01*
Y242600D01*
X98900D01*
Y241800D01*
X99300D01*
X99500Y242000D02*
Y241800D01*
X99900D01*
Y242000D01*
X100100D01*
Y242400D01*
X99900D01*
Y242600D01*
X99500D01*
Y242400D01*
X99300D01*
Y242000D01*
X99500D01*
X96100Y235300D02*
Y234900D01*
X96900D01*
Y235300D01*
X97300D01*
Y236100D01*
X96900D01*
Y236500D01*
X96100D01*
Y236100D01*
X95700D01*
Y235300D01*
X96100D01*
X96300Y235500D02*
Y235300D01*
X96700D01*
Y235500D01*
X96900D01*
Y235900D01*
X96700D01*
Y236100D01*
X96300D01*
Y235900D01*
X96100D01*
Y235500D01*
X96300D01*
X99700Y237900D02*
Y237500D01*
X100500D01*
Y237900D01*
X100900D01*
Y238700D01*
X100500D01*
Y239100D01*
X99700D01*
Y238700D01*
X99300D01*
Y237900D01*
X99700D01*
X99900Y238100D02*
Y237900D01*
X100300D01*
Y238100D01*
X100500D01*
Y238500D01*
X100300D01*
Y238700D01*
X99900D01*
Y238500D01*
X99700D01*
Y238100D01*
X99900D01*
X100200Y224500D02*
Y224100D01*
X101000D01*
Y224500D01*
X101400D01*
Y225300D01*
X101000D01*
Y225700D01*
X100200D01*
Y225300D01*
X99800D01*
Y224500D01*
X100200D01*
X100400Y224700D02*
Y224500D01*
X100800D01*
Y224700D01*
X101000D01*
Y225100D01*
X100800D01*
Y225300D01*
X100400D01*
Y225100D01*
X100200D01*
Y224700D01*
X100400D01*
X111300Y234500D02*
Y234100D01*
X112100D01*
Y234500D01*
X112500D01*
Y235300D01*
X112100D01*
Y235700D01*
X111300D01*
Y235300D01*
X110900D01*
Y234500D01*
X111300D01*
X111500Y234700D02*
Y234500D01*
X111900D01*
Y234700D01*
X112100D01*
Y235100D01*
X111900D01*
Y235300D01*
X111500D01*
Y235100D01*
X111300D01*
Y234700D01*
X111500D01*
X100800Y235200D02*
Y234800D01*
X101600D01*
Y235200D01*
X102000D01*
Y236000D01*
X101600D01*
Y236400D01*
X100800D01*
Y236000D01*
X100400D01*
Y235200D01*
X100800D01*
X101000Y235400D02*
Y235200D01*
X101400D01*
Y235400D01*
X101600D01*
Y235800D01*
X101400D01*
Y236000D01*
X101000D01*
Y235800D01*
X100800D01*
Y235400D01*
X101000D01*
X84400Y242500D02*
Y242100D01*
X85200D01*
Y242500D01*
X85600D01*
Y243300D01*
X85200D01*
Y243700D01*
X84400D01*
Y243300D01*
X84000D01*
Y242500D01*
X84400D01*
X84600Y242700D02*
Y242500D01*
X85000D01*
Y242700D01*
X85200D01*
Y243100D01*
X85000D01*
Y243300D01*
X84600D01*
Y243100D01*
X84400D01*
Y242700D01*
X84600D01*
X48500Y264500D02*
Y264100D01*
X49300D01*
Y264500D01*
X49700D01*
Y265300D01*
X49300D01*
Y265700D01*
X48500D01*
Y265300D01*
X48100D01*
Y264500D01*
X48500D01*
X48700Y264700D02*
Y264500D01*
X49100D01*
Y264700D01*
X49300D01*
Y265100D01*
X49100D01*
Y265300D01*
X48700D01*
Y265100D01*
X48500D01*
Y264700D01*
X48700D01*
X53300Y240700D02*
Y240300D01*
X54100D01*
Y240700D01*
X54500D01*
Y241500D01*
X54100D01*
Y241900D01*
X53300D01*
Y241500D01*
X52900D01*
Y240700D01*
X53300D01*
X53500Y240900D02*
Y240700D01*
X53900D01*
Y240900D01*
X54100D01*
Y241300D01*
X53900D01*
Y241500D01*
X53500D01*
Y241300D01*
X53300D01*
Y240900D01*
X53500D01*
X312100Y248800D02*
Y248400D01*
X312900D01*
Y248800D01*
X313300D01*
Y249600D01*
X312900D01*
Y250000D01*
X312100D01*
Y249600D01*
X311700D01*
Y248800D01*
X312100D01*
X312300Y249000D02*
Y248800D01*
X312700D01*
Y249000D01*
X312900D01*
Y249400D01*
X312700D01*
Y249600D01*
X312300D01*
Y249400D01*
X312100D01*
Y249000D01*
X312300D01*
X374000Y89800D02*
Y89400D01*
X374800D01*
Y89800D01*
X375200D01*
Y90600D01*
X374800D01*
Y91000D01*
X374000D01*
Y90600D01*
X373600D01*
Y89800D01*
X374000D01*
X374200Y90000D02*
Y89800D01*
X374600D01*
Y90000D01*
X374800D01*
Y90400D01*
X374600D01*
Y90600D01*
X374200D01*
Y90400D01*
X374000D01*
Y90000D01*
X374200D01*
X362300Y89900D02*
Y89500D01*
X363100D01*
Y89900D01*
X363500D01*
Y90700D01*
X363100D01*
Y91100D01*
X362300D01*
Y90700D01*
X361900D01*
Y89900D01*
X362300D01*
X362500Y90100D02*
Y89900D01*
X362900D01*
Y90100D01*
X363100D01*
Y90500D01*
X362900D01*
Y90700D01*
X362500D01*
Y90500D01*
X362300D01*
Y90100D01*
X362500D01*
X362900Y92900D02*
Y92500D01*
X363700D01*
Y92900D01*
X364100D01*
Y93700D01*
X363700D01*
Y94100D01*
X362900D01*
Y93700D01*
X362500D01*
Y92900D01*
X362900D01*
X363100Y93100D02*
Y92900D01*
X363500D01*
Y93100D01*
X363700D01*
Y93500D01*
X363500D01*
Y93700D01*
X363100D01*
Y93500D01*
X362900D01*
Y93100D01*
X363100D01*
X369200Y167200D02*
Y166800D01*
X370000D01*
Y167200D01*
X370400D01*
Y168000D01*
X370000D01*
Y168400D01*
X369200D01*
Y168000D01*
X368800D01*
Y167200D01*
X369200D01*
X369400Y167400D02*
Y167200D01*
X369800D01*
Y167400D01*
X370000D01*
Y167800D01*
X369800D01*
Y168000D01*
X369400D01*
Y167800D01*
X369200D01*
Y167400D01*
X369400D01*
X373300Y169300D02*
Y168900D01*
X374100D01*
Y169300D01*
X374500D01*
Y170100D01*
X374100D01*
Y170500D01*
X373300D01*
Y170100D01*
X372900D01*
Y169300D01*
X373300D01*
X373500Y169500D02*
Y169300D01*
X373900D01*
Y169500D01*
X374100D01*
Y169900D01*
X373900D01*
Y170100D01*
X373500D01*
Y169900D01*
X373300D01*
Y169500D01*
X373500D01*
X380800Y165100D02*
Y164700D01*
X381600D01*
Y165100D01*
X382000D01*
Y165900D01*
X381600D01*
Y166300D01*
X380800D01*
Y165900D01*
X380400D01*
Y165100D01*
X380800D01*
X381000Y165300D02*
Y165100D01*
X381400D01*
Y165300D01*
X381600D01*
Y165700D01*
X381400D01*
Y165900D01*
X381000D01*
Y165700D01*
X380800D01*
Y165300D01*
X381000D01*
X376500Y171400D02*
Y171000D01*
X377300D01*
Y171400D01*
X377700D01*
Y172200D01*
X377300D01*
Y172600D01*
X376500D01*
Y172200D01*
X376100D01*
Y171400D01*
X376500D01*
X376700Y171600D02*
Y171400D01*
X377100D01*
Y171600D01*
X377300D01*
Y172000D01*
X377100D01*
Y172200D01*
X376700D01*
Y172000D01*
X376500D01*
Y171600D01*
X376700D01*
X375500Y179700D02*
Y179300D01*
X376300D01*
Y179700D01*
X376700D01*
Y180500D01*
X376300D01*
Y180900D01*
X375500D01*
Y180500D01*
X375100D01*
Y179700D01*
X375500D01*
X375700Y179900D02*
Y179700D01*
X376100D01*
Y179900D01*
X376300D01*
Y180300D01*
X376100D01*
Y180500D01*
X375700D01*
Y180300D01*
X375500D01*
Y179900D01*
X375700D01*
X377600Y181700D02*
Y181300D01*
X378400D01*
Y181700D01*
X378800D01*
Y182500D01*
X378400D01*
Y182900D01*
X377600D01*
Y182500D01*
X377200D01*
Y181700D01*
X377600D01*
X377800Y181900D02*
Y181700D01*
X378200D01*
Y181900D01*
X378400D01*
Y182300D01*
X378200D01*
Y182500D01*
X377800D01*
Y182300D01*
X377600D01*
Y181900D01*
X377800D01*
X388900Y173500D02*
Y173100D01*
X389700D01*
Y173500D01*
X390100D01*
Y174300D01*
X389700D01*
Y174700D01*
X388900D01*
Y174300D01*
X388500D01*
Y173500D01*
X388900D01*
X389100Y173700D02*
Y173500D01*
X389500D01*
Y173700D01*
X389700D01*
Y174100D01*
X389500D01*
Y174300D01*
X389100D01*
Y174100D01*
X388900D01*
Y173700D01*
X389100D01*
X379700Y185400D02*
Y185000D01*
X380500D01*
Y185400D01*
X380900D01*
Y186200D01*
X380500D01*
Y186600D01*
X379700D01*
Y186200D01*
X379300D01*
Y185400D01*
X379700D01*
X379900Y185600D02*
Y185400D01*
X380300D01*
Y185600D01*
X380500D01*
Y186000D01*
X380300D01*
Y186200D01*
X379900D01*
Y186000D01*
X379700D01*
Y185600D01*
X379900D01*
X390600Y177700D02*
Y177300D01*
X391400D01*
Y177700D01*
X391800D01*
Y178500D01*
X391400D01*
Y178900D01*
X390600D01*
Y178500D01*
X390200D01*
Y177700D01*
X390600D01*
X390800Y177900D02*
Y177700D01*
X391200D01*
Y177900D01*
X391400D01*
Y178300D01*
X391200D01*
Y178500D01*
X390800D01*
Y178300D01*
X390600D01*
Y177900D01*
X390800D01*
X395700Y175700D02*
Y175300D01*
X396500D01*
Y175700D01*
X396900D01*
Y176500D01*
X396500D01*
Y176900D01*
X395700D01*
Y176500D01*
X395300D01*
Y175700D01*
X395700D01*
X395900Y175900D02*
Y175700D01*
X396300D01*
Y175900D01*
X396500D01*
Y176300D01*
X396300D01*
Y176500D01*
X395900D01*
Y176300D01*
X395700D01*
Y175900D01*
X395900D01*
X335900Y142600D02*
Y142200D01*
X336700D01*
Y142600D01*
X337100D01*
Y143400D01*
X336700D01*
Y143800D01*
X335900D01*
Y143400D01*
X335500D01*
Y142600D01*
X335900D01*
X336100Y142800D02*
Y142600D01*
X336500D01*
Y142800D01*
X336700D01*
Y143200D01*
X336500D01*
Y143400D01*
X336100D01*
Y143200D01*
X335900D01*
Y142800D01*
X336100D01*
X274100Y71400D02*
Y71000D01*
X274900D01*
Y71400D01*
X275300D01*
Y72200D01*
X274900D01*
Y72600D01*
X274100D01*
Y72200D01*
X273700D01*
Y71400D01*
X274100D01*
X274300Y71600D02*
Y71400D01*
X274700D01*
Y71600D01*
X274900D01*
Y72000D01*
X274700D01*
Y72200D01*
X274300D01*
Y72000D01*
X274100D01*
Y71600D01*
X274300D01*
X325600Y238100D02*
Y237700D01*
X326400D01*
Y238100D01*
X326800D01*
Y238900D01*
X326400D01*
Y239300D01*
X325600D01*
Y238900D01*
X325200D01*
Y238100D01*
X325600D01*
X325800Y238300D02*
Y238100D01*
X326200D01*
Y238300D01*
X326400D01*
Y238700D01*
X326200D01*
Y238900D01*
X325800D01*
Y238700D01*
X325600D01*
Y238300D01*
X325800D01*
X153300Y120600D02*
Y120200D01*
X154100D01*
Y120600D01*
X154500D01*
Y121400D01*
X154100D01*
Y121800D01*
X153300D01*
Y121400D01*
X152900D01*
Y120600D01*
X153300D01*
X153500Y120800D02*
Y120600D01*
X153900D01*
Y120800D01*
X154100D01*
Y121200D01*
X153900D01*
Y121400D01*
X153500D01*
Y121200D01*
X153300D01*
Y120800D01*
X153500D01*
X97400Y192000D02*
Y191600D01*
X98200D01*
Y192000D01*
X98600D01*
Y192800D01*
X98200D01*
Y193200D01*
X97400D01*
Y192800D01*
X97000D01*
Y192000D01*
X97400D01*
X97600Y192200D02*
Y192000D01*
X98000D01*
Y192200D01*
X98200D01*
Y192600D01*
X98000D01*
Y192800D01*
X97600D01*
Y192600D01*
X97400D01*
Y192200D01*
X97600D01*
X95300Y187800D02*
Y187400D01*
X96100D01*
Y187800D01*
X96500D01*
Y188600D01*
X96100D01*
Y189000D01*
X95300D01*
Y188600D01*
X94900D01*
Y187800D01*
X95300D01*
X95500Y188000D02*
Y187800D01*
X95900D01*
Y188000D01*
X96100D01*
Y188400D01*
X95900D01*
Y188600D01*
X95500D01*
Y188400D01*
X95300D01*
Y188000D01*
X95500D01*
X156900Y139400D02*
Y139000D01*
X157700D01*
Y139400D01*
X158100D01*
Y140200D01*
X157700D01*
Y140600D01*
X156900D01*
Y140200D01*
X156500D01*
Y139400D01*
X156900D01*
X157100Y139600D02*
Y139400D01*
X157500D01*
Y139600D01*
X157700D01*
Y140000D01*
X157500D01*
Y140200D01*
X157100D01*
Y140000D01*
X156900D01*
Y139600D01*
X157100D01*
X174300Y140000D02*
Y139600D01*
X175100D01*
Y140000D01*
X175500D01*
Y140800D01*
X175100D01*
Y141200D01*
X174300D01*
Y140800D01*
X173900D01*
Y140000D01*
X174300D01*
X174500Y140200D02*
Y140000D01*
X174900D01*
Y140200D01*
X175100D01*
Y140600D01*
X174900D01*
Y140800D01*
X174500D01*
Y140600D01*
X174300D01*
Y140200D01*
X174500D01*
X140100Y151900D02*
Y151500D01*
X140900D01*
Y151900D01*
X141300D01*
Y152700D01*
X140900D01*
Y153100D01*
X140100D01*
Y152700D01*
X139700D01*
Y151900D01*
X140100D01*
X140300Y152100D02*
Y151900D01*
X140700D01*
Y152100D01*
X140900D01*
Y152500D01*
X140700D01*
Y152700D01*
X140300D01*
Y152500D01*
X140100D01*
Y152100D01*
X140300D01*
X164200Y159600D02*
Y159200D01*
X165000D01*
Y159600D01*
X165400D01*
Y160400D01*
X165000D01*
Y160800D01*
X164200D01*
Y160400D01*
X163800D01*
Y159600D01*
X164200D01*
X164400Y159800D02*
Y159600D01*
X164800D01*
Y159800D01*
X165000D01*
Y160200D01*
X164800D01*
Y160400D01*
X164400D01*
Y160200D01*
X164200D01*
Y159800D01*
X164400D01*
X173300Y169400D02*
Y169000D01*
X174100D01*
Y169400D01*
X174500D01*
Y170200D01*
X174100D01*
Y170600D01*
X173300D01*
Y170200D01*
X172900D01*
Y169400D01*
X173300D01*
X173500Y169600D02*
Y169400D01*
X173900D01*
Y169600D01*
X174100D01*
Y170000D01*
X173900D01*
Y170200D01*
X173500D01*
Y170000D01*
X173300D01*
Y169600D01*
X173500D01*
X148700Y158800D02*
Y158400D01*
X149500D01*
Y158800D01*
X149900D01*
Y159600D01*
X149500D01*
Y160000D01*
X148700D01*
Y159600D01*
X148300D01*
Y158800D01*
X148700D01*
X148900Y159000D02*
Y158800D01*
X149300D01*
Y159000D01*
X149500D01*
Y159400D01*
X149300D01*
Y159600D01*
X148900D01*
Y159400D01*
X148700D01*
Y159000D01*
X148900D01*
X146000Y161600D02*
Y161200D01*
X146800D01*
Y161600D01*
X147200D01*
Y162400D01*
X146800D01*
Y162800D01*
X146000D01*
Y162400D01*
X145600D01*
Y161600D01*
X146000D01*
X146200Y161800D02*
Y161600D01*
X146600D01*
Y161800D01*
X146800D01*
Y162200D01*
X146600D01*
Y162400D01*
X146200D01*
Y162200D01*
X146000D01*
Y161800D01*
X146200D01*
X131400Y167500D02*
Y167100D01*
X132200D01*
Y167500D01*
X132600D01*
Y168300D01*
X132200D01*
Y168700D01*
X131400D01*
Y168300D01*
X131000D01*
Y167500D01*
X131400D01*
X131600Y167700D02*
Y167500D01*
X132000D01*
Y167700D01*
X132200D01*
Y168100D01*
X132000D01*
Y168300D01*
X131600D01*
Y168100D01*
X131400D01*
Y167700D01*
X131600D01*
X125300Y171600D02*
Y171200D01*
X126100D01*
Y171600D01*
X126500D01*
Y172400D01*
X126100D01*
Y172800D01*
X125300D01*
Y172400D01*
X124900D01*
Y171600D01*
X125300D01*
X125500Y171800D02*
Y171600D01*
X125900D01*
Y171800D01*
X126100D01*
Y172200D01*
X125900D01*
Y172400D01*
X125500D01*
Y172200D01*
X125300D01*
Y171800D01*
X125500D01*
X72500Y8000D02*
Y7600D01*
X73300D01*
Y8000D01*
X73700D01*
Y8800D01*
X73300D01*
Y9200D01*
X72500D01*
Y8800D01*
X72100D01*
Y8000D01*
X72500D01*
X72700Y8200D02*
Y8000D01*
X73100D01*
Y8200D01*
X73300D01*
Y8600D01*
X73100D01*
Y8800D01*
X72700D01*
Y8600D01*
X72500D01*
Y8200D01*
X72700D01*
X36800Y222600D02*
Y222200D01*
X37600D01*
Y222600D01*
X38000D01*
Y223400D01*
X37600D01*
Y223800D01*
X36800D01*
Y223400D01*
X36400D01*
Y222600D01*
X36800D01*
X37000Y222800D02*
Y222600D01*
X37400D01*
Y222800D01*
X37600D01*
Y223200D01*
X37400D01*
Y223400D01*
X37000D01*
Y223200D01*
X36800D01*
Y222800D01*
X37000D01*
X277600Y185200D02*
Y184800D01*
X278400D01*
Y185200D01*
X278800D01*
Y186000D01*
X278400D01*
Y186400D01*
X277600D01*
Y186000D01*
X277200D01*
Y185200D01*
X277600D01*
X277800Y185400D02*
Y185200D01*
X278200D01*
Y185400D01*
X278400D01*
Y185800D01*
X278200D01*
Y186000D01*
X277800D01*
Y185800D01*
X277600D01*
Y185400D01*
X277800D01*
X284100Y182600D02*
Y182200D01*
X284900D01*
Y182600D01*
X285300D01*
Y183400D01*
X284900D01*
Y183800D01*
X284100D01*
Y183400D01*
X283700D01*
Y182600D01*
X284100D01*
X284300Y182800D02*
Y182600D01*
X284700D01*
Y182800D01*
X284900D01*
Y183200D01*
X284700D01*
Y183400D01*
X284300D01*
Y183200D01*
X284100D01*
Y182800D01*
X284300D01*
X281100Y181600D02*
Y181200D01*
X281900D01*
Y181600D01*
X282300D01*
Y182400D01*
X281900D01*
Y182800D01*
X281100D01*
Y182400D01*
X280700D01*
Y181600D01*
X281100D01*
X281300Y181800D02*
Y181600D01*
X281700D01*
Y181800D01*
X281900D01*
Y182200D01*
X281700D01*
Y182400D01*
X281300D01*
Y182200D01*
X281100D01*
Y181800D01*
X281300D01*
X283600Y100000D02*
Y99600D01*
X284400D01*
Y100000D01*
X284800D01*
Y100800D01*
X284400D01*
Y101200D01*
X283600D01*
Y100800D01*
X283200D01*
Y100000D01*
X283600D01*
X283800Y100200D02*
Y100000D01*
X284200D01*
Y100200D01*
X284400D01*
Y100600D01*
X284200D01*
Y100800D01*
X283800D01*
Y100600D01*
X283600D01*
Y100200D01*
X283800D01*
X284400Y129200D02*
Y128800D01*
X285200D01*
Y129200D01*
X285600D01*
Y130000D01*
X285200D01*
Y130400D01*
X284400D01*
Y130000D01*
X284000D01*
Y129200D01*
X284400D01*
X284600Y129400D02*
Y129200D01*
X285000D01*
Y129400D01*
X285200D01*
Y129800D01*
X285000D01*
Y130000D01*
X284600D01*
Y129800D01*
X284400D01*
Y129400D01*
X284600D01*
X40200Y39800D02*
Y39400D01*
X41000D01*
Y39800D01*
X41400D01*
Y40600D01*
X41000D01*
Y41000D01*
X40200D01*
Y40600D01*
X39800D01*
Y39800D01*
X40200D01*
X40400Y40000D02*
Y39800D01*
X40800D01*
Y40000D01*
X41000D01*
Y40400D01*
X40800D01*
Y40600D01*
X40400D01*
Y40400D01*
X40200D01*
Y40000D01*
X40400D01*
X58900Y51300D02*
Y50900D01*
X59700D01*
Y51300D01*
X60100D01*
Y52100D01*
X59700D01*
Y52500D01*
X58900D01*
Y52100D01*
X58500D01*
Y51300D01*
X58900D01*
X59100Y51500D02*
Y51300D01*
X59500D01*
Y51500D01*
X59700D01*
Y51900D01*
X59500D01*
Y52100D01*
X59100D01*
Y51900D01*
X58900D01*
Y51500D01*
X59100D01*
X96000Y268300D02*
Y267900D01*
X96800D01*
Y268300D01*
X97200D01*
Y269100D01*
X96800D01*
Y269500D01*
X96000D01*
Y269100D01*
X95600D01*
Y268300D01*
X96000D01*
X96200Y268500D02*
Y268300D01*
X96600D01*
Y268500D01*
X96800D01*
Y268900D01*
X96600D01*
Y269100D01*
X96200D01*
Y268900D01*
X96000D01*
Y268500D01*
X96200D01*
X324300Y231900D02*
Y231500D01*
X325100D01*
Y231900D01*
X325500D01*
Y232700D01*
X325100D01*
Y233100D01*
X324300D01*
Y232700D01*
X323900D01*
Y231900D01*
X324300D01*
X324500Y232100D02*
Y231900D01*
X324900D01*
Y232100D01*
X325100D01*
Y232500D01*
X324900D01*
Y232700D01*
X324500D01*
Y232500D01*
X324300D01*
Y232100D01*
X324500D01*
X195900Y269900D02*
Y269500D01*
X196700D01*
Y269900D01*
X197100D01*
Y270700D01*
X196700D01*
Y271100D01*
X195900D01*
Y270700D01*
X195500D01*
Y269900D01*
X195900D01*
X196100Y270100D02*
Y269900D01*
X196500D01*
Y270100D01*
X196700D01*
Y270500D01*
X196500D01*
Y270700D01*
X196100D01*
Y270500D01*
X195900D01*
Y270100D01*
X196100D01*
X107700Y271800D02*
Y271400D01*
X108500D01*
Y271800D01*
X108900D01*
Y272600D01*
X108500D01*
Y273000D01*
X107700D01*
Y272600D01*
X107300D01*
Y271800D01*
X107700D01*
X107900Y272000D02*
Y271800D01*
X108300D01*
Y272000D01*
X108500D01*
Y272400D01*
X108300D01*
Y272600D01*
X107900D01*
Y272400D01*
X107700D01*
Y272000D01*
X107900D01*
X56900Y280300D02*
Y279900D01*
X57700D01*
Y280300D01*
X58100D01*
Y281100D01*
X57700D01*
Y281500D01*
X56900D01*
Y281100D01*
X56500D01*
Y280300D01*
X56900D01*
X57100Y280500D02*
Y280300D01*
X57500D01*
Y280500D01*
X57700D01*
Y280900D01*
X57500D01*
Y281100D01*
X57100D01*
Y280900D01*
X56900D01*
Y280500D01*
X57100D01*
X388800Y99100D02*
Y98700D01*
X389600D01*
Y99100D01*
X390000D01*
Y99900D01*
X389600D01*
Y100300D01*
X388800D01*
Y99900D01*
X388400D01*
Y99100D01*
X388800D01*
X389000Y99300D02*
Y99100D01*
X389400D01*
Y99300D01*
X389600D01*
Y99700D01*
X389400D01*
Y99900D01*
X389000D01*
Y99700D01*
X388800D01*
Y99300D01*
X389000D01*
X500400Y106900D02*
Y106500D01*
X501200D01*
Y106900D01*
X501600D01*
Y107700D01*
X501200D01*
Y108100D01*
X500400D01*
Y107700D01*
X500000D01*
Y106900D01*
X500400D01*
X500600Y107100D02*
Y106900D01*
X501000D01*
Y107100D01*
X501200D01*
Y107500D01*
X501000D01*
Y107700D01*
X500600D01*
Y107500D01*
X500400D01*
Y107100D01*
X500600D01*
D216*
X144300Y292000D02*
G03*
X144300Y292000I-800J0D01*
G01*
X134300D02*
G03*
X134300Y292000I-800J0D01*
G01*
X124300D02*
G03*
X124300Y292000I-800J0D01*
G01*
X114300D02*
G03*
X114300Y292000I-800J0D01*
G01*
X84300D02*
G03*
X84300Y292000I-800J0D01*
G01*
X74300D02*
G03*
X74300Y292000I-800J0D01*
G01*
X64300D02*
G03*
X64300Y292000I-800J0D01*
G01*
X54300D02*
G03*
X54300Y292000I-800J0D01*
G01*
X94300D02*
G03*
X94300Y292000I-800J0D01*
G01*
X104300D02*
G03*
X104300Y292000I-800J0D01*
G01*
X230300D02*
G03*
X230300Y292000I-800J0D01*
G01*
X220300D02*
G03*
X220300Y292000I-800J0D01*
G01*
X190300D02*
G03*
X190300Y292000I-800J0D01*
G01*
X180300D02*
G03*
X180300Y292000I-800J0D01*
G01*
X170300D02*
G03*
X170300Y292000I-800J0D01*
G01*
X160300D02*
G03*
X160300Y292000I-800J0D01*
G01*
X200300D02*
G03*
X200300Y292000I-800J0D01*
G01*
X210300D02*
G03*
X210300Y292000I-800J0D01*
G01*
X160300Y102000D02*
G03*
X160300Y102000I-800J0D01*
G01*
X150300D02*
G03*
X150300Y102000I-800J0D01*
G01*
X120300D02*
G03*
X120300Y102000I-800J0D01*
G01*
X110300D02*
G03*
X110300Y102000I-800J0D01*
G01*
X100300D02*
G03*
X100300Y102000I-800J0D01*
G01*
X90300D02*
G03*
X90300Y102000I-800J0D01*
G01*
X130300D02*
G03*
X130300Y102000I-800J0D01*
G01*
X140300D02*
G03*
X140300Y102000I-800J0D01*
G01*
X230300D02*
G03*
X230300Y102000I-800J0D01*
G01*
X200300D02*
G03*
X200300Y102000I-800J0D01*
G01*
X210300D02*
G03*
X210300Y102000I-800J0D01*
G01*
X220300D02*
G03*
X220300Y102000I-800J0D01*
G01*
X180300D02*
G03*
X180300Y102000I-800J0D01*
G01*
X190300D02*
G03*
X190300Y102000I-800J0D01*
G01*
X309400Y285200D02*
G03*
X309400Y285200I-800J0D01*
G01*
X319400D02*
G03*
X319400Y285200I-800J0D01*
G01*
X329400D02*
G03*
X329400Y285200I-800J0D01*
G01*
X295300Y202000D02*
G03*
X295300Y202000I-800J0D01*
G01*
X285300D02*
G03*
X285300Y202000I-800J0D01*
G01*
X295300Y212000D02*
G03*
X295300Y212000I-800J0D01*
G01*
X285300D02*
G03*
X285300Y212000I-800J0D01*
G01*
Y282000D02*
G03*
X285300Y282000I-800J0D01*
G01*
X295300D02*
G03*
X295300Y282000I-800J0D01*
G01*
X285300Y292000D02*
G03*
X285300Y292000I-800J0D01*
G01*
X295300D02*
G03*
X295300Y292000I-800J0D01*
G01*
Y272000D02*
G03*
X295300Y272000I-800J0D01*
G01*
X285300D02*
G03*
X285300Y272000I-800J0D01*
G01*
Y242000D02*
G03*
X285300Y242000I-800J0D01*
G01*
X295300D02*
G03*
X295300Y242000I-800J0D01*
G01*
X285300Y252000D02*
G03*
X285300Y252000I-800J0D01*
G01*
X295300D02*
G03*
X295300Y252000I-800J0D01*
G01*
X285300Y262000D02*
G03*
X285300Y262000I-800J0D01*
G01*
X295300D02*
G03*
X295300Y262000I-800J0D01*
G01*
Y232000D02*
G03*
X295300Y232000I-800J0D01*
G01*
X285300Y222000D02*
G03*
X285300Y222000I-800J0D01*
G01*
X295300D02*
G03*
X295300Y222000I-800J0D01*
G01*
X285300Y232000D02*
G03*
X285300Y232000I-800J0D01*
G01*
X135300Y242000D02*
G03*
X135300Y242000I-800J0D01*
G01*
X145300D02*
G03*
X145300Y242000I-800J0D01*
G01*
X135300Y252000D02*
G03*
X135300Y252000I-800J0D01*
G01*
X145300D02*
G03*
X145300Y252000I-800J0D01*
G01*
Y232000D02*
G03*
X145300Y232000I-800J0D01*
G01*
X135300D02*
G03*
X135300Y232000I-800J0D01*
G01*
Y202000D02*
G03*
X135300Y202000I-800J0D01*
G01*
X145300D02*
G03*
X145300Y202000I-800J0D01*
G01*
X135300Y212000D02*
G03*
X135300Y212000I-800J0D01*
G01*
X145300D02*
G03*
X145300Y212000I-800J0D01*
G01*
X135300Y222000D02*
G03*
X135300Y222000I-800J0D01*
G01*
X145300D02*
G03*
X145300Y222000I-800J0D01*
G01*
X502300Y202000D02*
G03*
X502300Y202000I-800J0D01*
G01*
X492300D02*
G03*
X492300Y202000I-800J0D01*
G01*
X502300Y212000D02*
G03*
X502300Y212000I-800J0D01*
G01*
X492300D02*
G03*
X492300Y212000I-800J0D01*
G01*
Y282000D02*
G03*
X492300Y282000I-800J0D01*
G01*
X502300D02*
G03*
X502300Y282000I-800J0D01*
G01*
X492300Y292000D02*
G03*
X492300Y292000I-800J0D01*
G01*
X502300D02*
G03*
X502300Y292000I-800J0D01*
G01*
Y272000D02*
G03*
X502300Y272000I-800J0D01*
G01*
X492300D02*
G03*
X492300Y272000I-800J0D01*
G01*
Y242000D02*
G03*
X492300Y242000I-800J0D01*
G01*
X502300D02*
G03*
X502300Y242000I-800J0D01*
G01*
X492300Y252000D02*
G03*
X492300Y252000I-800J0D01*
G01*
X502300D02*
G03*
X502300Y252000I-800J0D01*
G01*
X492300Y262000D02*
G03*
X492300Y262000I-800J0D01*
G01*
X502300D02*
G03*
X502300Y262000I-800J0D01*
G01*
Y232000D02*
G03*
X502300Y232000I-800J0D01*
G01*
X492300Y222000D02*
G03*
X492300Y222000I-800J0D01*
G01*
X502300D02*
G03*
X502300Y222000I-800J0D01*
G01*
X492300Y232000D02*
G03*
X492300Y232000I-800J0D01*
G01*
X342300Y242000D02*
G03*
X342300Y242000I-800J0D01*
G01*
X352300D02*
G03*
X352300Y242000I-800J0D01*
G01*
X342300Y252000D02*
G03*
X342300Y252000I-800J0D01*
G01*
X352300D02*
G03*
X352300Y252000I-800J0D01*
G01*
Y232000D02*
G03*
X352300Y232000I-800J0D01*
G01*
X342300D02*
G03*
X342300Y232000I-800J0D01*
G01*
Y202000D02*
G03*
X342300Y202000I-800J0D01*
G01*
X352300D02*
G03*
X352300Y202000I-800J0D01*
G01*
X342300Y212000D02*
G03*
X342300Y212000I-800J0D01*
G01*
X352300D02*
G03*
X352300Y212000I-800J0D01*
G01*
X342300Y222000D02*
G03*
X342300Y222000I-800J0D01*
G01*
X352300D02*
G03*
X352300Y222000I-800J0D01*
G01*
X512000Y30500D02*
G03*
X512000Y30500I-800J0D01*
G01*
X522000D02*
G03*
X522000Y30500I-800J0D01*
G01*
X512000Y40500D02*
G03*
X512000Y40500I-800J0D01*
G01*
Y50500D02*
G03*
X512000Y50500I-800J0D01*
G01*
Y60500D02*
G03*
X512000Y60500I-800J0D01*
G01*
Y70500D02*
G03*
X512000Y70500I-800J0D01*
G01*
Y80500D02*
G03*
X512000Y80500I-800J0D01*
G01*
Y90500D02*
G03*
X512000Y90500I-800J0D01*
G01*
Y100500D02*
G03*
X512000Y100500I-800J0D01*
G01*
Y110500D02*
G03*
X512000Y110500I-800J0D01*
G01*
Y120500D02*
G03*
X512000Y120500I-800J0D01*
G01*
X522000Y40500D02*
G03*
X522000Y40500I-800J0D01*
G01*
Y50500D02*
G03*
X522000Y50500I-800J0D01*
G01*
Y60500D02*
G03*
X522000Y60500I-800J0D01*
G01*
Y70500D02*
G03*
X522000Y70500I-800J0D01*
G01*
Y80500D02*
G03*
X522000Y80500I-800J0D01*
G01*
Y90500D02*
G03*
X522000Y90500I-800J0D01*
G01*
Y100500D02*
G03*
X522000Y100500I-800J0D01*
G01*
Y110500D02*
G03*
X522000Y110500I-800J0D01*
G01*
Y120500D02*
G03*
X522000Y120500I-800J0D01*
G01*
X52111Y120504D02*
G03*
X52111Y120504I-800J0D01*
G01*
X522000Y149000D02*
G03*
X522000Y149000I-800J0D01*
G01*
X512000D02*
G03*
X512000Y149000I-800J0D01*
G01*
X522000Y159000D02*
G03*
X522000Y159000I-800J0D01*
G01*
X512000D02*
G03*
X512000Y159000I-800J0D01*
G01*
X522000Y179000D02*
G03*
X522000Y179000I-800J0D01*
G01*
X512000D02*
G03*
X512000Y179000I-800J0D01*
G01*
X522000Y189000D02*
G03*
X522000Y189000I-800J0D01*
G01*
X512000D02*
G03*
X512000Y189000I-800J0D01*
G01*
Y169000D02*
G03*
X512000Y169000I-800J0D01*
G01*
X522000D02*
G03*
X522000Y169000I-800J0D01*
G01*
X170000Y202000D02*
G03*
X170000Y202000I-800J0D01*
G01*
Y212000D02*
G03*
X170000Y212000I-800J0D01*
G01*
Y242000D02*
G03*
X170000Y242000I-800J0D01*
G01*
Y252000D02*
G03*
X170000Y252000I-800J0D01*
G01*
Y262000D02*
G03*
X170000Y262000I-800J0D01*
G01*
Y272000D02*
G03*
X170000Y272000I-800J0D01*
G01*
Y232000D02*
G03*
X170000Y232000I-800J0D01*
G01*
Y222000D02*
G03*
X170000Y222000I-800J0D01*
G01*
X260300Y202000D02*
G03*
X260300Y202000I-800J0D01*
G01*
Y212000D02*
G03*
X260300Y212000I-800J0D01*
G01*
Y242000D02*
G03*
X260300Y242000I-800J0D01*
G01*
Y252000D02*
G03*
X260300Y252000I-800J0D01*
G01*
Y262000D02*
G03*
X260300Y262000I-800J0D01*
G01*
Y272000D02*
G03*
X260300Y272000I-800J0D01*
G01*
Y232000D02*
G03*
X260300Y232000I-800J0D01*
G01*
Y222000D02*
G03*
X260300Y222000I-800J0D01*
G01*
X377300Y202000D02*
G03*
X377300Y202000I-800J0D01*
G01*
Y212000D02*
G03*
X377300Y212000I-800J0D01*
G01*
Y242000D02*
G03*
X377300Y242000I-800J0D01*
G01*
Y252000D02*
G03*
X377300Y252000I-800J0D01*
G01*
Y262000D02*
G03*
X377300Y262000I-800J0D01*
G01*
Y272000D02*
G03*
X377300Y272000I-800J0D01*
G01*
Y232000D02*
G03*
X377300Y232000I-800J0D01*
G01*
Y222000D02*
G03*
X377300Y222000I-800J0D01*
G01*
X467300Y202000D02*
G03*
X467300Y202000I-800J0D01*
G01*
Y212000D02*
G03*
X467300Y212000I-800J0D01*
G01*
Y242000D02*
G03*
X467300Y242000I-800J0D01*
G01*
Y252000D02*
G03*
X467300Y252000I-800J0D01*
G01*
Y262000D02*
G03*
X467300Y262000I-800J0D01*
G01*
Y272000D02*
G03*
X467300Y272000I-800J0D01*
G01*
Y232000D02*
G03*
X467300Y232000I-800J0D01*
G01*
Y222000D02*
G03*
X467300Y222000I-800J0D01*
G01*
D217*
X51711Y120504D02*
G03*
X51711Y120504I-400J0D01*
G01*
D218*
X1107993Y-316283D02*
X1108659Y-315949D01*
X1109659Y-314950D01*
Y-321948D01*
X1115124Y-314950D02*
X1114125Y-315283D01*
X1113458Y-316283D01*
X1113125Y-317949D01*
Y-318949D01*
X1113458Y-320615D01*
X1114125Y-321615D01*
X1115124Y-321948D01*
X1115791D01*
X1116791Y-321615D01*
X1117457Y-320615D01*
X1117791Y-318949D01*
Y-317949D01*
X1117457Y-316283D01*
X1116791Y-315283D01*
X1115791Y-314950D01*
X1115124D01*
X1123689Y-317282D02*
X1123356Y-318282D01*
X1122690Y-318949D01*
X1121690Y-319282D01*
X1121356D01*
X1120357Y-318949D01*
X1119690Y-318282D01*
X1119357Y-317282D01*
Y-316949D01*
X1119690Y-315949D01*
X1120357Y-315283D01*
X1121356Y-314950D01*
X1121690D01*
X1122690Y-315283D01*
X1123356Y-315949D01*
X1123689Y-317282D01*
Y-318949D01*
X1123356Y-320615D01*
X1122690Y-321615D01*
X1121690Y-321948D01*
X1121023D01*
X1120023Y-321615D01*
X1119690Y-320948D01*
X1125589Y-316283D02*
X1126255Y-315949D01*
X1127255Y-314950D01*
Y-321948D01*
X1131054Y-316616D02*
Y-316283D01*
X1131388Y-315616D01*
X1131721Y-315283D01*
X1132387Y-314950D01*
X1133720D01*
X1134387Y-315283D01*
X1134720Y-315616D01*
X1135054Y-316283D01*
Y-316949D01*
X1134720Y-317616D01*
X1134054Y-318616D01*
X1130721Y-321948D01*
X1135387D01*
X1140473Y-318949D02*
X1146472D01*
X1148538Y-314950D02*
Y-321948D01*
Y-314950D02*
X1150871D01*
X1151871Y-315283D01*
X1152537Y-315949D01*
X1152870Y-316616D01*
X1153203Y-317616D01*
Y-319282D01*
X1152870Y-320282D01*
X1152537Y-320948D01*
X1151871Y-321615D01*
X1150871Y-321948D01*
X1148538D01*
X1088339Y-314950D02*
X1087339Y-315283D01*
X1086672Y-316283D01*
X1086339Y-317949D01*
Y-318949D01*
X1086672Y-320615D01*
X1087339Y-321615D01*
X1088339Y-321948D01*
X1089005D01*
X1090005Y-321615D01*
X1090672Y-320615D01*
X1091005Y-318949D01*
Y-317949D01*
X1090672Y-316283D01*
X1090005Y-315283D01*
X1089005Y-314950D01*
X1088339D01*
X1095904D02*
X1092571Y-319615D01*
X1097570D01*
X1095904Y-314950D02*
Y-321948D01*
X1098803Y-318949D02*
X1104802D01*
M02*
