M48
;Layer_Color=9474304
;FILE_FORMAT=2:5
INCH,LZ
;TYPE=PLATED
T4F00S00C0.02559
T6F00S00C0.03248
T9F00S00C0.03937
;TYPE=NON_PLATED
%
G90
G05
T04
G00X0017605Y005274
M15
G01X0018393
M16
G00X0017605Y007026
M15
G01X0018393
M16
G00X0017186Y0172699
M15
G01X0017973
M16
G00X0017186Y0190219
M15
G01X0017973
M16
T06
G00X0007025Y0045408
M15
G01X0004367
M16
G00X0004367Y0077592
M15
G01X0007025
M16
G00X0006605Y0165366
M15
G01X0003948
M16
G00X0003948Y0197552
M15
G01X0006605
M16
T09
G00X0043437Y0102
M15
G01X0035563
M16
G00X0051311Y0125425
M15
G01Y0115583
M16
G00X0027689Y0124441
M15
G01Y0116567
M16
M17
M30
