G04 Layer_Physical_Order=2*
G04 Layer_Color=128*
%FSLAX25Y25*%
%MOIN*%
G70*
G01*
G75*
%ADD10C,0.00700*%
%ADD46C,0.00591*%
%ADD48C,0.01200*%
%ADD67C,0.06600*%
%ADD72C,0.11000*%
%ADD73C,0.04000*%
G04:AMPARAMS|DCode=74|XSize=148mil|YSize=148mil|CornerRadius=0mil|HoleSize=0mil|Usage=FLASHONLY|Rotation=0.000|XOffset=0mil|YOffset=0mil|HoleType=Round|Shape=Relief|Width=10mil|Gap=7mil|Entries=4|*
%AMTHD74*
7,0,0,0.14800,0.13400,0.01000,45*
%
%ADD74THD74*%
%ADD75C,0.05943*%
G04:AMPARAMS|DCode=76|XSize=63.433mil|YSize=63.433mil|CornerRadius=0mil|HoleSize=0mil|Usage=FLASHONLY|Rotation=0.000|XOffset=0mil|YOffset=0mil|HoleType=Round|Shape=Relief|Width=10mil|Gap=7mil|Entries=4|*
%AMTHD76*
7,0,0,0.06343,0.04943,0.01000,45*
%
%ADD76THD76*%
G04:AMPARAMS|DCode=77|XSize=67.37mil|YSize=67.37mil|CornerRadius=0mil|HoleSize=0mil|Usage=FLASHONLY|Rotation=0.000|XOffset=0mil|YOffset=0mil|HoleType=Round|Shape=Relief|Width=10mil|Gap=7mil|Entries=4|*
%AMTHD77*
7,0,0,0.06737,0.05337,0.01000,45*
%
%ADD77THD77*%
%ADD78C,0.05500*%
G04:AMPARAMS|DCode=79|XSize=59mil|YSize=59mil|CornerRadius=0mil|HoleSize=0mil|Usage=FLASHONLY|Rotation=0.000|XOffset=0mil|YOffset=0mil|HoleType=Round|Shape=Relief|Width=10mil|Gap=7mil|Entries=4|*
%AMTHD79*
7,0,0,0.05900,0.04500,0.01000,45*
%
%ADD79THD79*%
%ADD80C,0.04762*%
%ADD81C,0.07518*%
%ADD82C,0.09487*%
%ADD83C,0.16967*%
%AMTHOVALD84*
21,1,0.07874,0.06737,0,0,180.0*
1,1,0.06737,0.03937,0.00000*
1,1,0.06737,-0.03937,0.00000*
21,0,0.07874,0.05337,0,0,180.0*
1,0,0.05337,0.03937,0.00000*
1,0,0.05337,-0.03937,0.00000*
4,0,4,0.03583,0.00353,0.05965,0.02735,0.06672,0.02028,0.04291,-0.00353,0.03583,0.00353,0.0*
4,0,4,-0.04291,0.00353,-0.06672,-0.02028,-0.05965,-0.02735,-0.03583,-0.00353,-0.04291,0.00353,0.0*
4,0,4,0.04291,0.00353,0.06672,-0.02028,0.05965,-0.02735,0.03583,-0.00353,0.04291,0.00353,0.0*
4,0,4,-0.03583,0.00353,-0.05965,0.02735,-0.06672,0.02028,-0.04291,-0.00353,-0.03583,0.00353,0.0*
%
%ADD84THOVALD84*%

%AMTHOVALD85*
21,1,0.07874,0.06737,0,0,270.0*
1,1,0.06737,0.00000,0.03937*
1,1,0.06737,0.00000,-0.03937*
21,0,0.07874,0.05337,0,0,270.0*
1,0,0.05337,0.00000,0.03937*
1,0,0.05337,0.00000,-0.03937*
4,0,4,-0.00353,0.03583,-0.02735,0.05965,-0.02028,0.06672,0.00353,0.04291,-0.00353,0.03583,0.0*
4,0,4,-0.00353,-0.04291,0.02028,-0.06672,0.02735,-0.05965,0.00353,-0.03583,-0.00353,-0.04291,0.0*
4,0,4,-0.00353,0.04291,0.02028,0.06672,0.02735,0.05965,0.00353,0.03583,-0.00353,0.04291,0.0*
4,0,4,-0.00353,-0.03583,-0.02735,-0.05965,-0.02028,-0.06672,0.00353,-0.04291,-0.00353,-0.03583,0.0*
%
%ADD85THOVALD85*%

%ADD86O,0.06337X0.16179*%
%ADD87C,0.06337*%
%ADD88O,0.08306X0.05648*%
%ADD89O,0.05747X0.04959*%
G04:AMPARAMS|DCode=90|XSize=38mil|YSize=38mil|CornerRadius=0mil|HoleSize=0mil|Usage=FLASHONLY|Rotation=0.000|XOffset=0mil|YOffset=0mil|HoleType=Round|Shape=Relief|Width=10mil|Gap=7mil|Entries=4|*
%AMTHD90*
7,0,0,0.03800,0.02400,0.01000,45*
%
%ADD90THD90*%
%ADD91C,0.03400*%
%ADD92C,0.03581*%
G04:AMPARAMS|DCode=93|XSize=39.811mil|YSize=39.811mil|CornerRadius=0mil|HoleSize=0mil|Usage=FLASHONLY|Rotation=0.000|XOffset=0mil|YOffset=0mil|HoleType=Round|Shape=Relief|Width=10mil|Gap=7mil|Entries=4|*
%AMTHD93*
7,0,0,0.03981,0.02581,0.01000,45*
%
%ADD93THD93*%
G36*
X38757Y338004D02*
X38947D01*
X39342Y337989D01*
X39723Y337960D01*
X39898Y337945D01*
X40060Y337916D01*
X40191Y337901D01*
X40308Y337872D01*
X40323D01*
X40352Y337857D01*
X40382Y337843D01*
X40440Y337828D01*
X40601Y337770D01*
X40791Y337667D01*
X41011Y337550D01*
X41231Y337374D01*
X41465Y337169D01*
X41685Y336920D01*
Y336906D01*
X41714Y336891D01*
X41743Y336847D01*
X41772Y336789D01*
X41816Y336716D01*
X41860Y336628D01*
X41977Y336423D01*
X42080Y336145D01*
X42168Y335823D01*
X42226Y335456D01*
X42255Y335047D01*
Y335032D01*
Y335003D01*
Y334959D01*
Y334900D01*
X42241Y334739D01*
X42212Y334534D01*
X42182Y334300D01*
X42124Y334051D01*
X42036Y333802D01*
X41933Y333568D01*
X41919Y333539D01*
X41875Y333465D01*
X41802Y333363D01*
X41714Y333231D01*
X41597Y333070D01*
X41450Y332909D01*
X41289Y332763D01*
X41114Y332616D01*
X41099Y332602D01*
X41026Y332558D01*
X40923Y332499D01*
X40806Y332441D01*
X40645Y332353D01*
X40484Y332280D01*
X40294Y332221D01*
X40103Y332162D01*
X40074D01*
X40030Y332148D01*
X39972D01*
X39898Y332133D01*
X39811Y332119D01*
X39708Y332104D01*
X39591D01*
X39459Y332089D01*
X39313Y332075D01*
X39152Y332060D01*
X38961Y332045D01*
X38771D01*
X38566Y332031D01*
X36839D01*
Y328400D01*
X34892D01*
Y338018D01*
X38581D01*
X38757Y338004D01*
D02*
G37*
G36*
X19417Y328400D02*
X17470D01*
X13576Y334710D01*
Y328400D01*
X11775D01*
Y338018D01*
X13649D01*
X17616Y331562D01*
Y338018D01*
X19417D01*
Y328400D01*
D02*
G37*
G36*
X50586Y335500D02*
X50703D01*
X50981Y335486D01*
X51274Y335442D01*
X51581Y335398D01*
X51874Y335325D01*
X52006Y335281D01*
X52123Y335222D01*
X52152Y335208D01*
X52225Y335164D01*
X52328Y335105D01*
X52460Y335017D01*
X52591Y334915D01*
X52738Y334783D01*
X52869Y334637D01*
X52972Y334476D01*
X52987Y334461D01*
X53016Y334388D01*
X53045Y334271D01*
X53104Y334095D01*
X53118Y333993D01*
X53148Y333875D01*
X53162Y333744D01*
X53177Y333583D01*
X53192Y333421D01*
X53206Y333231D01*
X53221Y333041D01*
Y332821D01*
X53192Y330684D01*
Y330669D01*
Y330640D01*
Y330596D01*
Y330537D01*
Y330376D01*
X53206Y330171D01*
Y329952D01*
X53236Y329718D01*
X53250Y329513D01*
X53279Y329322D01*
Y329308D01*
X53294Y329249D01*
X53323Y329161D01*
X53353Y329044D01*
X53397Y328912D01*
X53455Y328751D01*
X53528Y328590D01*
X53616Y328400D01*
X51801D01*
Y328415D01*
X51786Y328429D01*
X51771Y328473D01*
X51757Y328532D01*
X51728Y328605D01*
X51684Y328693D01*
X51654Y328810D01*
X51610Y328927D01*
Y328942D01*
Y328956D01*
X51581Y329015D01*
X51567Y329088D01*
X51552Y329147D01*
X51537Y329132D01*
X51464Y329073D01*
X51376Y328986D01*
X51244Y328883D01*
X51098Y328766D01*
X50922Y328649D01*
X50747Y328546D01*
X50542Y328444D01*
X50512Y328429D01*
X50454Y328415D01*
X50337Y328371D01*
X50190Y328341D01*
X50029Y328297D01*
X49839Y328254D01*
X49619Y328239D01*
X49400Y328224D01*
X49297D01*
X49224Y328239D01*
X49136D01*
X49019Y328254D01*
X48785Y328297D01*
X48507Y328371D01*
X48229Y328459D01*
X47951Y328605D01*
X47702Y328795D01*
X47672Y328825D01*
X47599Y328898D01*
X47511Y329029D01*
X47394Y329205D01*
X47277Y329425D01*
X47189Y329674D01*
X47116Y329966D01*
X47087Y330289D01*
Y330318D01*
Y330391D01*
X47101Y330493D01*
X47116Y330640D01*
X47160Y330801D01*
X47204Y330977D01*
X47277Y331152D01*
X47365Y331328D01*
X47379Y331343D01*
X47423Y331401D01*
X47482Y331489D01*
X47570Y331592D01*
X47672Y331709D01*
X47804Y331826D01*
X47965Y331943D01*
X48141Y332045D01*
X48170Y332060D01*
X48243Y332089D01*
X48360Y332133D01*
X48521Y332192D01*
X48726Y332265D01*
X48975Y332338D01*
X49268Y332411D01*
X49605Y332485D01*
X49619D01*
X49663Y332499D01*
X49722Y332514D01*
X49810Y332528D01*
X49927Y332543D01*
X50044Y332572D01*
X50322Y332631D01*
X50615Y332704D01*
X50908Y332777D01*
X51186Y332851D01*
X51303Y332894D01*
X51406Y332938D01*
Y333114D01*
Y333143D01*
Y333202D01*
X51391Y333290D01*
X51376Y333407D01*
X51347Y333539D01*
X51288Y333656D01*
X51230Y333773D01*
X51142Y333875D01*
X51127Y333890D01*
X51083Y333919D01*
X51025Y333949D01*
X50922Y333993D01*
X50791Y334036D01*
X50615Y334080D01*
X50395Y334095D01*
X50147Y334110D01*
X50059D01*
X49971Y334095D01*
X49868Y334080D01*
X49605Y334022D01*
X49488Y333978D01*
X49371Y333905D01*
X49356Y333890D01*
X49327Y333861D01*
X49268Y333817D01*
X49209Y333744D01*
X49136Y333656D01*
X49063Y333539D01*
X48990Y333392D01*
X48931Y333231D01*
X47277Y333539D01*
Y333553D01*
X47292Y333583D01*
X47306Y333641D01*
X47336Y333700D01*
X47409Y333875D01*
X47497Y334095D01*
X47628Y334344D01*
X47804Y334578D01*
X48009Y334812D01*
X48243Y335017D01*
X48258D01*
X48273Y335032D01*
X48316Y335061D01*
X48375Y335090D01*
X48448Y335134D01*
X48536Y335178D01*
X48639Y335222D01*
X48756Y335266D01*
X48887Y335310D01*
X49049Y335354D01*
X49209Y335398D01*
X49400Y335442D01*
X49590Y335471D01*
X49810Y335500D01*
X50029Y335515D01*
X50483D01*
X50586Y335500D01*
D02*
G37*
G36*
X45681Y328400D02*
X43837D01*
Y338018D01*
X45681D01*
Y328400D01*
D02*
G37*
G36*
X59223Y335500D02*
X59370Y335486D01*
X59545Y335456D01*
X59736Y335427D01*
X59926Y335369D01*
X60116Y335295D01*
X60146Y335281D01*
X60204Y335251D01*
X60292Y335208D01*
X60395Y335149D01*
X60526Y335061D01*
X60643Y334959D01*
X60775Y334856D01*
X60878Y334724D01*
X60892Y334710D01*
X60922Y334666D01*
X60965Y334593D01*
X61024Y334505D01*
X61083Y334388D01*
X61141Y334256D01*
X61200Y334110D01*
X61244Y333949D01*
Y333934D01*
X61258Y333875D01*
X61273Y333773D01*
X61302Y333641D01*
X61317Y333465D01*
X61331Y333246D01*
X61346Y332997D01*
Y332719D01*
Y328400D01*
X59501D01*
Y331943D01*
Y331958D01*
Y331987D01*
Y332045D01*
Y332119D01*
Y332221D01*
Y332324D01*
X59487Y332543D01*
X59472Y332792D01*
X59443Y333026D01*
X59414Y333231D01*
X59399Y333319D01*
X59370Y333392D01*
Y333407D01*
X59355Y333451D01*
X59326Y333509D01*
X59282Y333583D01*
X59165Y333758D01*
X58989Y333919D01*
X58974Y333934D01*
X58945Y333949D01*
X58887Y333978D01*
X58813Y334022D01*
X58726Y334051D01*
X58608Y334080D01*
X58491Y334095D01*
X58359Y334110D01*
X58272D01*
X58184Y334095D01*
X58067Y334080D01*
X57935Y334051D01*
X57789Y333993D01*
X57642Y333934D01*
X57496Y333846D01*
X57481Y333831D01*
X57437Y333802D01*
X57379Y333744D01*
X57291Y333656D01*
X57218Y333553D01*
X57130Y333436D01*
X57042Y333304D01*
X56983Y333143D01*
Y333129D01*
X56969Y333055D01*
X56939Y332953D01*
X56925Y332792D01*
X56910Y332689D01*
X56896Y332572D01*
X56881Y332441D01*
X56866Y332294D01*
Y332133D01*
X56852Y331958D01*
Y331753D01*
Y331548D01*
Y328400D01*
X55007D01*
Y335369D01*
X56720D01*
Y334344D01*
X56735Y334359D01*
X56764Y334388D01*
X56808Y334446D01*
X56881Y334534D01*
X56969Y334622D01*
X57086Y334710D01*
X57203Y334827D01*
X57349Y334929D01*
X57510Y335032D01*
X57671Y335149D01*
X57862Y335237D01*
X58067Y335339D01*
X58286Y335413D01*
X58506Y335471D01*
X58755Y335500D01*
X59004Y335515D01*
X59106D01*
X59223Y335500D01*
D02*
G37*
G36*
X6051Y338165D02*
X6197Y338150D01*
X6373Y338136D01*
X6563Y338121D01*
X6783Y338092D01*
X7222Y337989D01*
X7690Y337857D01*
X7910Y337770D01*
X8130Y337667D01*
X8349Y337550D01*
X8540Y337418D01*
X8554Y337404D01*
X8584Y337389D01*
X8642Y337345D01*
X8701Y337286D01*
X8788Y337199D01*
X8876Y337111D01*
X8979Y337008D01*
X9081Y336877D01*
X9198Y336745D01*
X9301Y336584D01*
X9418Y336423D01*
X9521Y336232D01*
X9696Y335837D01*
X9784Y335603D01*
X9843Y335369D01*
X7910Y335003D01*
Y335017D01*
X7895Y335032D01*
X7866Y335120D01*
X7822Y335251D01*
X7734Y335413D01*
X7632Y335588D01*
X7500Y335764D01*
X7339Y335954D01*
X7149Y336115D01*
X7119Y336130D01*
X7046Y336174D01*
X6929Y336247D01*
X6768Y336320D01*
X6563Y336393D01*
X6329Y336467D01*
X6051Y336511D01*
X5758Y336525D01*
X5641D01*
X5553Y336511D01*
X5436Y336496D01*
X5319Y336481D01*
X5026Y336423D01*
X4704Y336320D01*
X4367Y336174D01*
X4206Y336086D01*
X4045Y335983D01*
X3884Y335852D01*
X3738Y335705D01*
X3723Y335691D01*
X3708Y335661D01*
X3664Y335617D01*
X3621Y335559D01*
X3562Y335471D01*
X3503Y335369D01*
X3445Y335251D01*
X3372Y335105D01*
X3299Y334944D01*
X3240Y334768D01*
X3181Y334563D01*
X3123Y334359D01*
X3079Y334124D01*
X3035Y333861D01*
X3020Y333597D01*
X3006Y333304D01*
Y333290D01*
Y333231D01*
Y333143D01*
X3020Y333026D01*
X3035Y332880D01*
X3050Y332719D01*
X3064Y332543D01*
X3094Y332338D01*
X3181Y331928D01*
X3328Y331489D01*
X3401Y331284D01*
X3503Y331094D01*
X3621Y330903D01*
X3752Y330728D01*
X3767Y330713D01*
X3782Y330698D01*
X3825Y330655D01*
X3884Y330596D01*
X3972Y330537D01*
X4060Y330464D01*
X4162Y330376D01*
X4294Y330303D01*
X4572Y330142D01*
X4909Y330010D01*
X5099Y329952D01*
X5304Y329923D01*
X5524Y329893D01*
X5743Y329879D01*
X5846D01*
X5963Y329893D01*
X6124Y329908D01*
X6300Y329937D01*
X6505Y329981D01*
X6724Y330040D01*
X6959Y330113D01*
X6988Y330128D01*
X7061Y330157D01*
X7178Y330201D01*
X7324Y330274D01*
X7485Y330362D01*
X7661Y330464D01*
X7837Y330567D01*
X8013Y330698D01*
Y331928D01*
X5802D01*
Y333553D01*
X9974D01*
Y329703D01*
X9945Y329674D01*
X9857Y329601D01*
X9725Y329498D01*
X9521Y329352D01*
X9272Y329191D01*
X8964Y329015D01*
X8613Y328839D01*
X8203Y328663D01*
X8188D01*
X8144Y328649D01*
X8086Y328620D01*
X7998Y328590D01*
X7895Y328561D01*
X7778Y328532D01*
X7632Y328488D01*
X7471Y328444D01*
X7119Y328371D01*
X6724Y328297D01*
X6300Y328239D01*
X5861Y328224D01*
X5714D01*
X5612Y328239D01*
X5480D01*
X5319Y328254D01*
X5158Y328283D01*
X4967Y328297D01*
X4558Y328385D01*
X4118Y328488D01*
X3664Y328649D01*
X3445Y328737D01*
X3225Y328854D01*
X3211Y328869D01*
X3181Y328883D01*
X3123Y328927D01*
X3050Y328971D01*
X2947Y329029D01*
X2845Y329117D01*
X2596Y329322D01*
X2332Y329571D01*
X2054Y329879D01*
X1791Y330245D01*
X1556Y330655D01*
Y330669D01*
X1527Y330713D01*
X1512Y330772D01*
X1469Y330859D01*
X1425Y330977D01*
X1381Y331108D01*
X1337Y331255D01*
X1278Y331416D01*
X1220Y331606D01*
X1176Y331811D01*
X1088Y332236D01*
X1029Y332719D01*
X1000Y333231D01*
Y333246D01*
Y333304D01*
Y333378D01*
X1015Y333480D01*
Y333612D01*
X1029Y333773D01*
X1059Y333934D01*
X1073Y334124D01*
X1146Y334534D01*
X1264Y334988D01*
X1410Y335442D01*
X1615Y335896D01*
X1630Y335910D01*
X1644Y335954D01*
X1688Y336013D01*
X1732Y336086D01*
X1805Y336189D01*
X1878Y336306D01*
X2083Y336555D01*
X2347Y336847D01*
X2654Y337155D01*
X3035Y337433D01*
X3460Y337696D01*
X3474D01*
X3503Y337711D01*
X3547Y337740D01*
X3621Y337770D01*
X3723Y337813D01*
X3825Y337843D01*
X3957Y337887D01*
X4089Y337945D01*
X4250Y337989D01*
X4426Y338033D01*
X4616Y338062D01*
X4821Y338106D01*
X5260Y338165D01*
X5758Y338179D01*
X5934D01*
X6051Y338165D01*
D02*
G37*
G36*
X25405Y338004D02*
X25668Y337989D01*
X25976Y337975D01*
X26269Y337945D01*
X26561Y337887D01*
X26825Y337828D01*
X26840D01*
X26869Y337813D01*
X26913Y337799D01*
X26971Y337784D01*
X27118Y337711D01*
X27323Y337623D01*
X27542Y337506D01*
X27777Y337345D01*
X28025Y337155D01*
X28260Y336935D01*
X28274D01*
X28289Y336906D01*
X28362Y336818D01*
X28465Y336686D01*
X28611Y336511D01*
X28757Y336276D01*
X28904Y336013D01*
X29050Y335720D01*
X29182Y335383D01*
Y335369D01*
X29197Y335339D01*
X29211Y335295D01*
X29226Y335222D01*
X29255Y335134D01*
X29285Y335017D01*
X29314Y334900D01*
X29343Y334754D01*
X29372Y334593D01*
X29402Y334432D01*
X29460Y334036D01*
X29489Y333597D01*
X29504Y333114D01*
Y333099D01*
Y333055D01*
Y332997D01*
Y332909D01*
X29489Y332807D01*
Y332689D01*
X29460Y332411D01*
X29431Y332089D01*
X29372Y331753D01*
X29299Y331401D01*
X29197Y331065D01*
Y331050D01*
X29182Y331021D01*
X29167Y330962D01*
X29138Y330889D01*
X29094Y330801D01*
X29050Y330698D01*
X28933Y330464D01*
X28787Y330186D01*
X28611Y329908D01*
X28406Y329630D01*
X28172Y329366D01*
X28143Y329352D01*
X28084Y329278D01*
X27967Y329191D01*
X27821Y329088D01*
X27615Y328956D01*
X27381Y328825D01*
X27118Y328707D01*
X26810Y328590D01*
X26781Y328576D01*
X26693Y328561D01*
X26561Y328532D01*
X26357Y328502D01*
X26122Y328459D01*
X25829Y328429D01*
X25478Y328415D01*
X25097Y328400D01*
X21467D01*
Y338018D01*
X25288D01*
X25405Y338004D01*
D02*
G37*
G36*
X66133Y335500D02*
X66265Y335486D01*
X66412Y335456D01*
X66587Y335427D01*
X66763Y335383D01*
X66953Y335325D01*
X67158Y335266D01*
X67363Y335178D01*
X67568Y335076D01*
X67773Y334959D01*
X67963Y334812D01*
X68154Y334666D01*
X68329Y334476D01*
X68344Y334461D01*
X68373Y334432D01*
X68417Y334373D01*
X68476Y334285D01*
X68534Y334168D01*
X68607Y334036D01*
X68695Y333890D01*
X68769Y333700D01*
X68856Y333495D01*
X68930Y333260D01*
X69003Y332997D01*
X69076Y332719D01*
X69120Y332411D01*
X69164Y332089D01*
X69193Y331723D01*
Y331343D01*
X64582D01*
Y331328D01*
Y331313D01*
Y331269D01*
X64596Y331211D01*
X64611Y331050D01*
X64640Y330874D01*
X64699Y330655D01*
X64772Y330450D01*
X64874Y330245D01*
X65021Y330054D01*
X65035Y330040D01*
X65094Y329981D01*
X65182Y329908D01*
X65314Y329835D01*
X65460Y329747D01*
X65650Y329674D01*
X65855Y329615D01*
X66075Y329601D01*
X66148D01*
X66236Y329615D01*
X66338Y329630D01*
X66441Y329659D01*
X66573Y329703D01*
X66690Y329762D01*
X66807Y329835D01*
X66821Y329849D01*
X66851Y329879D01*
X66909Y329937D01*
X66968Y330025D01*
X67041Y330128D01*
X67129Y330259D01*
X67202Y330406D01*
X67261Y330596D01*
X69091Y330289D01*
Y330274D01*
X69076Y330245D01*
X69047Y330186D01*
X69017Y330128D01*
X68988Y330040D01*
X68930Y329937D01*
X68813Y329718D01*
X68651Y329469D01*
X68461Y329220D01*
X68227Y328971D01*
X67963Y328751D01*
X67949D01*
X67934Y328722D01*
X67890Y328707D01*
X67832Y328663D01*
X67758Y328634D01*
X67656Y328590D01*
X67436Y328488D01*
X67158Y328385D01*
X66836Y328312D01*
X66470Y328254D01*
X66060Y328224D01*
X65987D01*
X65885Y328239D01*
X65767D01*
X65606Y328268D01*
X65445Y328283D01*
X65255Y328327D01*
X65050Y328371D01*
X64830Y328429D01*
X64611Y328517D01*
X64377Y328605D01*
X64157Y328722D01*
X63937Y328854D01*
X63732Y329015D01*
X63542Y329205D01*
X63366Y329410D01*
Y329425D01*
X63337Y329454D01*
X63308Y329513D01*
X63264Y329586D01*
X63205Y329674D01*
X63147Y329791D01*
X63088Y329923D01*
X63030Y330069D01*
X62971Y330230D01*
X62913Y330420D01*
X62854Y330611D01*
X62795Y330830D01*
X62722Y331299D01*
X62708Y331548D01*
X62693Y331811D01*
Y331826D01*
Y331884D01*
Y331972D01*
X62708Y332104D01*
X62722Y332236D01*
X62737Y332411D01*
X62766Y332602D01*
X62810Y332792D01*
X62913Y333231D01*
X62986Y333451D01*
X63074Y333685D01*
X63176Y333905D01*
X63293Y334124D01*
X63425Y334329D01*
X63586Y334520D01*
X63601Y334534D01*
X63630Y334563D01*
X63674Y334607D01*
X63747Y334681D01*
X63835Y334754D01*
X63952Y334842D01*
X64069Y334929D01*
X64215Y335017D01*
X64377Y335105D01*
X64538Y335208D01*
X64728Y335281D01*
X64933Y335354D01*
X65153Y335427D01*
X65372Y335471D01*
X65621Y335500D01*
X65870Y335515D01*
X66016D01*
X66133Y335500D01*
D02*
G37*
%LPC*%
G36*
X38288Y336393D02*
X36839D01*
Y333656D01*
X38171D01*
X38273Y333670D01*
X38508D01*
X38771Y333685D01*
X39020Y333714D01*
X39240Y333758D01*
X39342Y333773D01*
X39415Y333802D01*
X39430Y333817D01*
X39474Y333831D01*
X39547Y333861D01*
X39635Y333919D01*
X39737Y333978D01*
X39840Y334066D01*
X39942Y334154D01*
X40030Y334271D01*
X40045Y334285D01*
X40060Y334329D01*
X40103Y334402D01*
X40147Y334490D01*
X40177Y334593D01*
X40221Y334724D01*
X40235Y334871D01*
X40250Y335017D01*
Y335047D01*
Y335105D01*
X40235Y335208D01*
X40206Y335325D01*
X40177Y335456D01*
X40118Y335603D01*
X40045Y335749D01*
X39942Y335881D01*
X39928Y335896D01*
X39884Y335940D01*
X39825Y335998D01*
X39723Y336071D01*
X39620Y336145D01*
X39474Y336218D01*
X39327Y336276D01*
X39152Y336320D01*
X39137D01*
X39079Y336335D01*
X38991Y336350D01*
X38859Y336364D01*
X38669D01*
X38420Y336379D01*
X38288Y336393D01*
D02*
G37*
G36*
X51406Y331738D02*
X51391D01*
X51332Y331709D01*
X51244Y331694D01*
X51127Y331650D01*
X50966Y331606D01*
X50776Y331562D01*
X50542Y331504D01*
X50278Y331445D01*
X50249D01*
X50161Y331416D01*
X50029Y331387D01*
X49868Y331343D01*
X49707Y331299D01*
X49532Y331240D01*
X49400Y331182D01*
X49283Y331123D01*
X49268Y331108D01*
X49224Y331079D01*
X49166Y331021D01*
X49107Y330947D01*
X49049Y330859D01*
X48990Y330742D01*
X48946Y330625D01*
X48931Y330479D01*
Y330464D01*
Y330420D01*
X48946Y330332D01*
X48961Y330245D01*
X49005Y330142D01*
X49049Y330025D01*
X49122Y329908D01*
X49209Y329805D01*
X49224Y329791D01*
X49268Y329762D01*
X49327Y329718D01*
X49415Y329674D01*
X49517Y329615D01*
X49649Y329571D01*
X49780Y329542D01*
X49942Y329527D01*
X50029D01*
X50117Y329542D01*
X50249Y329571D01*
X50395Y329601D01*
X50556Y329659D01*
X50717Y329747D01*
X50893Y329849D01*
X50908Y329864D01*
X50952Y329893D01*
X50996Y329952D01*
X51069Y330025D01*
X51142Y330113D01*
X51215Y330215D01*
X51274Y330332D01*
X51332Y330464D01*
Y330479D01*
X51347Y330508D01*
X51362Y330567D01*
X51376Y330669D01*
Y330786D01*
X51391Y330947D01*
X51406Y331123D01*
Y331357D01*
Y331738D01*
D02*
G37*
G36*
X24688Y336393D02*
X23414D01*
Y330025D01*
X25127D01*
X25302Y330040D01*
X25478D01*
X25683Y330069D01*
X25859Y330084D01*
X26005Y330113D01*
X26020D01*
X26093Y330142D01*
X26181Y330171D01*
X26283Y330201D01*
X26547Y330332D01*
X26679Y330406D01*
X26796Y330508D01*
X26810Y330523D01*
X26854Y330567D01*
X26898Y330625D01*
X26971Y330728D01*
X27059Y330859D01*
X27132Y331021D01*
X27220Y331211D01*
X27293Y331431D01*
Y331445D01*
X27308Y331460D01*
Y331504D01*
X27323Y331548D01*
X27352Y331694D01*
X27396Y331899D01*
X27440Y332148D01*
X27469Y332455D01*
X27484Y332807D01*
X27498Y333202D01*
Y333217D01*
Y333246D01*
Y333304D01*
Y333392D01*
Y333480D01*
X27484Y333583D01*
X27469Y333831D01*
X27455Y334110D01*
X27411Y334388D01*
X27367Y334666D01*
X27293Y334900D01*
X27279Y334929D01*
X27264Y335003D01*
X27220Y335105D01*
X27162Y335237D01*
X27074Y335398D01*
X26986Y335544D01*
X26884Y335705D01*
X26752Y335837D01*
X26737Y335852D01*
X26693Y335896D01*
X26605Y335954D01*
X26503Y336027D01*
X26386Y336101D01*
X26225Y336174D01*
X26049Y336232D01*
X25859Y336291D01*
X25844D01*
X25771Y336306D01*
X25668Y336320D01*
X25507Y336350D01*
X25405D01*
X25288Y336364D01*
X25171D01*
X25024Y336379D01*
X24863D01*
X24688Y336393D01*
D02*
G37*
G36*
X65987Y334110D02*
X65885D01*
X65782Y334080D01*
X65636Y334051D01*
X65475Y333993D01*
X65314Y333919D01*
X65153Y333802D01*
X64991Y333656D01*
X64977Y333641D01*
X64933Y333583D01*
X64874Y333480D01*
X64801Y333348D01*
X64728Y333173D01*
X64669Y332968D01*
X64625Y332733D01*
X64611Y332470D01*
X67363D01*
Y332485D01*
Y332499D01*
Y332543D01*
X67348Y332602D01*
X67334Y332748D01*
X67305Y332924D01*
X67246Y333114D01*
X67173Y333319D01*
X67070Y333509D01*
X66939Y333685D01*
X66924Y333700D01*
X66865Y333758D01*
X66792Y333817D01*
X66675Y333905D01*
X66543Y333978D01*
X66382Y334051D01*
X66192Y334095D01*
X65987Y334110D01*
D02*
G37*
%LPD*%
D10*
X1152281Y-335451D02*
Y-335170D01*
X1152562Y-334607D01*
X1152843Y-334326D01*
X1153405Y-334045D01*
X1154530D01*
X1155092Y-334326D01*
X1155374Y-334607D01*
X1155655Y-335170D01*
Y-335732D01*
X1155374Y-336294D01*
X1154811Y-337138D01*
X1152000Y-339949D01*
X1155936D01*
X1157538Y-339387D02*
X1157257Y-339668D01*
X1157538Y-339949D01*
X1157820Y-339668D01*
X1157538Y-339387D01*
X1160800Y-334045D02*
X1159956Y-334326D01*
X1159394Y-335170D01*
X1159113Y-336575D01*
Y-337419D01*
X1159394Y-338825D01*
X1159956Y-339668D01*
X1160800Y-339949D01*
X1161362D01*
X1162206Y-339668D01*
X1162768Y-338825D01*
X1163049Y-337419D01*
Y-336575D01*
X1162768Y-335170D01*
X1162206Y-334326D01*
X1161362Y-334045D01*
X1160800D01*
D46*
X1013504Y-334745D02*
Y-340649D01*
Y-334745D02*
X1016035D01*
X1016878Y-335026D01*
X1017159Y-335307D01*
X1017441Y-335869D01*
Y-336432D01*
X1017159Y-336994D01*
X1016878Y-337275D01*
X1016035Y-337556D01*
X1013504D02*
X1016035D01*
X1016878Y-337837D01*
X1017159Y-338119D01*
X1017441Y-338681D01*
Y-339524D01*
X1017159Y-340087D01*
X1016878Y-340368D01*
X1016035Y-340649D01*
X1013504D01*
X1020449Y-334745D02*
X1019887Y-335026D01*
X1019324Y-335588D01*
X1019043Y-336150D01*
X1018762Y-336994D01*
Y-338400D01*
X1019043Y-339243D01*
X1019324Y-339805D01*
X1019887Y-340368D01*
X1020449Y-340649D01*
X1021574D01*
X1022136Y-340368D01*
X1022698Y-339805D01*
X1022979Y-339243D01*
X1023260Y-338400D01*
Y-336994D01*
X1022979Y-336150D01*
X1022698Y-335588D01*
X1022136Y-335026D01*
X1021574Y-334745D01*
X1020449D01*
X1029137Y-340649D02*
X1026887Y-334745D01*
X1024638Y-340649D01*
X1025482Y-338681D02*
X1028293D01*
X1030514Y-334745D02*
Y-340649D01*
Y-334745D02*
X1033045D01*
X1033888Y-335026D01*
X1034169Y-335307D01*
X1034450Y-335869D01*
Y-336432D01*
X1034169Y-336994D01*
X1033888Y-337275D01*
X1033045Y-337556D01*
X1030514D01*
X1032482D02*
X1034450Y-340649D01*
X1035772Y-334745D02*
Y-340649D01*
Y-334745D02*
X1037740D01*
X1038583Y-335026D01*
X1039146Y-335588D01*
X1039427Y-336150D01*
X1039708Y-336994D01*
Y-338400D01*
X1039427Y-339243D01*
X1039146Y-339805D01*
X1038583Y-340368D01*
X1037740Y-340649D01*
X1035772D01*
X1047637Y-333620D02*
X1047074Y-334182D01*
X1046512Y-335026D01*
X1045950Y-336150D01*
X1045669Y-337556D01*
Y-338681D01*
X1045950Y-340087D01*
X1046512Y-341211D01*
X1047074Y-342055D01*
X1047637Y-342617D01*
X1047074Y-334182D02*
X1046512Y-335307D01*
X1046231Y-336150D01*
X1045950Y-337556D01*
Y-338681D01*
X1046231Y-340087D01*
X1046512Y-340930D01*
X1047074Y-342055D01*
X1048761Y-334745D02*
Y-340649D01*
Y-334745D02*
X1051010Y-340649D01*
X1053260Y-334745D02*
X1051010Y-340649D01*
X1053260Y-334745D02*
Y-340649D01*
X1055228Y-336150D02*
Y-335869D01*
X1055509Y-335307D01*
X1055790Y-335026D01*
X1056352Y-334745D01*
X1057477D01*
X1058039Y-335026D01*
X1058320Y-335307D01*
X1058602Y-335869D01*
Y-336432D01*
X1058320Y-336994D01*
X1057758Y-337837D01*
X1054947Y-340649D01*
X1058883D01*
X1060204Y-333620D02*
X1060767Y-334182D01*
X1061329Y-335026D01*
X1061891Y-336150D01*
X1062172Y-337556D01*
Y-338681D01*
X1061891Y-340087D01*
X1061329Y-341211D01*
X1060767Y-342055D01*
X1060204Y-342617D01*
X1060767Y-334182D02*
X1061329Y-335307D01*
X1061610Y-336150D01*
X1061891Y-337556D01*
Y-338681D01*
X1061610Y-340087D01*
X1061329Y-340930D01*
X1060767Y-342055D01*
D48*
X531500Y0D02*
Y300000D01*
X0D02*
X531500D01*
X0Y0D02*
Y300000D01*
Y0D02*
X531500D01*
D67*
X196500Y129000D02*
D03*
Y139000D02*
D03*
D72*
X388400Y18700D02*
G03*
X388400Y18700I-5000J0D01*
G01*
X237500D02*
G03*
X237500Y18700I-5000J0D01*
G01*
D73*
X-0Y-0D02*
X531496Y0D01*
Y300000D01*
X0Y300000D02*
X531496Y300000D01*
X-0Y-0D02*
X0Y300000D01*
D74*
X519000Y287500D02*
D03*
X12500D02*
D03*
Y12500D02*
D03*
X518996D02*
D03*
D75*
X143500Y292000D02*
D03*
X133500D02*
D03*
X123500D02*
D03*
X83500D02*
D03*
X73500D02*
D03*
X63500D02*
D03*
X53500D02*
D03*
X93500D02*
D03*
X103500D02*
D03*
X229500D02*
D03*
X219500D02*
D03*
X189500D02*
D03*
X179500D02*
D03*
X169500D02*
D03*
X159500D02*
D03*
X199500D02*
D03*
X209500D02*
D03*
X159500Y102000D02*
D03*
X119500D02*
D03*
X109500D02*
D03*
X99500D02*
D03*
X89500D02*
D03*
X129500D02*
D03*
X229500D02*
D03*
X199500D02*
D03*
X209500D02*
D03*
X219500D02*
D03*
X179500D02*
D03*
X189500D02*
D03*
X308600Y285200D02*
D03*
X328600D02*
D03*
X294500Y202000D02*
D03*
X284500D02*
D03*
X294500Y212000D02*
D03*
X284500D02*
D03*
Y282000D02*
D03*
X294500D02*
D03*
Y272000D02*
D03*
X284500D02*
D03*
Y242000D02*
D03*
X294500D02*
D03*
X284500Y252000D02*
D03*
X294500D02*
D03*
X284500Y262000D02*
D03*
X294500D02*
D03*
Y232000D02*
D03*
X284500D02*
D03*
X134500Y242000D02*
D03*
X144500D02*
D03*
X134500Y252000D02*
D03*
X144500D02*
D03*
Y232000D02*
D03*
X134500D02*
D03*
Y212000D02*
D03*
X144500D02*
D03*
X134500Y222000D02*
D03*
X144500D02*
D03*
X501500Y202000D02*
D03*
X491500D02*
D03*
X501500Y212000D02*
D03*
X491500D02*
D03*
Y282000D02*
D03*
X501500D02*
D03*
Y272000D02*
D03*
X491500D02*
D03*
Y242000D02*
D03*
X501500D02*
D03*
X491500Y252000D02*
D03*
X501500D02*
D03*
X491500Y262000D02*
D03*
X501500D02*
D03*
Y232000D02*
D03*
X491500D02*
D03*
X341500Y242000D02*
D03*
X351500D02*
D03*
X341500Y252000D02*
D03*
X351500D02*
D03*
Y232000D02*
D03*
X341500D02*
D03*
Y212000D02*
D03*
X351500D02*
D03*
X341500Y222000D02*
D03*
X351500D02*
D03*
X521200Y30500D02*
D03*
X511200Y40500D02*
D03*
Y50500D02*
D03*
Y60500D02*
D03*
Y70500D02*
D03*
Y80500D02*
D03*
Y90500D02*
D03*
Y100500D02*
D03*
Y110500D02*
D03*
Y120500D02*
D03*
X521200Y40500D02*
D03*
Y50500D02*
D03*
Y60500D02*
D03*
Y70500D02*
D03*
Y80500D02*
D03*
Y90500D02*
D03*
Y100500D02*
D03*
Y110500D02*
D03*
Y149000D02*
D03*
X511200D02*
D03*
Y159000D02*
D03*
X521200Y179000D02*
D03*
X511200D02*
D03*
Y189000D02*
D03*
Y169000D02*
D03*
X521200D02*
D03*
X169200Y212000D02*
D03*
Y242000D02*
D03*
Y252000D02*
D03*
Y262000D02*
D03*
Y272000D02*
D03*
Y232000D02*
D03*
Y222000D02*
D03*
X259500Y212000D02*
D03*
Y242000D02*
D03*
Y252000D02*
D03*
Y262000D02*
D03*
Y272000D02*
D03*
Y232000D02*
D03*
Y222000D02*
D03*
X376500Y212000D02*
D03*
Y242000D02*
D03*
Y252000D02*
D03*
Y262000D02*
D03*
Y272000D02*
D03*
Y232000D02*
D03*
Y222000D02*
D03*
X466500Y212000D02*
D03*
Y242000D02*
D03*
Y252000D02*
D03*
Y262000D02*
D03*
Y272000D02*
D03*
Y232000D02*
D03*
Y222000D02*
D03*
D76*
X113500Y292000D02*
D03*
X149500Y102000D02*
D03*
X139500D02*
D03*
X318600Y285200D02*
D03*
X284500Y292000D02*
D03*
X294500D02*
D03*
X284500Y222000D02*
D03*
X294500D02*
D03*
X134500Y202000D02*
D03*
X144500D02*
D03*
X491500Y292000D02*
D03*
X501500D02*
D03*
X491500Y222000D02*
D03*
X501500D02*
D03*
X341500Y202000D02*
D03*
X351500D02*
D03*
X511200Y30500D02*
D03*
X521200Y120500D02*
D03*
Y159000D02*
D03*
Y189000D02*
D03*
X169200Y202000D02*
D03*
X259500D02*
D03*
X376500D02*
D03*
X466500D02*
D03*
D77*
X493600Y127800D02*
D03*
D78*
X491496Y97500D02*
D03*
Y92500D02*
D03*
Y87500D02*
D03*
Y77500D02*
D03*
Y72500D02*
D03*
Y52500D02*
D03*
Y47500D02*
D03*
Y42500D02*
D03*
Y62500D02*
D03*
Y57500D02*
D03*
X421496Y97500D02*
D03*
Y92500D02*
D03*
Y87500D02*
D03*
Y82500D02*
D03*
Y77500D02*
D03*
Y72500D02*
D03*
Y52500D02*
D03*
Y47500D02*
D03*
Y42500D02*
D03*
Y62500D02*
D03*
Y57500D02*
D03*
Y67500D02*
D03*
X10000Y236600D02*
D03*
Y241600D02*
D03*
Y261600D02*
D03*
Y271600D02*
D03*
Y266600D02*
D03*
Y251600D02*
D03*
Y246600D02*
D03*
X421496Y17500D02*
D03*
Y12500D02*
D03*
Y7500D02*
D03*
X491496Y17500D02*
D03*
Y12500D02*
D03*
Y7500D02*
D03*
X355400Y189300D02*
D03*
X370400D02*
D03*
X365400D02*
D03*
X350400D02*
D03*
X345400D02*
D03*
D79*
X491496Y82500D02*
D03*
Y67500D02*
D03*
X10000Y256600D02*
D03*
X360400Y189300D02*
D03*
D80*
X101100Y270000D02*
D03*
X50400Y191400D02*
D03*
X30800Y215100D02*
D03*
X35300Y247900D02*
D03*
X40600Y225800D02*
D03*
Y232800D02*
D03*
X59600Y270300D02*
D03*
D81*
X268603Y34332D02*
D03*
D82*
X347343D02*
D03*
D83*
X383396Y18700D02*
D03*
X232496D02*
D03*
D84*
X39500Y102000D02*
D03*
D85*
X27689Y120504D02*
D03*
D86*
X51311D02*
D03*
D87*
X77500Y165000D02*
D03*
X160500Y132100D02*
D03*
D88*
X5696Y77592D02*
D03*
Y45408D02*
D03*
X5276Y165366D02*
D03*
Y197552D02*
D03*
D89*
X17999Y52740D02*
D03*
Y70260D02*
D03*
X17580Y190219D02*
D03*
Y172699D02*
D03*
D90*
X282700Y153400D02*
D03*
X394800Y252800D02*
D03*
X97800Y57900D02*
D03*
X46300Y171700D02*
D03*
X39900Y177500D02*
D03*
X62000Y125100D02*
D03*
X65800Y132800D02*
D03*
X65700Y116600D02*
D03*
X271500Y50000D02*
D03*
X191400Y24300D02*
D03*
X153400D02*
D03*
X149100Y8300D02*
D03*
X186900Y8400D02*
D03*
X182600Y33400D02*
D03*
X144600D02*
D03*
X106700Y33483D02*
D03*
X68500Y33500D02*
D03*
X37500Y24500D02*
D03*
X29600Y33600D02*
D03*
X33750Y8350D02*
D03*
X55900Y13600D02*
D03*
X465600Y73000D02*
D03*
X480100Y65500D02*
D03*
X26000Y178100D02*
D03*
X104300Y185500D02*
D03*
X89500Y182000D02*
D03*
X118000Y196700D02*
D03*
X153700Y114000D02*
D03*
X329300Y262600D02*
D03*
X440300Y67000D02*
D03*
X9100Y92600D02*
D03*
X193800Y276400D02*
D03*
X208700Y270100D02*
D03*
X221500Y85800D02*
D03*
X238100Y61000D02*
D03*
X269800Y8700D02*
D03*
X207400Y16600D02*
D03*
X104900Y12000D02*
D03*
X96600Y69500D02*
D03*
X36200Y271500D02*
D03*
X151100Y271100D02*
D03*
X205200Y212700D02*
D03*
X232200Y262700D02*
D03*
X328300Y222000D02*
D03*
X362500Y282800D02*
D03*
X444200Y265900D02*
D03*
X478400Y173600D02*
D03*
X462300Y109300D02*
D03*
X456700Y43600D02*
D03*
X180900Y92300D02*
D03*
X337300Y97700D02*
D03*
X134900Y57900D02*
D03*
X444600Y11800D02*
D03*
X103600Y263500D02*
D03*
X75000Y230200D02*
D03*
X81700Y235600D02*
D03*
X481000Y127800D02*
D03*
X159400Y160500D02*
D03*
X121100Y230300D02*
D03*
X309600Y156300D02*
D03*
X323800D02*
D03*
X439800Y120300D02*
D03*
X343400Y50300D02*
D03*
X268900Y20000D02*
D03*
X294400Y130100D02*
D03*
X293400Y99500D02*
D03*
X276500Y87600D02*
D03*
X115400Y24500D02*
D03*
X77500D02*
D03*
X58700Y189900D02*
D03*
X128400Y147400D02*
D03*
X170100Y162900D02*
D03*
X167900Y151700D02*
D03*
X169600Y140900D02*
D03*
X29500Y171800D02*
D03*
X27853Y163453D02*
D03*
X69372Y160828D02*
D03*
X24200Y149600D02*
D03*
X121300Y249100D02*
D03*
X72800Y269700D02*
D03*
X16200Y223400D02*
D03*
X83300Y191500D02*
D03*
X327596Y255256D02*
D03*
X103599Y140600D02*
D03*
X21800Y161700D02*
D03*
X21400Y175700D02*
D03*
X101100Y215000D02*
D03*
X113200Y192000D02*
D03*
X348800Y59000D02*
D03*
X70700Y191700D02*
D03*
X118700Y241000D02*
D03*
X267200Y61500D02*
D03*
X353100Y125600D02*
D03*
X318200Y96900D02*
D03*
X341200Y156500D02*
D03*
X353600Y148600D02*
D03*
X318900Y249000D02*
D03*
X325100Y248800D02*
D03*
X89600Y252700D02*
D03*
X92200Y266600D02*
D03*
X46500Y200400D02*
D03*
X56100Y208800D02*
D03*
X166200Y140900D02*
D03*
X26296Y58300D02*
D03*
X22796Y55000D02*
D03*
X287400Y175400D02*
D03*
X107100Y145200D02*
D03*
X101700Y219100D02*
D03*
X96500Y235700D02*
D03*
X100100Y238300D02*
D03*
X48900Y264900D02*
D03*
X53700Y241100D02*
D03*
X312500Y249200D02*
D03*
X274500Y71800D02*
D03*
X326000Y238500D02*
D03*
X153700Y121000D02*
D03*
X95700Y188200D02*
D03*
X157300Y139800D02*
D03*
X174700Y140400D02*
D03*
X140500Y152300D02*
D03*
X164600Y160000D02*
D03*
X149100Y159200D02*
D03*
X146400Y162000D02*
D03*
X131800Y167900D02*
D03*
X125700Y172000D02*
D03*
X72900Y8400D02*
D03*
X37200Y223000D02*
D03*
X40600Y40200D02*
D03*
X59300Y51700D02*
D03*
D91*
X294300Y153100D02*
D03*
X280200Y155500D02*
D03*
X258800Y110200D02*
D03*
X261000Y108100D02*
D03*
X67900Y88400D02*
D03*
X464600Y62700D02*
D03*
X432600Y14900D02*
D03*
X18500Y241300D02*
D03*
X54400Y158100D02*
D03*
X107700Y165300D02*
D03*
X273600Y47000D02*
D03*
X119100Y52100D02*
D03*
X112700Y59500D02*
D03*
X150200Y60100D02*
D03*
X74400Y59500D02*
D03*
X156500Y52200D02*
D03*
X80700Y52100D02*
D03*
X171400Y64100D02*
D03*
X60900Y8700D02*
D03*
X51400D02*
D03*
X90300Y8900D02*
D03*
X128300Y9000D02*
D03*
X166300Y9100D02*
D03*
X204300Y8900D02*
D03*
X236100Y147600D02*
D03*
X240300D02*
D03*
X244500D02*
D03*
X238200Y144400D02*
D03*
X242400D02*
D03*
X228900Y144500D02*
D03*
X224700Y144600D02*
D03*
X226800Y147600D02*
D03*
X222600Y147200D02*
D03*
X218500D02*
D03*
X214100Y147700D02*
D03*
X212000Y144600D02*
D03*
X216200D02*
D03*
X233900Y144400D02*
D03*
X246600D02*
D03*
X244500Y133300D02*
D03*
X248800D02*
D03*
X251100Y131000D02*
D03*
X230000Y157500D02*
D03*
X231000Y147700D02*
D03*
X221600Y160000D02*
D03*
X218300Y142000D02*
D03*
X217600Y160000D02*
D03*
X223600Y161900D02*
D03*
X209900Y147600D02*
D03*
X23600Y186500D02*
D03*
X462200Y77500D02*
D03*
X483900Y135300D02*
D03*
X287400Y182100D02*
D03*
X62100Y177500D02*
D03*
X86700Y187900D02*
D03*
X101500Y179100D02*
D03*
X102000Y182800D02*
D03*
X89600Y176800D02*
D03*
X118100Y207800D02*
D03*
X289700Y70500D02*
D03*
X291400Y66100D02*
D03*
X310300Y118100D02*
D03*
X299200Y147900D02*
D03*
X325000Y148000D02*
D03*
X313400Y150100D02*
D03*
X319700Y152200D02*
D03*
X316700Y156000D02*
D03*
X74400Y71600D02*
D03*
Y75500D02*
D03*
X104100Y124000D02*
D03*
X107900Y128100D02*
D03*
X194500Y204900D02*
D03*
X118104Y112100D02*
D03*
X116900Y114900D02*
D03*
X116800Y118900D02*
D03*
Y122300D02*
D03*
X226600Y182100D02*
D03*
X27500Y205700D02*
D03*
X456300Y134500D02*
D03*
X450700Y137300D02*
D03*
X444800Y139900D02*
D03*
X451300Y132500D02*
D03*
X453700Y127800D02*
D03*
X376700Y37500D02*
D03*
X356000Y55100D02*
D03*
X353000Y55000D02*
D03*
X270800Y168400D02*
D03*
X278000Y172600D02*
D03*
X280500Y170500D02*
D03*
X308700Y73800D02*
D03*
X283800Y70600D02*
D03*
X384200Y43600D02*
D03*
X299400Y108400D02*
D03*
X301600Y113700D02*
D03*
X307800Y104200D02*
D03*
X296900Y131600D02*
D03*
X305200Y110700D02*
D03*
X343600Y111100D02*
D03*
X345700Y109000D02*
D03*
X347600Y106900D02*
D03*
X348700Y103900D02*
D03*
X351100Y101600D02*
D03*
X413600Y150200D02*
D03*
X401300Y139200D02*
D03*
X314900Y184300D02*
D03*
X312400Y182100D02*
D03*
X384800Y145200D02*
D03*
X278300Y122400D02*
D03*
X275300Y123200D02*
D03*
X279300Y118400D02*
D03*
X281000Y115500D02*
D03*
X265400Y86200D02*
D03*
X280500Y112200D02*
D03*
X280600Y109000D02*
D03*
X284300Y145300D02*
D03*
X61900Y187800D02*
D03*
X345000Y22700D02*
D03*
X213800Y236000D02*
D03*
X219600Y193600D02*
D03*
X210600Y246800D02*
D03*
X334000Y140900D02*
D03*
X328000Y144600D02*
D03*
X304300Y154700D02*
D03*
X55800Y177400D02*
D03*
X52400Y177600D02*
D03*
X35200Y201400D02*
D03*
X123600Y233500D02*
D03*
X118200Y237100D02*
D03*
X116400Y260800D02*
D03*
X123600Y243300D02*
D03*
X204600Y73600D02*
D03*
X189900Y66500D02*
D03*
Y62300D02*
D03*
X189800Y58100D02*
D03*
X65800Y168400D02*
D03*
X54400Y150300D02*
D03*
Y161500D02*
D03*
X30900Y243500D02*
D03*
X309400Y180100D02*
D03*
X339800Y173600D02*
D03*
X342100Y171700D02*
D03*
X347700Y169800D02*
D03*
X344400Y166100D02*
D03*
X349800Y167600D02*
D03*
X323900Y166400D02*
D03*
X440200Y130300D02*
D03*
X204200Y58500D02*
D03*
X287300Y66100D02*
D03*
X338700Y48300D02*
D03*
X363700Y149200D02*
D03*
X272500Y97700D02*
D03*
Y94800D02*
D03*
X270200Y66600D02*
D03*
X280300Y68200D02*
D03*
X313000Y50300D02*
D03*
X308900D02*
D03*
X203900Y65500D02*
D03*
X213200Y8900D02*
D03*
X137000Y9000D02*
D03*
X98800Y8900D02*
D03*
X174600Y9100D02*
D03*
X32300Y155400D02*
D03*
X121500Y165000D02*
D03*
Y169500D02*
D03*
X170100Y173100D02*
D03*
X107700Y169200D02*
D03*
X21000Y186500D02*
D03*
X35800Y183900D02*
D03*
X33300D02*
D03*
X43200Y150400D02*
D03*
Y156000D02*
D03*
Y161600D02*
D03*
X78900Y177800D02*
D03*
X34200Y219700D02*
D03*
X76500Y204400D02*
D03*
X9800Y216500D02*
D03*
X9700Y228800D02*
D03*
X113000Y217100D02*
D03*
X315596Y255256D02*
D03*
X21896Y66600D02*
D03*
X82800Y128900D02*
D03*
X104900Y128100D02*
D03*
X131298Y137436D02*
D03*
X121900Y112100D02*
D03*
X102400Y149100D02*
D03*
X114200Y241200D02*
D03*
X112600Y244500D02*
D03*
X33900Y58000D02*
D03*
X52600Y220800D02*
D03*
X67700Y265200D02*
D03*
X70200Y249900D02*
D03*
X88200Y219700D02*
D03*
X121100Y221200D02*
D03*
X24800Y240800D02*
D03*
X36529Y65667D02*
D03*
X284700Y24700D02*
D03*
X317500Y235500D02*
D03*
X121500Y177000D02*
D03*
Y180500D02*
D03*
X370600Y116700D02*
D03*
X368400Y115000D02*
D03*
X366200Y113000D02*
D03*
X363500Y112700D02*
D03*
X362600Y125600D02*
D03*
X366800Y130500D02*
D03*
X409800Y130300D02*
D03*
X371400Y131900D02*
D03*
X373200Y118800D02*
D03*
X314400Y79400D02*
D03*
X303700Y86900D02*
D03*
X330700Y77100D02*
D03*
X322200Y78700D02*
D03*
X207200Y96200D02*
D03*
X305600Y88900D02*
D03*
X343100Y86800D02*
D03*
X314900Y59400D02*
D03*
X311000D02*
D03*
X316900Y88700D02*
D03*
X326500Y79000D02*
D03*
X328600Y73500D02*
D03*
X332900D02*
D03*
X335600D02*
D03*
X352600Y119000D02*
D03*
X302000Y122500D02*
D03*
X298900Y129100D02*
D03*
X319700Y108700D02*
D03*
X307200Y99600D02*
D03*
X363000Y139400D02*
D03*
X376200Y148100D02*
D03*
X376400Y145200D02*
D03*
X368400Y150100D02*
D03*
X354400Y165400D02*
D03*
X194500Y258900D02*
D03*
X301900Y178000D02*
D03*
X319200Y176000D02*
D03*
X329900Y174000D02*
D03*
X327400Y171900D02*
D03*
X309500Y166000D02*
D03*
X325000Y169800D02*
D03*
X222000Y202800D02*
D03*
X349700Y138800D02*
D03*
X348900Y129000D02*
D03*
X75900Y274000D02*
D03*
X116800Y125600D02*
D03*
X88600Y276700D02*
D03*
X92500Y253700D02*
D03*
X86300Y264200D02*
D03*
X44400Y194400D02*
D03*
X70900Y182200D02*
D03*
X50800Y187500D02*
D03*
X281100Y46800D02*
D03*
X90300Y154700D02*
D03*
X88600Y159700D02*
D03*
X395600Y148100D02*
D03*
X393500Y137400D02*
D03*
X382700Y93400D02*
D03*
X373000Y126300D02*
D03*
X375000Y131900D02*
D03*
X376200Y137400D02*
D03*
X374000Y143700D02*
D03*
X387100Y142800D02*
D03*
X60200Y223100D02*
D03*
X57500Y228900D02*
D03*
X62700D02*
D03*
X24000Y68500D02*
D03*
X33629Y64167D02*
D03*
X324400Y73600D02*
D03*
X317300Y73700D02*
D03*
X320100Y74100D02*
D03*
X104900Y131600D02*
D03*
X263400Y114900D02*
D03*
X241900Y116000D02*
D03*
X243900Y118200D02*
D03*
X248100Y94800D02*
D03*
X254400Y80200D02*
D03*
X250200Y108300D02*
D03*
X246000Y120400D02*
D03*
X251100Y144600D02*
D03*
X253900Y166400D02*
D03*
X280300Y166300D02*
D03*
X217500Y190700D02*
D03*
X199400Y158000D02*
D03*
X325300Y140200D02*
D03*
X318500Y132800D02*
D03*
X316200Y129900D02*
D03*
X301300Y126300D02*
D03*
X314000Y121600D02*
D03*
X346800Y121100D02*
D03*
X282200Y126900D02*
D03*
X280100Y129000D02*
D03*
X280200Y134200D02*
D03*
X276500Y133200D02*
D03*
X284100Y141100D02*
D03*
X278800Y138900D02*
D03*
X252300Y111100D02*
D03*
X233900Y131000D02*
D03*
X236100Y133200D02*
D03*
X238200Y131000D02*
D03*
X253300Y147700D02*
D03*
X248800Y147600D02*
D03*
X240200Y133300D02*
D03*
X242400Y131000D02*
D03*
X246500D02*
D03*
X253200Y133300D02*
D03*
X255500Y131000D02*
D03*
X258100Y133400D02*
D03*
X260200Y131000D02*
D03*
X262300Y133500D02*
D03*
X264300Y131100D02*
D03*
X88200Y68100D02*
D03*
Y47000D02*
D03*
X264300Y144400D02*
D03*
X262200Y147600D02*
D03*
X258100Y147700D02*
D03*
X255500Y144600D02*
D03*
X260100Y144400D02*
D03*
X353200Y142100D02*
D03*
X331800Y127900D02*
D03*
X30400Y252500D02*
D03*
X186600Y189500D02*
D03*
X194600Y179000D02*
D03*
X206200Y175700D02*
D03*
X239900Y232200D02*
D03*
X240000Y222000D02*
D03*
X240700Y209600D02*
D03*
X229600Y235200D02*
D03*
X88900Y243100D02*
D03*
X83200Y248800D02*
D03*
X87900Y248700D02*
D03*
X92700Y246600D02*
D03*
X99700Y242200D02*
D03*
X100600Y224900D02*
D03*
X111700Y234900D02*
D03*
X101200Y235600D02*
D03*
X84800Y242900D02*
D03*
X374400Y90200D02*
D03*
X362700Y90300D02*
D03*
X363300Y93300D02*
D03*
X369600Y167600D02*
D03*
X373700Y169700D02*
D03*
X381200Y165500D02*
D03*
X376900Y171800D02*
D03*
X375900Y180100D02*
D03*
X378000Y182100D02*
D03*
X389300Y173900D02*
D03*
X380100Y185800D02*
D03*
X391000Y178100D02*
D03*
X396100Y176100D02*
D03*
X336300Y143000D02*
D03*
X97800Y192400D02*
D03*
X173700Y169800D02*
D03*
X278000Y185600D02*
D03*
X284500Y183000D02*
D03*
X281500Y182000D02*
D03*
X284000Y100400D02*
D03*
X284800Y129600D02*
D03*
X96400Y268700D02*
D03*
X324700Y232300D02*
D03*
X196300Y270300D02*
D03*
X108100Y272200D02*
D03*
X57300Y280700D02*
D03*
X389200Y99500D02*
D03*
X500800Y107300D02*
D03*
D92*
X82800Y132800D02*
D03*
X90661Y138350D02*
D03*
X86724Y128902D02*
D03*
X90661D02*
D03*
Y132839D02*
D03*
X86724D02*
D03*
Y138350D02*
D03*
X82787D02*
D03*
D93*
X98400Y127800D02*
D03*
X98791Y130870D02*
D03*
X94854Y126933D02*
D03*
Y130870D02*
D03*
X98700Y134900D02*
D03*
M02*
