G04 Layer_Color=128*
%FSLAX25Y25*%
%MOIN*%
G70*
G01*
G75*
%ADD10C,0.00700*%
G04:AMPARAMS|DCode=17|XSize=55.12mil|YSize=35.43mil|CornerRadius=8.86mil|HoleSize=0mil|Usage=FLASHONLY|Rotation=270.000|XOffset=0mil|YOffset=0mil|HoleType=Round|Shape=RoundedRectangle|*
%AMROUNDEDRECTD17*
21,1,0.05512,0.01772,0,0,270.0*
21,1,0.03740,0.03543,0,0,270.0*
1,1,0.01772,-0.00886,-0.01870*
1,1,0.01772,-0.00886,0.01870*
1,1,0.01772,0.00886,0.01870*
1,1,0.01772,0.00886,-0.01870*
%
%ADD17ROUNDEDRECTD17*%
G04:AMPARAMS|DCode=18|XSize=55.12mil|YSize=35.43mil|CornerRadius=8.86mil|HoleSize=0mil|Usage=FLASHONLY|Rotation=180.000|XOffset=0mil|YOffset=0mil|HoleType=Round|Shape=RoundedRectangle|*
%AMROUNDEDRECTD18*
21,1,0.05512,0.01772,0,0,180.0*
21,1,0.03740,0.03543,0,0,180.0*
1,1,0.01772,-0.01870,0.00886*
1,1,0.01772,0.01870,0.00886*
1,1,0.01772,0.01870,-0.00886*
1,1,0.01772,-0.01870,-0.00886*
%
%ADD18ROUNDEDRECTD18*%
G04:AMPARAMS|DCode=24|XSize=21.65mil|YSize=23.62mil|CornerRadius=5.41mil|HoleSize=0mil|Usage=FLASHONLY|Rotation=180.000|XOffset=0mil|YOffset=0mil|HoleType=Round|Shape=RoundedRectangle|*
%AMROUNDEDRECTD24*
21,1,0.02165,0.01279,0,0,180.0*
21,1,0.01083,0.02362,0,0,180.0*
1,1,0.01083,-0.00541,0.00640*
1,1,0.01083,0.00541,0.00640*
1,1,0.01083,0.00541,-0.00640*
1,1,0.01083,-0.00541,-0.00640*
%
%ADD24ROUNDEDRECTD24*%
G04:AMPARAMS|DCode=25|XSize=21.65mil|YSize=23.62mil|CornerRadius=5.41mil|HoleSize=0mil|Usage=FLASHONLY|Rotation=90.000|XOffset=0mil|YOffset=0mil|HoleType=Round|Shape=RoundedRectangle|*
%AMROUNDEDRECTD25*
21,1,0.02165,0.01279,0,0,90.0*
21,1,0.01083,0.02362,0,0,90.0*
1,1,0.01083,0.00640,0.00541*
1,1,0.01083,0.00640,-0.00541*
1,1,0.01083,-0.00640,-0.00541*
1,1,0.01083,-0.00640,0.00541*
%
%ADD25ROUNDEDRECTD25*%
G04:AMPARAMS|DCode=26|XSize=10.83mil|YSize=11.81mil|CornerRadius=2.71mil|HoleSize=0mil|Usage=FLASHONLY|Rotation=180.000|XOffset=0mil|YOffset=0mil|HoleType=Round|Shape=RoundedRectangle|*
%AMROUNDEDRECTD26*
21,1,0.01083,0.00640,0,0,180.0*
21,1,0.00541,0.01181,0,0,180.0*
1,1,0.00541,-0.00271,0.00320*
1,1,0.00541,0.00271,0.00320*
1,1,0.00541,0.00271,-0.00320*
1,1,0.00541,-0.00271,-0.00320*
%
%ADD26ROUNDEDRECTD26*%
G04:AMPARAMS|DCode=27|XSize=10.83mil|YSize=11.81mil|CornerRadius=2.71mil|HoleSize=0mil|Usage=FLASHONLY|Rotation=90.000|XOffset=0mil|YOffset=0mil|HoleType=Round|Shape=RoundedRectangle|*
%AMROUNDEDRECTD27*
21,1,0.01083,0.00640,0,0,90.0*
21,1,0.00541,0.01181,0,0,90.0*
1,1,0.00541,0.00320,0.00271*
1,1,0.00541,0.00320,-0.00271*
1,1,0.00541,-0.00320,-0.00271*
1,1,0.00541,-0.00320,0.00271*
%
%ADD27ROUNDEDRECTD27*%
G04:AMPARAMS|DCode=30|XSize=35.43mil|YSize=31.5mil|CornerRadius=7.87mil|HoleSize=0mil|Usage=FLASHONLY|Rotation=0.000|XOffset=0mil|YOffset=0mil|HoleType=Round|Shape=RoundedRectangle|*
%AMROUNDEDRECTD30*
21,1,0.03543,0.01575,0,0,0.0*
21,1,0.01968,0.03150,0,0,0.0*
1,1,0.01575,0.00984,-0.00787*
1,1,0.01575,-0.00984,-0.00787*
1,1,0.01575,-0.00984,0.00787*
1,1,0.01575,0.00984,0.00787*
%
%ADD30ROUNDEDRECTD30*%
%ADD33R,0.03937X0.10236*%
%ADD46C,0.00591*%
%ADD48C,0.01200*%
G04:AMPARAMS|DCode=99|XSize=35.43mil|YSize=31.5mil|CornerRadius=7.87mil|HoleSize=0mil|Usage=FLASHONLY|Rotation=270.000|XOffset=0mil|YOffset=0mil|HoleType=Round|Shape=RoundedRectangle|*
%AMROUNDEDRECTD99*
21,1,0.03543,0.01575,0,0,270.0*
21,1,0.01968,0.03150,0,0,270.0*
1,1,0.01575,-0.00787,-0.00984*
1,1,0.01575,-0.00787,0.00984*
1,1,0.01575,0.00787,0.00984*
1,1,0.01575,0.00787,-0.00984*
%
%ADD99ROUNDEDRECTD99*%
%ADD100R,0.04134X0.02559*%
%ADD101O,0.05709X0.01772*%
%ADD102R,0.02559X0.04134*%
%ADD103R,0.01378X0.00709*%
%ADD104R,0.01181X0.03701*%
%ADD105R,0.01378X0.02362*%
%ADD106R,0.09449X0.06102*%
%ADD107R,0.03740X0.01772*%
%ADD110R,0.01181X0.01575*%
%ADD111R,0.01575X0.01181*%
%ADD113R,0.04724X0.13386*%
%ADD114R,0.00709X0.01378*%
%ADD115R,0.03701X0.01181*%
%ADD116O,0.01772X0.05709*%
%ADD117R,0.02362X0.01654*%
%ADD118R,0.01654X0.02362*%
%ADD119R,0.05118X0.05905*%
%ADD120R,0.05905X0.05118*%
%ADD203R,0.10354X0.02756*%
%ADD204R,0.05512X0.13780*%
%ADD205R,0.10354X0.07874*%
D10*
X1152281Y-335451D02*
Y-335170D01*
X1152562Y-334607D01*
X1152843Y-334326D01*
X1153405Y-334045D01*
X1154530D01*
X1155092Y-334326D01*
X1155374Y-334607D01*
X1155655Y-335170D01*
Y-335732D01*
X1155374Y-336294D01*
X1154811Y-337138D01*
X1152000Y-339949D01*
X1155936D01*
X1157538Y-339387D02*
X1157257Y-339668D01*
X1157538Y-339949D01*
X1157820Y-339668D01*
X1157538Y-339387D01*
X1160800Y-334045D02*
X1159956Y-334326D01*
X1159394Y-335170D01*
X1159113Y-336575D01*
Y-337419D01*
X1159394Y-338825D01*
X1159956Y-339668D01*
X1160800Y-339949D01*
X1161362D01*
X1162206Y-339668D01*
X1162768Y-338825D01*
X1163049Y-337419D01*
Y-336575D01*
X1162768Y-335170D01*
X1162206Y-334326D01*
X1161362Y-334045D01*
X1160800D01*
X1152281Y-335451D02*
Y-335170D01*
X1152562Y-334607D01*
X1152843Y-334326D01*
X1153405Y-334045D01*
X1154530D01*
X1155092Y-334326D01*
X1155374Y-334607D01*
X1155655Y-335170D01*
Y-335732D01*
X1155374Y-336294D01*
X1154811Y-337138D01*
X1152000Y-339949D01*
X1155936D01*
X1157538Y-339387D02*
X1157257Y-339668D01*
X1157538Y-339949D01*
X1157820Y-339668D01*
X1157538Y-339387D01*
X1160800Y-334045D02*
X1159956Y-334326D01*
X1159394Y-335170D01*
X1159113Y-336575D01*
Y-337419D01*
X1159394Y-338825D01*
X1159956Y-339668D01*
X1160800Y-339949D01*
X1161362D01*
X1162206Y-339668D01*
X1162768Y-338825D01*
X1163049Y-337419D01*
Y-336575D01*
X1162768Y-335170D01*
X1162206Y-334326D01*
X1161362Y-334045D01*
X1160800D01*
D17*
X112040Y113800D02*
D03*
X104560D02*
D03*
X71840Y121100D02*
D03*
X64360D02*
D03*
X35760Y174000D02*
D03*
X43240D02*
D03*
X318456Y262556D02*
D03*
X325936D02*
D03*
X91060Y113800D02*
D03*
X98540D02*
D03*
X65660Y129300D02*
D03*
X73140D02*
D03*
X65760Y136900D02*
D03*
X73240D02*
D03*
X199420Y169600D02*
D03*
X206900D02*
D03*
X191900D02*
D03*
X199380D02*
D03*
X150340Y113600D02*
D03*
X142860D02*
D03*
X150280Y121400D02*
D03*
X142800D02*
D03*
D18*
X83900Y157080D02*
D03*
Y149600D02*
D03*
X60300Y216240D02*
D03*
Y208760D02*
D03*
X51800Y216140D02*
D03*
Y208660D02*
D03*
X229600Y227040D02*
D03*
Y219560D02*
D03*
X229700Y219640D02*
D03*
Y212160D02*
D03*
D24*
X96172Y8900D02*
D03*
X92628D02*
D03*
X77743Y250000D02*
D03*
X74200D02*
D03*
X103272Y222100D02*
D03*
X99728D02*
D03*
X18072Y160300D02*
D03*
X14528D02*
D03*
Y155700D02*
D03*
X18072D02*
D03*
X32800Y144400D02*
D03*
X36343D02*
D03*
X26357Y149600D02*
D03*
X29900D02*
D03*
X185643Y187200D02*
D03*
X182100D02*
D03*
X185643Y182700D02*
D03*
X182100D02*
D03*
X185643Y173700D02*
D03*
X182100D02*
D03*
X185643Y178200D02*
D03*
X182100D02*
D03*
X156843Y60100D02*
D03*
X153300D02*
D03*
X119572Y59600D02*
D03*
X116028D02*
D03*
X57200Y8700D02*
D03*
X53657D02*
D03*
X24924Y55000D02*
D03*
X28468D02*
D03*
X80943Y59500D02*
D03*
X77400D02*
D03*
X264457Y66600D02*
D03*
X268000D02*
D03*
X134172Y9000D02*
D03*
X130628D02*
D03*
X65800Y163400D02*
D03*
X69343D02*
D03*
X69372Y158700D02*
D03*
X65828D02*
D03*
X29800Y153600D02*
D03*
X26257D02*
D03*
X120543Y131500D02*
D03*
X117000D02*
D03*
X16200Y216400D02*
D03*
X12657D02*
D03*
X16100Y228800D02*
D03*
X12557D02*
D03*
X105528Y240100D02*
D03*
X109072D02*
D03*
X98772Y246600D02*
D03*
X95228D02*
D03*
X71143Y223000D02*
D03*
X67600D02*
D03*
X236328Y226900D02*
D03*
X239872D02*
D03*
X236500Y216700D02*
D03*
X240043D02*
D03*
X194672Y182700D02*
D03*
X191128D02*
D03*
X194700Y187200D02*
D03*
X191157D02*
D03*
X172072Y9100D02*
D03*
X168528D02*
D03*
X210072Y8900D02*
D03*
X206528D02*
D03*
D25*
X72300Y267472D02*
D03*
Y263928D02*
D03*
X22700Y172300D02*
D03*
Y168757D02*
D03*
X28500Y46900D02*
D03*
Y50443D02*
D03*
X59300Y49172D02*
D03*
Y45628D02*
D03*
X23800Y46900D02*
D03*
Y50443D02*
D03*
X59500Y63972D02*
D03*
Y60428D02*
D03*
X25300Y158028D02*
D03*
Y161572D02*
D03*
X29500Y169700D02*
D03*
Y166157D02*
D03*
X29800Y161572D02*
D03*
Y158028D02*
D03*
X65900Y153372D02*
D03*
Y149828D02*
D03*
X67600Y255928D02*
D03*
Y259472D02*
D03*
X72300Y259443D02*
D03*
Y255900D02*
D03*
X98800Y254943D02*
D03*
Y251400D02*
D03*
X442200Y11772D02*
D03*
Y8228D02*
D03*
X312496Y243356D02*
D03*
Y246899D02*
D03*
X90000Y149000D02*
D03*
Y152543D02*
D03*
X111700Y119728D02*
D03*
Y123272D02*
D03*
X18400Y265872D02*
D03*
Y262328D02*
D03*
X18500Y247100D02*
D03*
Y243557D02*
D03*
X18400Y235428D02*
D03*
Y238972D02*
D03*
X103600Y261000D02*
D03*
Y257457D02*
D03*
X89500Y257957D02*
D03*
Y261500D02*
D03*
X81700Y239428D02*
D03*
Y242972D02*
D03*
X432600Y8128D02*
D03*
Y11672D02*
D03*
X437400D02*
D03*
Y8128D02*
D03*
X57600Y226672D02*
D03*
Y223128D02*
D03*
X62800Y226643D02*
D03*
Y223100D02*
D03*
X81700Y232000D02*
D03*
Y228457D02*
D03*
D26*
X361000Y125600D02*
D03*
X358933D02*
D03*
X37567Y179800D02*
D03*
X39634D02*
D03*
X83300Y251100D02*
D03*
X81233D02*
D03*
X362134Y149200D02*
D03*
X360067D02*
D03*
X285966Y129600D02*
D03*
X288034D02*
D03*
X285767Y100400D02*
D03*
X287833D02*
D03*
X105438Y149000D02*
D03*
X107505D02*
D03*
X320766Y238500D02*
D03*
X322833D02*
D03*
X51400Y13600D02*
D03*
X53467D02*
D03*
X49495Y226600D02*
D03*
X51562D02*
D03*
D27*
X21800Y157966D02*
D03*
Y160034D02*
D03*
X101900Y242067D02*
D03*
Y240000D02*
D03*
X81100Y198134D02*
D03*
Y196066D02*
D03*
X323900Y164833D02*
D03*
Y162767D02*
D03*
X309500Y164367D02*
D03*
Y162300D02*
D03*
X316900Y90367D02*
D03*
Y92434D02*
D03*
X343100Y88566D02*
D03*
Y90633D02*
D03*
X344400Y164533D02*
D03*
Y162467D02*
D03*
X174700Y145633D02*
D03*
Y143567D02*
D03*
X170100Y168234D02*
D03*
Y166166D02*
D03*
X125700Y176233D02*
D03*
Y174167D02*
D03*
X100200Y151833D02*
D03*
Y149767D02*
D03*
X312500Y255234D02*
D03*
Y253167D02*
D03*
X502600Y163233D02*
D03*
Y161167D02*
D03*
X481000Y87500D02*
D03*
Y85433D02*
D03*
D30*
X159300Y142050D02*
D03*
Y148350D02*
D03*
X164600Y163050D02*
D03*
Y169350D02*
D03*
X131800Y170950D02*
D03*
Y177250D02*
D03*
X109100Y142650D02*
D03*
Y136350D02*
D03*
X114800Y142300D02*
D03*
Y148599D02*
D03*
X95100Y155699D02*
D03*
Y149400D02*
D03*
X110300Y258001D02*
D03*
Y264300D02*
D03*
X179200Y140450D02*
D03*
Y146750D02*
D03*
D33*
X335602Y272556D02*
D03*
X323791D02*
D03*
X317102D02*
D03*
X305291D02*
D03*
D46*
X1013504Y-334745D02*
Y-340649D01*
Y-334745D02*
X1016035D01*
X1016878Y-335026D01*
X1017159Y-335307D01*
X1017441Y-335869D01*
Y-336432D01*
X1017159Y-336994D01*
X1016878Y-337275D01*
X1016035Y-337556D01*
X1013504D02*
X1016035D01*
X1016878Y-337837D01*
X1017159Y-338119D01*
X1017441Y-338681D01*
Y-339524D01*
X1017159Y-340087D01*
X1016878Y-340368D01*
X1016035Y-340649D01*
X1013504D01*
X1020168Y-336713D02*
X1019606Y-336994D01*
X1019043Y-337556D01*
X1018762Y-338400D01*
Y-338962D01*
X1019043Y-339805D01*
X1019606Y-340368D01*
X1020168Y-340649D01*
X1021011D01*
X1021574Y-340368D01*
X1022136Y-339805D01*
X1022417Y-338962D01*
Y-338400D01*
X1022136Y-337556D01*
X1021574Y-336994D01*
X1021011Y-336713D01*
X1020168D01*
X1024554Y-334745D02*
Y-339524D01*
X1024835Y-340368D01*
X1025397Y-340649D01*
X1025960D01*
X1023710Y-336713D02*
X1025678D01*
X1027647Y-334745D02*
Y-339524D01*
X1027928Y-340368D01*
X1028490Y-340649D01*
X1029052D01*
X1026803Y-336713D02*
X1028771D01*
X1031301D02*
X1030739Y-336994D01*
X1030177Y-337556D01*
X1029896Y-338400D01*
Y-338962D01*
X1030177Y-339805D01*
X1030739Y-340368D01*
X1031301Y-340649D01*
X1032145D01*
X1032707Y-340368D01*
X1033270Y-339805D01*
X1033551Y-338962D01*
Y-338400D01*
X1033270Y-337556D01*
X1032707Y-336994D01*
X1032145Y-336713D01*
X1031301D01*
X1034844D02*
Y-340649D01*
Y-337837D02*
X1035688Y-336994D01*
X1036250Y-336713D01*
X1037093D01*
X1037656Y-336994D01*
X1037937Y-337837D01*
Y-340649D01*
Y-337837D02*
X1038780Y-336994D01*
X1039342Y-336713D01*
X1040186D01*
X1040748Y-336994D01*
X1041029Y-337837D01*
Y-340649D01*
X1047524Y-337837D02*
X1050054D01*
X1050898Y-337556D01*
X1051179Y-337275D01*
X1051460Y-336713D01*
Y-335869D01*
X1051179Y-335307D01*
X1050898Y-335026D01*
X1050054Y-334745D01*
X1047524D01*
Y-340649D01*
X1056156Y-336713D02*
Y-340649D01*
Y-337556D02*
X1055593Y-336994D01*
X1055031Y-336713D01*
X1054187D01*
X1053625Y-336994D01*
X1053063Y-337556D01*
X1052782Y-338400D01*
Y-338962D01*
X1053063Y-339805D01*
X1053625Y-340368D01*
X1054187Y-340649D01*
X1055031D01*
X1055593Y-340368D01*
X1056156Y-339805D01*
X1060823Y-337556D02*
X1060542Y-336994D01*
X1059698Y-336713D01*
X1058855D01*
X1058011Y-336994D01*
X1057730Y-337556D01*
X1058011Y-338119D01*
X1058574Y-338400D01*
X1059979Y-338681D01*
X1060542Y-338962D01*
X1060823Y-339524D01*
Y-339805D01*
X1060542Y-340368D01*
X1059698Y-340649D01*
X1058855D01*
X1058011Y-340368D01*
X1057730Y-339805D01*
X1062903Y-334745D02*
Y-339524D01*
X1063184Y-340368D01*
X1063747Y-340649D01*
X1064309D01*
X1062060Y-336713D02*
X1064028D01*
X1065152Y-338400D02*
X1068526D01*
Y-337837D01*
X1068245Y-337275D01*
X1067964Y-336994D01*
X1067402Y-336713D01*
X1066558D01*
X1065996Y-336994D01*
X1065434Y-337556D01*
X1065152Y-338400D01*
Y-338962D01*
X1065434Y-339805D01*
X1065996Y-340368D01*
X1066558Y-340649D01*
X1067402D01*
X1067964Y-340368D01*
X1068526Y-339805D01*
X1013504Y-334745D02*
Y-340649D01*
Y-334745D02*
X1016035D01*
X1016878Y-335026D01*
X1017159Y-335307D01*
X1017441Y-335869D01*
Y-336432D01*
X1017159Y-336994D01*
X1016878Y-337275D01*
X1016035Y-337556D01*
X1013504D02*
X1016035D01*
X1016878Y-337837D01*
X1017159Y-338119D01*
X1017441Y-338681D01*
Y-339524D01*
X1017159Y-340087D01*
X1016878Y-340368D01*
X1016035Y-340649D01*
X1013504D01*
X1020449Y-334745D02*
X1019887Y-335026D01*
X1019324Y-335588D01*
X1019043Y-336150D01*
X1018762Y-336994D01*
Y-338400D01*
X1019043Y-339243D01*
X1019324Y-339805D01*
X1019887Y-340368D01*
X1020449Y-340649D01*
X1021574D01*
X1022136Y-340368D01*
X1022698Y-339805D01*
X1022979Y-339243D01*
X1023260Y-338400D01*
Y-336994D01*
X1022979Y-336150D01*
X1022698Y-335588D01*
X1022136Y-335026D01*
X1021574Y-334745D01*
X1020449D01*
X1029137Y-340649D02*
X1026887Y-334745D01*
X1024638Y-340649D01*
X1025482Y-338681D02*
X1028293D01*
X1030514Y-334745D02*
Y-340649D01*
Y-334745D02*
X1033045D01*
X1033888Y-335026D01*
X1034169Y-335307D01*
X1034450Y-335869D01*
Y-336432D01*
X1034169Y-336994D01*
X1033888Y-337275D01*
X1033045Y-337556D01*
X1030514D01*
X1032482D02*
X1034450Y-340649D01*
X1035772Y-334745D02*
Y-340649D01*
Y-334745D02*
X1037740D01*
X1038583Y-335026D01*
X1039146Y-335588D01*
X1039427Y-336150D01*
X1039708Y-336994D01*
Y-338400D01*
X1039427Y-339243D01*
X1039146Y-339805D01*
X1038583Y-340368D01*
X1037740Y-340649D01*
X1035772D01*
X1047637Y-333620D02*
X1047074Y-334182D01*
X1046512Y-335026D01*
X1045950Y-336150D01*
X1045669Y-337556D01*
Y-338681D01*
X1045950Y-340087D01*
X1046512Y-341211D01*
X1047074Y-342055D01*
X1047637Y-342617D01*
X1047074Y-334182D02*
X1046512Y-335307D01*
X1046231Y-336150D01*
X1045950Y-337556D01*
Y-338681D01*
X1046231Y-340087D01*
X1046512Y-340930D01*
X1047074Y-342055D01*
X1048761Y-334745D02*
Y-340649D01*
Y-334745D02*
X1051010Y-340649D01*
X1053260Y-334745D02*
X1051010Y-340649D01*
X1053260Y-334745D02*
Y-340649D01*
X1055228Y-336150D02*
Y-335869D01*
X1055509Y-335307D01*
X1055790Y-335026D01*
X1056352Y-334745D01*
X1057477D01*
X1058039Y-335026D01*
X1058320Y-335307D01*
X1058602Y-335869D01*
Y-336432D01*
X1058320Y-336994D01*
X1057758Y-337837D01*
X1054947Y-340649D01*
X1058883D01*
X1060204Y-333620D02*
X1060767Y-334182D01*
X1061329Y-335026D01*
X1061891Y-336150D01*
X1062172Y-337556D01*
Y-338681D01*
X1061891Y-340087D01*
X1061329Y-341211D01*
X1060767Y-342055D01*
X1060204Y-342617D01*
X1060767Y-334182D02*
X1061329Y-335307D01*
X1061610Y-336150D01*
X1061891Y-337556D01*
Y-338681D01*
X1061610Y-340087D01*
X1061329Y-340930D01*
X1060767Y-342055D01*
D48*
X531500Y0D02*
Y300000D01*
X0D02*
X531500D01*
X0Y0D02*
Y300000D01*
Y0D02*
X531500D01*
D99*
X57700Y17900D02*
D03*
X51401D02*
D03*
X140550Y155300D02*
D03*
X146850D02*
D03*
X77750Y269400D02*
D03*
X84050D02*
D03*
X179750Y57900D02*
D03*
X186050D02*
D03*
X179750Y63900D02*
D03*
X186050D02*
D03*
X179750Y70000D02*
D03*
X186050D02*
D03*
X140250Y171500D02*
D03*
X146550D02*
D03*
X114750Y136700D02*
D03*
X121050D02*
D03*
X82750Y223000D02*
D03*
X76450D02*
D03*
X94550D02*
D03*
X88250D02*
D03*
D100*
X74855Y233560D02*
D03*
Y241040D02*
D03*
X65800Y237300D02*
D03*
X53200Y56700D02*
D03*
Y64180D02*
D03*
X44145Y60440D02*
D03*
X96400Y208300D02*
D03*
Y215780D02*
D03*
X87345Y212040D02*
D03*
X69445Y215340D02*
D03*
Y207860D02*
D03*
X78500Y211600D02*
D03*
D101*
X59100Y165654D02*
D03*
Y163095D02*
D03*
Y160536D02*
D03*
Y157977D02*
D03*
Y155418D02*
D03*
Y152859D02*
D03*
Y150300D02*
D03*
X35872Y165654D02*
D03*
Y163095D02*
D03*
Y160536D02*
D03*
Y157977D02*
D03*
Y155418D02*
D03*
Y152859D02*
D03*
Y150300D02*
D03*
D102*
X73180Y113500D02*
D03*
X65700D02*
D03*
X69440Y104445D02*
D03*
X44960Y40345D02*
D03*
X52440D02*
D03*
X48700Y49400D02*
D03*
X96340Y239555D02*
D03*
X88860D02*
D03*
X92600Y230500D02*
D03*
D103*
X169900Y147050D02*
D03*
Y145475D02*
D03*
Y143900D02*
D03*
X165766D02*
D03*
Y145475D02*
D03*
Y147050D02*
D03*
D104*
X167833Y145475D02*
D03*
D105*
X325873Y243051D02*
D03*
X323314D02*
D03*
X320755D02*
D03*
X318196D02*
D03*
X318196Y255256D02*
D03*
X320755D02*
D03*
X323314D02*
D03*
X325873D02*
D03*
D106*
X322035Y249153D02*
D03*
D107*
X85539Y198141D02*
D03*
X94200Y200700D02*
D03*
Y198141D02*
D03*
Y195582D02*
D03*
X85539D02*
D03*
Y200700D02*
D03*
D110*
X99676Y123291D02*
D03*
X97117D02*
D03*
X94558D02*
D03*
X91999D02*
D03*
X89440D02*
D03*
X86881D02*
D03*
X84322D02*
D03*
X81763D02*
D03*
Y142386D02*
D03*
X84322D02*
D03*
X86881D02*
D03*
X89440D02*
D03*
X91999D02*
D03*
X94558D02*
D03*
X97117D02*
D03*
X99676D02*
D03*
D111*
X79204Y126441D02*
D03*
Y129000D02*
D03*
Y131559D02*
D03*
Y134118D02*
D03*
Y136677D02*
D03*
Y139236D02*
D03*
X102235D02*
D03*
Y136677D02*
D03*
Y134118D02*
D03*
Y131559D02*
D03*
Y129000D02*
D03*
Y126441D02*
D03*
D113*
X129928Y120000D02*
D03*
X120480D02*
D03*
D114*
X153525Y160667D02*
D03*
X155100D02*
D03*
X156675D02*
D03*
Y156533D02*
D03*
X155100D02*
D03*
X153525D02*
D03*
D115*
X155100Y158600D02*
D03*
D116*
X48900Y258428D02*
D03*
X51459D02*
D03*
X54018D02*
D03*
X56577D02*
D03*
X48900Y235200D02*
D03*
X51459D02*
D03*
X54018D02*
D03*
X56577D02*
D03*
D117*
X110980Y248859D02*
D03*
Y251418D02*
D03*
X103500D02*
D03*
Y248859D02*
D03*
Y246300D02*
D03*
X110980D02*
D03*
D118*
X80700Y263440D02*
D03*
X78141D02*
D03*
Y255960D02*
D03*
X80700D02*
D03*
X83259D02*
D03*
Y263440D02*
D03*
D119*
X129600Y141801D02*
D03*
Y154399D02*
D03*
D120*
X56602Y73900D02*
D03*
X69200D02*
D03*
X103102Y167700D02*
D03*
X115700D02*
D03*
D203*
X86724Y138350D02*
D03*
D204*
X96822Y132839D02*
D03*
D205*
X86724Y130870D02*
D03*
M02*
